G04 #@! TF.GenerationSoftware,KiCad,Pcbnew,5.1.7+dfsg1-1*
G04 #@! TF.CreationDate,2021-01-11T18:10:15+02:00*
G04 #@! TF.ProjectId,ossc_board,6f737363-5f62-46f6-9172-642e6b696361,rev?*
G04 #@! TF.SameCoordinates,Original*
G04 #@! TF.FileFunction,Soldermask,Top*
G04 #@! TF.FilePolarity,Negative*
%FSLAX46Y46*%
G04 Gerber Fmt 4.6, Leading zero omitted, Abs format (unit mm)*
G04 Created by KiCad (PCBNEW 5.1.7+dfsg1-1) date 2021-01-11 18:10:15*
%MOMM*%
%LPD*%
G01*
G04 APERTURE LIST*
%ADD10C,1.500000*%
%ADD11C,1.200000*%
%ADD12R,1.900000X0.800000*%
%ADD13R,0.797560X0.797560*%
%ADD14R,0.300000X1.200000*%
%ADD15R,0.700000X1.900000*%
%ADD16R,1.400000X1.900000*%
%ADD17C,1.506220*%
%ADD18C,4.064000*%
%ADD19R,1.560000X0.650000*%
%ADD20C,1.600000*%
%ADD21C,4.500000*%
%ADD22R,1.200000X2.400000*%
%ADD23R,3.300000X2.400000*%
%ADD24R,0.400000X2.000000*%
%ADD25R,0.300000X1.600000*%
%ADD26R,1.600000X0.300000*%
%ADD27C,2.200000*%
%ADD28C,2.000000*%
%ADD29C,1.700000*%
%ADD30C,2.300000*%
%ADD31C,4.200000*%
%ADD32C,4.000000*%
%ADD33O,2.500000X2.500000*%
%ADD34R,4.000000X4.000000*%
%ADD35R,1.397000X0.889000*%
%ADD36R,1.143000X0.635000*%
%ADD37R,0.635000X1.143000*%
%ADD38R,1.700000X3.500000*%
%ADD39R,3.300000X3.300000*%
%ADD40C,3.300000*%
%ADD41R,2.500000X4.000000*%
%ADD42R,6.700000X6.700000*%
%ADD43C,0.690000*%
%ADD44R,6.200000X6.200000*%
%ADD45C,2.700000*%
%ADD46R,2.200000X0.300000*%
%ADD47R,1.600000X0.400000*%
%ADD48R,0.700000X0.200000*%
%ADD49C,0.900000*%
G04 APERTURE END LIST*
D10*
X33804500Y-43509300D03*
X33804500Y-35889300D03*
X26184500Y-35889300D03*
X26184500Y-43509300D03*
D11*
X127000000Y-67790000D03*
X127000000Y-65250000D03*
X116840000Y-67790000D03*
X119380000Y-67790000D03*
X121920000Y-67790000D03*
X116840000Y-65250000D03*
X119380000Y-65250000D03*
X121920000Y-65250000D03*
D12*
X55693000Y-25329000D03*
X52693000Y-26279000D03*
X52693000Y-24379000D03*
D13*
X17179000Y-20294300D03*
X17179000Y-18795700D03*
X15549000Y-20294300D03*
X15549000Y-18795700D03*
D14*
X107122000Y-72230000D03*
X107622000Y-72230000D03*
X108122000Y-72230000D03*
X108622000Y-72230000D03*
X109122000Y-72230000D03*
X109622000Y-72230000D03*
X110122000Y-72230000D03*
X110622000Y-72230000D03*
X111122000Y-72230000D03*
X111622000Y-72230000D03*
X112122000Y-72230000D03*
X112622000Y-72230000D03*
X113122000Y-72230000D03*
X113622000Y-72230000D03*
X114122000Y-72230000D03*
X114122000Y-66230000D03*
X113622000Y-66230000D03*
X113122000Y-66230000D03*
X112622000Y-66230000D03*
X112122000Y-66230000D03*
X111622000Y-66230000D03*
X111122000Y-66230000D03*
X110622000Y-66230000D03*
X110122000Y-66230000D03*
X109622000Y-66230000D03*
X109122000Y-66230000D03*
X108622000Y-66230000D03*
X108122000Y-66230000D03*
X107622000Y-66230000D03*
X107122000Y-66230000D03*
D15*
X74964100Y-21860500D03*
X73264100Y-21860500D03*
X71564100Y-21860500D03*
D16*
X74944100Y-18510500D03*
D17*
X93480000Y-20320000D03*
X93480000Y-22860000D03*
X90940000Y-20320000D03*
X90940000Y-22860000D03*
X88400000Y-20320000D03*
X88400000Y-22860000D03*
X85860000Y-20320000D03*
X85860000Y-22860000D03*
X83320000Y-20320000D03*
X83320000Y-22860000D03*
D18*
X11130000Y-20600000D03*
X11130000Y-82200000D03*
X128300000Y-82200000D03*
X128300000Y-20600000D03*
D19*
X29143300Y-49287800D03*
X25843300Y-48337800D03*
X25843300Y-49287800D03*
X25843300Y-50237800D03*
X29143300Y-50237800D03*
X29143300Y-48337800D03*
D20*
X17155500Y-59295400D03*
X17155500Y-57005400D03*
X17155500Y-54715400D03*
X19695500Y-62735400D03*
X19695500Y-60445400D03*
X19695500Y-58155400D03*
X19695500Y-55865400D03*
X19695500Y-53575400D03*
X17155500Y-63875400D03*
X17155500Y-61585400D03*
X14615500Y-62735400D03*
X14615500Y-60445400D03*
X14615500Y-58155400D03*
X14615500Y-55865400D03*
X14615500Y-53575400D03*
D21*
X17155500Y-70915400D03*
X17155500Y-45915400D03*
D22*
X31577000Y-31256000D03*
X29277000Y-31256000D03*
X33877000Y-31256000D03*
D23*
X31577000Y-24056000D03*
D24*
X43963000Y-70544000D03*
X44613000Y-70544000D03*
X45263000Y-70544000D03*
X45913000Y-70544000D03*
X46563000Y-70544000D03*
X47213000Y-70544000D03*
X47863000Y-70544000D03*
X48513000Y-70544000D03*
X49163000Y-70544000D03*
X49813000Y-70544000D03*
X49813000Y-64104000D03*
X49163000Y-64104000D03*
X48513000Y-64104000D03*
X47863000Y-64104000D03*
X47213000Y-64104000D03*
X46563000Y-64104000D03*
X45913000Y-64104000D03*
X45263000Y-64104000D03*
X44613000Y-64104000D03*
X43963000Y-64104000D03*
D25*
X101300000Y-55700000D03*
X101800000Y-55700000D03*
X102300000Y-55700000D03*
X102800000Y-55700000D03*
X103300000Y-55700000D03*
X103800000Y-55700000D03*
X104300000Y-55700000D03*
X104800000Y-55700000D03*
X105300000Y-55700000D03*
X105800000Y-55700000D03*
X106300000Y-55700000D03*
X106800000Y-55700000D03*
X107300000Y-55700000D03*
X107800000Y-55700000D03*
X108300000Y-55700000D03*
X108800000Y-55700000D03*
X109300000Y-55700000D03*
X109800000Y-55700000D03*
X110300000Y-55700000D03*
X110800000Y-55700000D03*
X111300000Y-55700000D03*
X111800000Y-55700000D03*
X112300000Y-55700000D03*
X112800000Y-55700000D03*
X113300000Y-55700000D03*
D26*
X115100000Y-53900000D03*
X115100000Y-53400000D03*
X115100000Y-52900000D03*
X115100000Y-52400000D03*
X115100000Y-51900000D03*
X115100000Y-51400000D03*
X115100000Y-50900000D03*
X115100000Y-50400000D03*
X115100000Y-49900000D03*
X115100000Y-49400000D03*
X115100000Y-48900000D03*
X115100000Y-48400000D03*
X115100000Y-47900000D03*
X115100000Y-47400000D03*
X115100000Y-46900000D03*
X115100000Y-46400000D03*
X115100000Y-45900000D03*
X115100000Y-45400000D03*
X115100000Y-44900000D03*
X115100000Y-44400000D03*
X115100000Y-43900000D03*
X115100000Y-43400000D03*
X115100000Y-42900000D03*
X115100000Y-42400000D03*
X115100000Y-41900000D03*
D25*
X113300000Y-40100000D03*
X112800000Y-40100000D03*
X112300000Y-40100000D03*
X111800000Y-40100000D03*
X111300000Y-40100000D03*
X110800000Y-40100000D03*
X110300000Y-40100000D03*
X109800000Y-40100000D03*
X109300000Y-40100000D03*
X108800000Y-40100000D03*
X108300000Y-40100000D03*
X107800000Y-40100000D03*
X107300000Y-40100000D03*
X106800000Y-40100000D03*
X106300000Y-40100000D03*
X105800000Y-40100000D03*
X105300000Y-40100000D03*
X104800000Y-40100000D03*
X104300000Y-40100000D03*
X103800000Y-40100000D03*
X103300000Y-40100000D03*
X102800000Y-40100000D03*
X102300000Y-40100000D03*
X101800000Y-40100000D03*
X101300000Y-40100000D03*
D26*
X99500000Y-41900000D03*
X99500000Y-42400000D03*
X99500000Y-42900000D03*
X99500000Y-43400000D03*
X99500000Y-43900000D03*
X99500000Y-44400000D03*
X99500000Y-44900000D03*
X99500000Y-45400000D03*
X99500000Y-45900000D03*
X99500000Y-46400000D03*
X99500000Y-46900000D03*
X99500000Y-47400000D03*
X99500000Y-47900000D03*
X99500000Y-48400000D03*
X99500000Y-48900000D03*
X99500000Y-49400000D03*
X99500000Y-49900000D03*
X99500000Y-50400000D03*
X99500000Y-50900000D03*
X99500000Y-51400000D03*
X99500000Y-51900000D03*
X99500000Y-52400000D03*
X99500000Y-52900000D03*
X99500000Y-53400000D03*
X99500000Y-53900000D03*
D27*
X112754600Y-81821200D03*
X110849600Y-76741200D03*
X108944600Y-81821200D03*
X107039600Y-76741200D03*
X105134600Y-81821200D03*
X103229600Y-76741200D03*
X101324600Y-81821200D03*
X99419600Y-76741200D03*
X97514600Y-81821200D03*
X95609600Y-76741200D03*
X93704600Y-81821200D03*
X91799600Y-76741200D03*
X78464600Y-81821200D03*
X87989600Y-76741200D03*
X89894600Y-81821200D03*
X84179600Y-76741200D03*
X86084600Y-81821200D03*
X80369600Y-76741200D03*
X82274600Y-81821200D03*
X76559600Y-76741200D03*
X114659600Y-76741200D03*
D28*
X103631000Y-18450000D03*
X108631000Y-18450000D03*
X103631000Y-30950000D03*
X108631000Y-30950000D03*
D29*
X110631000Y-24700000D03*
X101631000Y-24700000D03*
D28*
X116418000Y-18450000D03*
X121418000Y-18450000D03*
X116418000Y-30950000D03*
X121418000Y-30950000D03*
D29*
X123418000Y-24700000D03*
X114418000Y-24700000D03*
D28*
X51696000Y-77576200D03*
X36696000Y-77576200D03*
D30*
X33662620Y-84920720D03*
X54729380Y-84920720D03*
D31*
X55446000Y-77276200D03*
X62946000Y-77276200D03*
X25446000Y-77276200D03*
X32946000Y-77276200D03*
D32*
X29196000Y-81776200D03*
X44196000Y-81776200D03*
X59196000Y-81776200D03*
D33*
X63996000Y-81776200D03*
X24396000Y-81776200D03*
D31*
X47946000Y-77276200D03*
X40446000Y-77276200D03*
D34*
X21202140Y-28649000D03*
X15202660Y-28649000D03*
X18202400Y-33348000D03*
D35*
X69494000Y-20408500D03*
X69494000Y-22313500D03*
X53538000Y-64107500D03*
X53538000Y-62202500D03*
D36*
X38262900Y-68477500D03*
X38262900Y-66953500D03*
D37*
X52410700Y-74078200D03*
X53934700Y-74078200D03*
D36*
X55280900Y-72008100D03*
X55280900Y-73532100D03*
X55001500Y-70128500D03*
X55001500Y-68604500D03*
X54997000Y-67547000D03*
X54997000Y-66023000D03*
X40104000Y-73777000D03*
X40104000Y-72253000D03*
D37*
X35301000Y-49779000D03*
X36825000Y-49779000D03*
X25397800Y-51764300D03*
X23873800Y-51764300D03*
D36*
X39370000Y-40894000D03*
X39370000Y-42418000D03*
X44931000Y-37368000D03*
X44931000Y-35844000D03*
X45616200Y-39013500D03*
X45616200Y-40537500D03*
D37*
X91463200Y-29666300D03*
X92987200Y-29666300D03*
D36*
X116693000Y-55199000D03*
X116693000Y-56723000D03*
X66609300Y-25399100D03*
X66609300Y-23875100D03*
X68222200Y-25411800D03*
X68222200Y-23887800D03*
X69835100Y-25411800D03*
X69835100Y-23887800D03*
X71448000Y-26288100D03*
X71448000Y-24764100D03*
X73086300Y-27520000D03*
X73086300Y-25996000D03*
D37*
X73467300Y-24548200D03*
X74991300Y-24548200D03*
X67866600Y-21551000D03*
X66342600Y-21551000D03*
D36*
X19159000Y-18929000D03*
X19159000Y-20453000D03*
X20709000Y-18925000D03*
X20709000Y-20449000D03*
X57912000Y-23754000D03*
X57912000Y-25278000D03*
D37*
X35138700Y-59536700D03*
X36662700Y-59536700D03*
D36*
X116690000Y-60902000D03*
X116690000Y-59378000D03*
X120690000Y-58262000D03*
X120690000Y-56738000D03*
X118930000Y-58262000D03*
X118930000Y-56738000D03*
D37*
X39634500Y-68172700D03*
X41158500Y-68172700D03*
X51280400Y-74066000D03*
X49756400Y-74066000D03*
X53604500Y-72224000D03*
X52080500Y-72224000D03*
X53579100Y-70357100D03*
X52055100Y-70357100D03*
X53579100Y-68058400D03*
X52055100Y-68058400D03*
D36*
X40358400Y-62267200D03*
X40358400Y-60743200D03*
D37*
X41539000Y-74066000D03*
X43063000Y-74066000D03*
D36*
X34872000Y-58177800D03*
X34872000Y-56653800D03*
D37*
X32078000Y-54317000D03*
X33602000Y-54317000D03*
X36039000Y-51283000D03*
X34515000Y-51283000D03*
X32766000Y-49779000D03*
X34290000Y-49779000D03*
X36824000Y-48265000D03*
X35300000Y-48265000D03*
D36*
X26705900Y-52018300D03*
X26705900Y-53542300D03*
X26645000Y-32075000D03*
X26645000Y-30551000D03*
X66000000Y-34762000D03*
X66000000Y-33238000D03*
D37*
X68762000Y-31800000D03*
X67238000Y-31800000D03*
X67362000Y-55900000D03*
X65838000Y-55900000D03*
D36*
X66520400Y-17868000D03*
X66520400Y-19392000D03*
D37*
X92974500Y-27888300D03*
X91450500Y-27888300D03*
X87259000Y-33498000D03*
X88783000Y-33498000D03*
D36*
X88500000Y-54538000D03*
X88500000Y-56062000D03*
X118040000Y-44248000D03*
X118040000Y-45772000D03*
X36405000Y-32080000D03*
X36405000Y-30556000D03*
X51763000Y-64252000D03*
X51763000Y-62728000D03*
X29144300Y-51713500D03*
X29144300Y-53237500D03*
X46225800Y-62013200D03*
X46225800Y-60489200D03*
X49985000Y-61987800D03*
X49985000Y-60463800D03*
X41958600Y-62267200D03*
X41958600Y-60743200D03*
X36827800Y-56628400D03*
X36827800Y-58152400D03*
D38*
X122806000Y-76830000D03*
X128306000Y-76830000D03*
X130706000Y-74830000D03*
D39*
X19666000Y-38298000D03*
D40*
X14966000Y-38298000D03*
X10266000Y-38298000D03*
D41*
X60676200Y-24406600D03*
X26076200Y-24406600D03*
D37*
X111648000Y-64350000D03*
X113172000Y-64350000D03*
X109797000Y-64359000D03*
X108273000Y-64359000D03*
D38*
X122798000Y-37676000D03*
X128298000Y-37676000D03*
X130698000Y-35676000D03*
D25*
X86050000Y-33900000D03*
X85550000Y-33900000D03*
X85050000Y-33900000D03*
X84550000Y-33900000D03*
X84050000Y-33900000D03*
X83550000Y-33900000D03*
X83050000Y-33900000D03*
X82550000Y-33900000D03*
X82050000Y-33900000D03*
X81550000Y-33900000D03*
X81050000Y-33900000D03*
X80550000Y-33900000D03*
X80050000Y-33900000D03*
X79550000Y-33900000D03*
X79050000Y-33900000D03*
X78550000Y-33900000D03*
X78050000Y-33900000D03*
X77550000Y-33900000D03*
X77050000Y-33900000D03*
X76550000Y-33900000D03*
X76050000Y-33900000D03*
X75550000Y-33900000D03*
X75050000Y-33900000D03*
X74550000Y-33900000D03*
X74050000Y-33900000D03*
X73550000Y-33900000D03*
X73050000Y-33900000D03*
X72550000Y-33900000D03*
X72050000Y-33900000D03*
X71550000Y-33900000D03*
X71050000Y-33900000D03*
X70550000Y-33900000D03*
X70050000Y-33900000D03*
X69550000Y-33900000D03*
X69050000Y-33900000D03*
X68550000Y-33900000D03*
D26*
X66500000Y-35950000D03*
X66500000Y-36450000D03*
X66500000Y-36950000D03*
X66500000Y-37450000D03*
X66500000Y-37950000D03*
X66500000Y-38450000D03*
X66500000Y-38950000D03*
X66500000Y-39450000D03*
X66500000Y-39950000D03*
X66500000Y-40450000D03*
X66500000Y-40950000D03*
X66500000Y-41450000D03*
X66500000Y-41950000D03*
X66500000Y-42450000D03*
X66500000Y-42950000D03*
X66500000Y-43450000D03*
X66500000Y-43950000D03*
X66500000Y-44450000D03*
X66500000Y-44950000D03*
X66500000Y-45450000D03*
X66500000Y-45950000D03*
X66500000Y-46450000D03*
X66500000Y-46950000D03*
X66500000Y-47450000D03*
X66500000Y-47950000D03*
X66500000Y-48450000D03*
X66500000Y-48950000D03*
X66500000Y-49450000D03*
X66500000Y-49950000D03*
X66500000Y-50450000D03*
X66500000Y-50950000D03*
X66500000Y-51450000D03*
X66500000Y-51950000D03*
X66500000Y-52450000D03*
X66500000Y-52950000D03*
X66500000Y-53450000D03*
D25*
X68550000Y-55500000D03*
X69050000Y-55500000D03*
X69550000Y-55500000D03*
X70050000Y-55500000D03*
X70550000Y-55500000D03*
X71050000Y-55500000D03*
X71550000Y-55500000D03*
X72050000Y-55500000D03*
X72550000Y-55500000D03*
X73050000Y-55500000D03*
X73550000Y-55500000D03*
X74050000Y-55500000D03*
X74550000Y-55500000D03*
X75050000Y-55500000D03*
X75550000Y-55500000D03*
X76050000Y-55500000D03*
X76550000Y-55500000D03*
X77050000Y-55500000D03*
X77550000Y-55500000D03*
X78050000Y-55500000D03*
X78550000Y-55500000D03*
X79050000Y-55500000D03*
X79550000Y-55500000D03*
X80050000Y-55500000D03*
X80550000Y-55500000D03*
X81050000Y-55500000D03*
X81550000Y-55500000D03*
X82050000Y-55500000D03*
X82550000Y-55500000D03*
X83050000Y-55500000D03*
X83550000Y-55500000D03*
X84050000Y-55500000D03*
X84550000Y-55500000D03*
X85050000Y-55500000D03*
X85550000Y-55500000D03*
X86050000Y-55500000D03*
D26*
X88100000Y-53450000D03*
X88100000Y-52950000D03*
X88100000Y-52450000D03*
X88100000Y-51950000D03*
X88100000Y-51450000D03*
X88100000Y-50950000D03*
X88100000Y-50450000D03*
X88100000Y-49950000D03*
X88100000Y-49450000D03*
X88100000Y-48950000D03*
X88100000Y-48450000D03*
X88100000Y-47950000D03*
X88100000Y-47450000D03*
X88100000Y-46950000D03*
X88100000Y-46450000D03*
X88100000Y-45950000D03*
X88100000Y-45450000D03*
X88100000Y-44950000D03*
X88100000Y-44450000D03*
X88100000Y-43950000D03*
X88100000Y-43450000D03*
X88100000Y-42950000D03*
X88100000Y-42450000D03*
X88100000Y-41950000D03*
X88100000Y-41450000D03*
X88100000Y-40950000D03*
X88100000Y-40450000D03*
X88100000Y-39950000D03*
X88100000Y-39450000D03*
X88100000Y-38950000D03*
X88100000Y-38450000D03*
X88100000Y-37950000D03*
X88100000Y-37450000D03*
X88100000Y-36950000D03*
X88100000Y-36450000D03*
X88100000Y-35950000D03*
D42*
X77300000Y-44700000D03*
D43*
X79850000Y-42150000D03*
X79850000Y-43000000D03*
X79850000Y-43850000D03*
X79850000Y-44700000D03*
X79850000Y-45550000D03*
X79850000Y-46400000D03*
X79850000Y-47250000D03*
X79000000Y-42150000D03*
X79000000Y-43000000D03*
X79000000Y-43850000D03*
X79000000Y-44700000D03*
X79000000Y-45550000D03*
X79000000Y-46400000D03*
X79000000Y-47250000D03*
X78150000Y-42150000D03*
X78150000Y-43000000D03*
X78150000Y-46400000D03*
X78150000Y-47250000D03*
X77300000Y-42150000D03*
X77300000Y-43000000D03*
X77300000Y-46400000D03*
X77300000Y-47250000D03*
X76450000Y-42150000D03*
X76450000Y-43000000D03*
X76450000Y-46400000D03*
X76450000Y-47250000D03*
X75600000Y-42150000D03*
X75600000Y-43000000D03*
X75600000Y-43850000D03*
X75600000Y-44700000D03*
X75600000Y-45550000D03*
X75600000Y-46400000D03*
X75600000Y-47250000D03*
X74750000Y-42150000D03*
X74750000Y-43000000D03*
X74750000Y-43850000D03*
X74750000Y-44700000D03*
X74750000Y-45550000D03*
X74750000Y-46400000D03*
X74750000Y-47250000D03*
D27*
X77300000Y-44700000D03*
D25*
X40736000Y-58092000D03*
X41236000Y-58092000D03*
X41736000Y-58092000D03*
X42236000Y-58092000D03*
X42736000Y-58092000D03*
X43236000Y-58092000D03*
X43736000Y-58092000D03*
X44236000Y-58092000D03*
X44736000Y-58092000D03*
X45236000Y-58092000D03*
X45736000Y-58092000D03*
X46236000Y-58092000D03*
X46736000Y-58092000D03*
X47236000Y-58092000D03*
X47736000Y-58092000D03*
X48236000Y-58092000D03*
X48736000Y-58092000D03*
X49236000Y-58092000D03*
X49736000Y-58092000D03*
X50236000Y-58092000D03*
X50736000Y-58092000D03*
X51236000Y-58092000D03*
X51736000Y-58092000D03*
X52236000Y-58092000D03*
X52736000Y-58092000D03*
D26*
X54536000Y-56292000D03*
X54536000Y-55792000D03*
X54536000Y-55292000D03*
X54536000Y-54792000D03*
X54536000Y-54292000D03*
X54536000Y-53792000D03*
X54536000Y-53292000D03*
X54536000Y-52792000D03*
X54536000Y-52292000D03*
X54536000Y-51792000D03*
X54536000Y-51292000D03*
X54536000Y-50792000D03*
X54536000Y-50292000D03*
X54536000Y-49792000D03*
X54536000Y-49292000D03*
X54536000Y-48792000D03*
X54536000Y-48292000D03*
X54536000Y-47792000D03*
X54536000Y-47292000D03*
X54536000Y-46792000D03*
X54536000Y-46292000D03*
X54536000Y-45792000D03*
X54536000Y-45292000D03*
X54536000Y-44792000D03*
X54536000Y-44292000D03*
D25*
X52736000Y-42492000D03*
X52236000Y-42492000D03*
X51736000Y-42492000D03*
X51236000Y-42492000D03*
X50736000Y-42492000D03*
X50236000Y-42492000D03*
X49736000Y-42492000D03*
X49236000Y-42492000D03*
X48736000Y-42492000D03*
X48236000Y-42492000D03*
X47736000Y-42492000D03*
X47236000Y-42492000D03*
X46736000Y-42492000D03*
X46236000Y-42492000D03*
X45736000Y-42492000D03*
X45236000Y-42492000D03*
X44736000Y-42492000D03*
X44236000Y-42492000D03*
X43736000Y-42492000D03*
X43236000Y-42492000D03*
X42736000Y-42492000D03*
X42236000Y-42492000D03*
X41736000Y-42492000D03*
X41236000Y-42492000D03*
X40736000Y-42492000D03*
D26*
X38936000Y-44292000D03*
X38936000Y-44792000D03*
X38936000Y-45292000D03*
X38936000Y-45792000D03*
X38936000Y-46292000D03*
X38936000Y-46792000D03*
X38936000Y-47292000D03*
X38936000Y-47792000D03*
X38936000Y-48292000D03*
X38936000Y-48792000D03*
X38936000Y-49292000D03*
X38936000Y-49792000D03*
X38936000Y-50292000D03*
X38936000Y-50792000D03*
X38936000Y-51292000D03*
X38936000Y-51792000D03*
X38936000Y-52292000D03*
X38936000Y-52792000D03*
X38936000Y-53292000D03*
X38936000Y-53792000D03*
X38936000Y-54292000D03*
X38936000Y-54792000D03*
X38936000Y-55292000D03*
X38936000Y-55792000D03*
X38936000Y-56292000D03*
D44*
X46736000Y-50292000D03*
D43*
X44336000Y-52692000D03*
X44336000Y-51892000D03*
X44336000Y-51092000D03*
X44336000Y-50292000D03*
X44336000Y-49492000D03*
X44336000Y-48692000D03*
X44336000Y-47892000D03*
X45136000Y-52692000D03*
X45136000Y-51892000D03*
X45136000Y-51092000D03*
X45136000Y-50292000D03*
X45136000Y-49492000D03*
X45136000Y-48692000D03*
X45136000Y-47892000D03*
X45936000Y-52692000D03*
X45936000Y-51892000D03*
X45936000Y-48692000D03*
X45936000Y-47892000D03*
X46736000Y-52692000D03*
X46736000Y-51892000D03*
X46736000Y-48692000D03*
X46736000Y-47892000D03*
X47536000Y-52692000D03*
X47536000Y-51892000D03*
X47536000Y-48692000D03*
X47536000Y-47892000D03*
X48336000Y-52692000D03*
X48336000Y-51892000D03*
X48336000Y-51092000D03*
X48336000Y-50292000D03*
X48336000Y-49492000D03*
X48336000Y-48692000D03*
X48336000Y-47892000D03*
X49136000Y-52692000D03*
X49136000Y-51892000D03*
X49136000Y-51092000D03*
X49136000Y-50292000D03*
X49136000Y-49492000D03*
X49136000Y-48692000D03*
X49136000Y-47892000D03*
D28*
X46736000Y-50292000D03*
D45*
X124400000Y-46550000D03*
X124400000Y-61050000D03*
X129350000Y-61650000D03*
X129350000Y-45950000D03*
D46*
X123300000Y-49050000D03*
X123300000Y-49550000D03*
X123300000Y-50050000D03*
X123300000Y-50550000D03*
X123300000Y-51050000D03*
X123300000Y-51550000D03*
X123300000Y-52050000D03*
X123300000Y-52550000D03*
X123300000Y-53050000D03*
X123300000Y-53550000D03*
X123300000Y-54050000D03*
X123300000Y-54550000D03*
X123300000Y-55050000D03*
X123300000Y-55550000D03*
X123300000Y-56050000D03*
X123300000Y-56550000D03*
X123300000Y-57050000D03*
X123300000Y-57550000D03*
X123300000Y-58050000D03*
D47*
X120120000Y-53310000D03*
D48*
X120569700Y-54310000D03*
X120569700Y-53810000D03*
X120569700Y-52810000D03*
X120569700Y-52310000D03*
X119670300Y-54310000D03*
X119670300Y-53810000D03*
X119670300Y-52310000D03*
X119670300Y-52810000D03*
D47*
X120120000Y-53310000D03*
X120120000Y-50310000D03*
D48*
X120569700Y-51310000D03*
X120569700Y-50810000D03*
X120569700Y-49810000D03*
X120569700Y-49310000D03*
X119670300Y-51310000D03*
X119670300Y-50810000D03*
X119670300Y-49310000D03*
X119670300Y-49810000D03*
D47*
X120120000Y-50310000D03*
D49*
X103861000Y-70197000D03*
X103861000Y-69097000D03*
M02*
