G04 #@! TF.FileFunction,Profile,NP*
%FSLAX46Y46*%
G04 Gerber Fmt 4.6, Leading zero omitted, Abs format (unit mm)*
G04 Created by KiCad (PCBNEW 4.0.5+dfsg1-4) date Mon Jul  3 23:41:30 2017*
%MOMM*%
%LPD*%
G01*
G04 APERTURE LIST*
%ADD10C,0.150000*%
%ADD11C,1.200000*%
%ADD12C,1.000000*%
%ADD13C,0.100000*%
G04 APERTURE END LIST*
D10*
D11*
X58386000Y-81776200D02*
X60006000Y-81776200D01*
X62946000Y-76376000D02*
X62946000Y-78176000D01*
X55446000Y-76376000D02*
X55446000Y-78176000D01*
X43386000Y-81776200D02*
X45006000Y-81776200D01*
X47946000Y-76376000D02*
X47946000Y-78176000D01*
X40446000Y-76376000D02*
X40446000Y-78176000D01*
X28386000Y-81776200D02*
X30006000Y-81776200D01*
X32946000Y-76376000D02*
X32946000Y-78176000D01*
X25446000Y-76376000D02*
X25446000Y-78176000D01*
D12*
X17202000Y-33348000D02*
X19202000Y-33348000D01*
X21202000Y-27649000D02*
X21202000Y-29649000D01*
X15202660Y-27649000D02*
X15202660Y-29649000D01*
X130706000Y-74080000D02*
X130706000Y-75580000D01*
X128306000Y-76080000D02*
X128306000Y-77580000D01*
X122806000Y-76080000D02*
X122806000Y-77580000D01*
X130698000Y-34926000D02*
X130698000Y-36426000D01*
X122798000Y-36926000D02*
X122798000Y-38426000D01*
X128298000Y-36926000D02*
X128298000Y-38426000D01*
D13*
X68165000Y-85764000D02*
X7368000Y-85764000D01*
X68165000Y-82250000D02*
X68165000Y-85764000D01*
X71244000Y-82250000D02*
X68165000Y-82250000D01*
X71244000Y-85764000D02*
X71244000Y-82250000D01*
X120491000Y-85764000D02*
X71244000Y-85764000D01*
X120491000Y-82248000D02*
X120491000Y-85764000D01*
X123550000Y-82248000D02*
X120491000Y-82248000D01*
X123550000Y-85764000D02*
X123550000Y-82248000D01*
X22022800Y-17018000D02*
X7363800Y-17018000D01*
X22022800Y-21055700D02*
X22022800Y-17018000D01*
X64678900Y-21055700D02*
X22022800Y-21055700D01*
X64678900Y-17017100D02*
X64678900Y-21055700D01*
X7368000Y-85764000D02*
X7368000Y-17018000D01*
X123550000Y-85764000D02*
X131934000Y-85764000D01*
X131934000Y-17018000D02*
X131934000Y-85764000D01*
X64691000Y-17018000D02*
X131934000Y-17018000D01*
M02*
