M48
INCH,TZ
T1C0.013
T2C0.014
T3C0.016
T4C0.024
T5C0.039
T6C0.039
T7C0.043
T8C0.047
T9C0.051
T10C0.053
T11C0.067
T12C0.079
T13C0.083
T14C0.091
T15C0.098
T16C0.120
T17C0.126
%
G90
G05
T1
X9136Y-9192
X9572Y-12083
X13900Y-17800
X14220Y-21650
X14600Y-21500
X14756Y-19191
X14800Y-17800
X15274Y-11305
X16067Y-11650
X16624Y-22150
X16929Y-23505
X16946Y-12960
X17172Y-13245
X17455Y-18855
X17455Y-19170
X17455Y-19485
X17455Y-19800
X17455Y-20115
X17455Y-20430
X17455Y-20745
X17537Y-23530
X17770Y-18855
X17770Y-19170
X17770Y-19485
X17770Y-19800
X17770Y-20115
X17770Y-20430
X17770Y-20745
X17952Y-13937
X18085Y-18855
X18085Y-19170
X18085Y-20430
X18085Y-20745
X18350Y-14217
X18400Y-18855
X18400Y-19170
X18400Y-20430
X18400Y-20745
X18481Y-13534
X18715Y-18855
X18715Y-19170
X18715Y-20430
X18715Y-20745
X18769Y-23485
X19030Y-18855
X19030Y-19170
X19030Y-19485
X19030Y-19800
X19030Y-20115
X19030Y-20430
X19030Y-20745
X19159Y-23615
X19176Y-26093
X19345Y-18855
X19345Y-19170
X19345Y-19485
X19345Y-19800
X19345Y-20115
X19345Y-20430
X19345Y-20745
X19668Y-25948
X20600Y-19900
X20794Y-13933
X21076Y-13531
X21249Y-9063
X21909Y-12065
X22587Y-14304
X25300Y-10788
X25346Y-12503
X25347Y-16763
X26184Y-10210
X26854Y-10215
X27204Y-10815
X27499Y-10235
X27914Y-10505
X28972Y-12065
X29074Y-10855
X29429Y-16594
X29429Y-16929
X29429Y-17264
X29429Y-17598
X29429Y-17933
X29429Y-18268
X29429Y-18602
X29764Y-16594
X29764Y-16929
X29764Y-17264
X29764Y-17598
X29764Y-17933
X29764Y-18268
X29764Y-18602
X30098Y-16594
X30098Y-16929
X30098Y-18268
X30098Y-18602
X30430Y-21320
X30433Y-16594
X30433Y-16929
X30433Y-18268
X30433Y-18602
X30528Y-12246
X30768Y-16594
X30768Y-16929
X30768Y-18268
X30768Y-18602
X31102Y-16594
X31102Y-16929
X31102Y-17264
X31102Y-17598
X31102Y-17933
X31102Y-18268
X31102Y-18602
X31364Y-11908
X31400Y-14020
X31437Y-16594
X31437Y-16929
X31437Y-17264
X31437Y-17598
X31437Y-17933
X31437Y-18268
X31437Y-18602
X31878Y-25668
X32200Y-13999
X32487Y-12810
X33198Y-12712
X33303Y-9322
X33359Y-11735
X35250Y-21400
X36525Y-16902
X36600Y-17528
X36994Y-11650
X41442Y-12834
X41517Y-23898
X41518Y-24263
X42492Y-26591
X42848Y-24288
X42854Y-23900
X43062Y-26802
X43065Y-27261
X43344Y-11470
X43528Y-10881
X44295Y-29079
X44480Y-26610
X44488Y-27921
X44561Y-17809
X44590Y-20790
X44606Y-16417
X44689Y-29079
X44742Y-18869
X44780Y-19910
X44925Y-27921
X44953Y-15024
X45283Y-25402
X45528Y-27260
X45528Y-27594
X45949Y-16106
X45949Y-24327
X45969Y-26142
X45969Y-26646
X45984Y-28394
X46008Y-29079
X46344Y-14786
X47205Y-26846
X47685Y-27394
X47720Y-24768
X47976Y-29075
X48685Y-27409
X49268Y-22720
X49732Y-22866
X50169Y-23169
T2
X3502Y-19192
X5102Y-19280
X8982Y-19803
X9414Y-19806
X9896Y-24232
X10083Y-10728
X10086Y-11172
X10092Y-11595
X10545Y-11628
X10557Y-10716
X10563Y-11148
X10880Y-18037
X10928Y-22944
X10998Y-11628
X11007Y-10710
X11013Y-11163
X11183Y-9045
X11183Y-9454
X11183Y-9864
X11256Y-13413
X11280Y-26016
X11646Y-13695
X11655Y-13221
X11804Y-22945
X11832Y-23768
X12114Y-13722
X12117Y-13221
X12525Y-16389
X12574Y-23915
X12870Y-18124
X13440Y-27852
X13470Y-10035
X13473Y-9555
X13491Y-9102
X13909Y-11437
X13941Y-9558
X13947Y-9099
X13947Y-10989
X13956Y-10056
X13956Y-10533
X14044Y-15007
X14421Y-14650
X14823Y-14243
X14886Y-29244
X14892Y-16398
X15674Y-13109
X15794Y-20905
X15814Y-20350
X15954Y-15318
X16114Y-17418
X16316Y-17890
X16322Y-13689
X16389Y-12438
X16432Y-18314
X16500Y-16100
X16549Y-23465
X16674Y-17620
X16679Y-17620
X16770Y-19986
X16773Y-20436
X16785Y-19491
X16794Y-19056
X16799Y-18590
X16814Y-18075
X17100Y-22200
X17118Y-14002
X17204Y-17976
X17299Y-16005
X17315Y-17517
X17448Y-15176
X17820Y-29424
X17900Y-22200
X17924Y-16135
X18036Y-14904
X18039Y-17400
X18139Y-10675
X18400Y-22200
X18604Y-15306
X18752Y-17652
X18800Y-22200
X19176Y-14760
X19242Y-17648
X19290Y-13251
X19500Y-22200
X19738Y-17642
X19904Y-17335
X20100Y-21192
X20100Y-22200
X20104Y-20200
X20106Y-20700
X20210Y-17650
X20259Y-12396
X20464Y-20428
X20464Y-20932
X20466Y-21360
X20519Y-17355
X20562Y-17976
X20600Y-19400
X20600Y-21700
X20600Y-22100
X20664Y-18995
X20919Y-18390
X21430Y-22624
X22228Y-25239
X22320Y-26091
X22530Y-19692
X22570Y-17088
X22594Y-27108
X22614Y-23118
X23042Y-24954
X23050Y-23254
X23226Y-28269
X23243Y-29596
X23333Y-12596
X23358Y-25302
X23697Y-12906
X23813Y-23281
X24066Y-13257
X24124Y-12564
X24200Y-15626
X24627Y-24094
X24924Y-10942
X25137Y-21433
X25570Y-17970
X25570Y-19170
X25591Y-13386
X25609Y-21465
X25682Y-9904
X25694Y-9534
X26064Y-7906
X26136Y-12444
X26457Y-13780
X26496Y-13425
X26710Y-14600
X26710Y-15120
X26710Y-17890
X26710Y-20550
X26721Y-18555
X26732Y-16614
X26732Y-16929
X26732Y-17283
X26732Y-22402
X26766Y-19392
X26770Y-14110
X26770Y-16100
X26780Y-15560
X26890Y-21330
X26920Y-19014
X27050Y-15830
X27239Y-12507
X27350Y-20542
X27380Y-20104
X27400Y-21320
X27520Y-13900
X27538Y-7526
X27789Y-8805
X27790Y-21330
X27835Y-20591
X27874Y-15157
X28020Y-22380
X28187Y-13928
X28386Y-16102
X28386Y-16811
X28386Y-17638
X28386Y-18386
X28386Y-19134
X28386Y-20000
X28390Y-21330
X28504Y-7008
X28572Y-13909
X28898Y-15669
X28917Y-20000
X28950Y-21330
X28950Y-33258
X28979Y-13876
X29291Y-19252
X29330Y-21320
X29449Y-20669
X29508Y-20000
X29685Y-15669
X29760Y-21310
X29803Y-14764
X29803Y-20669
X29817Y-13952
X30079Y-19252
X30118Y-20000
X30276Y-7323
X30330Y-8346
X30384Y-24681
X30472Y-15669
X30533Y-13939
X30728Y-20000
X30837Y-22434
X30866Y-19252
X30940Y-21330
X31030Y-15670
X31061Y-13873
X31280Y-20000
X31520Y-22540
X31572Y-26688
X31614Y-19252
X31768Y-13914
X31791Y-20000
X31890Y-15669
X31909Y-20669
X32079Y-26685
X32120Y-21300
X32184Y-8295
X32264Y-20020
X32283Y-20669
X32441Y-16220
X32441Y-16890
X32441Y-17638
X32441Y-18425
X32441Y-19134
X32524Y-23854
X32559Y-26682
X32600Y-21300
X32638Y-20669
X32668Y-10060
X32904Y-11090
X32909Y-24620
X33031Y-20669
X33105Y-13867
X33150Y-20197
X33336Y-16226
X33345Y-17645
X33578Y-10028
X33633Y-13908
X33660Y-21330
X33661Y-14488
X33688Y-12848
X33795Y-18540
X33994Y-18235
X34017Y-15512
X34019Y-19493
X34047Y-19039
X34055Y-20276
X34062Y-19900
X34077Y-17870
X34078Y-17130
X34081Y-16520
X34091Y-14726
X34104Y-15148
X34126Y-17505
X34213Y-22323
X34270Y-13684
X34819Y-12902
X35400Y-22420
X35709Y-24724
X35744Y-11065
X36340Y-20490
X36350Y-19330
X36350Y-20010
X37570Y-24646
X38209Y-25665
X38480Y-24642
X38567Y-17677
X38574Y-21248
X38908Y-11450
X39000Y-25669
X39002Y-8400
X39020Y-27492
X39024Y-26689
X39530Y-21730
X39644Y-24628
X39751Y-20939
X39762Y-19452
X39764Y-16496
X39764Y-18504
X39764Y-19016
X39766Y-19970
X40077Y-24588
X40787Y-16457
X40787Y-18110
X40787Y-19449
X40953Y-14835
X41035Y-26480
X41220Y-16457
X41299Y-15118
X41339Y-21063
X41339Y-23575
X41524Y-24696
X41654Y-16378
X41654Y-21378
X41693Y-17244
X41890Y-21063
X42205Y-16378
X42512Y-26945
X42624Y-16365
X42640Y-23055
X43189Y-17323
X43267Y-24676
X43583Y-16417
X43736Y-26799
X43746Y-21361
X43976Y-24740
X44134Y-14685
X44134Y-17323
X44173Y-16811
X44213Y-16417
X44540Y-18470
X44835Y-19449
X45264Y-22173
X45269Y-16175
X45274Y-21780
X45374Y-24933
X46657Y-20882
X46673Y-21831
X46772Y-19764
X46949Y-23587
X47016Y-17727
X47466Y-17178
X47913Y-18980
X47917Y-23591
T3
X40890Y-27204
X40890Y-27637
T4
X10309Y-14130
X10309Y-17130
X13309Y-14130
X13309Y-17130
T5
X32803Y-8000
X32803Y-9000
X33803Y-8000
X33803Y-9000
X34803Y-8000
X34803Y-9000
X35803Y-8000
X35803Y-9000
X36803Y-8000
X36803Y-9000
T6
X5754Y-21093
X5754Y-21994
X5754Y-22896
X5754Y-23797
X5754Y-24699
X6754Y-21541
X6754Y-22443
X6754Y-23345
X6754Y-24246
X6754Y-25148
X7754Y-21093
X7754Y-21994
X7754Y-22896
X7754Y-23797
X7754Y-24699
X18400Y-19800
X30433Y-17598
X48244Y-25539
X48244Y-26839
X49228Y-25539
X49228Y-26839
X50213Y-25539
X50213Y-26839
T7
X14632Y-12952
X15100Y-13460
T8
X40800Y-7264
X40800Y-12185
X42768Y-7264
X42768Y-12185
X45834Y-7264
X45834Y-12185
X47802Y-7264
X47802Y-12185
T9
X30142Y-30213
X30892Y-32213
X31642Y-30213
X32392Y-32213
X33142Y-30213
X33892Y-32213
X34642Y-30213
X35392Y-32213
X36142Y-30213
X36892Y-32213
X37642Y-30213
X38392Y-32213
X39142Y-30213
X39892Y-32213
X40642Y-30213
X41392Y-32213
X42142Y-30213
X42892Y-32213
X43642Y-30213
X44392Y-32213
X45142Y-30213
T10
X48976Y-18327
X48976Y-24035
X50925Y-18091
X50925Y-24272
T11
X40012Y-9724
X43556Y-9724
X45046Y-9724
X48590Y-9724
T12
X14447Y-30542
X20353Y-30542
T13
X4042Y-15078
X5892Y-15078
X7743Y-15078
T14
X13253Y-33433
X21547Y-33433
T15
X9605Y-32195
X25195Y-32195
T16
X4382Y-8110
X4382Y-32362
X50512Y-8110
X50512Y-32362
T17
X6754Y-18077
X6754Y-27919
T6
X5985Y-10885G85X5985Y-11673
G05
X6773Y-13129G85X7560Y-13129
G05
X8347Y-10885G85X8347Y-11673
G05
X48346Y-15128G85X48346Y-14538
G05
X48349Y-30543G85X48349Y-29953
G05
X50511Y-15128G85X50511Y-14538
G05
X50514Y-30543G85X50514Y-29953
G05
X51456Y-14341G85X51456Y-13750
G05
X51459Y-29756G85X51459Y-29165
G05
T8
X10018Y-30069G85X10018Y-30778
G05
X11176Y-32195G85X11813Y-32195
G05
X12971Y-30069G85X12971Y-30778
G05
X15924Y-30069G85X15924Y-30778
G05
X17081Y-32195G85X17719Y-32195
G05
X18876Y-30069G85X18876Y-30778
G05
X21829Y-30069G85X21829Y-30778
G05
X22987Y-32195G85X23624Y-32195
G05
X24782Y-30069G85X24782Y-30778
G05
T0
M30
