G04 #@! TF.FileFunction,Legend,Top*
%FSLAX46Y46*%
G04 Gerber Fmt 4.6, Leading zero omitted, Abs format (unit mm)*
G04 Created by KiCad (PCBNEW 4.0.5+dfsg1-4) date Fri Apr 14 11:33:04 2017*
%MOMM*%
%LPD*%
G01*
G04 APERTURE LIST*
%ADD10C,0.150000*%
%ADD11C,0.300000*%
%ADD12C,0.381000*%
%ADD13C,0.099060*%
%ADD14C,0.119380*%
%ADD15C,0.203200*%
%ADD16C,0.127000*%
%ADD17C,0.114300*%
G04 APERTURE END LIST*
D10*
D11*
X59501430Y-68288571D02*
X59787144Y-68288571D01*
X59930002Y-68360000D01*
X60072859Y-68502857D01*
X60144287Y-68788571D01*
X60144287Y-69288571D01*
X60072859Y-69574286D01*
X59930002Y-69717143D01*
X59787144Y-69788571D01*
X59501430Y-69788571D01*
X59358573Y-69717143D01*
X59215716Y-69574286D01*
X59144287Y-69288571D01*
X59144287Y-68788571D01*
X59215716Y-68502857D01*
X59358573Y-68360000D01*
X59501430Y-68288571D01*
X60715716Y-69717143D02*
X60930002Y-69788571D01*
X61287145Y-69788571D01*
X61430002Y-69717143D01*
X61501431Y-69645714D01*
X61572859Y-69502857D01*
X61572859Y-69360000D01*
X61501431Y-69217143D01*
X61430002Y-69145714D01*
X61287145Y-69074286D01*
X61001431Y-69002857D01*
X60858573Y-68931429D01*
X60787145Y-68860000D01*
X60715716Y-68717143D01*
X60715716Y-68574286D01*
X60787145Y-68431429D01*
X60858573Y-68360000D01*
X61001431Y-68288571D01*
X61358573Y-68288571D01*
X61572859Y-68360000D01*
X62144287Y-69717143D02*
X62358573Y-69788571D01*
X62715716Y-69788571D01*
X62858573Y-69717143D01*
X62930002Y-69645714D01*
X63001430Y-69502857D01*
X63001430Y-69360000D01*
X62930002Y-69217143D01*
X62858573Y-69145714D01*
X62715716Y-69074286D01*
X62430002Y-69002857D01*
X62287144Y-68931429D01*
X62215716Y-68860000D01*
X62144287Y-68717143D01*
X62144287Y-68574286D01*
X62215716Y-68431429D01*
X62287144Y-68360000D01*
X62430002Y-68288571D01*
X62787144Y-68288571D01*
X63001430Y-68360000D01*
X64501430Y-69645714D02*
X64430001Y-69717143D01*
X64215715Y-69788571D01*
X64072858Y-69788571D01*
X63858573Y-69717143D01*
X63715715Y-69574286D01*
X63644287Y-69431429D01*
X63572858Y-69145714D01*
X63572858Y-68931429D01*
X63644287Y-68645714D01*
X63715715Y-68502857D01*
X63858573Y-68360000D01*
X64072858Y-68288571D01*
X64215715Y-68288571D01*
X64430001Y-68360000D01*
X64501430Y-68431429D01*
X66144287Y-68788571D02*
X66501430Y-69788571D01*
X66858572Y-68788571D01*
X68215715Y-69788571D02*
X67358572Y-69788571D01*
X67787144Y-69788571D02*
X67787144Y-68288571D01*
X67644287Y-68502857D01*
X67501429Y-68645714D01*
X67358572Y-68717143D01*
X68858572Y-69645714D02*
X68930000Y-69717143D01*
X68858572Y-69788571D01*
X68787143Y-69717143D01*
X68858572Y-69645714D01*
X68858572Y-69788571D01*
X70215715Y-68288571D02*
X69930001Y-68288571D01*
X69787144Y-68360000D01*
X69715715Y-68431429D01*
X69572858Y-68645714D01*
X69501429Y-68931429D01*
X69501429Y-69502857D01*
X69572858Y-69645714D01*
X69644286Y-69717143D01*
X69787144Y-69788571D01*
X70072858Y-69788571D01*
X70215715Y-69717143D01*
X70287144Y-69645714D01*
X70358572Y-69502857D01*
X70358572Y-69145714D01*
X70287144Y-69002857D01*
X70215715Y-68931429D01*
X70072858Y-68860000D01*
X69787144Y-68860000D01*
X69644286Y-68931429D01*
X69572858Y-69002857D01*
X69501429Y-69145714D01*
X71001429Y-69217143D02*
X72144286Y-69217143D01*
X73287143Y-68288571D02*
X73287143Y-69360000D01*
X73215715Y-69574286D01*
X73072858Y-69717143D01*
X72858572Y-69788571D01*
X72715715Y-69788571D01*
X74001429Y-69788571D02*
X74001429Y-68288571D01*
X74572857Y-68288571D01*
X74715715Y-68360000D01*
X74787143Y-68431429D01*
X74858572Y-68574286D01*
X74858572Y-68788571D01*
X74787143Y-68931429D01*
X74715715Y-69002857D01*
X74572857Y-69074286D01*
X74001429Y-69074286D01*
X75430000Y-68431429D02*
X75501429Y-68360000D01*
X75644286Y-68288571D01*
X76001429Y-68288571D01*
X76144286Y-68360000D01*
X76215715Y-68431429D01*
X76287143Y-68574286D01*
X76287143Y-68717143D01*
X76215715Y-68931429D01*
X75358572Y-69788571D01*
X76287143Y-69788571D01*
X77715714Y-69788571D02*
X76858571Y-69788571D01*
X77287143Y-69788571D02*
X77287143Y-68288571D01*
X77144286Y-68502857D01*
X77001428Y-68645714D01*
X76858571Y-68717143D01*
D10*
X114222000Y-67480000D02*
G75*
G03X114222000Y-67480000I-250000J0D01*
G01*
X114647000Y-71555000D02*
X114622000Y-71555000D01*
X106597000Y-71555000D02*
X106622000Y-71555000D01*
X106597000Y-66905000D02*
X106622000Y-66905000D01*
X114697000Y-65830000D02*
X114697000Y-71555000D01*
X106597000Y-66905000D02*
X106597000Y-71555000D01*
X70967940Y-18952580D02*
G75*
G02X72354780Y-17580980I1379220J-7620D01*
G01*
X73787340Y-18952580D02*
G75*
G03X72400500Y-17580980I-1379220J-7620D01*
G01*
X75914100Y-18960500D02*
X75914100Y-21360500D01*
X75914100Y-21360500D02*
X70614100Y-21360500D01*
X70614100Y-21360500D02*
X70614100Y-18960500D01*
X70614100Y-18960500D02*
X75914100Y-18960500D01*
X97925000Y-25400000D02*
X98560000Y-26035000D01*
X97925000Y-17780000D02*
X98560000Y-17145000D01*
X78875000Y-17780000D02*
X78240000Y-17145000D01*
X78875000Y-25400000D02*
X78240000Y-26035000D01*
X86495000Y-17145000D02*
X86495000Y-17780000D01*
X86495000Y-17780000D02*
X78875000Y-17780000D01*
X78875000Y-17780000D02*
X78875000Y-25400000D01*
X78875000Y-25400000D02*
X97925000Y-25400000D01*
X97925000Y-25400000D02*
X97925000Y-17780000D01*
X97925000Y-17780000D02*
X90305000Y-17780000D01*
X90305000Y-17780000D02*
X90305000Y-17145000D01*
X98560000Y-17145000D02*
X78240000Y-17145000D01*
X78240000Y-26035000D02*
X98560000Y-26035000D01*
X98560000Y-26035000D02*
X98560000Y-17145000D01*
X78240000Y-26035000D02*
X78240000Y-17145000D01*
X95898080Y-19621500D02*
X95199580Y-18552160D01*
X95199580Y-18552160D02*
X94498540Y-19621500D01*
X94498540Y-19621500D02*
X95898080Y-19621500D01*
X13416000Y-20600000D02*
G75*
G03X13416000Y-20600000I-2286000J0D01*
G01*
X13416000Y-82200000D02*
G75*
G03X13416000Y-82200000I-2286000J0D01*
G01*
X130586000Y-82200000D02*
G75*
G03X130586000Y-82200000I-2286000J0D01*
G01*
X130586000Y-20600000D02*
G75*
G03X130586000Y-20600000I-2286000J0D01*
G01*
X35074500Y-33095300D02*
X23390500Y-33095300D01*
X23390500Y-33095300D02*
X23390500Y-44779300D01*
X36598500Y-44779300D02*
X36598500Y-34619300D01*
X35074500Y-46303300D02*
X24914500Y-46303300D01*
X35074500Y-46303300D02*
G75*
G03X36598500Y-44779300I0J1524000D01*
G01*
X23390500Y-44779300D02*
G75*
G03X24914500Y-46303300I1524000J0D01*
G01*
X36598500Y-34619300D02*
G75*
G03X35074500Y-33095300I-1524000J0D01*
G01*
X27293300Y-47587800D02*
G75*
G03X27293300Y-47587800I-100000J0D01*
G01*
X27743300Y-47837800D02*
X27243300Y-47837800D01*
X27743300Y-50737800D02*
X27743300Y-47837800D01*
X27243300Y-50737800D02*
X27743300Y-50737800D01*
X27243300Y-47837800D02*
X27243300Y-50737800D01*
X22025500Y-73695400D02*
X22025500Y-42895400D01*
X22025500Y-73695400D02*
X7445500Y-73695400D01*
X7445500Y-73695400D02*
X7445500Y-42895400D01*
X7445500Y-42895400D02*
X22025500Y-42895400D01*
X34692260Y-25834820D02*
X34644000Y-25834820D01*
X28256000Y-26525700D02*
X28256000Y-25824660D01*
X28256000Y-25824660D02*
X28504920Y-25824660D01*
X34692260Y-25834820D02*
X34892920Y-25834820D01*
X34892920Y-25834820D02*
X34892920Y-26535860D01*
X54142200Y-23829180D02*
X54843240Y-23829180D01*
X54843240Y-23829180D02*
X54843240Y-24078100D01*
X54843240Y-26628160D02*
X54843240Y-26828820D01*
X54843240Y-26828820D02*
X54142200Y-26828820D01*
X44555758Y-68962300D02*
G75*
G03X44555758Y-68962300I-339838J0D01*
G01*
X50263000Y-69549000D02*
X50263000Y-65099000D01*
X43513000Y-71074000D02*
X43513000Y-65099000D01*
X101563308Y-54084900D02*
G75*
G03X101563308Y-54084900I-450748J0D01*
G01*
X100125000Y-55075000D02*
X100925000Y-55075000D01*
X100125000Y-40725000D02*
X100925000Y-40725000D01*
X114475000Y-40725000D02*
X113675000Y-40725000D01*
X114475000Y-55075000D02*
X113675000Y-55075000D01*
X100125000Y-55075000D02*
X100125000Y-54275000D01*
X114475000Y-55075000D02*
X114475000Y-54275000D01*
X114475000Y-40725000D02*
X114475000Y-41525000D01*
X100125000Y-40725000D02*
X100125000Y-41525000D01*
X100925000Y-55075000D02*
X100925000Y-56350000D01*
X68262940Y-85763280D02*
X71229660Y-82296180D01*
X68255320Y-82280940D02*
X71227120Y-85760740D01*
X120521920Y-85778520D02*
X123511500Y-82275860D01*
X120514300Y-82273320D02*
X123501340Y-85765820D01*
X68244600Y-85771200D02*
X68244600Y-82271200D01*
X123514600Y-82271200D02*
X123514600Y-85771200D01*
X123514600Y-85771200D02*
X68244600Y-85771200D01*
X71244600Y-85771200D02*
X71244600Y-82271200D01*
X73859600Y-82271200D02*
X68244600Y-82271200D01*
X73859600Y-82271200D02*
X73859600Y-74821200D01*
X73859600Y-74821200D02*
X117359600Y-74821200D01*
X117359600Y-74821200D02*
X117359600Y-82271200D01*
X117359600Y-82271200D02*
X123514600Y-82271200D01*
X120514600Y-82271200D02*
X120514600Y-85771200D01*
X110710050Y-24700000D02*
G75*
G03X110710050Y-24700000I-4579050J0D01*
G01*
X100131000Y-30700000D02*
X100131000Y-18700000D01*
X100131000Y-18700000D02*
X112131000Y-18700000D01*
X112131000Y-18700000D02*
X112131000Y-30700000D01*
X112131000Y-30700000D02*
X100131000Y-30700000D01*
X123497050Y-24700000D02*
G75*
G03X123497050Y-24700000I-4579050J0D01*
G01*
X112918000Y-30700000D02*
X112918000Y-18700000D01*
X112918000Y-18700000D02*
X124918000Y-18700000D01*
X124918000Y-18700000D02*
X124918000Y-30700000D01*
X124918000Y-30700000D02*
X112918000Y-30700000D01*
X53997860Y-85758920D02*
X55410100Y-83998700D01*
X54020720Y-83975840D02*
X55410100Y-85713200D01*
X32941260Y-85746220D02*
X34361120Y-83978380D01*
X32946340Y-83952980D02*
X34368740Y-85723360D01*
X34368740Y-85723360D02*
X34373820Y-85736060D01*
X55446000Y-83947900D02*
X55446000Y-85753840D01*
X53996000Y-83947900D02*
X55446000Y-83947900D01*
X53996000Y-85769080D02*
X53996000Y-83947900D01*
X32946000Y-85769080D02*
X32946000Y-83947900D01*
X32946000Y-83947900D02*
X34396000Y-83947900D01*
X34396000Y-83947900D02*
X34396000Y-85753840D01*
X24196000Y-85776200D02*
X24196000Y-75776200D01*
X24196000Y-75776200D02*
X64196000Y-75776200D01*
X64196000Y-75776200D02*
X64196000Y-85776200D01*
X24196000Y-85776200D02*
X64196000Y-85776200D01*
D12*
X11001500Y-24148120D02*
X11001500Y-33149880D01*
X7501380Y-24148120D02*
X7501380Y-33149880D01*
X7501380Y-33149880D02*
X22002240Y-33149880D01*
X22002240Y-33149880D02*
X22002240Y-24148120D01*
X22002240Y-24148120D02*
X7501380Y-24148120D01*
D10*
X17542220Y-17822880D02*
X16810700Y-17822880D01*
X17171380Y-18186100D02*
X17171380Y-17454580D01*
X17171380Y-21640500D02*
X17171380Y-20908980D01*
X17805200Y-20645000D02*
X17805200Y-18745000D01*
X16552800Y-20645000D02*
X16552800Y-18745000D01*
X15912220Y-17822880D02*
X15180700Y-17822880D01*
X15541380Y-18186100D02*
X15541380Y-17454580D01*
X15541380Y-21640500D02*
X15541380Y-20908980D01*
X16175200Y-20645000D02*
X16175200Y-18745000D01*
X14922800Y-20645000D02*
X14922800Y-18745000D01*
D13*
X68597380Y-19796360D02*
G75*
G03X68597380Y-19796360I-127000J0D01*
G01*
X68594840Y-20853000D02*
X68594840Y-19773500D01*
X68605000Y-19763340D02*
X70383000Y-19763340D01*
X70393160Y-19773500D02*
X70393160Y-20853000D01*
X70393160Y-21869000D02*
X70393160Y-22948500D01*
X70383000Y-22958660D02*
X68605000Y-22958660D01*
X68594840Y-22948500D02*
X68594840Y-21869000D01*
X54688620Y-64719640D02*
G75*
G03X54688620Y-64719640I-127000J0D01*
G01*
X54437160Y-63663000D02*
X54437160Y-64742500D01*
X54427000Y-64752660D02*
X52649000Y-64752660D01*
X52638840Y-64742500D02*
X52638840Y-63663000D01*
X52638840Y-62647000D02*
X52638840Y-61567500D01*
X52649000Y-61557340D02*
X54427000Y-61557340D01*
X54437160Y-61567500D02*
X54437160Y-62647000D01*
D14*
X39047760Y-67215120D02*
X39047760Y-66432800D01*
X39047760Y-68215880D02*
X39047760Y-68998200D01*
X37478040Y-67215120D02*
X37478040Y-66432800D01*
X37478040Y-68998200D02*
X37478040Y-68215880D01*
X37500900Y-66425180D02*
X39024900Y-66425180D01*
X39024900Y-69005820D02*
X37500900Y-69005820D01*
X53673080Y-74863060D02*
X54455400Y-74863060D01*
X52672320Y-74863060D02*
X51890000Y-74863060D01*
X53673080Y-73293340D02*
X54455400Y-73293340D01*
X51890000Y-73293340D02*
X52672320Y-73293340D01*
X54463020Y-73316200D02*
X54463020Y-74840200D01*
X51882380Y-74840200D02*
X51882380Y-73316200D01*
X54496040Y-73270480D02*
X54496040Y-74052800D01*
X54496040Y-72269720D02*
X54496040Y-71487400D01*
X56065760Y-73270480D02*
X56065760Y-74052800D01*
X56065760Y-71487400D02*
X56065760Y-72269720D01*
X56042900Y-74060420D02*
X54518900Y-74060420D01*
X54518900Y-71479780D02*
X56042900Y-71479780D01*
X55786360Y-68866120D02*
X55786360Y-68083800D01*
X55786360Y-69866880D02*
X55786360Y-70649200D01*
X54216640Y-68866120D02*
X54216640Y-68083800D01*
X54216640Y-70649200D02*
X54216640Y-69866880D01*
X54239500Y-68076180D02*
X55763500Y-68076180D01*
X55763500Y-70656820D02*
X54239500Y-70656820D01*
X55781860Y-66284620D02*
X55781860Y-65502300D01*
X55781860Y-67285380D02*
X55781860Y-68067700D01*
X54212140Y-66284620D02*
X54212140Y-65502300D01*
X54212140Y-68067700D02*
X54212140Y-67285380D01*
X54235000Y-65494680D02*
X55759000Y-65494680D01*
X55759000Y-68075320D02*
X54235000Y-68075320D01*
X40888860Y-72514620D02*
X40888860Y-71732300D01*
X40888860Y-73515380D02*
X40888860Y-74297700D01*
X39319140Y-72514620D02*
X39319140Y-71732300D01*
X39319140Y-74297700D02*
X39319140Y-73515380D01*
X39342000Y-71724680D02*
X40866000Y-71724680D01*
X40866000Y-74305320D02*
X39342000Y-74305320D01*
X36563380Y-50563860D02*
X37345700Y-50563860D01*
X35562620Y-50563860D02*
X34780300Y-50563860D01*
X36563380Y-48994140D02*
X37345700Y-48994140D01*
X34780300Y-48994140D02*
X35562620Y-48994140D01*
X37353320Y-49017000D02*
X37353320Y-50541000D01*
X34772680Y-50541000D02*
X34772680Y-49017000D01*
X24135420Y-50979440D02*
X23353100Y-50979440D01*
X25136180Y-50979440D02*
X25918500Y-50979440D01*
X24135420Y-52549160D02*
X23353100Y-52549160D01*
X25918500Y-52549160D02*
X25136180Y-52549160D01*
X23345480Y-52526300D02*
X23345480Y-51002300D01*
X25926120Y-51002300D02*
X25926120Y-52526300D01*
X38585140Y-42156380D02*
X38585140Y-42938700D01*
X38585140Y-41155620D02*
X38585140Y-40373300D01*
X40154860Y-42156380D02*
X40154860Y-42938700D01*
X40154860Y-40373300D02*
X40154860Y-41155620D01*
X40132000Y-42946320D02*
X38608000Y-42946320D01*
X38608000Y-40365680D02*
X40132000Y-40365680D01*
X45715860Y-36105620D02*
X45715860Y-35323300D01*
X45715860Y-37106380D02*
X45715860Y-37888700D01*
X44146140Y-36105620D02*
X44146140Y-35323300D01*
X44146140Y-37888700D02*
X44146140Y-37106380D01*
X44169000Y-35315680D02*
X45693000Y-35315680D01*
X45693000Y-37896320D02*
X44169000Y-37896320D01*
X44831340Y-40275880D02*
X44831340Y-41058200D01*
X44831340Y-39275120D02*
X44831340Y-38492800D01*
X46401060Y-40275880D02*
X46401060Y-41058200D01*
X46401060Y-38492800D02*
X46401060Y-39275120D01*
X46378200Y-41065820D02*
X44854200Y-41065820D01*
X44854200Y-38485180D02*
X46378200Y-38485180D01*
X92725580Y-30451160D02*
X93507900Y-30451160D01*
X91724820Y-30451160D02*
X90942500Y-30451160D01*
X92725580Y-28881440D02*
X93507900Y-28881440D01*
X90942500Y-28881440D02*
X91724820Y-28881440D01*
X93515520Y-28904300D02*
X93515520Y-30428300D01*
X90934880Y-30428300D02*
X90934880Y-28904300D01*
X115908140Y-56461380D02*
X115908140Y-57243700D01*
X115908140Y-55460620D02*
X115908140Y-54678300D01*
X117477860Y-56461380D02*
X117477860Y-57243700D01*
X117477860Y-54678300D02*
X117477860Y-55460620D01*
X117455000Y-57251320D02*
X115931000Y-57251320D01*
X115931000Y-54670680D02*
X117455000Y-54670680D01*
X67394160Y-24136720D02*
X67394160Y-23354400D01*
X67394160Y-25137480D02*
X67394160Y-25919800D01*
X65824440Y-24136720D02*
X65824440Y-23354400D01*
X65824440Y-25919800D02*
X65824440Y-25137480D01*
X65847300Y-23346780D02*
X67371300Y-23346780D01*
X67371300Y-25927420D02*
X65847300Y-25927420D01*
X69007060Y-24149420D02*
X69007060Y-23367100D01*
X69007060Y-25150180D02*
X69007060Y-25932500D01*
X67437340Y-24149420D02*
X67437340Y-23367100D01*
X67437340Y-25932500D02*
X67437340Y-25150180D01*
X67460200Y-23359480D02*
X68984200Y-23359480D01*
X68984200Y-25940120D02*
X67460200Y-25940120D01*
X70619960Y-24149420D02*
X70619960Y-23367100D01*
X70619960Y-25150180D02*
X70619960Y-25932500D01*
X69050240Y-24149420D02*
X69050240Y-23367100D01*
X69050240Y-25932500D02*
X69050240Y-25150180D01*
X69073100Y-23359480D02*
X70597100Y-23359480D01*
X70597100Y-25940120D02*
X69073100Y-25940120D01*
X72232860Y-25025720D02*
X72232860Y-24243400D01*
X72232860Y-26026480D02*
X72232860Y-26808800D01*
X70663140Y-25025720D02*
X70663140Y-24243400D01*
X70663140Y-26808800D02*
X70663140Y-26026480D01*
X70686000Y-24235780D02*
X72210000Y-24235780D01*
X72210000Y-26816420D02*
X70686000Y-26816420D01*
X73871160Y-26257620D02*
X73871160Y-25475300D01*
X73871160Y-27258380D02*
X73871160Y-28040700D01*
X72301440Y-26257620D02*
X72301440Y-25475300D01*
X72301440Y-28040700D02*
X72301440Y-27258380D01*
X72324300Y-25467680D02*
X73848300Y-25467680D01*
X73848300Y-28048320D02*
X72324300Y-28048320D01*
X74729680Y-25333060D02*
X75512000Y-25333060D01*
X73728920Y-25333060D02*
X72946600Y-25333060D01*
X74729680Y-23763340D02*
X75512000Y-23763340D01*
X72946600Y-23763340D02*
X73728920Y-23763340D01*
X75519620Y-23786200D02*
X75519620Y-25310200D01*
X72938980Y-25310200D02*
X72938980Y-23786200D01*
X66604220Y-20766140D02*
X65821900Y-20766140D01*
X67604980Y-20766140D02*
X68387300Y-20766140D01*
X66604220Y-22335860D02*
X65821900Y-22335860D01*
X68387300Y-22335860D02*
X67604980Y-22335860D01*
X65814280Y-22313000D02*
X65814280Y-20789000D01*
X68394920Y-20789000D02*
X68394920Y-22313000D01*
X18374140Y-20191380D02*
X18374140Y-20973700D01*
X18374140Y-19190620D02*
X18374140Y-18408300D01*
X19943860Y-20191380D02*
X19943860Y-20973700D01*
X19943860Y-18408300D02*
X19943860Y-19190620D01*
X19921000Y-20981320D02*
X18397000Y-20981320D01*
X18397000Y-18400680D02*
X19921000Y-18400680D01*
X19924140Y-20187380D02*
X19924140Y-20969700D01*
X19924140Y-19186620D02*
X19924140Y-18404300D01*
X21493860Y-20187380D02*
X21493860Y-20969700D01*
X21493860Y-18404300D02*
X21493860Y-19186620D01*
X21471000Y-20977320D02*
X19947000Y-20977320D01*
X19947000Y-18396680D02*
X21471000Y-18396680D01*
X57127140Y-25016380D02*
X57127140Y-25798700D01*
X57127140Y-24015620D02*
X57127140Y-23233300D01*
X58696860Y-25016380D02*
X58696860Y-25798700D01*
X58696860Y-23233300D02*
X58696860Y-24015620D01*
X58674000Y-25806320D02*
X57150000Y-25806320D01*
X57150000Y-23225680D02*
X58674000Y-23225680D01*
X36401080Y-60321560D02*
X37183400Y-60321560D01*
X35400320Y-60321560D02*
X34618000Y-60321560D01*
X36401080Y-58751840D02*
X37183400Y-58751840D01*
X34618000Y-58751840D02*
X35400320Y-58751840D01*
X37191020Y-58774700D02*
X37191020Y-60298700D01*
X34610380Y-60298700D02*
X34610380Y-58774700D01*
X117474860Y-59639620D02*
X117474860Y-58857300D01*
X117474860Y-60640380D02*
X117474860Y-61422700D01*
X115905140Y-59639620D02*
X115905140Y-58857300D01*
X115905140Y-61422700D02*
X115905140Y-60640380D01*
X115928000Y-58849680D02*
X117452000Y-58849680D01*
X117452000Y-61430320D02*
X115928000Y-61430320D01*
X121474860Y-56999620D02*
X121474860Y-56217300D01*
X121474860Y-58000380D02*
X121474860Y-58782700D01*
X119905140Y-56999620D02*
X119905140Y-56217300D01*
X119905140Y-58782700D02*
X119905140Y-58000380D01*
X119928000Y-56209680D02*
X121452000Y-56209680D01*
X121452000Y-58790320D02*
X119928000Y-58790320D01*
X119714860Y-56999620D02*
X119714860Y-56217300D01*
X119714860Y-58000380D02*
X119714860Y-58782700D01*
X118145140Y-56999620D02*
X118145140Y-56217300D01*
X118145140Y-58782700D02*
X118145140Y-58000380D01*
X118168000Y-56209680D02*
X119692000Y-56209680D01*
X119692000Y-58790320D02*
X118168000Y-58790320D01*
X40896880Y-68957560D02*
X41679200Y-68957560D01*
X39896120Y-68957560D02*
X39113800Y-68957560D01*
X40896880Y-67387840D02*
X41679200Y-67387840D01*
X39113800Y-67387840D02*
X39896120Y-67387840D01*
X41686820Y-67410700D02*
X41686820Y-68934700D01*
X39106180Y-68934700D02*
X39106180Y-67410700D01*
X50018020Y-73281140D02*
X49235700Y-73281140D01*
X51018780Y-73281140D02*
X51801100Y-73281140D01*
X50018020Y-74850860D02*
X49235700Y-74850860D01*
X51801100Y-74850860D02*
X51018780Y-74850860D01*
X49228080Y-74828000D02*
X49228080Y-73304000D01*
X51808720Y-73304000D02*
X51808720Y-74828000D01*
X52342120Y-71439140D02*
X51559800Y-71439140D01*
X53342880Y-71439140D02*
X54125200Y-71439140D01*
X52342120Y-73008860D02*
X51559800Y-73008860D01*
X54125200Y-73008860D02*
X53342880Y-73008860D01*
X51552180Y-72986000D02*
X51552180Y-71462000D01*
X54132820Y-71462000D02*
X54132820Y-72986000D01*
X52316720Y-69572240D02*
X51534400Y-69572240D01*
X53317480Y-69572240D02*
X54099800Y-69572240D01*
X52316720Y-71141960D02*
X51534400Y-71141960D01*
X54099800Y-71141960D02*
X53317480Y-71141960D01*
X51526780Y-71119100D02*
X51526780Y-69595100D01*
X54107420Y-69595100D02*
X54107420Y-71119100D01*
X52316720Y-67273540D02*
X51534400Y-67273540D01*
X53317480Y-67273540D02*
X54099800Y-67273540D01*
X52316720Y-68843260D02*
X51534400Y-68843260D01*
X54099800Y-68843260D02*
X53317480Y-68843260D01*
X51526780Y-68820400D02*
X51526780Y-67296400D01*
X54107420Y-67296400D02*
X54107420Y-68820400D01*
X41143260Y-61004820D02*
X41143260Y-60222500D01*
X41143260Y-62005580D02*
X41143260Y-62787900D01*
X39573540Y-61004820D02*
X39573540Y-60222500D01*
X39573540Y-62787900D02*
X39573540Y-62005580D01*
X39596400Y-60214880D02*
X41120400Y-60214880D01*
X41120400Y-62795520D02*
X39596400Y-62795520D01*
X42801380Y-74850860D02*
X43583700Y-74850860D01*
X41800620Y-74850860D02*
X41018300Y-74850860D01*
X42801380Y-73281140D02*
X43583700Y-73281140D01*
X41018300Y-73281140D02*
X41800620Y-73281140D01*
X43591320Y-73304000D02*
X43591320Y-74828000D01*
X41010680Y-74828000D02*
X41010680Y-73304000D01*
X35656860Y-56915420D02*
X35656860Y-56133100D01*
X35656860Y-57916180D02*
X35656860Y-58698500D01*
X34087140Y-56915420D02*
X34087140Y-56133100D01*
X34087140Y-58698500D02*
X34087140Y-57916180D01*
X34110000Y-56125480D02*
X35634000Y-56125480D01*
X35634000Y-58706120D02*
X34110000Y-58706120D01*
X33340380Y-55101860D02*
X34122700Y-55101860D01*
X32339620Y-55101860D02*
X31557300Y-55101860D01*
X33340380Y-53532140D02*
X34122700Y-53532140D01*
X31557300Y-53532140D02*
X32339620Y-53532140D01*
X34130320Y-53555000D02*
X34130320Y-55079000D01*
X31549680Y-55079000D02*
X31549680Y-53555000D01*
X34776620Y-50498140D02*
X33994300Y-50498140D01*
X35777380Y-50498140D02*
X36559700Y-50498140D01*
X34776620Y-52067860D02*
X33994300Y-52067860D01*
X36559700Y-52067860D02*
X35777380Y-52067860D01*
X33986680Y-52045000D02*
X33986680Y-50521000D01*
X36567320Y-50521000D02*
X36567320Y-52045000D01*
X34028380Y-50563860D02*
X34810700Y-50563860D01*
X33027620Y-50563860D02*
X32245300Y-50563860D01*
X34028380Y-48994140D02*
X34810700Y-48994140D01*
X32245300Y-48994140D02*
X33027620Y-48994140D01*
X34818320Y-49017000D02*
X34818320Y-50541000D01*
X32237680Y-50541000D02*
X32237680Y-49017000D01*
X35561620Y-47480140D02*
X34779300Y-47480140D01*
X36562380Y-47480140D02*
X37344700Y-47480140D01*
X35561620Y-49049860D02*
X34779300Y-49049860D01*
X37344700Y-49049860D02*
X36562380Y-49049860D01*
X34771680Y-49027000D02*
X34771680Y-47503000D01*
X37352320Y-47503000D02*
X37352320Y-49027000D01*
X25921040Y-53280680D02*
X25921040Y-54063000D01*
X25921040Y-52279920D02*
X25921040Y-51497600D01*
X27490760Y-53280680D02*
X27490760Y-54063000D01*
X27490760Y-51497600D02*
X27490760Y-52279920D01*
X27467900Y-54070620D02*
X25943900Y-54070620D01*
X25943900Y-51489980D02*
X27467900Y-51489980D01*
X27429860Y-30812620D02*
X27429860Y-30030300D01*
X27429860Y-31813380D02*
X27429860Y-32595700D01*
X25860140Y-30812620D02*
X25860140Y-30030300D01*
X25860140Y-32595700D02*
X25860140Y-31813380D01*
X25883000Y-30022680D02*
X27407000Y-30022680D01*
X27407000Y-32603320D02*
X25883000Y-32603320D01*
X66784860Y-33499620D02*
X66784860Y-32717300D01*
X66784860Y-34500380D02*
X66784860Y-35282700D01*
X65215140Y-33499620D02*
X65215140Y-32717300D01*
X65215140Y-35282700D02*
X65215140Y-34500380D01*
X65238000Y-32709680D02*
X66762000Y-32709680D01*
X66762000Y-35290320D02*
X65238000Y-35290320D01*
X67499620Y-31015140D02*
X66717300Y-31015140D01*
X68500380Y-31015140D02*
X69282700Y-31015140D01*
X67499620Y-32584860D02*
X66717300Y-32584860D01*
X69282700Y-32584860D02*
X68500380Y-32584860D01*
X66709680Y-32562000D02*
X66709680Y-31038000D01*
X69290320Y-31038000D02*
X69290320Y-32562000D01*
X66099620Y-55115140D02*
X65317300Y-55115140D01*
X67100380Y-55115140D02*
X67882700Y-55115140D01*
X66099620Y-56684860D02*
X65317300Y-56684860D01*
X67882700Y-56684860D02*
X67100380Y-56684860D01*
X65309680Y-56662000D02*
X65309680Y-55138000D01*
X67890320Y-55138000D02*
X67890320Y-56662000D01*
X65735540Y-19130380D02*
X65735540Y-19912700D01*
X65735540Y-18129620D02*
X65735540Y-17347300D01*
X67305260Y-19130380D02*
X67305260Y-19912700D01*
X67305260Y-17347300D02*
X67305260Y-18129620D01*
X67282400Y-19920320D02*
X65758400Y-19920320D01*
X65758400Y-17339680D02*
X67282400Y-17339680D01*
X91712120Y-27103440D02*
X90929800Y-27103440D01*
X92712880Y-27103440D02*
X93495200Y-27103440D01*
X91712120Y-28673160D02*
X90929800Y-28673160D01*
X93495200Y-28673160D02*
X92712880Y-28673160D01*
X90922180Y-28650300D02*
X90922180Y-27126300D01*
X93502820Y-27126300D02*
X93502820Y-28650300D01*
X88521380Y-34282860D02*
X89303700Y-34282860D01*
X87520620Y-34282860D02*
X86738300Y-34282860D01*
X88521380Y-32713140D02*
X89303700Y-32713140D01*
X86738300Y-32713140D02*
X87520620Y-32713140D01*
X89311320Y-32736000D02*
X89311320Y-34260000D01*
X86730680Y-34260000D02*
X86730680Y-32736000D01*
X87715140Y-55800380D02*
X87715140Y-56582700D01*
X87715140Y-54799620D02*
X87715140Y-54017300D01*
X89284860Y-55800380D02*
X89284860Y-56582700D01*
X89284860Y-54017300D02*
X89284860Y-54799620D01*
X89262000Y-56590320D02*
X87738000Y-56590320D01*
X87738000Y-54009680D02*
X89262000Y-54009680D01*
X117255140Y-45510380D02*
X117255140Y-46292700D01*
X117255140Y-44509620D02*
X117255140Y-43727300D01*
X118824860Y-45510380D02*
X118824860Y-46292700D01*
X118824860Y-43727300D02*
X118824860Y-44509620D01*
X118802000Y-46300320D02*
X117278000Y-46300320D01*
X117278000Y-43719680D02*
X118802000Y-43719680D01*
X37189860Y-30817620D02*
X37189860Y-30035300D01*
X37189860Y-31818380D02*
X37189860Y-32600700D01*
X35620140Y-30817620D02*
X35620140Y-30035300D01*
X35620140Y-32600700D02*
X35620140Y-31818380D01*
X35643000Y-30027680D02*
X37167000Y-30027680D01*
X37167000Y-32608320D02*
X35643000Y-32608320D01*
X52547860Y-62989620D02*
X52547860Y-62207300D01*
X52547860Y-63990380D02*
X52547860Y-64772700D01*
X50978140Y-62989620D02*
X50978140Y-62207300D01*
X50978140Y-64772700D02*
X50978140Y-63990380D01*
X51001000Y-62199680D02*
X52525000Y-62199680D01*
X52525000Y-64780320D02*
X51001000Y-64780320D01*
X28359440Y-52975880D02*
X28359440Y-53758200D01*
X28359440Y-51975120D02*
X28359440Y-51192800D01*
X29929160Y-52975880D02*
X29929160Y-53758200D01*
X29929160Y-51192800D02*
X29929160Y-51975120D01*
X29906300Y-53765820D02*
X28382300Y-53765820D01*
X28382300Y-51185180D02*
X29906300Y-51185180D01*
X47010660Y-60750820D02*
X47010660Y-59968500D01*
X47010660Y-61751580D02*
X47010660Y-62533900D01*
X45440940Y-60750820D02*
X45440940Y-59968500D01*
X45440940Y-62533900D02*
X45440940Y-61751580D01*
X45463800Y-59960880D02*
X46987800Y-59960880D01*
X46987800Y-62541520D02*
X45463800Y-62541520D01*
X50769860Y-60725420D02*
X50769860Y-59943100D01*
X50769860Y-61726180D02*
X50769860Y-62508500D01*
X49200140Y-60725420D02*
X49200140Y-59943100D01*
X49200140Y-62508500D02*
X49200140Y-61726180D01*
X49223000Y-59935480D02*
X50747000Y-59935480D01*
X50747000Y-62516120D02*
X49223000Y-62516120D01*
X42743460Y-61004820D02*
X42743460Y-60222500D01*
X42743460Y-62005580D02*
X42743460Y-62787900D01*
X41173740Y-61004820D02*
X41173740Y-60222500D01*
X41173740Y-62787900D02*
X41173740Y-62005580D01*
X41196600Y-60214880D02*
X42720600Y-60214880D01*
X42720600Y-62795520D02*
X41196600Y-62795520D01*
X36042940Y-57890780D02*
X36042940Y-58673100D01*
X36042940Y-56890020D02*
X36042940Y-56107700D01*
X37612660Y-57890780D02*
X37612660Y-58673100D01*
X37612660Y-56107700D02*
X37612660Y-56890020D01*
X37589800Y-58680720D02*
X36065800Y-58680720D01*
X36065800Y-56100080D02*
X37589800Y-56100080D01*
D10*
X131874400Y-72707400D02*
X129550300Y-72707400D01*
X129550300Y-72707400D02*
X129547760Y-78173480D01*
X129547760Y-78173480D02*
X131902340Y-78173480D01*
X131906000Y-79030000D02*
X131906000Y-70830000D01*
X131906000Y-70830000D02*
X117906000Y-70830000D01*
X117906000Y-70830000D02*
X117906000Y-79030000D01*
X117906000Y-79030000D02*
X131906000Y-79030000D01*
X21316000Y-34868000D02*
X21316000Y-41728000D01*
X21316000Y-41728000D02*
X8616000Y-41728000D01*
X8616000Y-41728000D02*
X8616000Y-34868000D01*
X8616000Y-34868000D02*
X21316000Y-34868000D01*
X17180880Y-41728000D02*
X17180880Y-34868000D01*
X22675200Y-21050620D02*
X22675200Y-17006940D01*
X64082280Y-21050620D02*
X64082280Y-17006940D01*
X64076200Y-21050280D02*
X22676200Y-21050280D01*
X64076200Y-17006600D02*
X22676200Y-17006600D01*
X23373700Y-21048080D02*
X23373700Y-21939620D01*
X23866460Y-21939620D02*
X23866460Y-21048080D01*
X63376160Y-21939620D02*
X63376160Y-21048080D01*
X62883400Y-21048080D02*
X62883400Y-21939620D01*
X63476200Y-21950600D02*
X23276200Y-21950600D01*
D14*
X112910380Y-65134860D02*
X113692700Y-65134860D01*
X111909620Y-65134860D02*
X111127300Y-65134860D01*
X112910380Y-63565140D02*
X113692700Y-63565140D01*
X111127300Y-63565140D02*
X111909620Y-63565140D01*
X113700320Y-63588000D02*
X113700320Y-65112000D01*
X111119680Y-65112000D02*
X111119680Y-63588000D01*
X108534620Y-63574140D02*
X107752300Y-63574140D01*
X109535380Y-63574140D02*
X110317700Y-63574140D01*
X108534620Y-65143860D02*
X107752300Y-65143860D01*
X110317700Y-65143860D02*
X109535380Y-65143860D01*
X107744680Y-65121000D02*
X107744680Y-63597000D01*
X110325320Y-63597000D02*
X110325320Y-65121000D01*
D10*
X131866400Y-33553400D02*
X129542300Y-33553400D01*
X129542300Y-33553400D02*
X129539760Y-39019480D01*
X129539760Y-39019480D02*
X131894340Y-39019480D01*
X131898000Y-39876000D02*
X131898000Y-31676000D01*
X131898000Y-31676000D02*
X117898000Y-31676000D01*
X117898000Y-31676000D02*
X117898000Y-39876000D01*
X117898000Y-39876000D02*
X131898000Y-39876000D01*
X86820932Y-35782060D02*
G75*
G03X86820932Y-35782060I-590292J0D01*
G01*
X87475000Y-34525000D02*
X86400000Y-34525000D01*
X87475000Y-54875000D02*
X86400000Y-54875000D01*
X67125000Y-54875000D02*
X68200000Y-54875000D01*
X67125000Y-34525000D02*
X68200000Y-34525000D01*
X87475000Y-34525000D02*
X87475000Y-35600000D01*
X67125000Y-34525000D02*
X67125000Y-35600000D01*
X67125000Y-54875000D02*
X67125000Y-53800000D01*
X87475000Y-54875000D02*
X87475000Y-53800000D01*
X86400000Y-34525000D02*
X86400000Y-33425000D01*
X41094202Y-56456580D02*
G75*
G03X41094202Y-56456580I-527862J0D01*
G01*
X39561000Y-57467000D02*
X40361000Y-57467000D01*
X39561000Y-43117000D02*
X40361000Y-43117000D01*
X53911000Y-43117000D02*
X53111000Y-43117000D01*
X53911000Y-57467000D02*
X53111000Y-57467000D01*
X39561000Y-57467000D02*
X39561000Y-56667000D01*
X53911000Y-57467000D02*
X53911000Y-56667000D01*
X53911000Y-43117000D02*
X53911000Y-43917000D01*
X39561000Y-43117000D02*
X39561000Y-43917000D01*
X40361000Y-57467000D02*
X40361000Y-58742000D01*
X131900000Y-45950000D02*
X131900000Y-61650000D01*
X131900000Y-61650000D02*
X124400000Y-61650000D01*
X124400000Y-61650000D02*
X124400000Y-45950000D01*
X124400000Y-45950000D02*
X131900000Y-45950000D01*
X129540000Y-64870000D02*
X129540000Y-68170000D01*
X129540000Y-68170000D02*
X120540000Y-68170000D01*
X120540000Y-68170000D02*
X120540000Y-64870000D01*
X120540000Y-64870000D02*
X129540000Y-64870000D01*
X104760160Y-68346520D02*
X105011620Y-68597980D01*
X105011620Y-68597980D02*
X105260540Y-68945960D01*
X105260540Y-68945960D02*
X105410400Y-69497140D01*
X105410400Y-69497140D02*
X105410400Y-69895920D01*
X105410400Y-69895920D02*
X105209740Y-70396300D01*
X105209740Y-70396300D02*
X104861760Y-70797620D01*
X103010100Y-68346520D02*
X102811980Y-68496380D01*
X102811980Y-68496380D02*
X102560520Y-68796100D01*
X102560520Y-68796100D02*
X102359860Y-69248220D01*
X102359860Y-69248220D02*
X102311600Y-69697800D01*
X102311600Y-69697800D02*
X102410660Y-70198180D01*
X102410660Y-70198180D02*
X102611320Y-70546160D01*
X102611320Y-70546160D02*
X102961840Y-70896680D01*
X120120000Y-52118740D02*
X120120000Y-52560000D01*
X120120000Y-52560000D02*
X119662800Y-52560000D01*
X120620000Y-52060000D02*
X120620000Y-54560000D01*
X120620000Y-54560000D02*
X119620000Y-54560000D01*
X119620000Y-54560000D02*
X119620000Y-52060000D01*
X119620000Y-52060000D02*
X120620000Y-52060000D01*
X120120000Y-49118740D02*
X120120000Y-49560000D01*
X120120000Y-49560000D02*
X119662800Y-49560000D01*
X120620000Y-49060000D02*
X120620000Y-51560000D01*
X120620000Y-51560000D02*
X119620000Y-51560000D01*
X119620000Y-51560000D02*
X119620000Y-49060000D01*
X119620000Y-49060000D02*
X120620000Y-49060000D01*
X115024381Y-69991905D02*
X115833905Y-69991905D01*
X115929143Y-69944286D01*
X115976762Y-69896667D01*
X116024381Y-69801429D01*
X116024381Y-69610952D01*
X115976762Y-69515714D01*
X115929143Y-69468095D01*
X115833905Y-69420476D01*
X115024381Y-69420476D01*
X115452952Y-68801429D02*
X115405333Y-68896667D01*
X115357714Y-68944286D01*
X115262476Y-68991905D01*
X115214857Y-68991905D01*
X115119619Y-68944286D01*
X115072000Y-68896667D01*
X115024381Y-68801429D01*
X115024381Y-68610952D01*
X115072000Y-68515714D01*
X115119619Y-68468095D01*
X115214857Y-68420476D01*
X115262476Y-68420476D01*
X115357714Y-68468095D01*
X115405333Y-68515714D01*
X115452952Y-68610952D01*
X115452952Y-68801429D01*
X115500571Y-68896667D01*
X115548190Y-68944286D01*
X115643429Y-68991905D01*
X115833905Y-68991905D01*
X115929143Y-68944286D01*
X115976762Y-68896667D01*
X116024381Y-68801429D01*
X116024381Y-68610952D01*
X115976762Y-68515714D01*
X115929143Y-68468095D01*
X115833905Y-68420476D01*
X115643429Y-68420476D01*
X115548190Y-68468095D01*
X115500571Y-68515714D01*
X115452952Y-68610952D01*
X76462981Y-21402255D02*
X77272505Y-21402255D01*
X77367743Y-21354636D01*
X77415362Y-21307017D01*
X77462981Y-21211779D01*
X77462981Y-21021302D01*
X77415362Y-20926064D01*
X77367743Y-20878445D01*
X77272505Y-20830826D01*
X76462981Y-20830826D01*
X77462981Y-19830826D02*
X77462981Y-20402255D01*
X77462981Y-20116541D02*
X76462981Y-20116541D01*
X76605838Y-20211779D01*
X76701076Y-20307017D01*
X76748695Y-20402255D01*
X77462981Y-18878445D02*
X77462981Y-19449874D01*
X77462981Y-19164160D02*
X76462981Y-19164160D01*
X76605838Y-19259398D01*
X76701076Y-19354636D01*
X76748695Y-19449874D01*
X77856381Y-26989095D02*
X76856381Y-26989095D01*
X76856381Y-26608142D01*
X76904000Y-26512904D01*
X76951619Y-26465285D01*
X77046857Y-26417666D01*
X77189714Y-26417666D01*
X77284952Y-26465285D01*
X77332571Y-26512904D01*
X77380190Y-26608142D01*
X77380190Y-26989095D01*
X77856381Y-25465285D02*
X77856381Y-26036714D01*
X77856381Y-25751000D02*
X76856381Y-25751000D01*
X76999238Y-25846238D01*
X77094476Y-25941476D01*
X77142095Y-26036714D01*
X37265252Y-35889252D02*
X37646205Y-35889252D01*
X36846205Y-36155919D02*
X37265252Y-35889252D01*
X36846205Y-35622585D01*
X37646205Y-34936871D02*
X37646205Y-35394014D01*
X37646205Y-35165443D02*
X36846205Y-35165443D01*
X36960490Y-35241633D01*
X37036681Y-35317824D01*
X37074776Y-35394014D01*
X23577381Y-49864905D02*
X24386905Y-49864905D01*
X24482143Y-49817286D01*
X24529762Y-49769667D01*
X24577381Y-49674429D01*
X24577381Y-49483952D01*
X24529762Y-49388714D01*
X24482143Y-49341095D01*
X24386905Y-49293476D01*
X23577381Y-49293476D01*
X23910714Y-48388714D02*
X24577381Y-48388714D01*
X23529762Y-48626810D02*
X24244048Y-48864905D01*
X24244048Y-48245857D01*
X16827247Y-74450061D02*
X16827247Y-75164347D01*
X16779627Y-75307204D01*
X16684389Y-75402442D01*
X16541532Y-75450061D01*
X16446294Y-75450061D01*
X17827247Y-75450061D02*
X17255818Y-75450061D01*
X17541532Y-75450061D02*
X17541532Y-74450061D01*
X17446294Y-74592918D01*
X17351056Y-74688156D01*
X17255818Y-74735775D01*
X33802095Y-24232381D02*
X33802095Y-25041905D01*
X33849714Y-25137143D01*
X33897333Y-25184762D01*
X33992571Y-25232381D01*
X34183048Y-25232381D01*
X34278286Y-25184762D01*
X34325905Y-25137143D01*
X34373524Y-25041905D01*
X34373524Y-24232381D01*
X35325905Y-24232381D02*
X34849714Y-24232381D01*
X34802095Y-24708571D01*
X34849714Y-24660952D01*
X34944952Y-24613333D01*
X35183048Y-24613333D01*
X35278286Y-24660952D01*
X35325905Y-24708571D01*
X35373524Y-24803810D01*
X35373524Y-25041905D01*
X35325905Y-25137143D01*
X35278286Y-25184762D01*
X35183048Y-25232381D01*
X34944952Y-25232381D01*
X34849714Y-25184762D01*
X34802095Y-25137143D01*
X56109762Y-27552619D02*
X56014524Y-27505000D01*
X55919286Y-27409762D01*
X55776429Y-27266905D01*
X55681190Y-27219286D01*
X55585952Y-27219286D01*
X55633571Y-27457381D02*
X55538333Y-27409762D01*
X55443095Y-27314524D01*
X55395476Y-27124048D01*
X55395476Y-26790714D01*
X55443095Y-26600238D01*
X55538333Y-26505000D01*
X55633571Y-26457381D01*
X55824048Y-26457381D01*
X55919286Y-26505000D01*
X56014524Y-26600238D01*
X56062143Y-26790714D01*
X56062143Y-27124048D01*
X56014524Y-27314524D01*
X55919286Y-27409762D01*
X55824048Y-27457381D01*
X55633571Y-27457381D01*
X56443095Y-26552619D02*
X56490714Y-26505000D01*
X56585952Y-26457381D01*
X56824048Y-26457381D01*
X56919286Y-26505000D01*
X56966905Y-26552619D01*
X57014524Y-26647857D01*
X57014524Y-26743095D01*
X56966905Y-26885952D01*
X56395476Y-27457381D01*
X57014524Y-27457381D01*
X41956381Y-72013095D02*
X42765905Y-72013095D01*
X42861143Y-71965476D01*
X42908762Y-71917857D01*
X42956381Y-71822619D01*
X42956381Y-71632142D01*
X42908762Y-71536904D01*
X42861143Y-71489285D01*
X42765905Y-71441666D01*
X41956381Y-71441666D01*
X42956381Y-70441666D02*
X42956381Y-71013095D01*
X42956381Y-70727381D02*
X41956381Y-70727381D01*
X42099238Y-70822619D01*
X42194476Y-70917857D01*
X42242095Y-71013095D01*
X41956381Y-70108333D02*
X41956381Y-69441666D01*
X42956381Y-69870238D01*
X97302381Y-48661905D02*
X98111905Y-48661905D01*
X98207143Y-48614286D01*
X98254762Y-48566667D01*
X98302381Y-48471429D01*
X98302381Y-48280952D01*
X98254762Y-48185714D01*
X98207143Y-48138095D01*
X98111905Y-48090476D01*
X97302381Y-48090476D01*
X97302381Y-47709524D02*
X97302381Y-47090476D01*
X97683333Y-47423810D01*
X97683333Y-47280952D01*
X97730952Y-47185714D01*
X97778571Y-47138095D01*
X97873810Y-47090476D01*
X98111905Y-47090476D01*
X98207143Y-47138095D01*
X98254762Y-47185714D01*
X98302381Y-47280952D01*
X98302381Y-47566667D01*
X98254762Y-47661905D01*
X98207143Y-47709524D01*
X72318381Y-75062333D02*
X73032667Y-75062333D01*
X73175524Y-75109953D01*
X73270762Y-75205191D01*
X73318381Y-75348048D01*
X73318381Y-75443286D01*
X72318381Y-74681381D02*
X72318381Y-74062333D01*
X72699333Y-74395667D01*
X72699333Y-74252809D01*
X72746952Y-74157571D01*
X72794571Y-74109952D01*
X72889810Y-74062333D01*
X73127905Y-74062333D01*
X73223143Y-74109952D01*
X73270762Y-74157571D01*
X73318381Y-74252809D01*
X73318381Y-74538524D01*
X73270762Y-74633762D01*
X73223143Y-74681381D01*
X99402667Y-32210762D02*
X99545524Y-32258381D01*
X99783620Y-32258381D01*
X99878858Y-32210762D01*
X99926477Y-32163143D01*
X99974096Y-32067905D01*
X99974096Y-31972667D01*
X99926477Y-31877429D01*
X99878858Y-31829810D01*
X99783620Y-31782190D01*
X99593143Y-31734571D01*
X99497905Y-31686952D01*
X99450286Y-31639333D01*
X99402667Y-31544095D01*
X99402667Y-31448857D01*
X99450286Y-31353619D01*
X99497905Y-31306000D01*
X99593143Y-31258381D01*
X99831239Y-31258381D01*
X99974096Y-31306000D01*
X100307429Y-31258381D02*
X100545524Y-32258381D01*
X100736001Y-31544095D01*
X100926477Y-32258381D01*
X101164572Y-31258381D01*
X101450286Y-31258381D02*
X102069334Y-31258381D01*
X101736000Y-31639333D01*
X101878858Y-31639333D01*
X101974096Y-31686952D01*
X102021715Y-31734571D01*
X102069334Y-31829810D01*
X102069334Y-32067905D01*
X102021715Y-32163143D01*
X101974096Y-32210762D01*
X101878858Y-32258381D01*
X101593143Y-32258381D01*
X101497905Y-32210762D01*
X101450286Y-32163143D01*
X125625667Y-27701762D02*
X125768524Y-27749381D01*
X126006620Y-27749381D01*
X126101858Y-27701762D01*
X126149477Y-27654143D01*
X126197096Y-27558905D01*
X126197096Y-27463667D01*
X126149477Y-27368429D01*
X126101858Y-27320810D01*
X126006620Y-27273190D01*
X125816143Y-27225571D01*
X125720905Y-27177952D01*
X125673286Y-27130333D01*
X125625667Y-27035095D01*
X125625667Y-26939857D01*
X125673286Y-26844619D01*
X125720905Y-26797000D01*
X125816143Y-26749381D01*
X126054239Y-26749381D01*
X126197096Y-26797000D01*
X126530429Y-26749381D02*
X126768524Y-27749381D01*
X126959001Y-27035095D01*
X127149477Y-27749381D01*
X127387572Y-26749381D01*
X127720905Y-26844619D02*
X127768524Y-26797000D01*
X127863762Y-26749381D01*
X128101858Y-26749381D01*
X128197096Y-26797000D01*
X128244715Y-26844619D01*
X128292334Y-26939857D01*
X128292334Y-27035095D01*
X128244715Y-27177952D01*
X127673286Y-27749381D01*
X128292334Y-27749381D01*
X65761381Y-79185333D02*
X66475667Y-79185333D01*
X66618524Y-79232953D01*
X66713762Y-79328191D01*
X66761381Y-79471048D01*
X66761381Y-79566286D01*
X65856619Y-78756762D02*
X65809000Y-78709143D01*
X65761381Y-78613905D01*
X65761381Y-78375809D01*
X65809000Y-78280571D01*
X65856619Y-78232952D01*
X65951857Y-78185333D01*
X66047095Y-78185333D01*
X66189952Y-78232952D01*
X66761381Y-78804381D01*
X66761381Y-78185333D01*
D15*
X22474619Y-25655667D02*
X23200333Y-25655667D01*
X23345476Y-25704047D01*
X23442238Y-25800809D01*
X23490619Y-25945952D01*
X23490619Y-26042714D01*
X22474619Y-24688048D02*
X22474619Y-25171857D01*
X22958429Y-25220238D01*
X22910048Y-25171857D01*
X22861667Y-25075095D01*
X22861667Y-24833191D01*
X22910048Y-24736429D01*
X22958429Y-24688048D01*
X23055190Y-24639667D01*
X23297095Y-24639667D01*
X23393857Y-24688048D01*
X23442238Y-24736429D01*
X23490619Y-24833191D01*
X23490619Y-25075095D01*
X23442238Y-25171857D01*
X23393857Y-25220238D01*
D10*
X17555381Y-23423095D02*
X16555381Y-23423095D01*
X16555381Y-23185000D01*
X16603000Y-23042142D01*
X16698238Y-22946904D01*
X16793476Y-22899285D01*
X16983952Y-22851666D01*
X17126810Y-22851666D01*
X17317286Y-22899285D01*
X17412524Y-22946904D01*
X17507762Y-23042142D01*
X17555381Y-23185000D01*
X17555381Y-23423095D01*
X17555381Y-21899285D02*
X17555381Y-22470714D01*
X17555381Y-22185000D02*
X16555381Y-22185000D01*
X16698238Y-22280238D01*
X16793476Y-22375476D01*
X16841095Y-22470714D01*
X16031381Y-23461095D02*
X15031381Y-23461095D01*
X15031381Y-23223000D01*
X15079000Y-23080142D01*
X15174238Y-22984904D01*
X15269476Y-22937285D01*
X15459952Y-22889666D01*
X15602810Y-22889666D01*
X15793286Y-22937285D01*
X15888524Y-22984904D01*
X15983762Y-23080142D01*
X16031381Y-23223000D01*
X16031381Y-23461095D01*
X15126619Y-22508714D02*
X15079000Y-22461095D01*
X15031381Y-22365857D01*
X15031381Y-22127761D01*
X15079000Y-22032523D01*
X15126619Y-21984904D01*
X15221857Y-21937285D01*
X15317095Y-21937285D01*
X15459952Y-21984904D01*
X16031381Y-22556333D01*
X16031381Y-21937285D01*
D16*
X68123523Y-19400643D02*
X68099333Y-19428462D01*
X68026761Y-19456281D01*
X67978380Y-19456281D01*
X67905809Y-19428462D01*
X67857428Y-19372824D01*
X67833237Y-19317186D01*
X67809047Y-19205910D01*
X67809047Y-19122452D01*
X67833237Y-19011176D01*
X67857428Y-18955538D01*
X67905809Y-18899900D01*
X67978380Y-18872081D01*
X68026761Y-18872081D01*
X68099333Y-18899900D01*
X68123523Y-18927719D01*
X68607333Y-19456281D02*
X68317047Y-19456281D01*
X68462190Y-19456281D02*
X68462190Y-18872081D01*
X68413809Y-18955538D01*
X68365428Y-19011176D01*
X68317047Y-19038995D01*
X68921809Y-18872081D02*
X68970190Y-18872081D01*
X69018571Y-18899900D01*
X69042762Y-18927719D01*
X69066952Y-18983357D01*
X69091143Y-19094633D01*
X69091143Y-19233729D01*
X69066952Y-19345005D01*
X69042762Y-19400643D01*
X69018571Y-19428462D01*
X68970190Y-19456281D01*
X68921809Y-19456281D01*
X68873428Y-19428462D01*
X68849238Y-19400643D01*
X68825047Y-19345005D01*
X68800857Y-19233729D01*
X68800857Y-19094633D01*
X68825047Y-18983357D01*
X68849238Y-18927719D01*
X68873428Y-18899900D01*
X68921809Y-18872081D01*
X69284667Y-18927719D02*
X69308857Y-18899900D01*
X69357238Y-18872081D01*
X69478191Y-18872081D01*
X69526572Y-18899900D01*
X69550762Y-18927719D01*
X69574953Y-18983357D01*
X69574953Y-19038995D01*
X69550762Y-19122452D01*
X69260476Y-19456281D01*
X69574953Y-19456281D01*
X69119048Y-21235814D02*
X69119048Y-21625281D01*
X68998095Y-21013262D02*
X68877143Y-21430548D01*
X69191619Y-21430548D01*
X69336762Y-21041081D02*
X69675429Y-21041081D01*
X69457715Y-21625281D01*
X70086668Y-21235814D02*
X70086668Y-21625281D01*
X69868953Y-21235814D02*
X69868953Y-21541824D01*
X69893144Y-21597462D01*
X69941525Y-21625281D01*
X70014096Y-21625281D01*
X70062477Y-21597462D01*
X70086668Y-21569643D01*
X53093428Y-65504643D02*
X53069238Y-65532462D01*
X52996666Y-65560281D01*
X52948285Y-65560281D01*
X52875714Y-65532462D01*
X52827333Y-65476824D01*
X52803142Y-65421186D01*
X52778952Y-65309910D01*
X52778952Y-65226452D01*
X52803142Y-65115176D01*
X52827333Y-65059538D01*
X52875714Y-65003900D01*
X52948285Y-64976081D01*
X52996666Y-64976081D01*
X53069238Y-65003900D01*
X53093428Y-65031719D01*
X53262761Y-64976081D02*
X53601428Y-64976081D01*
X53383714Y-65560281D01*
X54061048Y-65560281D02*
X53770762Y-65560281D01*
X53915905Y-65560281D02*
X53915905Y-64976081D01*
X53867524Y-65059538D01*
X53819143Y-65115176D01*
X53770762Y-65142995D01*
X53163048Y-63029814D02*
X53163048Y-63419281D01*
X53042095Y-62807262D02*
X52921143Y-63224548D01*
X53235619Y-63224548D01*
X53380762Y-62835081D02*
X53719429Y-62835081D01*
X53501715Y-63419281D01*
X54130668Y-63029814D02*
X54130668Y-63419281D01*
X53912953Y-63029814D02*
X53912953Y-63335824D01*
X53937144Y-63391462D01*
X53985525Y-63419281D01*
X54058096Y-63419281D01*
X54106477Y-63391462D01*
X54130668Y-63363643D01*
X38178233Y-69808581D02*
X38008900Y-69530390D01*
X37887947Y-69808581D02*
X37887947Y-69224381D01*
X38081471Y-69224381D01*
X38129852Y-69252200D01*
X38154043Y-69280019D01*
X38178233Y-69335657D01*
X38178233Y-69419114D01*
X38154043Y-69474752D01*
X38129852Y-69502571D01*
X38081471Y-69530390D01*
X37887947Y-69530390D01*
X38613662Y-69419114D02*
X38613662Y-69808581D01*
X38492709Y-69196562D02*
X38371757Y-69613848D01*
X38686233Y-69613848D01*
D17*
X37892785Y-67437310D02*
X38197585Y-67437310D01*
X38001642Y-67945310D01*
X38589471Y-67437310D02*
X38371757Y-67437310D01*
X38349986Y-67679214D01*
X38371757Y-67655024D01*
X38415300Y-67630833D01*
X38524157Y-67630833D01*
X38567700Y-67655024D01*
X38589471Y-67679214D01*
X38611243Y-67727595D01*
X38611243Y-67848548D01*
X38589471Y-67896929D01*
X38567700Y-67921119D01*
X38524157Y-67945310D01*
X38415300Y-67945310D01*
X38371757Y-67921119D01*
X38349986Y-67896929D01*
D16*
X55250281Y-74726667D02*
X54972090Y-74896000D01*
X55250281Y-75016953D02*
X54666081Y-75016953D01*
X54666081Y-74823429D01*
X54693900Y-74775048D01*
X54721719Y-74750857D01*
X54777357Y-74726667D01*
X54860814Y-74726667D01*
X54916452Y-74750857D01*
X54944271Y-74775048D01*
X54972090Y-74823429D01*
X54972090Y-75016953D01*
X54666081Y-74267048D02*
X54666081Y-74508953D01*
X54944271Y-74533143D01*
X54916452Y-74508953D01*
X54888633Y-74460572D01*
X54888633Y-74339619D01*
X54916452Y-74291238D01*
X54944271Y-74267048D01*
X54999910Y-74242857D01*
X55139005Y-74242857D01*
X55194643Y-74267048D01*
X55222462Y-74291238D01*
X55250281Y-74339619D01*
X55250281Y-74460572D01*
X55222462Y-74508953D01*
X55194643Y-74533143D01*
D17*
X52894510Y-74448315D02*
X52894510Y-74143515D01*
X53402510Y-74339458D01*
X52894510Y-73751629D02*
X52894510Y-73969343D01*
X53136414Y-73991114D01*
X53112224Y-73969343D01*
X53088033Y-73925800D01*
X53088033Y-73816943D01*
X53112224Y-73773400D01*
X53136414Y-73751629D01*
X53184795Y-73729857D01*
X53305748Y-73729857D01*
X53354129Y-73751629D01*
X53378319Y-73773400D01*
X53402510Y-73816943D01*
X53402510Y-73925800D01*
X53378319Y-73969343D01*
X53354129Y-73991114D01*
D16*
X56735333Y-72156281D02*
X56566000Y-71878090D01*
X56445047Y-72156281D02*
X56445047Y-71572081D01*
X56638571Y-71572081D01*
X56686952Y-71599900D01*
X56711143Y-71627719D01*
X56735333Y-71683357D01*
X56735333Y-71766814D01*
X56711143Y-71822452D01*
X56686952Y-71850271D01*
X56638571Y-71878090D01*
X56445047Y-71878090D01*
X57170762Y-71572081D02*
X57074000Y-71572081D01*
X57025619Y-71599900D01*
X57001428Y-71627719D01*
X56953047Y-71711176D01*
X56928857Y-71822452D01*
X56928857Y-72045005D01*
X56953047Y-72100643D01*
X56977238Y-72128462D01*
X57025619Y-72156281D01*
X57122381Y-72156281D01*
X57170762Y-72128462D01*
X57194952Y-72100643D01*
X57219143Y-72045005D01*
X57219143Y-71905910D01*
X57194952Y-71850271D01*
X57170762Y-71822452D01*
X57122381Y-71794633D01*
X57025619Y-71794633D01*
X56977238Y-71822452D01*
X56953047Y-71850271D01*
X56928857Y-71905910D01*
D17*
X54910785Y-72491910D02*
X55215585Y-72491910D01*
X55019642Y-72999910D01*
X55607471Y-72491910D02*
X55389757Y-72491910D01*
X55367986Y-72733814D01*
X55389757Y-72709624D01*
X55433300Y-72685433D01*
X55542157Y-72685433D01*
X55585700Y-72709624D01*
X55607471Y-72733814D01*
X55629243Y-72782195D01*
X55629243Y-72903148D01*
X55607471Y-72951529D01*
X55585700Y-72975719D01*
X55542157Y-72999910D01*
X55433300Y-72999910D01*
X55389757Y-72975719D01*
X55367986Y-72951529D01*
D16*
X56394333Y-70551281D02*
X56225000Y-70273090D01*
X56104047Y-70551281D02*
X56104047Y-69967081D01*
X56297571Y-69967081D01*
X56345952Y-69994900D01*
X56370143Y-70022719D01*
X56394333Y-70078357D01*
X56394333Y-70161814D01*
X56370143Y-70217452D01*
X56345952Y-70245271D01*
X56297571Y-70273090D01*
X56104047Y-70273090D01*
X56563666Y-69967081D02*
X56902333Y-69967081D01*
X56684619Y-70551281D01*
D17*
X54631385Y-69088310D02*
X54936185Y-69088310D01*
X54740242Y-69596310D01*
X55328071Y-69088310D02*
X55110357Y-69088310D01*
X55088586Y-69330214D01*
X55110357Y-69306024D01*
X55153900Y-69281833D01*
X55262757Y-69281833D01*
X55306300Y-69306024D01*
X55328071Y-69330214D01*
X55349843Y-69378595D01*
X55349843Y-69499548D01*
X55328071Y-69547929D01*
X55306300Y-69572119D01*
X55262757Y-69596310D01*
X55153900Y-69596310D01*
X55110357Y-69572119D01*
X55088586Y-69547929D01*
D16*
X56359333Y-67894281D02*
X56190000Y-67616090D01*
X56069047Y-67894281D02*
X56069047Y-67310081D01*
X56262571Y-67310081D01*
X56310952Y-67337900D01*
X56335143Y-67365719D01*
X56359333Y-67421357D01*
X56359333Y-67504814D01*
X56335143Y-67560452D01*
X56310952Y-67588271D01*
X56262571Y-67616090D01*
X56069047Y-67616090D01*
X56649619Y-67560452D02*
X56601238Y-67532633D01*
X56577047Y-67504814D01*
X56552857Y-67449176D01*
X56552857Y-67421357D01*
X56577047Y-67365719D01*
X56601238Y-67337900D01*
X56649619Y-67310081D01*
X56746381Y-67310081D01*
X56794762Y-67337900D01*
X56818952Y-67365719D01*
X56843143Y-67421357D01*
X56843143Y-67449176D01*
X56818952Y-67504814D01*
X56794762Y-67532633D01*
X56746381Y-67560452D01*
X56649619Y-67560452D01*
X56601238Y-67588271D01*
X56577047Y-67616090D01*
X56552857Y-67671729D01*
X56552857Y-67783005D01*
X56577047Y-67838643D01*
X56601238Y-67866462D01*
X56649619Y-67894281D01*
X56746381Y-67894281D01*
X56794762Y-67866462D01*
X56818952Y-67838643D01*
X56843143Y-67783005D01*
X56843143Y-67671729D01*
X56818952Y-67616090D01*
X56794762Y-67588271D01*
X56746381Y-67560452D01*
D17*
X54626885Y-66506810D02*
X54931685Y-66506810D01*
X54735742Y-67014810D01*
X55323571Y-66506810D02*
X55105857Y-66506810D01*
X55084086Y-66748714D01*
X55105857Y-66724524D01*
X55149400Y-66700333D01*
X55258257Y-66700333D01*
X55301800Y-66724524D01*
X55323571Y-66748714D01*
X55345343Y-66797095D01*
X55345343Y-66918048D01*
X55323571Y-66966429D01*
X55301800Y-66990619D01*
X55258257Y-67014810D01*
X55149400Y-67014810D01*
X55105857Y-66990619D01*
X55084086Y-66966429D01*
D16*
X40011333Y-71465281D02*
X39842000Y-71187090D01*
X39721047Y-71465281D02*
X39721047Y-70881081D01*
X39914571Y-70881081D01*
X39962952Y-70908900D01*
X39987143Y-70936719D01*
X40011333Y-70992357D01*
X40011333Y-71075814D01*
X39987143Y-71131452D01*
X39962952Y-71159271D01*
X39914571Y-71187090D01*
X39721047Y-71187090D01*
X40253238Y-71465281D02*
X40350000Y-71465281D01*
X40398381Y-71437462D01*
X40422571Y-71409643D01*
X40470952Y-71326186D01*
X40495143Y-71214910D01*
X40495143Y-70992357D01*
X40470952Y-70936719D01*
X40446762Y-70908900D01*
X40398381Y-70881081D01*
X40301619Y-70881081D01*
X40253238Y-70908900D01*
X40229047Y-70936719D01*
X40204857Y-70992357D01*
X40204857Y-71131452D01*
X40229047Y-71187090D01*
X40253238Y-71214910D01*
X40301619Y-71242729D01*
X40398381Y-71242729D01*
X40446762Y-71214910D01*
X40470952Y-71187090D01*
X40495143Y-71131452D01*
D17*
X39733885Y-72736810D02*
X40038685Y-72736810D01*
X39842742Y-73244810D01*
X40430571Y-72736810D02*
X40212857Y-72736810D01*
X40191086Y-72978714D01*
X40212857Y-72954524D01*
X40256400Y-72930333D01*
X40365257Y-72930333D01*
X40408800Y-72954524D01*
X40430571Y-72978714D01*
X40452343Y-73027095D01*
X40452343Y-73148048D01*
X40430571Y-73196429D01*
X40408800Y-73220619D01*
X40365257Y-73244810D01*
X40256400Y-73244810D01*
X40212857Y-73220619D01*
X40191086Y-73196429D01*
D16*
X37744281Y-51573572D02*
X37466090Y-51742905D01*
X37744281Y-51863858D02*
X37160081Y-51863858D01*
X37160081Y-51670334D01*
X37187900Y-51621953D01*
X37215719Y-51597762D01*
X37271357Y-51573572D01*
X37354814Y-51573572D01*
X37410452Y-51597762D01*
X37438271Y-51621953D01*
X37466090Y-51670334D01*
X37466090Y-51863858D01*
X37744281Y-51089762D02*
X37744281Y-51380048D01*
X37744281Y-51234905D02*
X37160081Y-51234905D01*
X37243538Y-51283286D01*
X37299176Y-51331667D01*
X37326995Y-51380048D01*
X37744281Y-50605952D02*
X37744281Y-50896238D01*
X37744281Y-50751095D02*
X37160081Y-50751095D01*
X37243538Y-50799476D01*
X37299176Y-50847857D01*
X37326995Y-50896238D01*
D17*
X36292810Y-50160000D02*
X36292810Y-50421257D01*
X36292810Y-50290629D02*
X35784810Y-50290629D01*
X35857381Y-50334172D01*
X35905762Y-50377714D01*
X35929952Y-50421257D01*
X36244429Y-49964057D02*
X36268619Y-49942285D01*
X36292810Y-49964057D01*
X36268619Y-49985828D01*
X36244429Y-49964057D01*
X36292810Y-49964057D01*
X35784810Y-49528629D02*
X35784810Y-49746343D01*
X36026714Y-49768114D01*
X36002524Y-49746343D01*
X35978333Y-49702800D01*
X35978333Y-49593943D01*
X36002524Y-49550400D01*
X36026714Y-49528629D01*
X36075095Y-49506857D01*
X36196048Y-49506857D01*
X36244429Y-49528629D01*
X36268619Y-49550400D01*
X36292810Y-49593943D01*
X36292810Y-49702800D01*
X36268619Y-49746343D01*
X36244429Y-49768114D01*
X36292810Y-49310914D02*
X35784810Y-49310914D01*
X36099286Y-49267371D02*
X36292810Y-49136742D01*
X35954143Y-49136742D02*
X36147667Y-49310914D01*
D16*
X23033281Y-52058572D02*
X22755090Y-52227905D01*
X23033281Y-52348858D02*
X22449081Y-52348858D01*
X22449081Y-52155334D01*
X22476900Y-52106953D01*
X22504719Y-52082762D01*
X22560357Y-52058572D01*
X22643814Y-52058572D01*
X22699452Y-52082762D01*
X22727271Y-52106953D01*
X22755090Y-52155334D01*
X22755090Y-52348858D01*
X23033281Y-51574762D02*
X23033281Y-51865048D01*
X23033281Y-51719905D02*
X22449081Y-51719905D01*
X22532538Y-51768286D01*
X22588176Y-51816667D01*
X22615995Y-51865048D01*
X22504719Y-51381238D02*
X22476900Y-51357048D01*
X22449081Y-51308667D01*
X22449081Y-51187714D01*
X22476900Y-51139333D01*
X22504719Y-51115143D01*
X22560357Y-51090952D01*
X22615995Y-51090952D01*
X22699452Y-51115143D01*
X23033281Y-51405429D01*
X23033281Y-51090952D01*
D17*
X24357610Y-52352129D02*
X24357610Y-52069100D01*
X24551133Y-52221500D01*
X24551133Y-52156186D01*
X24575324Y-52112643D01*
X24599514Y-52090872D01*
X24647895Y-52069100D01*
X24768848Y-52069100D01*
X24817229Y-52090872D01*
X24841419Y-52112643D01*
X24865610Y-52156186D01*
X24865610Y-52286814D01*
X24841419Y-52330357D01*
X24817229Y-52352129D01*
X24357610Y-51916700D02*
X24357610Y-51633671D01*
X24551133Y-51786071D01*
X24551133Y-51720757D01*
X24575324Y-51677214D01*
X24599514Y-51655443D01*
X24647895Y-51633671D01*
X24768848Y-51633671D01*
X24817229Y-51655443D01*
X24841419Y-51677214D01*
X24865610Y-51720757D01*
X24865610Y-51851385D01*
X24841419Y-51894928D01*
X24817229Y-51916700D01*
X24357610Y-51350642D02*
X24357610Y-51307099D01*
X24381800Y-51263556D01*
X24405990Y-51241785D01*
X24454371Y-51220014D01*
X24551133Y-51198242D01*
X24672086Y-51198242D01*
X24768848Y-51220014D01*
X24817229Y-51241785D01*
X24841419Y-51263556D01*
X24865610Y-51307099D01*
X24865610Y-51350642D01*
X24841419Y-51394185D01*
X24817229Y-51415956D01*
X24768848Y-51437728D01*
X24672086Y-51459499D01*
X24551133Y-51459499D01*
X24454371Y-51437728D01*
X24405990Y-51415956D01*
X24381800Y-51394185D01*
X24357610Y-51350642D01*
D16*
X39043428Y-40091481D02*
X38874095Y-39813290D01*
X38753142Y-40091481D02*
X38753142Y-39507281D01*
X38946666Y-39507281D01*
X38995047Y-39535100D01*
X39019238Y-39562919D01*
X39043428Y-39618557D01*
X39043428Y-39702014D01*
X39019238Y-39757652D01*
X38995047Y-39785471D01*
X38946666Y-39813290D01*
X38753142Y-39813290D01*
X39527238Y-40091481D02*
X39236952Y-40091481D01*
X39382095Y-40091481D02*
X39382095Y-39507281D01*
X39333714Y-39590738D01*
X39285333Y-39646376D01*
X39236952Y-39674195D01*
X39696571Y-39507281D02*
X40011048Y-39507281D01*
X39841714Y-39729833D01*
X39914286Y-39729833D01*
X39962667Y-39757652D01*
X39986857Y-39785471D01*
X40011048Y-39841110D01*
X40011048Y-39980205D01*
X39986857Y-40035843D01*
X39962667Y-40063662D01*
X39914286Y-40091481D01*
X39769143Y-40091481D01*
X39720762Y-40063662D01*
X39696571Y-40035843D01*
D17*
X38727743Y-41426190D02*
X38749514Y-41402000D01*
X38793057Y-41377810D01*
X38901914Y-41377810D01*
X38945457Y-41402000D01*
X38967228Y-41426190D01*
X38989000Y-41474571D01*
X38989000Y-41522952D01*
X38967228Y-41595524D01*
X38705971Y-41885810D01*
X38989000Y-41885810D01*
X39184943Y-41837429D02*
X39206715Y-41861619D01*
X39184943Y-41885810D01*
X39163172Y-41861619D01*
X39184943Y-41837429D01*
X39184943Y-41885810D01*
X39380886Y-41426190D02*
X39402657Y-41402000D01*
X39446200Y-41377810D01*
X39555057Y-41377810D01*
X39598600Y-41402000D01*
X39620371Y-41426190D01*
X39642143Y-41474571D01*
X39642143Y-41522952D01*
X39620371Y-41595524D01*
X39359114Y-41885810D01*
X39642143Y-41885810D01*
X39838086Y-41885810D02*
X39838086Y-41377810D01*
X39881629Y-41692286D02*
X40012258Y-41885810D01*
X40012258Y-41547143D02*
X39838086Y-41740667D01*
D16*
X44245428Y-35087281D02*
X44076095Y-34809090D01*
X43955142Y-35087281D02*
X43955142Y-34503081D01*
X44148666Y-34503081D01*
X44197047Y-34530900D01*
X44221238Y-34558719D01*
X44245428Y-34614357D01*
X44245428Y-34697814D01*
X44221238Y-34753452D01*
X44197047Y-34781271D01*
X44148666Y-34809090D01*
X43955142Y-34809090D01*
X44729238Y-35087281D02*
X44438952Y-35087281D01*
X44584095Y-35087281D02*
X44584095Y-34503081D01*
X44535714Y-34586538D01*
X44487333Y-34642176D01*
X44438952Y-34669995D01*
X45164667Y-34697814D02*
X45164667Y-35087281D01*
X45043714Y-34475262D02*
X44922762Y-34892548D01*
X45237238Y-34892548D01*
D17*
X44288743Y-36376190D02*
X44310514Y-36352000D01*
X44354057Y-36327810D01*
X44462914Y-36327810D01*
X44506457Y-36352000D01*
X44528228Y-36376190D01*
X44550000Y-36424571D01*
X44550000Y-36472952D01*
X44528228Y-36545524D01*
X44266971Y-36835810D01*
X44550000Y-36835810D01*
X44745943Y-36787429D02*
X44767715Y-36811619D01*
X44745943Y-36835810D01*
X44724172Y-36811619D01*
X44745943Y-36787429D01*
X44745943Y-36835810D01*
X44941886Y-36376190D02*
X44963657Y-36352000D01*
X45007200Y-36327810D01*
X45116057Y-36327810D01*
X45159600Y-36352000D01*
X45181371Y-36376190D01*
X45203143Y-36424571D01*
X45203143Y-36472952D01*
X45181371Y-36545524D01*
X44920114Y-36835810D01*
X45203143Y-36835810D01*
X45399086Y-36835810D02*
X45399086Y-36327810D01*
X45442629Y-36642286D02*
X45573258Y-36835810D01*
X45573258Y-36497143D02*
X45399086Y-36690667D01*
D16*
X46536428Y-38323281D02*
X46367095Y-38045090D01*
X46246142Y-38323281D02*
X46246142Y-37739081D01*
X46439666Y-37739081D01*
X46488047Y-37766900D01*
X46512238Y-37794719D01*
X46536428Y-37850357D01*
X46536428Y-37933814D01*
X46512238Y-37989452D01*
X46488047Y-38017271D01*
X46439666Y-38045090D01*
X46246142Y-38045090D01*
X47020238Y-38323281D02*
X46729952Y-38323281D01*
X46875095Y-38323281D02*
X46875095Y-37739081D01*
X46826714Y-37822538D01*
X46778333Y-37878176D01*
X46729952Y-37905995D01*
X47479857Y-37739081D02*
X47237952Y-37739081D01*
X47213762Y-38017271D01*
X47237952Y-37989452D01*
X47286333Y-37961633D01*
X47407286Y-37961633D01*
X47455667Y-37989452D01*
X47479857Y-38017271D01*
X47504048Y-38072910D01*
X47504048Y-38212005D01*
X47479857Y-38267643D01*
X47455667Y-38295462D01*
X47407286Y-38323281D01*
X47286333Y-38323281D01*
X47237952Y-38295462D01*
X47213762Y-38267643D01*
D17*
X44973943Y-39545690D02*
X44995714Y-39521500D01*
X45039257Y-39497310D01*
X45148114Y-39497310D01*
X45191657Y-39521500D01*
X45213428Y-39545690D01*
X45235200Y-39594071D01*
X45235200Y-39642452D01*
X45213428Y-39715024D01*
X44952171Y-40005310D01*
X45235200Y-40005310D01*
X45431143Y-39956929D02*
X45452915Y-39981119D01*
X45431143Y-40005310D01*
X45409372Y-39981119D01*
X45431143Y-39956929D01*
X45431143Y-40005310D01*
X45627086Y-39545690D02*
X45648857Y-39521500D01*
X45692400Y-39497310D01*
X45801257Y-39497310D01*
X45844800Y-39521500D01*
X45866571Y-39545690D01*
X45888343Y-39594071D01*
X45888343Y-39642452D01*
X45866571Y-39715024D01*
X45605314Y-40005310D01*
X45888343Y-40005310D01*
X46084286Y-40005310D02*
X46084286Y-39497310D01*
X46127829Y-39811786D02*
X46258458Y-40005310D01*
X46258458Y-39666643D02*
X46084286Y-39860167D01*
D16*
X90660681Y-29992872D02*
X90382490Y-30162205D01*
X90660681Y-30283158D02*
X90076481Y-30283158D01*
X90076481Y-30089634D01*
X90104300Y-30041253D01*
X90132119Y-30017062D01*
X90187757Y-29992872D01*
X90271214Y-29992872D01*
X90326852Y-30017062D01*
X90354671Y-30041253D01*
X90382490Y-30089634D01*
X90382490Y-30283158D01*
X90132119Y-29799348D02*
X90104300Y-29775158D01*
X90076481Y-29726777D01*
X90076481Y-29605824D01*
X90104300Y-29557443D01*
X90132119Y-29533253D01*
X90187757Y-29509062D01*
X90243395Y-29509062D01*
X90326852Y-29533253D01*
X90660681Y-29823539D01*
X90660681Y-29509062D01*
X90076481Y-29339729D02*
X90076481Y-29025252D01*
X90299033Y-29194586D01*
X90299033Y-29122014D01*
X90326852Y-29073633D01*
X90354671Y-29049443D01*
X90410310Y-29025252D01*
X90549405Y-29025252D01*
X90605043Y-29049443D01*
X90632862Y-29073633D01*
X90660681Y-29122014D01*
X90660681Y-29267157D01*
X90632862Y-29315538D01*
X90605043Y-29339729D01*
D17*
X91995390Y-30014643D02*
X91971200Y-29992872D01*
X91947010Y-29949329D01*
X91947010Y-29840472D01*
X91971200Y-29796929D01*
X91995390Y-29775158D01*
X92043771Y-29753386D01*
X92092152Y-29753386D01*
X92164724Y-29775158D01*
X92455010Y-30036415D01*
X92455010Y-29753386D01*
X91947010Y-29339729D02*
X91947010Y-29557443D01*
X92188914Y-29579214D01*
X92164724Y-29557443D01*
X92140533Y-29513900D01*
X92140533Y-29405043D01*
X92164724Y-29361500D01*
X92188914Y-29339729D01*
X92237295Y-29317957D01*
X92358248Y-29317957D01*
X92406629Y-29339729D01*
X92430819Y-29361500D01*
X92455010Y-29405043D01*
X92455010Y-29513900D01*
X92430819Y-29557443D01*
X92406629Y-29579214D01*
D16*
X116385428Y-58111281D02*
X116216095Y-57833090D01*
X116095142Y-58111281D02*
X116095142Y-57527081D01*
X116288666Y-57527081D01*
X116337047Y-57554900D01*
X116361238Y-57582719D01*
X116385428Y-57638357D01*
X116385428Y-57721814D01*
X116361238Y-57777452D01*
X116337047Y-57805271D01*
X116288666Y-57833090D01*
X116095142Y-57833090D01*
X116578952Y-57582719D02*
X116603142Y-57554900D01*
X116651523Y-57527081D01*
X116772476Y-57527081D01*
X116820857Y-57554900D01*
X116845047Y-57582719D01*
X116869238Y-57638357D01*
X116869238Y-57693995D01*
X116845047Y-57777452D01*
X116554761Y-58111281D01*
X116869238Y-58111281D01*
X117328857Y-57527081D02*
X117086952Y-57527081D01*
X117062762Y-57805271D01*
X117086952Y-57777452D01*
X117135333Y-57749633D01*
X117256286Y-57749633D01*
X117304667Y-57777452D01*
X117328857Y-57805271D01*
X117353048Y-57860910D01*
X117353048Y-58000005D01*
X117328857Y-58055643D01*
X117304667Y-58083462D01*
X117256286Y-58111281D01*
X117135333Y-58111281D01*
X117086952Y-58083462D01*
X117062762Y-58055643D01*
D17*
X116344657Y-55682810D02*
X116257571Y-55682810D01*
X116214028Y-55707000D01*
X116192257Y-55731190D01*
X116148714Y-55803762D01*
X116126943Y-55900524D01*
X116126943Y-56094048D01*
X116148714Y-56142429D01*
X116170486Y-56166619D01*
X116214028Y-56190810D01*
X116301114Y-56190810D01*
X116344657Y-56166619D01*
X116366428Y-56142429D01*
X116388200Y-56094048D01*
X116388200Y-55973095D01*
X116366428Y-55924714D01*
X116344657Y-55900524D01*
X116301114Y-55876333D01*
X116214028Y-55876333D01*
X116170486Y-55900524D01*
X116148714Y-55924714D01*
X116126943Y-55973095D01*
X116605915Y-56190810D02*
X116693000Y-56190810D01*
X116736543Y-56166619D01*
X116758315Y-56142429D01*
X116801857Y-56069857D01*
X116823629Y-55973095D01*
X116823629Y-55779571D01*
X116801857Y-55731190D01*
X116780086Y-55707000D01*
X116736543Y-55682810D01*
X116649457Y-55682810D01*
X116605915Y-55707000D01*
X116584143Y-55731190D01*
X116562372Y-55779571D01*
X116562372Y-55900524D01*
X116584143Y-55948905D01*
X116605915Y-55973095D01*
X116649457Y-55997286D01*
X116736543Y-55997286D01*
X116780086Y-55973095D01*
X116801857Y-55948905D01*
X116823629Y-55900524D01*
X117084886Y-55900524D02*
X117041344Y-55876333D01*
X117019572Y-55852143D01*
X116997801Y-55803762D01*
X116997801Y-55779571D01*
X117019572Y-55731190D01*
X117041344Y-55707000D01*
X117084886Y-55682810D01*
X117171972Y-55682810D01*
X117215515Y-55707000D01*
X117237286Y-55731190D01*
X117259058Y-55779571D01*
X117259058Y-55803762D01*
X117237286Y-55852143D01*
X117215515Y-55876333D01*
X117171972Y-55900524D01*
X117084886Y-55900524D01*
X117041344Y-55924714D01*
X117019572Y-55948905D01*
X116997801Y-55997286D01*
X116997801Y-56094048D01*
X117019572Y-56142429D01*
X117041344Y-56166619D01*
X117084886Y-56190810D01*
X117171972Y-56190810D01*
X117215515Y-56166619D01*
X117237286Y-56142429D01*
X117259058Y-56094048D01*
X117259058Y-55997286D01*
X117237286Y-55948905D01*
X117215515Y-55924714D01*
X117171972Y-55900524D01*
D16*
X66291428Y-26812281D02*
X66122095Y-26534090D01*
X66001142Y-26812281D02*
X66001142Y-26228081D01*
X66194666Y-26228081D01*
X66243047Y-26255900D01*
X66267238Y-26283719D01*
X66291428Y-26339357D01*
X66291428Y-26422814D01*
X66267238Y-26478452D01*
X66243047Y-26506271D01*
X66194666Y-26534090D01*
X66001142Y-26534090D01*
X66484952Y-26283719D02*
X66509142Y-26255900D01*
X66557523Y-26228081D01*
X66678476Y-26228081D01*
X66726857Y-26255900D01*
X66751047Y-26283719D01*
X66775238Y-26339357D01*
X66775238Y-26394995D01*
X66751047Y-26478452D01*
X66460761Y-26812281D01*
X66775238Y-26812281D01*
X67065524Y-26478452D02*
X67017143Y-26450633D01*
X66992952Y-26422814D01*
X66968762Y-26367176D01*
X66968762Y-26339357D01*
X66992952Y-26283719D01*
X67017143Y-26255900D01*
X67065524Y-26228081D01*
X67162286Y-26228081D01*
X67210667Y-26255900D01*
X67234857Y-26283719D01*
X67259048Y-26339357D01*
X67259048Y-26367176D01*
X67234857Y-26422814D01*
X67210667Y-26450633D01*
X67162286Y-26478452D01*
X67065524Y-26478452D01*
X67017143Y-26506271D01*
X66992952Y-26534090D01*
X66968762Y-26589729D01*
X66968762Y-26701005D01*
X66992952Y-26756643D01*
X67017143Y-26784462D01*
X67065524Y-26812281D01*
X67162286Y-26812281D01*
X67210667Y-26784462D01*
X67234857Y-26756643D01*
X67259048Y-26701005D01*
X67259048Y-26589729D01*
X67234857Y-26534090D01*
X67210667Y-26506271D01*
X67162286Y-26478452D01*
D17*
X66337157Y-24866910D02*
X66075900Y-24866910D01*
X66206528Y-24866910D02*
X66206528Y-24358910D01*
X66162985Y-24431481D01*
X66119443Y-24479862D01*
X66075900Y-24504052D01*
X66620186Y-24358910D02*
X66663729Y-24358910D01*
X66707272Y-24383100D01*
X66729043Y-24407290D01*
X66750814Y-24455671D01*
X66772586Y-24552433D01*
X66772586Y-24673386D01*
X66750814Y-24770148D01*
X66729043Y-24818529D01*
X66707272Y-24842719D01*
X66663729Y-24866910D01*
X66620186Y-24866910D01*
X66576643Y-24842719D01*
X66554872Y-24818529D01*
X66533100Y-24770148D01*
X66511329Y-24673386D01*
X66511329Y-24552433D01*
X66533100Y-24455671D01*
X66554872Y-24407290D01*
X66576643Y-24383100D01*
X66620186Y-24358910D01*
X66968529Y-24866910D02*
X66968529Y-24358910D01*
X67012072Y-24673386D02*
X67142701Y-24866910D01*
X67142701Y-24528243D02*
X66968529Y-24721767D01*
D16*
X67899428Y-26801281D02*
X67730095Y-26523090D01*
X67609142Y-26801281D02*
X67609142Y-26217081D01*
X67802666Y-26217081D01*
X67851047Y-26244900D01*
X67875238Y-26272719D01*
X67899428Y-26328357D01*
X67899428Y-26411814D01*
X67875238Y-26467452D01*
X67851047Y-26495271D01*
X67802666Y-26523090D01*
X67609142Y-26523090D01*
X68092952Y-26272719D02*
X68117142Y-26244900D01*
X68165523Y-26217081D01*
X68286476Y-26217081D01*
X68334857Y-26244900D01*
X68359047Y-26272719D01*
X68383238Y-26328357D01*
X68383238Y-26383995D01*
X68359047Y-26467452D01*
X68068761Y-26801281D01*
X68383238Y-26801281D01*
X68625143Y-26801281D02*
X68721905Y-26801281D01*
X68770286Y-26773462D01*
X68794476Y-26745643D01*
X68842857Y-26662186D01*
X68867048Y-26550910D01*
X68867048Y-26328357D01*
X68842857Y-26272719D01*
X68818667Y-26244900D01*
X68770286Y-26217081D01*
X68673524Y-26217081D01*
X68625143Y-26244900D01*
X68600952Y-26272719D01*
X68576762Y-26328357D01*
X68576762Y-26467452D01*
X68600952Y-26523090D01*
X68625143Y-26550910D01*
X68673524Y-26578729D01*
X68770286Y-26578729D01*
X68818667Y-26550910D01*
X68842857Y-26523090D01*
X68867048Y-26467452D01*
D17*
X67950057Y-24879610D02*
X67688800Y-24879610D01*
X67819428Y-24879610D02*
X67819428Y-24371610D01*
X67775885Y-24444181D01*
X67732343Y-24492562D01*
X67688800Y-24516752D01*
X68233086Y-24371610D02*
X68276629Y-24371610D01*
X68320172Y-24395800D01*
X68341943Y-24419990D01*
X68363714Y-24468371D01*
X68385486Y-24565133D01*
X68385486Y-24686086D01*
X68363714Y-24782848D01*
X68341943Y-24831229D01*
X68320172Y-24855419D01*
X68276629Y-24879610D01*
X68233086Y-24879610D01*
X68189543Y-24855419D01*
X68167772Y-24831229D01*
X68146000Y-24782848D01*
X68124229Y-24686086D01*
X68124229Y-24565133D01*
X68146000Y-24468371D01*
X68167772Y-24419990D01*
X68189543Y-24395800D01*
X68233086Y-24371610D01*
X68581429Y-24879610D02*
X68581429Y-24371610D01*
X68624972Y-24686086D02*
X68755601Y-24879610D01*
X68755601Y-24540943D02*
X68581429Y-24734467D01*
D16*
X69522428Y-26839281D02*
X69353095Y-26561090D01*
X69232142Y-26839281D02*
X69232142Y-26255081D01*
X69425666Y-26255081D01*
X69474047Y-26282900D01*
X69498238Y-26310719D01*
X69522428Y-26366357D01*
X69522428Y-26449814D01*
X69498238Y-26505452D01*
X69474047Y-26533271D01*
X69425666Y-26561090D01*
X69232142Y-26561090D01*
X69691761Y-26255081D02*
X70006238Y-26255081D01*
X69836904Y-26477633D01*
X69909476Y-26477633D01*
X69957857Y-26505452D01*
X69982047Y-26533271D01*
X70006238Y-26588910D01*
X70006238Y-26728005D01*
X69982047Y-26783643D01*
X69957857Y-26811462D01*
X69909476Y-26839281D01*
X69764333Y-26839281D01*
X69715952Y-26811462D01*
X69691761Y-26783643D01*
X70320714Y-26255081D02*
X70369095Y-26255081D01*
X70417476Y-26282900D01*
X70441667Y-26310719D01*
X70465857Y-26366357D01*
X70490048Y-26477633D01*
X70490048Y-26616729D01*
X70465857Y-26728005D01*
X70441667Y-26783643D01*
X70417476Y-26811462D01*
X70369095Y-26839281D01*
X70320714Y-26839281D01*
X70272333Y-26811462D01*
X70248143Y-26783643D01*
X70223952Y-26728005D01*
X70199762Y-26616729D01*
X70199762Y-26477633D01*
X70223952Y-26366357D01*
X70248143Y-26310719D01*
X70272333Y-26282900D01*
X70320714Y-26255081D01*
D17*
X69562957Y-24879610D02*
X69301700Y-24879610D01*
X69432328Y-24879610D02*
X69432328Y-24371610D01*
X69388785Y-24444181D01*
X69345243Y-24492562D01*
X69301700Y-24516752D01*
X69845986Y-24371610D02*
X69889529Y-24371610D01*
X69933072Y-24395800D01*
X69954843Y-24419990D01*
X69976614Y-24468371D01*
X69998386Y-24565133D01*
X69998386Y-24686086D01*
X69976614Y-24782848D01*
X69954843Y-24831229D01*
X69933072Y-24855419D01*
X69889529Y-24879610D01*
X69845986Y-24879610D01*
X69802443Y-24855419D01*
X69780672Y-24831229D01*
X69758900Y-24782848D01*
X69737129Y-24686086D01*
X69737129Y-24565133D01*
X69758900Y-24468371D01*
X69780672Y-24419990D01*
X69802443Y-24395800D01*
X69845986Y-24371610D01*
X70194329Y-24879610D02*
X70194329Y-24371610D01*
X70237872Y-24686086D02*
X70368501Y-24879610D01*
X70368501Y-24540943D02*
X70194329Y-24734467D01*
D16*
X71121428Y-27619181D02*
X70952095Y-27340990D01*
X70831142Y-27619181D02*
X70831142Y-27034981D01*
X71024666Y-27034981D01*
X71073047Y-27062800D01*
X71097238Y-27090619D01*
X71121428Y-27146257D01*
X71121428Y-27229714D01*
X71097238Y-27285352D01*
X71073047Y-27313171D01*
X71024666Y-27340990D01*
X70831142Y-27340990D01*
X71290761Y-27034981D02*
X71605238Y-27034981D01*
X71435904Y-27257533D01*
X71508476Y-27257533D01*
X71556857Y-27285352D01*
X71581047Y-27313171D01*
X71605238Y-27368810D01*
X71605238Y-27507905D01*
X71581047Y-27563543D01*
X71556857Y-27591362D01*
X71508476Y-27619181D01*
X71363333Y-27619181D01*
X71314952Y-27591362D01*
X71290761Y-27563543D01*
X72089048Y-27619181D02*
X71798762Y-27619181D01*
X71943905Y-27619181D02*
X71943905Y-27034981D01*
X71895524Y-27118438D01*
X71847143Y-27174076D01*
X71798762Y-27201895D01*
D17*
X71175857Y-25755910D02*
X70914600Y-25755910D01*
X71045228Y-25755910D02*
X71045228Y-25247910D01*
X71001685Y-25320481D01*
X70958143Y-25368862D01*
X70914600Y-25393052D01*
X71458886Y-25247910D02*
X71502429Y-25247910D01*
X71545972Y-25272100D01*
X71567743Y-25296290D01*
X71589514Y-25344671D01*
X71611286Y-25441433D01*
X71611286Y-25562386D01*
X71589514Y-25659148D01*
X71567743Y-25707529D01*
X71545972Y-25731719D01*
X71502429Y-25755910D01*
X71458886Y-25755910D01*
X71415343Y-25731719D01*
X71393572Y-25707529D01*
X71371800Y-25659148D01*
X71350029Y-25562386D01*
X71350029Y-25441433D01*
X71371800Y-25344671D01*
X71393572Y-25296290D01*
X71415343Y-25272100D01*
X71458886Y-25247910D01*
X71807229Y-25755910D02*
X71807229Y-25247910D01*
X71850772Y-25562386D02*
X71981401Y-25755910D01*
X71981401Y-25417243D02*
X71807229Y-25610767D01*
D16*
X72759728Y-28851081D02*
X72590395Y-28572890D01*
X72469442Y-28851081D02*
X72469442Y-28266881D01*
X72662966Y-28266881D01*
X72711347Y-28294700D01*
X72735538Y-28322519D01*
X72759728Y-28378157D01*
X72759728Y-28461614D01*
X72735538Y-28517252D01*
X72711347Y-28545071D01*
X72662966Y-28572890D01*
X72469442Y-28572890D01*
X72929061Y-28266881D02*
X73243538Y-28266881D01*
X73074204Y-28489433D01*
X73146776Y-28489433D01*
X73195157Y-28517252D01*
X73219347Y-28545071D01*
X73243538Y-28600710D01*
X73243538Y-28739805D01*
X73219347Y-28795443D01*
X73195157Y-28823262D01*
X73146776Y-28851081D01*
X73001633Y-28851081D01*
X72953252Y-28823262D01*
X72929061Y-28795443D01*
X73437062Y-28322519D02*
X73461252Y-28294700D01*
X73509633Y-28266881D01*
X73630586Y-28266881D01*
X73678967Y-28294700D01*
X73703157Y-28322519D01*
X73727348Y-28378157D01*
X73727348Y-28433795D01*
X73703157Y-28517252D01*
X73412871Y-28851081D01*
X73727348Y-28851081D01*
D17*
X72814157Y-26987810D02*
X72552900Y-26987810D01*
X72683528Y-26987810D02*
X72683528Y-26479810D01*
X72639985Y-26552381D01*
X72596443Y-26600762D01*
X72552900Y-26624952D01*
X73097186Y-26479810D02*
X73140729Y-26479810D01*
X73184272Y-26504000D01*
X73206043Y-26528190D01*
X73227814Y-26576571D01*
X73249586Y-26673333D01*
X73249586Y-26794286D01*
X73227814Y-26891048D01*
X73206043Y-26939429D01*
X73184272Y-26963619D01*
X73140729Y-26987810D01*
X73097186Y-26987810D01*
X73053643Y-26963619D01*
X73031872Y-26939429D01*
X73010100Y-26891048D01*
X72988329Y-26794286D01*
X72988329Y-26673333D01*
X73010100Y-26576571D01*
X73031872Y-26528190D01*
X73053643Y-26504000D01*
X73097186Y-26479810D01*
X73445529Y-26987810D02*
X73445529Y-26479810D01*
X73489072Y-26794286D02*
X73619701Y-26987810D01*
X73619701Y-26649143D02*
X73445529Y-26842667D01*
D16*
X76395281Y-24862572D02*
X76117090Y-25031905D01*
X76395281Y-25152858D02*
X75811081Y-25152858D01*
X75811081Y-24959334D01*
X75838900Y-24910953D01*
X75866719Y-24886762D01*
X75922357Y-24862572D01*
X76005814Y-24862572D01*
X76061452Y-24886762D01*
X76089271Y-24910953D01*
X76117090Y-24959334D01*
X76117090Y-25152858D01*
X75811081Y-24693239D02*
X75811081Y-24378762D01*
X76033633Y-24548096D01*
X76033633Y-24475524D01*
X76061452Y-24427143D01*
X76089271Y-24402953D01*
X76144910Y-24378762D01*
X76284005Y-24378762D01*
X76339643Y-24402953D01*
X76367462Y-24427143D01*
X76395281Y-24475524D01*
X76395281Y-24620667D01*
X76367462Y-24669048D01*
X76339643Y-24693239D01*
X75811081Y-24209429D02*
X75811081Y-23894952D01*
X76033633Y-24064286D01*
X76033633Y-23991714D01*
X76061452Y-23943333D01*
X76089271Y-23919143D01*
X76144910Y-23894952D01*
X76284005Y-23894952D01*
X76339643Y-23919143D01*
X76367462Y-23943333D01*
X76395281Y-23991714D01*
X76395281Y-24136857D01*
X76367462Y-24185238D01*
X76339643Y-24209429D01*
D17*
X74459110Y-24820343D02*
X74459110Y-25081600D01*
X74459110Y-24950972D02*
X73951110Y-24950972D01*
X74023681Y-24994515D01*
X74072062Y-25038057D01*
X74096252Y-25081600D01*
X73951110Y-24537314D02*
X73951110Y-24493771D01*
X73975300Y-24450228D01*
X73999490Y-24428457D01*
X74047871Y-24406686D01*
X74144633Y-24384914D01*
X74265586Y-24384914D01*
X74362348Y-24406686D01*
X74410729Y-24428457D01*
X74434919Y-24450228D01*
X74459110Y-24493771D01*
X74459110Y-24537314D01*
X74434919Y-24580857D01*
X74410729Y-24602628D01*
X74362348Y-24624400D01*
X74265586Y-24646171D01*
X74144633Y-24646171D01*
X74047871Y-24624400D01*
X73999490Y-24602628D01*
X73975300Y-24580857D01*
X73951110Y-24537314D01*
X74459110Y-24188971D02*
X73951110Y-24188971D01*
X74265586Y-24145428D02*
X74459110Y-24014799D01*
X74120443Y-24014799D02*
X74313967Y-24188971D01*
D16*
X65545281Y-21792572D02*
X65267090Y-21961905D01*
X65545281Y-22082858D02*
X64961081Y-22082858D01*
X64961081Y-21889334D01*
X64988900Y-21840953D01*
X65016719Y-21816762D01*
X65072357Y-21792572D01*
X65155814Y-21792572D01*
X65211452Y-21816762D01*
X65239271Y-21840953D01*
X65267090Y-21889334D01*
X65267090Y-22082858D01*
X64961081Y-21623239D02*
X64961081Y-21308762D01*
X65183633Y-21478096D01*
X65183633Y-21405524D01*
X65211452Y-21357143D01*
X65239271Y-21332953D01*
X65294910Y-21308762D01*
X65434005Y-21308762D01*
X65489643Y-21332953D01*
X65517462Y-21357143D01*
X65545281Y-21405524D01*
X65545281Y-21550667D01*
X65517462Y-21599048D01*
X65489643Y-21623239D01*
X65155814Y-20873333D02*
X65545281Y-20873333D01*
X64933262Y-20994286D02*
X65350548Y-21115238D01*
X65350548Y-20800762D01*
D17*
X66995743Y-21681629D02*
X67334410Y-21681629D01*
X66802219Y-21790486D02*
X67165076Y-21899343D01*
X67165076Y-21616315D01*
X66826410Y-21485686D02*
X66826410Y-21180886D01*
X67334410Y-21376829D01*
D16*
X18788428Y-21869281D02*
X18619095Y-21591090D01*
X18498142Y-21869281D02*
X18498142Y-21285081D01*
X18691666Y-21285081D01*
X18740047Y-21312900D01*
X18764238Y-21340719D01*
X18788428Y-21396357D01*
X18788428Y-21479814D01*
X18764238Y-21535452D01*
X18740047Y-21563271D01*
X18691666Y-21591090D01*
X18498142Y-21591090D01*
X18957761Y-21285081D02*
X19272238Y-21285081D01*
X19102904Y-21507633D01*
X19175476Y-21507633D01*
X19223857Y-21535452D01*
X19248047Y-21563271D01*
X19272238Y-21618910D01*
X19272238Y-21758005D01*
X19248047Y-21813643D01*
X19223857Y-21841462D01*
X19175476Y-21869281D01*
X19030333Y-21869281D01*
X18981952Y-21841462D01*
X18957761Y-21813643D01*
X19731857Y-21285081D02*
X19489952Y-21285081D01*
X19465762Y-21563271D01*
X19489952Y-21535452D01*
X19538333Y-21507633D01*
X19659286Y-21507633D01*
X19707667Y-21535452D01*
X19731857Y-21563271D01*
X19756048Y-21618910D01*
X19756048Y-21758005D01*
X19731857Y-21813643D01*
X19707667Y-21841462D01*
X19659286Y-21869281D01*
X19538333Y-21869281D01*
X19489952Y-21841462D01*
X19465762Y-21813643D01*
D17*
X18571171Y-19412810D02*
X18854200Y-19412810D01*
X18701800Y-19606333D01*
X18767114Y-19606333D01*
X18810657Y-19630524D01*
X18832428Y-19654714D01*
X18854200Y-19703095D01*
X18854200Y-19824048D01*
X18832428Y-19872429D01*
X18810657Y-19896619D01*
X18767114Y-19920810D01*
X18636486Y-19920810D01*
X18592943Y-19896619D01*
X18571171Y-19872429D01*
X19006600Y-19412810D02*
X19289629Y-19412810D01*
X19137229Y-19606333D01*
X19202543Y-19606333D01*
X19246086Y-19630524D01*
X19267857Y-19654714D01*
X19289629Y-19703095D01*
X19289629Y-19824048D01*
X19267857Y-19872429D01*
X19246086Y-19896619D01*
X19202543Y-19920810D01*
X19071915Y-19920810D01*
X19028372Y-19896619D01*
X19006600Y-19872429D01*
X19572658Y-19412810D02*
X19616201Y-19412810D01*
X19659744Y-19437000D01*
X19681515Y-19461190D01*
X19703286Y-19509571D01*
X19725058Y-19606333D01*
X19725058Y-19727286D01*
X19703286Y-19824048D01*
X19681515Y-19872429D01*
X19659744Y-19896619D01*
X19616201Y-19920810D01*
X19572658Y-19920810D01*
X19529115Y-19896619D01*
X19507344Y-19872429D01*
X19485572Y-19824048D01*
X19463801Y-19727286D01*
X19463801Y-19606333D01*
X19485572Y-19509571D01*
X19507344Y-19461190D01*
X19529115Y-19437000D01*
X19572658Y-19412810D01*
D16*
X20479428Y-21869281D02*
X20310095Y-21591090D01*
X20189142Y-21869281D02*
X20189142Y-21285081D01*
X20382666Y-21285081D01*
X20431047Y-21312900D01*
X20455238Y-21340719D01*
X20479428Y-21396357D01*
X20479428Y-21479814D01*
X20455238Y-21535452D01*
X20431047Y-21563271D01*
X20382666Y-21591090D01*
X20189142Y-21591090D01*
X20648761Y-21285081D02*
X20963238Y-21285081D01*
X20793904Y-21507633D01*
X20866476Y-21507633D01*
X20914857Y-21535452D01*
X20939047Y-21563271D01*
X20963238Y-21618910D01*
X20963238Y-21758005D01*
X20939047Y-21813643D01*
X20914857Y-21841462D01*
X20866476Y-21869281D01*
X20721333Y-21869281D01*
X20672952Y-21841462D01*
X20648761Y-21813643D01*
X21398667Y-21285081D02*
X21301905Y-21285081D01*
X21253524Y-21312900D01*
X21229333Y-21340719D01*
X21180952Y-21424176D01*
X21156762Y-21535452D01*
X21156762Y-21758005D01*
X21180952Y-21813643D01*
X21205143Y-21841462D01*
X21253524Y-21869281D01*
X21350286Y-21869281D01*
X21398667Y-21841462D01*
X21422857Y-21813643D01*
X21447048Y-21758005D01*
X21447048Y-21618910D01*
X21422857Y-21563271D01*
X21398667Y-21535452D01*
X21350286Y-21507633D01*
X21253524Y-21507633D01*
X21205143Y-21535452D01*
X21180952Y-21563271D01*
X21156762Y-21618910D01*
D17*
X20121171Y-19408810D02*
X20404200Y-19408810D01*
X20251800Y-19602333D01*
X20317114Y-19602333D01*
X20360657Y-19626524D01*
X20382428Y-19650714D01*
X20404200Y-19699095D01*
X20404200Y-19820048D01*
X20382428Y-19868429D01*
X20360657Y-19892619D01*
X20317114Y-19916810D01*
X20186486Y-19916810D01*
X20142943Y-19892619D01*
X20121171Y-19868429D01*
X20556600Y-19408810D02*
X20839629Y-19408810D01*
X20687229Y-19602333D01*
X20752543Y-19602333D01*
X20796086Y-19626524D01*
X20817857Y-19650714D01*
X20839629Y-19699095D01*
X20839629Y-19820048D01*
X20817857Y-19868429D01*
X20796086Y-19892619D01*
X20752543Y-19916810D01*
X20621915Y-19916810D01*
X20578372Y-19892619D01*
X20556600Y-19868429D01*
X21122658Y-19408810D02*
X21166201Y-19408810D01*
X21209744Y-19433000D01*
X21231515Y-19457190D01*
X21253286Y-19505571D01*
X21275058Y-19602333D01*
X21275058Y-19723286D01*
X21253286Y-19820048D01*
X21231515Y-19868429D01*
X21209744Y-19892619D01*
X21166201Y-19916810D01*
X21122658Y-19916810D01*
X21079115Y-19892619D01*
X21057344Y-19868429D01*
X21035572Y-19820048D01*
X21013801Y-19723286D01*
X21013801Y-19602333D01*
X21035572Y-19505571D01*
X21057344Y-19457190D01*
X21079115Y-19433000D01*
X21122658Y-19408810D01*
D16*
X57585428Y-22951481D02*
X57416095Y-22673290D01*
X57295142Y-22951481D02*
X57295142Y-22367281D01*
X57488666Y-22367281D01*
X57537047Y-22395100D01*
X57561238Y-22422919D01*
X57585428Y-22478557D01*
X57585428Y-22562014D01*
X57561238Y-22617652D01*
X57537047Y-22645471D01*
X57488666Y-22673290D01*
X57295142Y-22673290D01*
X57778952Y-22422919D02*
X57803142Y-22395100D01*
X57851523Y-22367281D01*
X57972476Y-22367281D01*
X58020857Y-22395100D01*
X58045047Y-22422919D01*
X58069238Y-22478557D01*
X58069238Y-22534195D01*
X58045047Y-22617652D01*
X57754761Y-22951481D01*
X58069238Y-22951481D01*
X58238571Y-22367281D02*
X58577238Y-22367281D01*
X58359524Y-22951481D01*
D17*
X57781371Y-24407143D02*
X57781371Y-24745810D01*
X57672514Y-24213619D02*
X57563657Y-24576476D01*
X57846685Y-24576476D01*
X57977314Y-24237810D02*
X58282114Y-24237810D01*
X58086171Y-24745810D01*
D16*
X34336181Y-59621367D02*
X34057990Y-59790700D01*
X34336181Y-59911653D02*
X33751981Y-59911653D01*
X33751981Y-59718129D01*
X33779800Y-59669748D01*
X33807619Y-59645557D01*
X33863257Y-59621367D01*
X33946714Y-59621367D01*
X34002352Y-59645557D01*
X34030171Y-59669748D01*
X34057990Y-59718129D01*
X34057990Y-59911653D01*
X33751981Y-59452034D02*
X33751981Y-59137557D01*
X33974533Y-59306891D01*
X33974533Y-59234319D01*
X34002352Y-59185938D01*
X34030171Y-59161748D01*
X34085810Y-59137557D01*
X34224905Y-59137557D01*
X34280543Y-59161748D01*
X34308362Y-59185938D01*
X34336181Y-59234319D01*
X34336181Y-59379462D01*
X34308362Y-59427843D01*
X34280543Y-59452034D01*
D17*
X35622510Y-59906815D02*
X35622510Y-59602015D01*
X36130510Y-59797958D01*
X35622510Y-59210129D02*
X35622510Y-59427843D01*
X35864414Y-59449614D01*
X35840224Y-59427843D01*
X35816033Y-59384300D01*
X35816033Y-59275443D01*
X35840224Y-59231900D01*
X35864414Y-59210129D01*
X35912795Y-59188357D01*
X36033748Y-59188357D01*
X36082129Y-59210129D01*
X36106319Y-59231900D01*
X36130510Y-59275443D01*
X36130510Y-59384300D01*
X36106319Y-59427843D01*
X36082129Y-59449614D01*
D16*
X116520667Y-61927071D02*
X116351333Y-61927071D01*
X116351333Y-62233081D02*
X116351333Y-61648881D01*
X116593238Y-61648881D01*
X116762572Y-61704519D02*
X116786762Y-61676700D01*
X116835143Y-61648881D01*
X116956096Y-61648881D01*
X117004477Y-61676700D01*
X117028667Y-61704519D01*
X117052858Y-61760157D01*
X117052858Y-61815795D01*
X117028667Y-61899252D01*
X116738381Y-62233081D01*
X117052858Y-62233081D01*
X120343428Y-59664281D02*
X120174095Y-59386090D01*
X120053142Y-59664281D02*
X120053142Y-59080081D01*
X120246666Y-59080081D01*
X120295047Y-59107900D01*
X120319238Y-59135719D01*
X120343428Y-59191357D01*
X120343428Y-59274814D01*
X120319238Y-59330452D01*
X120295047Y-59358271D01*
X120246666Y-59386090D01*
X120053142Y-59386090D01*
X120778857Y-59274814D02*
X120778857Y-59664281D01*
X120657904Y-59052262D02*
X120536952Y-59469548D01*
X120851428Y-59469548D01*
X121286857Y-59080081D02*
X121044952Y-59080081D01*
X121020762Y-59358271D01*
X121044952Y-59330452D01*
X121093333Y-59302633D01*
X121214286Y-59302633D01*
X121262667Y-59330452D01*
X121286857Y-59358271D01*
X121311048Y-59413910D01*
X121311048Y-59553005D01*
X121286857Y-59608643D01*
X121262667Y-59636462D01*
X121214286Y-59664281D01*
X121093333Y-59664281D01*
X121044952Y-59636462D01*
X121020762Y-59608643D01*
D17*
X120265457Y-57391143D02*
X120265457Y-57729810D01*
X120156600Y-57197619D02*
X120047743Y-57560476D01*
X120330771Y-57560476D01*
X120504943Y-57681429D02*
X120526715Y-57705619D01*
X120504943Y-57729810D01*
X120483172Y-57705619D01*
X120504943Y-57681429D01*
X120504943Y-57729810D01*
X120679114Y-57221810D02*
X120983914Y-57221810D01*
X120787971Y-57729810D01*
X121158086Y-57729810D02*
X121158086Y-57221810D01*
X121201629Y-57536286D02*
X121332258Y-57729810D01*
X121332258Y-57391143D02*
X121158086Y-57584667D01*
D16*
X118613428Y-59674281D02*
X118444095Y-59396090D01*
X118323142Y-59674281D02*
X118323142Y-59090081D01*
X118516666Y-59090081D01*
X118565047Y-59117900D01*
X118589238Y-59145719D01*
X118613428Y-59201357D01*
X118613428Y-59284814D01*
X118589238Y-59340452D01*
X118565047Y-59368271D01*
X118516666Y-59396090D01*
X118323142Y-59396090D01*
X119048857Y-59284814D02*
X119048857Y-59674281D01*
X118927904Y-59062262D02*
X118806952Y-59479548D01*
X119121428Y-59479548D01*
X119532667Y-59090081D02*
X119435905Y-59090081D01*
X119387524Y-59117900D01*
X119363333Y-59145719D01*
X119314952Y-59229176D01*
X119290762Y-59340452D01*
X119290762Y-59563005D01*
X119314952Y-59618643D01*
X119339143Y-59646462D01*
X119387524Y-59674281D01*
X119484286Y-59674281D01*
X119532667Y-59646462D01*
X119556857Y-59618643D01*
X119581048Y-59563005D01*
X119581048Y-59423910D01*
X119556857Y-59368271D01*
X119532667Y-59340452D01*
X119484286Y-59312633D01*
X119387524Y-59312633D01*
X119339143Y-59340452D01*
X119314952Y-59368271D01*
X119290762Y-59423910D01*
D17*
X118505457Y-57391143D02*
X118505457Y-57729810D01*
X118396600Y-57197619D02*
X118287743Y-57560476D01*
X118570771Y-57560476D01*
X118744943Y-57681429D02*
X118766715Y-57705619D01*
X118744943Y-57729810D01*
X118723172Y-57705619D01*
X118744943Y-57681429D01*
X118744943Y-57729810D01*
X118919114Y-57221810D02*
X119223914Y-57221810D01*
X119027971Y-57729810D01*
X119398086Y-57729810D02*
X119398086Y-57221810D01*
X119441629Y-57536286D02*
X119572258Y-57729810D01*
X119572258Y-57391143D02*
X119398086Y-57584667D01*
D16*
X42499643Y-68273667D02*
X42527462Y-68297857D01*
X42555281Y-68370429D01*
X42555281Y-68418810D01*
X42527462Y-68491381D01*
X42471824Y-68539762D01*
X42416186Y-68563953D01*
X42304910Y-68588143D01*
X42221452Y-68588143D01*
X42110176Y-68563953D01*
X42054538Y-68539762D01*
X41998900Y-68491381D01*
X41971081Y-68418810D01*
X41971081Y-68370429D01*
X41998900Y-68297857D01*
X42026719Y-68273667D01*
X41971081Y-68104334D02*
X41971081Y-67789857D01*
X42193633Y-67959191D01*
X42193633Y-67886619D01*
X42221452Y-67838238D01*
X42249271Y-67814048D01*
X42304910Y-67789857D01*
X42444005Y-67789857D01*
X42499643Y-67814048D01*
X42527462Y-67838238D01*
X42555281Y-67886619D01*
X42555281Y-68031762D01*
X42527462Y-68080143D01*
X42499643Y-68104334D01*
D17*
X40626310Y-68248900D02*
X40626310Y-68510157D01*
X40626310Y-68379529D02*
X40118310Y-68379529D01*
X40190881Y-68423072D01*
X40239262Y-68466614D01*
X40263452Y-68510157D01*
X40287643Y-67857014D02*
X40626310Y-67857014D01*
X40287643Y-68052957D02*
X40553738Y-68052957D01*
X40602119Y-68031185D01*
X40626310Y-67987643D01*
X40626310Y-67922328D01*
X40602119Y-67878785D01*
X40577929Y-67857014D01*
D16*
X48869643Y-74158667D02*
X48897462Y-74182857D01*
X48925281Y-74255429D01*
X48925281Y-74303810D01*
X48897462Y-74376381D01*
X48841824Y-74424762D01*
X48786186Y-74448953D01*
X48674910Y-74473143D01*
X48591452Y-74473143D01*
X48480176Y-74448953D01*
X48424538Y-74424762D01*
X48368900Y-74376381D01*
X48341081Y-74303810D01*
X48341081Y-74255429D01*
X48368900Y-74182857D01*
X48396719Y-74158667D01*
X48535814Y-73723238D02*
X48925281Y-73723238D01*
X48313262Y-73844191D02*
X48730548Y-73965143D01*
X48730548Y-73650667D01*
D17*
X50748210Y-74142200D02*
X50748210Y-74403457D01*
X50748210Y-74272829D02*
X50240210Y-74272829D01*
X50312781Y-74316372D01*
X50361162Y-74359914D01*
X50385352Y-74403457D01*
X50409543Y-73750314D02*
X50748210Y-73750314D01*
X50409543Y-73946257D02*
X50675638Y-73946257D01*
X50724019Y-73924485D01*
X50748210Y-73880943D01*
X50748210Y-73815628D01*
X50724019Y-73772085D01*
X50699829Y-73750314D01*
D16*
X51206643Y-72347667D02*
X51234462Y-72371857D01*
X51262281Y-72444429D01*
X51262281Y-72492810D01*
X51234462Y-72565381D01*
X51178824Y-72613762D01*
X51123186Y-72637953D01*
X51011910Y-72662143D01*
X50928452Y-72662143D01*
X50817176Y-72637953D01*
X50761538Y-72613762D01*
X50705900Y-72565381D01*
X50678081Y-72492810D01*
X50678081Y-72444429D01*
X50705900Y-72371857D01*
X50733719Y-72347667D01*
X50678081Y-71888048D02*
X50678081Y-72129953D01*
X50956271Y-72154143D01*
X50928452Y-72129953D01*
X50900633Y-72081572D01*
X50900633Y-71960619D01*
X50928452Y-71912238D01*
X50956271Y-71888048D01*
X51011910Y-71863857D01*
X51151005Y-71863857D01*
X51206643Y-71888048D01*
X51234462Y-71912238D01*
X51262281Y-71960619D01*
X51262281Y-72081572D01*
X51234462Y-72129953D01*
X51206643Y-72154143D01*
D17*
X53072310Y-72300200D02*
X53072310Y-72561457D01*
X53072310Y-72430829D02*
X52564310Y-72430829D01*
X52636881Y-72474372D01*
X52685262Y-72517914D01*
X52709452Y-72561457D01*
X52733643Y-71908314D02*
X53072310Y-71908314D01*
X52733643Y-72104257D02*
X52999738Y-72104257D01*
X53048119Y-72082485D01*
X53072310Y-72038943D01*
X53072310Y-71973628D01*
X53048119Y-71930085D01*
X53023929Y-71908314D01*
D16*
X51193643Y-70478667D02*
X51221462Y-70502857D01*
X51249281Y-70575429D01*
X51249281Y-70623810D01*
X51221462Y-70696381D01*
X51165824Y-70744762D01*
X51110186Y-70768953D01*
X50998910Y-70793143D01*
X50915452Y-70793143D01*
X50804176Y-70768953D01*
X50748538Y-70744762D01*
X50692900Y-70696381D01*
X50665081Y-70623810D01*
X50665081Y-70575429D01*
X50692900Y-70502857D01*
X50720719Y-70478667D01*
X50665081Y-70043238D02*
X50665081Y-70140000D01*
X50692900Y-70188381D01*
X50720719Y-70212572D01*
X50804176Y-70260953D01*
X50915452Y-70285143D01*
X51138005Y-70285143D01*
X51193643Y-70260953D01*
X51221462Y-70236762D01*
X51249281Y-70188381D01*
X51249281Y-70091619D01*
X51221462Y-70043238D01*
X51193643Y-70019048D01*
X51138005Y-69994857D01*
X50998910Y-69994857D01*
X50943271Y-70019048D01*
X50915452Y-70043238D01*
X50887633Y-70091619D01*
X50887633Y-70188381D01*
X50915452Y-70236762D01*
X50943271Y-70260953D01*
X50998910Y-70285143D01*
D17*
X53046910Y-70433300D02*
X53046910Y-70694557D01*
X53046910Y-70563929D02*
X52538910Y-70563929D01*
X52611481Y-70607472D01*
X52659862Y-70651014D01*
X52684052Y-70694557D01*
X52708243Y-70041414D02*
X53046910Y-70041414D01*
X52708243Y-70237357D02*
X52974338Y-70237357D01*
X53022719Y-70215585D01*
X53046910Y-70172043D01*
X53046910Y-70106728D01*
X53022719Y-70063185D01*
X52998529Y-70041414D01*
D16*
X51155643Y-68054667D02*
X51183462Y-68078857D01*
X51211281Y-68151429D01*
X51211281Y-68199810D01*
X51183462Y-68272381D01*
X51127824Y-68320762D01*
X51072186Y-68344953D01*
X50960910Y-68369143D01*
X50877452Y-68369143D01*
X50766176Y-68344953D01*
X50710538Y-68320762D01*
X50654900Y-68272381D01*
X50627081Y-68199810D01*
X50627081Y-68151429D01*
X50654900Y-68078857D01*
X50682719Y-68054667D01*
X50627081Y-67885334D02*
X50627081Y-67546667D01*
X51211281Y-67764381D01*
D17*
X53046910Y-68134600D02*
X53046910Y-68395857D01*
X53046910Y-68265229D02*
X52538910Y-68265229D01*
X52611481Y-68308772D01*
X52659862Y-68352314D01*
X52684052Y-68395857D01*
X52708243Y-67742714D02*
X53046910Y-67742714D01*
X52708243Y-67938657D02*
X52974338Y-67938657D01*
X53022719Y-67916885D01*
X53046910Y-67873343D01*
X53046910Y-67808028D01*
X53022719Y-67764485D01*
X52998529Y-67742714D01*
D16*
X39510428Y-63540643D02*
X39486238Y-63568462D01*
X39413666Y-63596281D01*
X39365285Y-63596281D01*
X39292714Y-63568462D01*
X39244333Y-63512824D01*
X39220142Y-63457186D01*
X39195952Y-63345910D01*
X39195952Y-63262452D01*
X39220142Y-63151176D01*
X39244333Y-63095538D01*
X39292714Y-63039900D01*
X39365285Y-63012081D01*
X39413666Y-63012081D01*
X39486238Y-63039900D01*
X39510428Y-63067719D01*
X39994238Y-63596281D02*
X39703952Y-63596281D01*
X39849095Y-63596281D02*
X39849095Y-63012081D01*
X39800714Y-63095538D01*
X39752333Y-63151176D01*
X39703952Y-63178995D01*
X40478048Y-63596281D02*
X40187762Y-63596281D01*
X40332905Y-63596281D02*
X40332905Y-63012081D01*
X40284524Y-63095538D01*
X40236143Y-63151176D01*
X40187762Y-63178995D01*
D17*
X40282200Y-61735010D02*
X40020943Y-61735010D01*
X40151571Y-61735010D02*
X40151571Y-61227010D01*
X40108028Y-61299581D01*
X40064486Y-61347962D01*
X40020943Y-61372152D01*
X40478143Y-61396343D02*
X40478143Y-61735010D01*
X40478143Y-61444724D02*
X40499915Y-61420533D01*
X40543457Y-61396343D01*
X40608772Y-61396343D01*
X40652315Y-61420533D01*
X40674086Y-61468914D01*
X40674086Y-61735010D01*
D16*
X44379643Y-74387572D02*
X44407462Y-74411762D01*
X44435281Y-74484334D01*
X44435281Y-74532715D01*
X44407462Y-74605286D01*
X44351824Y-74653667D01*
X44296186Y-74677858D01*
X44184910Y-74702048D01*
X44101452Y-74702048D01*
X43990176Y-74677858D01*
X43934538Y-74653667D01*
X43878900Y-74605286D01*
X43851081Y-74532715D01*
X43851081Y-74484334D01*
X43878900Y-74411762D01*
X43906719Y-74387572D01*
X44435281Y-73903762D02*
X44435281Y-74194048D01*
X44435281Y-74048905D02*
X43851081Y-74048905D01*
X43934538Y-74097286D01*
X43990176Y-74145667D01*
X44017995Y-74194048D01*
X43906719Y-73710238D02*
X43878900Y-73686048D01*
X43851081Y-73637667D01*
X43851081Y-73516714D01*
X43878900Y-73468333D01*
X43906719Y-73444143D01*
X43962357Y-73419952D01*
X44017995Y-73419952D01*
X44101452Y-73444143D01*
X44435281Y-73734429D01*
X44435281Y-73419952D01*
D17*
X42530810Y-74142200D02*
X42530810Y-74403457D01*
X42530810Y-74272829D02*
X42022810Y-74272829D01*
X42095381Y-74316372D01*
X42143762Y-74359914D01*
X42167952Y-74403457D01*
X42192143Y-73750314D02*
X42530810Y-73750314D01*
X42192143Y-73946257D02*
X42458238Y-73946257D01*
X42506619Y-73924485D01*
X42530810Y-73880943D01*
X42530810Y-73815628D01*
X42506619Y-73772085D01*
X42482429Y-73750314D01*
D16*
X34519428Y-55819643D02*
X34495238Y-55847462D01*
X34422666Y-55875281D01*
X34374285Y-55875281D01*
X34301714Y-55847462D01*
X34253333Y-55791824D01*
X34229142Y-55736186D01*
X34204952Y-55624910D01*
X34204952Y-55541452D01*
X34229142Y-55430176D01*
X34253333Y-55374538D01*
X34301714Y-55318900D01*
X34374285Y-55291081D01*
X34422666Y-55291081D01*
X34495238Y-55318900D01*
X34519428Y-55346719D01*
X35003238Y-55875281D02*
X34712952Y-55875281D01*
X34858095Y-55875281D02*
X34858095Y-55291081D01*
X34809714Y-55374538D01*
X34761333Y-55430176D01*
X34712952Y-55457995D01*
X35172571Y-55291081D02*
X35487048Y-55291081D01*
X35317714Y-55513633D01*
X35390286Y-55513633D01*
X35438667Y-55541452D01*
X35462857Y-55569271D01*
X35487048Y-55624910D01*
X35487048Y-55764005D01*
X35462857Y-55819643D01*
X35438667Y-55847462D01*
X35390286Y-55875281D01*
X35245143Y-55875281D01*
X35196762Y-55847462D01*
X35172571Y-55819643D01*
D17*
X34795800Y-57645610D02*
X34534543Y-57645610D01*
X34665171Y-57645610D02*
X34665171Y-57137610D01*
X34621628Y-57210181D01*
X34578086Y-57258562D01*
X34534543Y-57282752D01*
X34991743Y-57306943D02*
X34991743Y-57645610D01*
X34991743Y-57355324D02*
X35013515Y-57331133D01*
X35057057Y-57306943D01*
X35122372Y-57306943D01*
X35165915Y-57331133D01*
X35187686Y-57379514D01*
X35187686Y-57645610D01*
D16*
X31219843Y-54643572D02*
X31247662Y-54667762D01*
X31275481Y-54740334D01*
X31275481Y-54788715D01*
X31247662Y-54861286D01*
X31192024Y-54909667D01*
X31136386Y-54933858D01*
X31025110Y-54958048D01*
X30941652Y-54958048D01*
X30830376Y-54933858D01*
X30774738Y-54909667D01*
X30719100Y-54861286D01*
X30691281Y-54788715D01*
X30691281Y-54740334D01*
X30719100Y-54667762D01*
X30746919Y-54643572D01*
X31275481Y-54159762D02*
X31275481Y-54450048D01*
X31275481Y-54304905D02*
X30691281Y-54304905D01*
X30774738Y-54353286D01*
X30830376Y-54401667D01*
X30858195Y-54450048D01*
X30691281Y-53990429D02*
X30691281Y-53651762D01*
X31275481Y-53869476D01*
D17*
X33069810Y-54610914D02*
X33069810Y-54872171D01*
X33069810Y-54741543D02*
X32561810Y-54741543D01*
X32634381Y-54785086D01*
X32682762Y-54828628D01*
X32706952Y-54872171D01*
X32561810Y-54327885D02*
X32561810Y-54284342D01*
X32586000Y-54240799D01*
X32610190Y-54219028D01*
X32658571Y-54197257D01*
X32755333Y-54175485D01*
X32876286Y-54175485D01*
X32973048Y-54197257D01*
X33021429Y-54219028D01*
X33045619Y-54240799D01*
X33069810Y-54284342D01*
X33069810Y-54327885D01*
X33045619Y-54371428D01*
X33021429Y-54393199D01*
X32973048Y-54414971D01*
X32876286Y-54436742D01*
X32755333Y-54436742D01*
X32658571Y-54414971D01*
X32610190Y-54393199D01*
X32586000Y-54371428D01*
X32561810Y-54327885D01*
X32731143Y-53979542D02*
X33069810Y-53979542D01*
X32779524Y-53979542D02*
X32755333Y-53957770D01*
X32731143Y-53914228D01*
X32731143Y-53848913D01*
X32755333Y-53805370D01*
X32803714Y-53783599D01*
X33069810Y-53783599D01*
D16*
X36113643Y-53277572D02*
X36141462Y-53301762D01*
X36169281Y-53374334D01*
X36169281Y-53422715D01*
X36141462Y-53495286D01*
X36085824Y-53543667D01*
X36030186Y-53567858D01*
X35918910Y-53592048D01*
X35835452Y-53592048D01*
X35724176Y-53567858D01*
X35668538Y-53543667D01*
X35612900Y-53495286D01*
X35585081Y-53422715D01*
X35585081Y-53374334D01*
X35612900Y-53301762D01*
X35640719Y-53277572D01*
X36169281Y-52793762D02*
X36169281Y-53084048D01*
X36169281Y-52938905D02*
X35585081Y-52938905D01*
X35668538Y-52987286D01*
X35724176Y-53035667D01*
X35751995Y-53084048D01*
X36169281Y-52551857D02*
X36169281Y-52455095D01*
X36141462Y-52406714D01*
X36113643Y-52382524D01*
X36030186Y-52334143D01*
X35918910Y-52309952D01*
X35696357Y-52309952D01*
X35640719Y-52334143D01*
X35612900Y-52358333D01*
X35585081Y-52406714D01*
X35585081Y-52503476D01*
X35612900Y-52551857D01*
X35640719Y-52576048D01*
X35696357Y-52600238D01*
X35835452Y-52600238D01*
X35891090Y-52576048D01*
X35918910Y-52551857D01*
X35946729Y-52503476D01*
X35946729Y-52406714D01*
X35918910Y-52358333D01*
X35891090Y-52334143D01*
X35835452Y-52309952D01*
D17*
X35168143Y-51729314D02*
X35506810Y-51729314D01*
X34974619Y-51838171D02*
X35337476Y-51947028D01*
X35337476Y-51664000D01*
X35458429Y-51489828D02*
X35482619Y-51468056D01*
X35506810Y-51489828D01*
X35482619Y-51511599D01*
X35458429Y-51489828D01*
X35506810Y-51489828D01*
X34998810Y-51315657D02*
X34998810Y-51010857D01*
X35506810Y-51206800D01*
X35168143Y-50836685D02*
X35506810Y-50836685D01*
X35216524Y-50836685D02*
X35192333Y-50814913D01*
X35168143Y-50771371D01*
X35168143Y-50706056D01*
X35192333Y-50662513D01*
X35240714Y-50640742D01*
X35506810Y-50640742D01*
D16*
X31907843Y-50105572D02*
X31935662Y-50129762D01*
X31963481Y-50202334D01*
X31963481Y-50250715D01*
X31935662Y-50323286D01*
X31880024Y-50371667D01*
X31824386Y-50395858D01*
X31713110Y-50420048D01*
X31629652Y-50420048D01*
X31518376Y-50395858D01*
X31462738Y-50371667D01*
X31407100Y-50323286D01*
X31379281Y-50250715D01*
X31379281Y-50202334D01*
X31407100Y-50129762D01*
X31434919Y-50105572D01*
X31434919Y-49912048D02*
X31407100Y-49887858D01*
X31379281Y-49839477D01*
X31379281Y-49718524D01*
X31407100Y-49670143D01*
X31434919Y-49645953D01*
X31490557Y-49621762D01*
X31546195Y-49621762D01*
X31629652Y-49645953D01*
X31963481Y-49936239D01*
X31963481Y-49621762D01*
X31379281Y-49307286D02*
X31379281Y-49258905D01*
X31407100Y-49210524D01*
X31434919Y-49186333D01*
X31490557Y-49162143D01*
X31601833Y-49137952D01*
X31740929Y-49137952D01*
X31852205Y-49162143D01*
X31907843Y-49186333D01*
X31935662Y-49210524D01*
X31963481Y-49258905D01*
X31963481Y-49307286D01*
X31935662Y-49355667D01*
X31907843Y-49379857D01*
X31852205Y-49404048D01*
X31740929Y-49428238D01*
X31601833Y-49428238D01*
X31490557Y-49404048D01*
X31434919Y-49379857D01*
X31407100Y-49355667D01*
X31379281Y-49307286D01*
D17*
X33249810Y-50334171D02*
X33249810Y-50290628D01*
X33274000Y-50247085D01*
X33298190Y-50225314D01*
X33346571Y-50203543D01*
X33443333Y-50181771D01*
X33564286Y-50181771D01*
X33661048Y-50203543D01*
X33709429Y-50225314D01*
X33733619Y-50247085D01*
X33757810Y-50290628D01*
X33757810Y-50334171D01*
X33733619Y-50377714D01*
X33709429Y-50399485D01*
X33661048Y-50421257D01*
X33564286Y-50443028D01*
X33443333Y-50443028D01*
X33346571Y-50421257D01*
X33298190Y-50399485D01*
X33274000Y-50377714D01*
X33249810Y-50334171D01*
X33709429Y-49985828D02*
X33733619Y-49964056D01*
X33757810Y-49985828D01*
X33733619Y-50007599D01*
X33709429Y-49985828D01*
X33757810Y-49985828D01*
X33757810Y-49528628D02*
X33757810Y-49789885D01*
X33757810Y-49659257D02*
X33249810Y-49659257D01*
X33322381Y-49702800D01*
X33370762Y-49746342D01*
X33394952Y-49789885D01*
X33419143Y-49136742D02*
X33757810Y-49136742D01*
X33419143Y-49332685D02*
X33685238Y-49332685D01*
X33733619Y-49310913D01*
X33757810Y-49267371D01*
X33757810Y-49202056D01*
X33733619Y-49158513D01*
X33709429Y-49136742D01*
D16*
X34429643Y-48317572D02*
X34457462Y-48341762D01*
X34485281Y-48414334D01*
X34485281Y-48462715D01*
X34457462Y-48535286D01*
X34401824Y-48583667D01*
X34346186Y-48607858D01*
X34234910Y-48632048D01*
X34151452Y-48632048D01*
X34040176Y-48607858D01*
X33984538Y-48583667D01*
X33928900Y-48535286D01*
X33901081Y-48462715D01*
X33901081Y-48414334D01*
X33928900Y-48341762D01*
X33956719Y-48317572D01*
X33956719Y-48124048D02*
X33928900Y-48099858D01*
X33901081Y-48051477D01*
X33901081Y-47930524D01*
X33928900Y-47882143D01*
X33956719Y-47857953D01*
X34012357Y-47833762D01*
X34067995Y-47833762D01*
X34151452Y-47857953D01*
X34485281Y-48148239D01*
X34485281Y-47833762D01*
X33901081Y-47664429D02*
X33901081Y-47349952D01*
X34123633Y-47519286D01*
X34123633Y-47446714D01*
X34151452Y-47398333D01*
X34179271Y-47374143D01*
X34234910Y-47349952D01*
X34374005Y-47349952D01*
X34429643Y-47374143D01*
X34457462Y-47398333D01*
X34485281Y-47446714D01*
X34485281Y-47591857D01*
X34457462Y-47640238D01*
X34429643Y-47664429D01*
D17*
X35783810Y-48820171D02*
X35783810Y-48776628D01*
X35808000Y-48733085D01*
X35832190Y-48711314D01*
X35880571Y-48689543D01*
X35977333Y-48667771D01*
X36098286Y-48667771D01*
X36195048Y-48689543D01*
X36243429Y-48711314D01*
X36267619Y-48733085D01*
X36291810Y-48776628D01*
X36291810Y-48820171D01*
X36267619Y-48863714D01*
X36243429Y-48885485D01*
X36195048Y-48907257D01*
X36098286Y-48929028D01*
X35977333Y-48929028D01*
X35880571Y-48907257D01*
X35832190Y-48885485D01*
X35808000Y-48863714D01*
X35783810Y-48820171D01*
X36243429Y-48471828D02*
X36267619Y-48450056D01*
X36291810Y-48471828D01*
X36267619Y-48493599D01*
X36243429Y-48471828D01*
X36291810Y-48471828D01*
X36291810Y-48014628D02*
X36291810Y-48275885D01*
X36291810Y-48145257D02*
X35783810Y-48145257D01*
X35856381Y-48188800D01*
X35904762Y-48232342D01*
X35928952Y-48275885D01*
X35953143Y-47622742D02*
X36291810Y-47622742D01*
X35953143Y-47818685D02*
X36219238Y-47818685D01*
X36267619Y-47796913D01*
X36291810Y-47753371D01*
X36291810Y-47688056D01*
X36267619Y-47644513D01*
X36243429Y-47622742D01*
D16*
X26351428Y-54866643D02*
X26327238Y-54894462D01*
X26254666Y-54922281D01*
X26206285Y-54922281D01*
X26133714Y-54894462D01*
X26085333Y-54838824D01*
X26061142Y-54783186D01*
X26036952Y-54671910D01*
X26036952Y-54588452D01*
X26061142Y-54477176D01*
X26085333Y-54421538D01*
X26133714Y-54365900D01*
X26206285Y-54338081D01*
X26254666Y-54338081D01*
X26327238Y-54365900D01*
X26351428Y-54393719D01*
X26544952Y-54393719D02*
X26569142Y-54365900D01*
X26617523Y-54338081D01*
X26738476Y-54338081D01*
X26786857Y-54365900D01*
X26811047Y-54393719D01*
X26835238Y-54449357D01*
X26835238Y-54504995D01*
X26811047Y-54588452D01*
X26520761Y-54922281D01*
X26835238Y-54922281D01*
X27270667Y-54532814D02*
X27270667Y-54922281D01*
X27149714Y-54310262D02*
X27028762Y-54727548D01*
X27343238Y-54727548D01*
D17*
X26629700Y-53010110D02*
X26368443Y-53010110D01*
X26499071Y-53010110D02*
X26499071Y-52502110D01*
X26455528Y-52574681D01*
X26411986Y-52623062D01*
X26368443Y-52647252D01*
X26825643Y-52671443D02*
X26825643Y-53010110D01*
X26825643Y-52719824D02*
X26847415Y-52695633D01*
X26890957Y-52671443D01*
X26956272Y-52671443D01*
X26999815Y-52695633D01*
X27021586Y-52744014D01*
X27021586Y-53010110D01*
D16*
X24598428Y-32387643D02*
X24574238Y-32415462D01*
X24501666Y-32443281D01*
X24453285Y-32443281D01*
X24380714Y-32415462D01*
X24332333Y-32359824D01*
X24308142Y-32304186D01*
X24283952Y-32192910D01*
X24283952Y-32109452D01*
X24308142Y-31998176D01*
X24332333Y-31942538D01*
X24380714Y-31886900D01*
X24453285Y-31859081D01*
X24501666Y-31859081D01*
X24574238Y-31886900D01*
X24598428Y-31914719D01*
X24767761Y-31859081D02*
X25082238Y-31859081D01*
X24912904Y-32081633D01*
X24985476Y-32081633D01*
X25033857Y-32109452D01*
X25058047Y-32137271D01*
X25082238Y-32192910D01*
X25082238Y-32332005D01*
X25058047Y-32387643D01*
X25033857Y-32415462D01*
X24985476Y-32443281D01*
X24840333Y-32443281D01*
X24791952Y-32415462D01*
X24767761Y-32387643D01*
X25566048Y-32443281D02*
X25275762Y-32443281D01*
X25420905Y-32443281D02*
X25420905Y-31859081D01*
X25372524Y-31942538D01*
X25324143Y-31998176D01*
X25275762Y-32025995D01*
D17*
X26351086Y-31542810D02*
X26089829Y-31542810D01*
X26220457Y-31542810D02*
X26220457Y-31034810D01*
X26176914Y-31107381D01*
X26133372Y-31155762D01*
X26089829Y-31179952D01*
X26634115Y-31034810D02*
X26677658Y-31034810D01*
X26721201Y-31059000D01*
X26742972Y-31083190D01*
X26764743Y-31131571D01*
X26786515Y-31228333D01*
X26786515Y-31349286D01*
X26764743Y-31446048D01*
X26742972Y-31494429D01*
X26721201Y-31518619D01*
X26677658Y-31542810D01*
X26634115Y-31542810D01*
X26590572Y-31518619D01*
X26568801Y-31494429D01*
X26547029Y-31446048D01*
X26525258Y-31349286D01*
X26525258Y-31228333D01*
X26547029Y-31131571D01*
X26568801Y-31083190D01*
X26590572Y-31059000D01*
X26634115Y-31034810D01*
X27178401Y-31204143D02*
X27178401Y-31542810D01*
X26982458Y-31204143D02*
X26982458Y-31470238D01*
X27004230Y-31518619D01*
X27047772Y-31542810D01*
X27113087Y-31542810D01*
X27156630Y-31518619D01*
X27178401Y-31494429D01*
D16*
X65220428Y-32420643D02*
X65196238Y-32448462D01*
X65123666Y-32476281D01*
X65075285Y-32476281D01*
X65002714Y-32448462D01*
X64954333Y-32392824D01*
X64930142Y-32337186D01*
X64905952Y-32225910D01*
X64905952Y-32142452D01*
X64930142Y-32031176D01*
X64954333Y-31975538D01*
X65002714Y-31919900D01*
X65075285Y-31892081D01*
X65123666Y-31892081D01*
X65196238Y-31919900D01*
X65220428Y-31947719D01*
X65655857Y-32086814D02*
X65655857Y-32476281D01*
X65534904Y-31864262D02*
X65413952Y-32281548D01*
X65728428Y-32281548D01*
X65873571Y-31892081D02*
X66188048Y-31892081D01*
X66018714Y-32114633D01*
X66091286Y-32114633D01*
X66139667Y-32142452D01*
X66163857Y-32170271D01*
X66188048Y-32225910D01*
X66188048Y-32365005D01*
X66163857Y-32420643D01*
X66139667Y-32448462D01*
X66091286Y-32476281D01*
X65946143Y-32476281D01*
X65897762Y-32448462D01*
X65873571Y-32420643D01*
D17*
X65444829Y-33721810D02*
X65488372Y-33721810D01*
X65531915Y-33746000D01*
X65553686Y-33770190D01*
X65575457Y-33818571D01*
X65597229Y-33915333D01*
X65597229Y-34036286D01*
X65575457Y-34133048D01*
X65553686Y-34181429D01*
X65531915Y-34205619D01*
X65488372Y-34229810D01*
X65444829Y-34229810D01*
X65401286Y-34205619D01*
X65379515Y-34181429D01*
X65357743Y-34133048D01*
X65335972Y-34036286D01*
X65335972Y-33915333D01*
X65357743Y-33818571D01*
X65379515Y-33770190D01*
X65401286Y-33746000D01*
X65444829Y-33721810D01*
X65793172Y-34181429D02*
X65814944Y-34205619D01*
X65793172Y-34229810D01*
X65771401Y-34205619D01*
X65793172Y-34181429D01*
X65793172Y-34229810D01*
X66250372Y-34229810D02*
X65989115Y-34229810D01*
X66119743Y-34229810D02*
X66119743Y-33721810D01*
X66076200Y-33794381D01*
X66032658Y-33842762D01*
X65989115Y-33866952D01*
X66642258Y-33891143D02*
X66642258Y-34229810D01*
X66446315Y-33891143D02*
X66446315Y-34157238D01*
X66468087Y-34205619D01*
X66511629Y-34229810D01*
X66576944Y-34229810D01*
X66620487Y-34205619D01*
X66642258Y-34181429D01*
D16*
X70037443Y-32126572D02*
X70065262Y-32150762D01*
X70093081Y-32223334D01*
X70093081Y-32271715D01*
X70065262Y-32344286D01*
X70009624Y-32392667D01*
X69953986Y-32416858D01*
X69842710Y-32441048D01*
X69759252Y-32441048D01*
X69647976Y-32416858D01*
X69592338Y-32392667D01*
X69536700Y-32344286D01*
X69508881Y-32271715D01*
X69508881Y-32223334D01*
X69536700Y-32150762D01*
X69564519Y-32126572D01*
X69703614Y-31691143D02*
X70093081Y-31691143D01*
X69481062Y-31812096D02*
X69898348Y-31933048D01*
X69898348Y-31618572D01*
X69508881Y-31207333D02*
X69508881Y-31304095D01*
X69536700Y-31352476D01*
X69564519Y-31376667D01*
X69647976Y-31425048D01*
X69759252Y-31449238D01*
X69981805Y-31449238D01*
X70037443Y-31425048D01*
X70065262Y-31400857D01*
X70093081Y-31352476D01*
X70093081Y-31255714D01*
X70065262Y-31207333D01*
X70037443Y-31183143D01*
X69981805Y-31158952D01*
X69842710Y-31158952D01*
X69787071Y-31183143D01*
X69759252Y-31207333D01*
X69731433Y-31255714D01*
X69731433Y-31352476D01*
X69759252Y-31400857D01*
X69787071Y-31425048D01*
X69842710Y-31449238D01*
D17*
X67721810Y-32355171D02*
X67721810Y-32311628D01*
X67746000Y-32268085D01*
X67770190Y-32246314D01*
X67818571Y-32224543D01*
X67915333Y-32202771D01*
X68036286Y-32202771D01*
X68133048Y-32224543D01*
X68181429Y-32246314D01*
X68205619Y-32268085D01*
X68229810Y-32311628D01*
X68229810Y-32355171D01*
X68205619Y-32398714D01*
X68181429Y-32420485D01*
X68133048Y-32442257D01*
X68036286Y-32464028D01*
X67915333Y-32464028D01*
X67818571Y-32442257D01*
X67770190Y-32420485D01*
X67746000Y-32398714D01*
X67721810Y-32355171D01*
X68181429Y-32006828D02*
X68205619Y-31985056D01*
X68229810Y-32006828D01*
X68205619Y-32028599D01*
X68181429Y-32006828D01*
X68229810Y-32006828D01*
X68229810Y-31549628D02*
X68229810Y-31810885D01*
X68229810Y-31680257D02*
X67721810Y-31680257D01*
X67794381Y-31723800D01*
X67842762Y-31767342D01*
X67866952Y-31810885D01*
X67891143Y-31157742D02*
X68229810Y-31157742D01*
X67891143Y-31353685D02*
X68157238Y-31353685D01*
X68205619Y-31331913D01*
X68229810Y-31288371D01*
X68229810Y-31223056D01*
X68205619Y-31179513D01*
X68181429Y-31157742D01*
D16*
X64902643Y-56165572D02*
X64930462Y-56189762D01*
X64958281Y-56262334D01*
X64958281Y-56310715D01*
X64930462Y-56383286D01*
X64874824Y-56431667D01*
X64819186Y-56455858D01*
X64707910Y-56480048D01*
X64624452Y-56480048D01*
X64513176Y-56455858D01*
X64457538Y-56431667D01*
X64401900Y-56383286D01*
X64374081Y-56310715D01*
X64374081Y-56262334D01*
X64401900Y-56189762D01*
X64429719Y-56165572D01*
X64568814Y-55730143D02*
X64958281Y-55730143D01*
X64346262Y-55851096D02*
X64763548Y-55972048D01*
X64763548Y-55657572D01*
X64374081Y-55512429D02*
X64374081Y-55173762D01*
X64958281Y-55391476D01*
D17*
X66321810Y-56455171D02*
X66321810Y-56411628D01*
X66346000Y-56368085D01*
X66370190Y-56346314D01*
X66418571Y-56324543D01*
X66515333Y-56302771D01*
X66636286Y-56302771D01*
X66733048Y-56324543D01*
X66781429Y-56346314D01*
X66805619Y-56368085D01*
X66829810Y-56411628D01*
X66829810Y-56455171D01*
X66805619Y-56498714D01*
X66781429Y-56520485D01*
X66733048Y-56542257D01*
X66636286Y-56564028D01*
X66515333Y-56564028D01*
X66418571Y-56542257D01*
X66370190Y-56520485D01*
X66346000Y-56498714D01*
X66321810Y-56455171D01*
X66781429Y-56106828D02*
X66805619Y-56085056D01*
X66829810Y-56106828D01*
X66805619Y-56128599D01*
X66781429Y-56106828D01*
X66829810Y-56106828D01*
X66829810Y-55649628D02*
X66829810Y-55910885D01*
X66829810Y-55780257D02*
X66321810Y-55780257D01*
X66394381Y-55823800D01*
X66442762Y-55867342D01*
X66466952Y-55910885D01*
X66491143Y-55257742D02*
X66829810Y-55257742D01*
X66491143Y-55453685D02*
X66757238Y-55453685D01*
X66805619Y-55431913D01*
X66829810Y-55388371D01*
X66829810Y-55323056D01*
X66805619Y-55279513D01*
X66781429Y-55257742D01*
D16*
X67892428Y-18008643D02*
X67868238Y-18036462D01*
X67795666Y-18064281D01*
X67747285Y-18064281D01*
X67674714Y-18036462D01*
X67626333Y-17980824D01*
X67602142Y-17925186D01*
X67577952Y-17813910D01*
X67577952Y-17730452D01*
X67602142Y-17619176D01*
X67626333Y-17563538D01*
X67674714Y-17507900D01*
X67747285Y-17480081D01*
X67795666Y-17480081D01*
X67868238Y-17507900D01*
X67892428Y-17535719D01*
X68352047Y-17480081D02*
X68110142Y-17480081D01*
X68085952Y-17758271D01*
X68110142Y-17730452D01*
X68158523Y-17702633D01*
X68279476Y-17702633D01*
X68327857Y-17730452D01*
X68352047Y-17758271D01*
X68376238Y-17813910D01*
X68376238Y-17953005D01*
X68352047Y-18008643D01*
X68327857Y-18036462D01*
X68279476Y-18064281D01*
X68158523Y-18064281D01*
X68110142Y-18036462D01*
X68085952Y-18008643D01*
X68569762Y-17535719D02*
X68593952Y-17507900D01*
X68642333Y-17480081D01*
X68763286Y-17480081D01*
X68811667Y-17507900D01*
X68835857Y-17535719D01*
X68860048Y-17591357D01*
X68860048Y-17646995D01*
X68835857Y-17730452D01*
X68545571Y-18064281D01*
X68860048Y-18064281D01*
D17*
X66444200Y-18859810D02*
X66182943Y-18859810D01*
X66313571Y-18859810D02*
X66313571Y-18351810D01*
X66270028Y-18424381D01*
X66226486Y-18472762D01*
X66182943Y-18496952D01*
X66836086Y-18521143D02*
X66836086Y-18859810D01*
X66640143Y-18521143D02*
X66640143Y-18787238D01*
X66661915Y-18835619D01*
X66705457Y-18859810D01*
X66770772Y-18859810D01*
X66814315Y-18835619D01*
X66836086Y-18811429D01*
D16*
X94249943Y-28214872D02*
X94277762Y-28239062D01*
X94305581Y-28311634D01*
X94305581Y-28360015D01*
X94277762Y-28432586D01*
X94222124Y-28480967D01*
X94166486Y-28505158D01*
X94055210Y-28529348D01*
X93971752Y-28529348D01*
X93860476Y-28505158D01*
X93804838Y-28480967D01*
X93749200Y-28432586D01*
X93721381Y-28360015D01*
X93721381Y-28311634D01*
X93749200Y-28239062D01*
X93777019Y-28214872D01*
X93721381Y-27755253D02*
X93721381Y-27997158D01*
X93999571Y-28021348D01*
X93971752Y-27997158D01*
X93943933Y-27948777D01*
X93943933Y-27827824D01*
X93971752Y-27779443D01*
X93999571Y-27755253D01*
X94055210Y-27731062D01*
X94194305Y-27731062D01*
X94249943Y-27755253D01*
X94277762Y-27779443D01*
X94305581Y-27827824D01*
X94305581Y-27948777D01*
X94277762Y-27997158D01*
X94249943Y-28021348D01*
X93721381Y-27271443D02*
X93721381Y-27513348D01*
X93999571Y-27537538D01*
X93971752Y-27513348D01*
X93943933Y-27464967D01*
X93943933Y-27344014D01*
X93971752Y-27295633D01*
X93999571Y-27271443D01*
X94055210Y-27247252D01*
X94194305Y-27247252D01*
X94249943Y-27271443D01*
X94277762Y-27295633D01*
X94305581Y-27344014D01*
X94305581Y-27464967D01*
X94277762Y-27513348D01*
X94249943Y-27537538D01*
D17*
X91934310Y-28443471D02*
X91934310Y-28399928D01*
X91958500Y-28356385D01*
X91982690Y-28334614D01*
X92031071Y-28312843D01*
X92127833Y-28291071D01*
X92248786Y-28291071D01*
X92345548Y-28312843D01*
X92393929Y-28334614D01*
X92418119Y-28356385D01*
X92442310Y-28399928D01*
X92442310Y-28443471D01*
X92418119Y-28487014D01*
X92393929Y-28508785D01*
X92345548Y-28530557D01*
X92248786Y-28552328D01*
X92127833Y-28552328D01*
X92031071Y-28530557D01*
X91982690Y-28508785D01*
X91958500Y-28487014D01*
X91934310Y-28443471D01*
X92393929Y-28095128D02*
X92418119Y-28073356D01*
X92442310Y-28095128D01*
X92418119Y-28116899D01*
X92393929Y-28095128D01*
X92442310Y-28095128D01*
X92442310Y-27637928D02*
X92442310Y-27899185D01*
X92442310Y-27768557D02*
X91934310Y-27768557D01*
X92006881Y-27812100D01*
X92055262Y-27855642D01*
X92079452Y-27899185D01*
X92103643Y-27246042D02*
X92442310Y-27246042D01*
X92103643Y-27441985D02*
X92369738Y-27441985D01*
X92418119Y-27420213D01*
X92442310Y-27376671D01*
X92442310Y-27311356D01*
X92418119Y-27267813D01*
X92393929Y-27246042D01*
D16*
X90177643Y-33862572D02*
X90205462Y-33886762D01*
X90233281Y-33959334D01*
X90233281Y-34007715D01*
X90205462Y-34080286D01*
X90149824Y-34128667D01*
X90094186Y-34152858D01*
X89982910Y-34177048D01*
X89899452Y-34177048D01*
X89788176Y-34152858D01*
X89732538Y-34128667D01*
X89676900Y-34080286D01*
X89649081Y-34007715D01*
X89649081Y-33959334D01*
X89676900Y-33886762D01*
X89704719Y-33862572D01*
X89649081Y-33427143D02*
X89649081Y-33523905D01*
X89676900Y-33572286D01*
X89704719Y-33596477D01*
X89788176Y-33644858D01*
X89899452Y-33669048D01*
X90122005Y-33669048D01*
X90177643Y-33644858D01*
X90205462Y-33620667D01*
X90233281Y-33572286D01*
X90233281Y-33475524D01*
X90205462Y-33427143D01*
X90177643Y-33402953D01*
X90122005Y-33378762D01*
X89982910Y-33378762D01*
X89927271Y-33402953D01*
X89899452Y-33427143D01*
X89871633Y-33475524D01*
X89871633Y-33572286D01*
X89899452Y-33620667D01*
X89927271Y-33644858D01*
X89982910Y-33669048D01*
X89649081Y-33064286D02*
X89649081Y-33015905D01*
X89676900Y-32967524D01*
X89704719Y-32943333D01*
X89760357Y-32919143D01*
X89871633Y-32894952D01*
X90010729Y-32894952D01*
X90122005Y-32919143D01*
X90177643Y-32943333D01*
X90205462Y-32967524D01*
X90233281Y-33015905D01*
X90233281Y-33064286D01*
X90205462Y-33112667D01*
X90177643Y-33136857D01*
X90122005Y-33161048D01*
X90010729Y-33185238D01*
X89871633Y-33185238D01*
X89760357Y-33161048D01*
X89704719Y-33136857D01*
X89676900Y-33112667D01*
X89649081Y-33064286D01*
D17*
X87742810Y-34053171D02*
X87742810Y-34009628D01*
X87767000Y-33966085D01*
X87791190Y-33944314D01*
X87839571Y-33922543D01*
X87936333Y-33900771D01*
X88057286Y-33900771D01*
X88154048Y-33922543D01*
X88202429Y-33944314D01*
X88226619Y-33966085D01*
X88250810Y-34009628D01*
X88250810Y-34053171D01*
X88226619Y-34096714D01*
X88202429Y-34118485D01*
X88154048Y-34140257D01*
X88057286Y-34162028D01*
X87936333Y-34162028D01*
X87839571Y-34140257D01*
X87791190Y-34118485D01*
X87767000Y-34096714D01*
X87742810Y-34053171D01*
X88202429Y-33704828D02*
X88226619Y-33683056D01*
X88250810Y-33704828D01*
X88226619Y-33726599D01*
X88202429Y-33704828D01*
X88250810Y-33704828D01*
X88250810Y-33247628D02*
X88250810Y-33508885D01*
X88250810Y-33378257D02*
X87742810Y-33378257D01*
X87815381Y-33421800D01*
X87863762Y-33465342D01*
X87887952Y-33508885D01*
X87912143Y-32855742D02*
X88250810Y-32855742D01*
X87912143Y-33051685D02*
X88178238Y-33051685D01*
X88226619Y-33029913D01*
X88250810Y-32986371D01*
X88250810Y-32921056D01*
X88226619Y-32877513D01*
X88202429Y-32855742D01*
D16*
X88134428Y-57358643D02*
X88110238Y-57386462D01*
X88037666Y-57414281D01*
X87989285Y-57414281D01*
X87916714Y-57386462D01*
X87868333Y-57330824D01*
X87844142Y-57275186D01*
X87819952Y-57163910D01*
X87819952Y-57080452D01*
X87844142Y-56969176D01*
X87868333Y-56913538D01*
X87916714Y-56857900D01*
X87989285Y-56830081D01*
X88037666Y-56830081D01*
X88110238Y-56857900D01*
X88134428Y-56885719D01*
X88569857Y-56830081D02*
X88473095Y-56830081D01*
X88424714Y-56857900D01*
X88400523Y-56885719D01*
X88352142Y-56969176D01*
X88327952Y-57080452D01*
X88327952Y-57303005D01*
X88352142Y-57358643D01*
X88376333Y-57386462D01*
X88424714Y-57414281D01*
X88521476Y-57414281D01*
X88569857Y-57386462D01*
X88594047Y-57358643D01*
X88618238Y-57303005D01*
X88618238Y-57163910D01*
X88594047Y-57108271D01*
X88569857Y-57080452D01*
X88521476Y-57052633D01*
X88424714Y-57052633D01*
X88376333Y-57080452D01*
X88352142Y-57108271D01*
X88327952Y-57163910D01*
X89077857Y-56830081D02*
X88835952Y-56830081D01*
X88811762Y-57108271D01*
X88835952Y-57080452D01*
X88884333Y-57052633D01*
X89005286Y-57052633D01*
X89053667Y-57080452D01*
X89077857Y-57108271D01*
X89102048Y-57163910D01*
X89102048Y-57303005D01*
X89077857Y-57358643D01*
X89053667Y-57386462D01*
X89005286Y-57414281D01*
X88884333Y-57414281D01*
X88835952Y-57386462D01*
X88811762Y-57358643D01*
D17*
X87944829Y-55021810D02*
X87988372Y-55021810D01*
X88031915Y-55046000D01*
X88053686Y-55070190D01*
X88075457Y-55118571D01*
X88097229Y-55215333D01*
X88097229Y-55336286D01*
X88075457Y-55433048D01*
X88053686Y-55481429D01*
X88031915Y-55505619D01*
X87988372Y-55529810D01*
X87944829Y-55529810D01*
X87901286Y-55505619D01*
X87879515Y-55481429D01*
X87857743Y-55433048D01*
X87835972Y-55336286D01*
X87835972Y-55215333D01*
X87857743Y-55118571D01*
X87879515Y-55070190D01*
X87901286Y-55046000D01*
X87944829Y-55021810D01*
X88293172Y-55481429D02*
X88314944Y-55505619D01*
X88293172Y-55529810D01*
X88271401Y-55505619D01*
X88293172Y-55481429D01*
X88293172Y-55529810D01*
X88750372Y-55529810D02*
X88489115Y-55529810D01*
X88619743Y-55529810D02*
X88619743Y-55021810D01*
X88576200Y-55094381D01*
X88532658Y-55142762D01*
X88489115Y-55166952D01*
X89142258Y-55191143D02*
X89142258Y-55529810D01*
X88946315Y-55191143D02*
X88946315Y-55457238D01*
X88968087Y-55505619D01*
X89011629Y-55529810D01*
X89076944Y-55529810D01*
X89120487Y-55505619D01*
X89142258Y-55481429D01*
D16*
X117713428Y-43389843D02*
X117689238Y-43417662D01*
X117616666Y-43445481D01*
X117568285Y-43445481D01*
X117495714Y-43417662D01*
X117447333Y-43362024D01*
X117423142Y-43306386D01*
X117398952Y-43195110D01*
X117398952Y-43111652D01*
X117423142Y-43000376D01*
X117447333Y-42944738D01*
X117495714Y-42889100D01*
X117568285Y-42861281D01*
X117616666Y-42861281D01*
X117689238Y-42889100D01*
X117713428Y-42916919D01*
X118003714Y-43111652D02*
X117955333Y-43083833D01*
X117931142Y-43056014D01*
X117906952Y-43000376D01*
X117906952Y-42972557D01*
X117931142Y-42916919D01*
X117955333Y-42889100D01*
X118003714Y-42861281D01*
X118100476Y-42861281D01*
X118148857Y-42889100D01*
X118173047Y-42916919D01*
X118197238Y-42972557D01*
X118197238Y-43000376D01*
X118173047Y-43056014D01*
X118148857Y-43083833D01*
X118100476Y-43111652D01*
X118003714Y-43111652D01*
X117955333Y-43139471D01*
X117931142Y-43167290D01*
X117906952Y-43222929D01*
X117906952Y-43334205D01*
X117931142Y-43389843D01*
X117955333Y-43417662D01*
X118003714Y-43445481D01*
X118100476Y-43445481D01*
X118148857Y-43417662D01*
X118173047Y-43389843D01*
X118197238Y-43334205D01*
X118197238Y-43222929D01*
X118173047Y-43167290D01*
X118148857Y-43139471D01*
X118100476Y-43111652D01*
X118681048Y-43445481D02*
X118390762Y-43445481D01*
X118535905Y-43445481D02*
X118535905Y-42861281D01*
X118487524Y-42944738D01*
X118439143Y-43000376D01*
X118390762Y-43028195D01*
D17*
X117484829Y-44731810D02*
X117528372Y-44731810D01*
X117571915Y-44756000D01*
X117593686Y-44780190D01*
X117615457Y-44828571D01*
X117637229Y-44925333D01*
X117637229Y-45046286D01*
X117615457Y-45143048D01*
X117593686Y-45191429D01*
X117571915Y-45215619D01*
X117528372Y-45239810D01*
X117484829Y-45239810D01*
X117441286Y-45215619D01*
X117419515Y-45191429D01*
X117397743Y-45143048D01*
X117375972Y-45046286D01*
X117375972Y-44925333D01*
X117397743Y-44828571D01*
X117419515Y-44780190D01*
X117441286Y-44756000D01*
X117484829Y-44731810D01*
X117833172Y-45191429D02*
X117854944Y-45215619D01*
X117833172Y-45239810D01*
X117811401Y-45215619D01*
X117833172Y-45191429D01*
X117833172Y-45239810D01*
X118290372Y-45239810D02*
X118029115Y-45239810D01*
X118159743Y-45239810D02*
X118159743Y-44731810D01*
X118116200Y-44804381D01*
X118072658Y-44852762D01*
X118029115Y-44876952D01*
X118682258Y-44901143D02*
X118682258Y-45239810D01*
X118486315Y-44901143D02*
X118486315Y-45167238D01*
X118508087Y-45215619D01*
X118551629Y-45239810D01*
X118616944Y-45239810D01*
X118660487Y-45215619D01*
X118682258Y-45191429D01*
D16*
X36127428Y-29705643D02*
X36103238Y-29733462D01*
X36030666Y-29761281D01*
X35982285Y-29761281D01*
X35909714Y-29733462D01*
X35861333Y-29677824D01*
X35837142Y-29622186D01*
X35812952Y-29510910D01*
X35812952Y-29427452D01*
X35837142Y-29316176D01*
X35861333Y-29260538D01*
X35909714Y-29204900D01*
X35982285Y-29177081D01*
X36030666Y-29177081D01*
X36103238Y-29204900D01*
X36127428Y-29232719D01*
X36369333Y-29761281D02*
X36466095Y-29761281D01*
X36514476Y-29733462D01*
X36538666Y-29705643D01*
X36587047Y-29622186D01*
X36611238Y-29510910D01*
X36611238Y-29288357D01*
X36587047Y-29232719D01*
X36562857Y-29204900D01*
X36514476Y-29177081D01*
X36417714Y-29177081D01*
X36369333Y-29204900D01*
X36345142Y-29232719D01*
X36320952Y-29288357D01*
X36320952Y-29427452D01*
X36345142Y-29483090D01*
X36369333Y-29510910D01*
X36417714Y-29538729D01*
X36514476Y-29538729D01*
X36562857Y-29510910D01*
X36587047Y-29483090D01*
X36611238Y-29427452D01*
X36780571Y-29177081D02*
X37095048Y-29177081D01*
X36925714Y-29399633D01*
X36998286Y-29399633D01*
X37046667Y-29427452D01*
X37070857Y-29455271D01*
X37095048Y-29510910D01*
X37095048Y-29650005D01*
X37070857Y-29705643D01*
X37046667Y-29733462D01*
X36998286Y-29761281D01*
X36853143Y-29761281D01*
X36804762Y-29733462D01*
X36780571Y-29705643D01*
D17*
X36111086Y-31547810D02*
X35849829Y-31547810D01*
X35980457Y-31547810D02*
X35980457Y-31039810D01*
X35936914Y-31112381D01*
X35893372Y-31160762D01*
X35849829Y-31184952D01*
X36394115Y-31039810D02*
X36437658Y-31039810D01*
X36481201Y-31064000D01*
X36502972Y-31088190D01*
X36524743Y-31136571D01*
X36546515Y-31233333D01*
X36546515Y-31354286D01*
X36524743Y-31451048D01*
X36502972Y-31499429D01*
X36481201Y-31523619D01*
X36437658Y-31547810D01*
X36394115Y-31547810D01*
X36350572Y-31523619D01*
X36328801Y-31499429D01*
X36307029Y-31451048D01*
X36285258Y-31354286D01*
X36285258Y-31233333D01*
X36307029Y-31136571D01*
X36328801Y-31088190D01*
X36350572Y-31064000D01*
X36394115Y-31039810D01*
X36938401Y-31209143D02*
X36938401Y-31547810D01*
X36742458Y-31209143D02*
X36742458Y-31475238D01*
X36764230Y-31523619D01*
X36807772Y-31547810D01*
X36873087Y-31547810D01*
X36916630Y-31523619D01*
X36938401Y-31499429D01*
D16*
X51283428Y-65542643D02*
X51259238Y-65570462D01*
X51186666Y-65598281D01*
X51138285Y-65598281D01*
X51065714Y-65570462D01*
X51017333Y-65514824D01*
X50993142Y-65459186D01*
X50968952Y-65347910D01*
X50968952Y-65264452D01*
X50993142Y-65153176D01*
X51017333Y-65097538D01*
X51065714Y-65041900D01*
X51138285Y-65014081D01*
X51186666Y-65014081D01*
X51259238Y-65041900D01*
X51283428Y-65069719D01*
X51452761Y-65014081D02*
X51791428Y-65014081D01*
X51573714Y-65598281D01*
X52081714Y-65014081D02*
X52130095Y-65014081D01*
X52178476Y-65041900D01*
X52202667Y-65069719D01*
X52226857Y-65125357D01*
X52251048Y-65236633D01*
X52251048Y-65375729D01*
X52226857Y-65487005D01*
X52202667Y-65542643D01*
X52178476Y-65570462D01*
X52130095Y-65598281D01*
X52081714Y-65598281D01*
X52033333Y-65570462D01*
X52009143Y-65542643D01*
X51984952Y-65487005D01*
X51960762Y-65375729D01*
X51960762Y-65236633D01*
X51984952Y-65125357D01*
X52009143Y-65069719D01*
X52033333Y-65041900D01*
X52081714Y-65014081D01*
D17*
X51469086Y-63719810D02*
X51207829Y-63719810D01*
X51338457Y-63719810D02*
X51338457Y-63211810D01*
X51294914Y-63284381D01*
X51251372Y-63332762D01*
X51207829Y-63356952D01*
X51752115Y-63211810D02*
X51795658Y-63211810D01*
X51839201Y-63236000D01*
X51860972Y-63260190D01*
X51882743Y-63308571D01*
X51904515Y-63405333D01*
X51904515Y-63526286D01*
X51882743Y-63623048D01*
X51860972Y-63671429D01*
X51839201Y-63695619D01*
X51795658Y-63719810D01*
X51752115Y-63719810D01*
X51708572Y-63695619D01*
X51686801Y-63671429D01*
X51665029Y-63623048D01*
X51643258Y-63526286D01*
X51643258Y-63405333D01*
X51665029Y-63308571D01*
X51686801Y-63260190D01*
X51708572Y-63236000D01*
X51752115Y-63211810D01*
X52100458Y-63381143D02*
X52100458Y-63719810D01*
X52100458Y-63429524D02*
X52122230Y-63405333D01*
X52165772Y-63381143D01*
X52231087Y-63381143D01*
X52274630Y-63405333D01*
X52296401Y-63453714D01*
X52296401Y-63719810D01*
D16*
X28728428Y-54630643D02*
X28704238Y-54658462D01*
X28631666Y-54686281D01*
X28583285Y-54686281D01*
X28510714Y-54658462D01*
X28462333Y-54602824D01*
X28438142Y-54547186D01*
X28413952Y-54435910D01*
X28413952Y-54352452D01*
X28438142Y-54241176D01*
X28462333Y-54185538D01*
X28510714Y-54129900D01*
X28583285Y-54102081D01*
X28631666Y-54102081D01*
X28704238Y-54129900D01*
X28728428Y-54157719D01*
X28897761Y-54102081D02*
X29236428Y-54102081D01*
X29018714Y-54686281D01*
X29405762Y-54157719D02*
X29429952Y-54129900D01*
X29478333Y-54102081D01*
X29599286Y-54102081D01*
X29647667Y-54129900D01*
X29671857Y-54157719D01*
X29696048Y-54213357D01*
X29696048Y-54268995D01*
X29671857Y-54352452D01*
X29381571Y-54686281D01*
X29696048Y-54686281D01*
D17*
X28589129Y-52197310D02*
X28632672Y-52197310D01*
X28676215Y-52221500D01*
X28697986Y-52245690D01*
X28719757Y-52294071D01*
X28741529Y-52390833D01*
X28741529Y-52511786D01*
X28719757Y-52608548D01*
X28697986Y-52656929D01*
X28676215Y-52681119D01*
X28632672Y-52705310D01*
X28589129Y-52705310D01*
X28545586Y-52681119D01*
X28523815Y-52656929D01*
X28502043Y-52608548D01*
X28480272Y-52511786D01*
X28480272Y-52390833D01*
X28502043Y-52294071D01*
X28523815Y-52245690D01*
X28545586Y-52221500D01*
X28589129Y-52197310D01*
X28937472Y-52656929D02*
X28959244Y-52681119D01*
X28937472Y-52705310D01*
X28915701Y-52681119D01*
X28937472Y-52656929D01*
X28937472Y-52705310D01*
X29394672Y-52705310D02*
X29133415Y-52705310D01*
X29264043Y-52705310D02*
X29264043Y-52197310D01*
X29220500Y-52269881D01*
X29176958Y-52318262D01*
X29133415Y-52342452D01*
X29786558Y-52366643D02*
X29786558Y-52705310D01*
X29590615Y-52366643D02*
X29590615Y-52632738D01*
X29612387Y-52681119D01*
X29655929Y-52705310D01*
X29721244Y-52705310D01*
X29764787Y-52681119D01*
X29786558Y-52656929D01*
D16*
X44128428Y-62341643D02*
X44104238Y-62369462D01*
X44031666Y-62397281D01*
X43983285Y-62397281D01*
X43910714Y-62369462D01*
X43862333Y-62313824D01*
X43838142Y-62258186D01*
X43813952Y-62146910D01*
X43813952Y-62063452D01*
X43838142Y-61952176D01*
X43862333Y-61896538D01*
X43910714Y-61840900D01*
X43983285Y-61813081D01*
X44031666Y-61813081D01*
X44104238Y-61840900D01*
X44128428Y-61868719D01*
X44297761Y-61813081D02*
X44636428Y-61813081D01*
X44418714Y-62397281D01*
X45047667Y-61813081D02*
X44950905Y-61813081D01*
X44902524Y-61840900D01*
X44878333Y-61868719D01*
X44829952Y-61952176D01*
X44805762Y-62063452D01*
X44805762Y-62286005D01*
X44829952Y-62341643D01*
X44854143Y-62369462D01*
X44902524Y-62397281D01*
X44999286Y-62397281D01*
X45047667Y-62369462D01*
X45071857Y-62341643D01*
X45096048Y-62286005D01*
X45096048Y-62146910D01*
X45071857Y-62091271D01*
X45047667Y-62063452D01*
X44999286Y-62035633D01*
X44902524Y-62035633D01*
X44854143Y-62063452D01*
X44829952Y-62091271D01*
X44805762Y-62146910D01*
D17*
X45670629Y-60973010D02*
X45714172Y-60973010D01*
X45757715Y-60997200D01*
X45779486Y-61021390D01*
X45801257Y-61069771D01*
X45823029Y-61166533D01*
X45823029Y-61287486D01*
X45801257Y-61384248D01*
X45779486Y-61432629D01*
X45757715Y-61456819D01*
X45714172Y-61481010D01*
X45670629Y-61481010D01*
X45627086Y-61456819D01*
X45605315Y-61432629D01*
X45583543Y-61384248D01*
X45561772Y-61287486D01*
X45561772Y-61166533D01*
X45583543Y-61069771D01*
X45605315Y-61021390D01*
X45627086Y-60997200D01*
X45670629Y-60973010D01*
X46018972Y-61432629D02*
X46040744Y-61456819D01*
X46018972Y-61481010D01*
X45997201Y-61456819D01*
X46018972Y-61432629D01*
X46018972Y-61481010D01*
X46476172Y-61481010D02*
X46214915Y-61481010D01*
X46345543Y-61481010D02*
X46345543Y-60973010D01*
X46302000Y-61045581D01*
X46258458Y-61093962D01*
X46214915Y-61118152D01*
X46868058Y-61142343D02*
X46868058Y-61481010D01*
X46672115Y-61142343D02*
X46672115Y-61408438D01*
X46693887Y-61456819D01*
X46737429Y-61481010D01*
X46802744Y-61481010D01*
X46846287Y-61456819D01*
X46868058Y-61432629D01*
D16*
X51392523Y-60536643D02*
X51368333Y-60564462D01*
X51295761Y-60592281D01*
X51247380Y-60592281D01*
X51174809Y-60564462D01*
X51126428Y-60508824D01*
X51102237Y-60453186D01*
X51078047Y-60341910D01*
X51078047Y-60258452D01*
X51102237Y-60147176D01*
X51126428Y-60091538D01*
X51174809Y-60035900D01*
X51247380Y-60008081D01*
X51295761Y-60008081D01*
X51368333Y-60035900D01*
X51392523Y-60063719D01*
X51876333Y-60592281D02*
X51586047Y-60592281D01*
X51731190Y-60592281D02*
X51731190Y-60008081D01*
X51682809Y-60091538D01*
X51634428Y-60147176D01*
X51586047Y-60174995D01*
X52190809Y-60008081D02*
X52239190Y-60008081D01*
X52287571Y-60035900D01*
X52311762Y-60063719D01*
X52335952Y-60119357D01*
X52360143Y-60230633D01*
X52360143Y-60369729D01*
X52335952Y-60481005D01*
X52311762Y-60536643D01*
X52287571Y-60564462D01*
X52239190Y-60592281D01*
X52190809Y-60592281D01*
X52142428Y-60564462D01*
X52118238Y-60536643D01*
X52094047Y-60481005D01*
X52069857Y-60369729D01*
X52069857Y-60230633D01*
X52094047Y-60119357D01*
X52118238Y-60063719D01*
X52142428Y-60035900D01*
X52190809Y-60008081D01*
X52674619Y-60008081D02*
X52723000Y-60008081D01*
X52771381Y-60035900D01*
X52795572Y-60063719D01*
X52819762Y-60119357D01*
X52843953Y-60230633D01*
X52843953Y-60369729D01*
X52819762Y-60481005D01*
X52795572Y-60536643D01*
X52771381Y-60564462D01*
X52723000Y-60592281D01*
X52674619Y-60592281D01*
X52626238Y-60564462D01*
X52602048Y-60536643D01*
X52577857Y-60481005D01*
X52553667Y-60369729D01*
X52553667Y-60230633D01*
X52577857Y-60119357D01*
X52602048Y-60063719D01*
X52626238Y-60035900D01*
X52674619Y-60008081D01*
D17*
X49429829Y-60947610D02*
X49473372Y-60947610D01*
X49516915Y-60971800D01*
X49538686Y-60995990D01*
X49560457Y-61044371D01*
X49582229Y-61141133D01*
X49582229Y-61262086D01*
X49560457Y-61358848D01*
X49538686Y-61407229D01*
X49516915Y-61431419D01*
X49473372Y-61455610D01*
X49429829Y-61455610D01*
X49386286Y-61431419D01*
X49364515Y-61407229D01*
X49342743Y-61358848D01*
X49320972Y-61262086D01*
X49320972Y-61141133D01*
X49342743Y-61044371D01*
X49364515Y-60995990D01*
X49386286Y-60971800D01*
X49429829Y-60947610D01*
X49778172Y-61407229D02*
X49799944Y-61431419D01*
X49778172Y-61455610D01*
X49756401Y-61431419D01*
X49778172Y-61407229D01*
X49778172Y-61455610D01*
X50235372Y-61455610D02*
X49974115Y-61455610D01*
X50104743Y-61455610D02*
X50104743Y-60947610D01*
X50061200Y-61020181D01*
X50017658Y-61068562D01*
X49974115Y-61092752D01*
X50627258Y-61116943D02*
X50627258Y-61455610D01*
X50431315Y-61116943D02*
X50431315Y-61383038D01*
X50453087Y-61431419D01*
X50496629Y-61455610D01*
X50561944Y-61455610D01*
X50605487Y-61431419D01*
X50627258Y-61407229D01*
D16*
X41390123Y-63542643D02*
X41365933Y-63570462D01*
X41293361Y-63598281D01*
X41244980Y-63598281D01*
X41172409Y-63570462D01*
X41124028Y-63514824D01*
X41099837Y-63459186D01*
X41075647Y-63347910D01*
X41075647Y-63264452D01*
X41099837Y-63153176D01*
X41124028Y-63097538D01*
X41172409Y-63041900D01*
X41244980Y-63014081D01*
X41293361Y-63014081D01*
X41365933Y-63041900D01*
X41390123Y-63069719D01*
X41873933Y-63598281D02*
X41583647Y-63598281D01*
X41728790Y-63598281D02*
X41728790Y-63014081D01*
X41680409Y-63097538D01*
X41632028Y-63153176D01*
X41583647Y-63180995D01*
X42188409Y-63014081D02*
X42236790Y-63014081D01*
X42285171Y-63041900D01*
X42309362Y-63069719D01*
X42333552Y-63125357D01*
X42357743Y-63236633D01*
X42357743Y-63375729D01*
X42333552Y-63487005D01*
X42309362Y-63542643D01*
X42285171Y-63570462D01*
X42236790Y-63598281D01*
X42188409Y-63598281D01*
X42140028Y-63570462D01*
X42115838Y-63542643D01*
X42091647Y-63487005D01*
X42067457Y-63375729D01*
X42067457Y-63236633D01*
X42091647Y-63125357D01*
X42115838Y-63069719D01*
X42140028Y-63041900D01*
X42188409Y-63014081D01*
X42527076Y-63014081D02*
X42841553Y-63014081D01*
X42672219Y-63236633D01*
X42744791Y-63236633D01*
X42793172Y-63264452D01*
X42817362Y-63292271D01*
X42841553Y-63347910D01*
X42841553Y-63487005D01*
X42817362Y-63542643D01*
X42793172Y-63570462D01*
X42744791Y-63598281D01*
X42599648Y-63598281D01*
X42551267Y-63570462D01*
X42527076Y-63542643D01*
D17*
X41403429Y-61227010D02*
X41446972Y-61227010D01*
X41490515Y-61251200D01*
X41512286Y-61275390D01*
X41534057Y-61323771D01*
X41555829Y-61420533D01*
X41555829Y-61541486D01*
X41534057Y-61638248D01*
X41512286Y-61686629D01*
X41490515Y-61710819D01*
X41446972Y-61735010D01*
X41403429Y-61735010D01*
X41359886Y-61710819D01*
X41338115Y-61686629D01*
X41316343Y-61638248D01*
X41294572Y-61541486D01*
X41294572Y-61420533D01*
X41316343Y-61323771D01*
X41338115Y-61275390D01*
X41359886Y-61251200D01*
X41403429Y-61227010D01*
X41751772Y-61686629D02*
X41773544Y-61710819D01*
X41751772Y-61735010D01*
X41730001Y-61710819D01*
X41751772Y-61686629D01*
X41751772Y-61735010D01*
X42208972Y-61735010D02*
X41947715Y-61735010D01*
X42078343Y-61735010D02*
X42078343Y-61227010D01*
X42034800Y-61299581D01*
X41991258Y-61347962D01*
X41947715Y-61372152D01*
X42600858Y-61396343D02*
X42600858Y-61735010D01*
X42404915Y-61396343D02*
X42404915Y-61662438D01*
X42426687Y-61710819D01*
X42470229Y-61735010D01*
X42535544Y-61735010D01*
X42579087Y-61710819D01*
X42600858Y-61686629D01*
D16*
X36259323Y-55770243D02*
X36235133Y-55798062D01*
X36162561Y-55825881D01*
X36114180Y-55825881D01*
X36041609Y-55798062D01*
X35993228Y-55742424D01*
X35969037Y-55686786D01*
X35944847Y-55575510D01*
X35944847Y-55492052D01*
X35969037Y-55380776D01*
X35993228Y-55325138D01*
X36041609Y-55269500D01*
X36114180Y-55241681D01*
X36162561Y-55241681D01*
X36235133Y-55269500D01*
X36259323Y-55297319D01*
X36743133Y-55825881D02*
X36452847Y-55825881D01*
X36597990Y-55825881D02*
X36597990Y-55241681D01*
X36549609Y-55325138D01*
X36501228Y-55380776D01*
X36452847Y-55408595D01*
X37057609Y-55241681D02*
X37105990Y-55241681D01*
X37154371Y-55269500D01*
X37178562Y-55297319D01*
X37202752Y-55352957D01*
X37226943Y-55464233D01*
X37226943Y-55603329D01*
X37202752Y-55714605D01*
X37178562Y-55770243D01*
X37154371Y-55798062D01*
X37105990Y-55825881D01*
X37057609Y-55825881D01*
X37009228Y-55798062D01*
X36985038Y-55770243D01*
X36960847Y-55714605D01*
X36936657Y-55603329D01*
X36936657Y-55464233D01*
X36960847Y-55352957D01*
X36985038Y-55297319D01*
X37009228Y-55269500D01*
X37057609Y-55241681D01*
X37662372Y-55241681D02*
X37565610Y-55241681D01*
X37517229Y-55269500D01*
X37493038Y-55297319D01*
X37444657Y-55380776D01*
X37420467Y-55492052D01*
X37420467Y-55714605D01*
X37444657Y-55770243D01*
X37468848Y-55798062D01*
X37517229Y-55825881D01*
X37613991Y-55825881D01*
X37662372Y-55798062D01*
X37686562Y-55770243D01*
X37710753Y-55714605D01*
X37710753Y-55575510D01*
X37686562Y-55519871D01*
X37662372Y-55492052D01*
X37613991Y-55464233D01*
X37517229Y-55464233D01*
X37468848Y-55492052D01*
X37444657Y-55519871D01*
X37420467Y-55575510D01*
D17*
X36533886Y-57620210D02*
X36272629Y-57620210D01*
X36403257Y-57620210D02*
X36403257Y-57112210D01*
X36359714Y-57184781D01*
X36316172Y-57233162D01*
X36272629Y-57257352D01*
X36816915Y-57112210D02*
X36860458Y-57112210D01*
X36904001Y-57136400D01*
X36925772Y-57160590D01*
X36947543Y-57208971D01*
X36969315Y-57305733D01*
X36969315Y-57426686D01*
X36947543Y-57523448D01*
X36925772Y-57571829D01*
X36904001Y-57596019D01*
X36860458Y-57620210D01*
X36816915Y-57620210D01*
X36773372Y-57596019D01*
X36751601Y-57571829D01*
X36729829Y-57523448D01*
X36708058Y-57426686D01*
X36708058Y-57305733D01*
X36729829Y-57208971D01*
X36751601Y-57160590D01*
X36773372Y-57136400D01*
X36816915Y-57112210D01*
X37165258Y-57281543D02*
X37165258Y-57620210D01*
X37165258Y-57329924D02*
X37187030Y-57305733D01*
X37230572Y-57281543D01*
X37295887Y-57281543D01*
X37339430Y-57305733D01*
X37361201Y-57354114D01*
X37361201Y-57620210D01*
D10*
X124405667Y-79348381D02*
X124405667Y-80062667D01*
X124358047Y-80205524D01*
X124262809Y-80300762D01*
X124119952Y-80348381D01*
X124024714Y-80348381D01*
X125310429Y-79348381D02*
X125119952Y-79348381D01*
X125024714Y-79396000D01*
X124977095Y-79443619D01*
X124881857Y-79586476D01*
X124834238Y-79776952D01*
X124834238Y-80157905D01*
X124881857Y-80253143D01*
X124929476Y-80300762D01*
X125024714Y-80348381D01*
X125215191Y-80348381D01*
X125310429Y-80300762D01*
X125358048Y-80253143D01*
X125405667Y-80157905D01*
X125405667Y-79919810D01*
X125358048Y-79824571D01*
X125310429Y-79776952D01*
X125215191Y-79729333D01*
X125024714Y-79729333D01*
X124929476Y-79776952D01*
X124881857Y-79824571D01*
X124834238Y-79919810D01*
X22647762Y-39575333D02*
X22695381Y-39432476D01*
X22695381Y-39194380D01*
X22647762Y-39099142D01*
X22600143Y-39051523D01*
X22504905Y-39003904D01*
X22409667Y-39003904D01*
X22314429Y-39051523D01*
X22266810Y-39099142D01*
X22219190Y-39194380D01*
X22171571Y-39384857D01*
X22123952Y-39480095D01*
X22076333Y-39527714D01*
X21981095Y-39575333D01*
X21885857Y-39575333D01*
X21790619Y-39527714D01*
X21743000Y-39480095D01*
X21695381Y-39384857D01*
X21695381Y-39146761D01*
X21743000Y-39003904D01*
X21695381Y-38670571D02*
X22695381Y-38432476D01*
X21981095Y-38241999D01*
X22695381Y-38051523D01*
X21695381Y-37813428D01*
X22695381Y-36908666D02*
X22695381Y-37480095D01*
X22695381Y-37194381D02*
X21695381Y-37194381D01*
X21838238Y-37289619D01*
X21933476Y-37384857D01*
X21981095Y-37480095D01*
X42371714Y-23558381D02*
X42371714Y-22558381D01*
X42609809Y-22558381D01*
X42752667Y-22606000D01*
X42847905Y-22701238D01*
X42895524Y-22796476D01*
X42943143Y-22986952D01*
X42943143Y-23129810D01*
X42895524Y-23320286D01*
X42847905Y-23415524D01*
X42752667Y-23510762D01*
X42609809Y-23558381D01*
X42371714Y-23558381D01*
X43324095Y-23510762D02*
X43466952Y-23558381D01*
X43705048Y-23558381D01*
X43800286Y-23510762D01*
X43847905Y-23463143D01*
X43895524Y-23367905D01*
X43895524Y-23272667D01*
X43847905Y-23177429D01*
X43800286Y-23129810D01*
X43705048Y-23082190D01*
X43514571Y-23034571D01*
X43419333Y-22986952D01*
X43371714Y-22939333D01*
X43324095Y-22844095D01*
X43324095Y-22748857D01*
X43371714Y-22653619D01*
X43419333Y-22606000D01*
X43514571Y-22558381D01*
X43752667Y-22558381D01*
X43895524Y-22606000D01*
X44847905Y-23558381D02*
X44276476Y-23558381D01*
X44562190Y-23558381D02*
X44562190Y-22558381D01*
X44466952Y-22701238D01*
X44371714Y-22796476D01*
X44276476Y-22844095D01*
X23810095Y-23301381D02*
X23810095Y-22301381D01*
X24381524Y-23301381D02*
X23952952Y-22729952D01*
X24381524Y-22301381D02*
X23810095Y-22872810D01*
X62432905Y-22992667D02*
X62909096Y-22992667D01*
X62337667Y-23278381D02*
X62671000Y-22278381D01*
X63004334Y-23278381D01*
D16*
X114438643Y-63468477D02*
X114466462Y-63492667D01*
X114494281Y-63565239D01*
X114494281Y-63613620D01*
X114466462Y-63686191D01*
X114410824Y-63734572D01*
X114355186Y-63758763D01*
X114243910Y-63782953D01*
X114160452Y-63782953D01*
X114049176Y-63758763D01*
X113993538Y-63734572D01*
X113937900Y-63686191D01*
X113910081Y-63613620D01*
X113910081Y-63565239D01*
X113937900Y-63492667D01*
X113965719Y-63468477D01*
X114494281Y-62984667D02*
X114494281Y-63274953D01*
X114494281Y-63129810D02*
X113910081Y-63129810D01*
X113993538Y-63178191D01*
X114049176Y-63226572D01*
X114076995Y-63274953D01*
X114494281Y-62500857D02*
X114494281Y-62791143D01*
X114494281Y-62646000D02*
X113910081Y-62646000D01*
X113993538Y-62694381D01*
X114049176Y-62742762D01*
X114076995Y-62791143D01*
X114494281Y-62258952D02*
X114494281Y-62162190D01*
X114466462Y-62113809D01*
X114438643Y-62089619D01*
X114355186Y-62041238D01*
X114243910Y-62017047D01*
X114021357Y-62017047D01*
X113965719Y-62041238D01*
X113937900Y-62065428D01*
X113910081Y-62113809D01*
X113910081Y-62210571D01*
X113937900Y-62258952D01*
X113965719Y-62283143D01*
X114021357Y-62307333D01*
X114160452Y-62307333D01*
X114216090Y-62283143D01*
X114243910Y-62258952D01*
X114271729Y-62210571D01*
X114271729Y-62113809D01*
X114243910Y-62065428D01*
X114216090Y-62041238D01*
X114160452Y-62017047D01*
D17*
X112180190Y-65014028D02*
X112156000Y-64992257D01*
X112131810Y-64948714D01*
X112131810Y-64839857D01*
X112156000Y-64796314D01*
X112180190Y-64774543D01*
X112228571Y-64752771D01*
X112276952Y-64752771D01*
X112349524Y-64774543D01*
X112639810Y-65035800D01*
X112639810Y-64752771D01*
X112591429Y-64556828D02*
X112615619Y-64535056D01*
X112639810Y-64556828D01*
X112615619Y-64578599D01*
X112591429Y-64556828D01*
X112639810Y-64556828D01*
X112180190Y-64360885D02*
X112156000Y-64339114D01*
X112131810Y-64295571D01*
X112131810Y-64186714D01*
X112156000Y-64143171D01*
X112180190Y-64121400D01*
X112228571Y-64099628D01*
X112276952Y-64099628D01*
X112349524Y-64121400D01*
X112639810Y-64382657D01*
X112639810Y-64099628D01*
X112301143Y-63707742D02*
X112639810Y-63707742D01*
X112301143Y-63903685D02*
X112567238Y-63903685D01*
X112615619Y-63881913D01*
X112639810Y-63838371D01*
X112639810Y-63773056D01*
X112615619Y-63729513D01*
X112591429Y-63707742D01*
D16*
X108298643Y-63058477D02*
X108326462Y-63082667D01*
X108354281Y-63155239D01*
X108354281Y-63203620D01*
X108326462Y-63276191D01*
X108270824Y-63324572D01*
X108215186Y-63348763D01*
X108103910Y-63372953D01*
X108020452Y-63372953D01*
X107909176Y-63348763D01*
X107853538Y-63324572D01*
X107797900Y-63276191D01*
X107770081Y-63203620D01*
X107770081Y-63155239D01*
X107797900Y-63082667D01*
X107825719Y-63058477D01*
X108354281Y-62574667D02*
X108354281Y-62864953D01*
X108354281Y-62719810D02*
X107770081Y-62719810D01*
X107853538Y-62768191D01*
X107909176Y-62816572D01*
X107936995Y-62864953D01*
X107825719Y-62381143D02*
X107797900Y-62356953D01*
X107770081Y-62308572D01*
X107770081Y-62187619D01*
X107797900Y-62139238D01*
X107825719Y-62115048D01*
X107881357Y-62090857D01*
X107936995Y-62090857D01*
X108020452Y-62115048D01*
X108354281Y-62405334D01*
X108354281Y-62090857D01*
X107770081Y-61776381D02*
X107770081Y-61728000D01*
X107797900Y-61679619D01*
X107825719Y-61655428D01*
X107881357Y-61631238D01*
X107992633Y-61607047D01*
X108131729Y-61607047D01*
X108243005Y-61631238D01*
X108298643Y-61655428D01*
X108326462Y-61679619D01*
X108354281Y-61728000D01*
X108354281Y-61776381D01*
X108326462Y-61824762D01*
X108298643Y-61848952D01*
X108243005Y-61873143D01*
X108131729Y-61897333D01*
X107992633Y-61897333D01*
X107881357Y-61873143D01*
X107825719Y-61848952D01*
X107797900Y-61824762D01*
X107770081Y-61776381D01*
D17*
X108805190Y-65023028D02*
X108781000Y-65001257D01*
X108756810Y-64957714D01*
X108756810Y-64848857D01*
X108781000Y-64805314D01*
X108805190Y-64783543D01*
X108853571Y-64761771D01*
X108901952Y-64761771D01*
X108974524Y-64783543D01*
X109264810Y-65044800D01*
X109264810Y-64761771D01*
X109216429Y-64565828D02*
X109240619Y-64544056D01*
X109264810Y-64565828D01*
X109240619Y-64587599D01*
X109216429Y-64565828D01*
X109264810Y-64565828D01*
X108805190Y-64369885D02*
X108781000Y-64348114D01*
X108756810Y-64304571D01*
X108756810Y-64195714D01*
X108781000Y-64152171D01*
X108805190Y-64130400D01*
X108853571Y-64108628D01*
X108901952Y-64108628D01*
X108974524Y-64130400D01*
X109264810Y-64391657D01*
X109264810Y-64108628D01*
X108926143Y-63716742D02*
X109264810Y-63716742D01*
X108926143Y-63912685D02*
X109192238Y-63912685D01*
X109240619Y-63890913D01*
X109264810Y-63847371D01*
X109264810Y-63782056D01*
X109240619Y-63738513D01*
X109216429Y-63716742D01*
D10*
X128761927Y-29942541D02*
X128761927Y-30656827D01*
X128714307Y-30799684D01*
X128619069Y-30894922D01*
X128476212Y-30942541D01*
X128380974Y-30942541D01*
X129142879Y-29942541D02*
X129809546Y-29942541D01*
X129380974Y-30942541D01*
X89227381Y-45461905D02*
X90036905Y-45461905D01*
X90132143Y-45414286D01*
X90179762Y-45366667D01*
X90227381Y-45271429D01*
X90227381Y-45080952D01*
X90179762Y-44985714D01*
X90132143Y-44938095D01*
X90036905Y-44890476D01*
X89227381Y-44890476D01*
X89322619Y-44461905D02*
X89275000Y-44414286D01*
X89227381Y-44319048D01*
X89227381Y-44080952D01*
X89275000Y-43985714D01*
X89322619Y-43938095D01*
X89417857Y-43890476D01*
X89513095Y-43890476D01*
X89655952Y-43938095D01*
X90227381Y-44509524D01*
X90227381Y-43890476D01*
X36622381Y-53796905D02*
X37431905Y-53796905D01*
X37527143Y-53749286D01*
X37574762Y-53701667D01*
X37622381Y-53606429D01*
X37622381Y-53415952D01*
X37574762Y-53320714D01*
X37527143Y-53273095D01*
X37431905Y-53225476D01*
X36622381Y-53225476D01*
X37622381Y-52225476D02*
X37622381Y-52796905D01*
X37622381Y-52511191D02*
X36622381Y-52511191D01*
X36765238Y-52606429D01*
X36860476Y-52701667D01*
X36908095Y-52796905D01*
X127129907Y-63633361D02*
X127129907Y-64347647D01*
X127082287Y-64490504D01*
X126987049Y-64585742D01*
X126844192Y-64633361D01*
X126748954Y-64633361D01*
X128034669Y-63966694D02*
X128034669Y-64633361D01*
X127796573Y-63585742D02*
X127558478Y-64300028D01*
X128177526Y-64300028D01*
X130961642Y-68300373D02*
X131009261Y-68157516D01*
X131009261Y-67919420D01*
X130961642Y-67824182D01*
X130914023Y-67776563D01*
X130818785Y-67728944D01*
X130723547Y-67728944D01*
X130628309Y-67776563D01*
X130580690Y-67824182D01*
X130533070Y-67919420D01*
X130485451Y-68109897D01*
X130437832Y-68205135D01*
X130390213Y-68252754D01*
X130294975Y-68300373D01*
X130199737Y-68300373D01*
X130104499Y-68252754D01*
X130056880Y-68205135D01*
X130009261Y-68109897D01*
X130009261Y-67871801D01*
X130056880Y-67728944D01*
X130009261Y-67395611D02*
X131009261Y-67157516D01*
X130294975Y-66967039D01*
X131009261Y-66776563D01*
X130009261Y-66538468D01*
X130342594Y-65728944D02*
X131009261Y-65728944D01*
X129961642Y-65967040D02*
X130675928Y-66205135D01*
X130675928Y-65586087D01*
X101238770Y-69757431D02*
X101714961Y-69757431D01*
X100714961Y-70090764D02*
X101238770Y-69757431D01*
X100714961Y-69424097D01*
X100810199Y-69138383D02*
X100762580Y-69090764D01*
X100714961Y-68995526D01*
X100714961Y-68757430D01*
X100762580Y-68662192D01*
X100810199Y-68614573D01*
X100905437Y-68566954D01*
X101000675Y-68566954D01*
X101143532Y-68614573D01*
X101714961Y-69186002D01*
X101714961Y-68566954D01*
X119371905Y-55802381D02*
X119371905Y-54802381D01*
X119610000Y-54802381D01*
X119752858Y-54850000D01*
X119848096Y-54945238D01*
X119895715Y-55040476D01*
X119943334Y-55230952D01*
X119943334Y-55373810D01*
X119895715Y-55564286D01*
X119848096Y-55659524D01*
X119752858Y-55754762D01*
X119610000Y-55802381D01*
X119371905Y-55802381D01*
X120276667Y-54802381D02*
X120943334Y-54802381D01*
X120514762Y-55802381D01*
X119391905Y-48812381D02*
X119391905Y-47812381D01*
X119630000Y-47812381D01*
X119772858Y-47860000D01*
X119868096Y-47955238D01*
X119915715Y-48050476D01*
X119963334Y-48240952D01*
X119963334Y-48383810D01*
X119915715Y-48574286D01*
X119868096Y-48669524D01*
X119772858Y-48764762D01*
X119630000Y-48812381D01*
X119391905Y-48812381D01*
X120820477Y-47812381D02*
X120630000Y-47812381D01*
X120534762Y-47860000D01*
X120487143Y-47907619D01*
X120391905Y-48050476D01*
X120344286Y-48240952D01*
X120344286Y-48621905D01*
X120391905Y-48717143D01*
X120439524Y-48764762D01*
X120534762Y-48812381D01*
X120725239Y-48812381D01*
X120820477Y-48764762D01*
X120868096Y-48717143D01*
X120915715Y-48621905D01*
X120915715Y-48383810D01*
X120868096Y-48288571D01*
X120820477Y-48240952D01*
X120725239Y-48193333D01*
X120534762Y-48193333D01*
X120439524Y-48240952D01*
X120391905Y-48288571D01*
X120344286Y-48383810D01*
M02*
