G04 #@! TF.FileFunction,Paste,Top*
%FSLAX46Y46*%
G04 Gerber Fmt 4.6, Leading zero omitted, Abs format (unit mm)*
G04 Created by KiCad (PCBNEW 4.0.5+dfsg1-4) date Mon Jul  3 23:58:12 2017*
%MOMM*%
%LPD*%
G01*
G04 APERTURE LIST*
%ADD10C,0.150000*%
%ADD11R,0.300000X1.200000*%
%ADD12R,0.700000X1.900000*%
%ADD13R,1.400000X1.900000*%
%ADD14R,1.560000X0.650000*%
%ADD15R,1.200000X2.400000*%
%ADD16R,3.300000X2.400000*%
%ADD17R,1.800860X0.800100*%
%ADD18R,0.400000X2.000000*%
%ADD19R,0.300000X1.600000*%
%ADD20R,1.600000X0.300000*%
%ADD21R,0.797560X0.797560*%
%ADD22R,1.397000X0.889000*%
%ADD23R,1.143000X0.635000*%
%ADD24R,0.635000X1.143000*%
%ADD25R,2.500000X4.000000*%
%ADD26R,6.700000X6.700000*%
%ADD27R,6.200000X6.200000*%
%ADD28R,2.200000X0.300000*%
%ADD29R,1.600000X0.400000*%
%ADD30R,0.700000X0.200000*%
G04 APERTURE END LIST*
D10*
D11*
X107122000Y-72230000D03*
X107622000Y-72230000D03*
X108122000Y-72230000D03*
X108622000Y-72230000D03*
X109122000Y-72230000D03*
X109622000Y-72230000D03*
X110122000Y-72230000D03*
X110622000Y-72230000D03*
X111122000Y-72230000D03*
X111622000Y-72230000D03*
X112122000Y-72230000D03*
X112622000Y-72230000D03*
X113122000Y-72230000D03*
X113622000Y-72230000D03*
X114122000Y-72230000D03*
X114122000Y-66230000D03*
X113622000Y-66230000D03*
X113122000Y-66230000D03*
X112622000Y-66230000D03*
X112122000Y-66230000D03*
X111622000Y-66230000D03*
X111122000Y-66230000D03*
X110622000Y-66230000D03*
X110122000Y-66230000D03*
X109622000Y-66230000D03*
X109122000Y-66230000D03*
X108622000Y-66230000D03*
X108122000Y-66230000D03*
X107622000Y-66230000D03*
X107122000Y-66230000D03*
D12*
X74964100Y-21860500D03*
X73264100Y-21860500D03*
X71564100Y-21860500D03*
D13*
X74944100Y-18510500D03*
D14*
X29143300Y-49287800D03*
X25843300Y-48337800D03*
X25843300Y-49287800D03*
X25843300Y-50237800D03*
X29143300Y-50237800D03*
X29143300Y-48337800D03*
D15*
X31577000Y-31256000D03*
X29277000Y-31256000D03*
X33877000Y-31256000D03*
D16*
X31577000Y-24056000D03*
D17*
X52691860Y-24379000D03*
X52691860Y-26279000D03*
X55694140Y-25329000D03*
D18*
X43963000Y-70544000D03*
X44613000Y-70544000D03*
X45263000Y-70544000D03*
X45913000Y-70544000D03*
X46563000Y-70544000D03*
X47213000Y-70544000D03*
X47863000Y-70544000D03*
X48513000Y-70544000D03*
X49163000Y-70544000D03*
X49813000Y-70544000D03*
X49813000Y-64104000D03*
X49163000Y-64104000D03*
X48513000Y-64104000D03*
X47863000Y-64104000D03*
X47213000Y-64104000D03*
X46563000Y-64104000D03*
X45913000Y-64104000D03*
X45263000Y-64104000D03*
X44613000Y-64104000D03*
X43963000Y-64104000D03*
D19*
X101300000Y-55700000D03*
X101800000Y-55700000D03*
X102300000Y-55700000D03*
X102800000Y-55700000D03*
X103300000Y-55700000D03*
X103800000Y-55700000D03*
X104300000Y-55700000D03*
X104800000Y-55700000D03*
X105300000Y-55700000D03*
X105800000Y-55700000D03*
X106300000Y-55700000D03*
X106800000Y-55700000D03*
X107300000Y-55700000D03*
X107800000Y-55700000D03*
X108300000Y-55700000D03*
X108800000Y-55700000D03*
X109300000Y-55700000D03*
X109800000Y-55700000D03*
X110300000Y-55700000D03*
X110800000Y-55700000D03*
X111300000Y-55700000D03*
X111800000Y-55700000D03*
X112300000Y-55700000D03*
X112800000Y-55700000D03*
X113300000Y-55700000D03*
D20*
X115100000Y-53900000D03*
X115100000Y-53400000D03*
X115100000Y-52900000D03*
X115100000Y-52400000D03*
X115100000Y-51900000D03*
X115100000Y-51400000D03*
X115100000Y-50900000D03*
X115100000Y-50400000D03*
X115100000Y-49900000D03*
X115100000Y-49400000D03*
X115100000Y-48900000D03*
X115100000Y-48400000D03*
X115100000Y-47900000D03*
X115100000Y-47400000D03*
X115100000Y-46900000D03*
X115100000Y-46400000D03*
X115100000Y-45900000D03*
X115100000Y-45400000D03*
X115100000Y-44900000D03*
X115100000Y-44400000D03*
X115100000Y-43900000D03*
X115100000Y-43400000D03*
X115100000Y-42900000D03*
X115100000Y-42400000D03*
X115100000Y-41900000D03*
D19*
X113300000Y-40100000D03*
X112800000Y-40100000D03*
X112300000Y-40100000D03*
X111800000Y-40100000D03*
X111300000Y-40100000D03*
X110800000Y-40100000D03*
X110300000Y-40100000D03*
X109800000Y-40100000D03*
X109300000Y-40100000D03*
X108800000Y-40100000D03*
X108300000Y-40100000D03*
X107800000Y-40100000D03*
X107300000Y-40100000D03*
X106800000Y-40100000D03*
X106300000Y-40100000D03*
X105800000Y-40100000D03*
X105300000Y-40100000D03*
X104800000Y-40100000D03*
X104300000Y-40100000D03*
X103800000Y-40100000D03*
X103300000Y-40100000D03*
X102800000Y-40100000D03*
X102300000Y-40100000D03*
X101800000Y-40100000D03*
X101300000Y-40100000D03*
D20*
X99500000Y-41900000D03*
X99500000Y-42400000D03*
X99500000Y-42900000D03*
X99500000Y-43400000D03*
X99500000Y-43900000D03*
X99500000Y-44400000D03*
X99500000Y-44900000D03*
X99500000Y-45400000D03*
X99500000Y-45900000D03*
X99500000Y-46400000D03*
X99500000Y-46900000D03*
X99500000Y-47400000D03*
X99500000Y-47900000D03*
X99500000Y-48400000D03*
X99500000Y-48900000D03*
X99500000Y-49400000D03*
X99500000Y-49900000D03*
X99500000Y-50400000D03*
X99500000Y-50900000D03*
X99500000Y-51400000D03*
X99500000Y-51900000D03*
X99500000Y-52400000D03*
X99500000Y-52900000D03*
X99500000Y-53400000D03*
X99500000Y-53900000D03*
D21*
X17179000Y-18795700D03*
X17179000Y-20294300D03*
X15549000Y-18795700D03*
X15549000Y-20294300D03*
D22*
X69494000Y-20408500D03*
X69494000Y-22313500D03*
X53538000Y-64107500D03*
X53538000Y-62202500D03*
D23*
X38262900Y-68477500D03*
X38262900Y-66953500D03*
D24*
X52410700Y-74078200D03*
X53934700Y-74078200D03*
D23*
X55280900Y-72008100D03*
X55280900Y-73532100D03*
X55001500Y-70128500D03*
X55001500Y-68604500D03*
X54997000Y-67547000D03*
X54997000Y-66023000D03*
X40104000Y-73777000D03*
X40104000Y-72253000D03*
D24*
X35301000Y-49779000D03*
X36825000Y-49779000D03*
X25397800Y-51764300D03*
X23873800Y-51764300D03*
D23*
X39370000Y-40894000D03*
X39370000Y-42418000D03*
X44931000Y-37368000D03*
X44931000Y-35844000D03*
X45616200Y-39013500D03*
X45616200Y-40537500D03*
D24*
X91463200Y-29666300D03*
X92987200Y-29666300D03*
D23*
X116693000Y-55199000D03*
X116693000Y-56723000D03*
X66609300Y-25399100D03*
X66609300Y-23875100D03*
X68222200Y-25411800D03*
X68222200Y-23887800D03*
X69835100Y-25411800D03*
X69835100Y-23887800D03*
X71448000Y-26288100D03*
X71448000Y-24764100D03*
X73086300Y-27520000D03*
X73086300Y-25996000D03*
D24*
X73467300Y-24548200D03*
X74991300Y-24548200D03*
X67866600Y-21551000D03*
X66342600Y-21551000D03*
D23*
X19159000Y-18929000D03*
X19159000Y-20453000D03*
X20709000Y-18925000D03*
X20709000Y-20449000D03*
X57912000Y-23754000D03*
X57912000Y-25278000D03*
D24*
X35138700Y-59536700D03*
X36662700Y-59536700D03*
D23*
X116690000Y-60902000D03*
X116690000Y-59378000D03*
X120690000Y-58262000D03*
X120690000Y-56738000D03*
X118930000Y-58262000D03*
X118930000Y-56738000D03*
D24*
X39634500Y-68172700D03*
X41158500Y-68172700D03*
X51280400Y-74066000D03*
X49756400Y-74066000D03*
X53604500Y-72224000D03*
X52080500Y-72224000D03*
X53579100Y-70357100D03*
X52055100Y-70357100D03*
X53579100Y-68058400D03*
X52055100Y-68058400D03*
D23*
X40358400Y-62267200D03*
X40358400Y-60743200D03*
D24*
X41539000Y-74066000D03*
X43063000Y-74066000D03*
D23*
X34872000Y-58177800D03*
X34872000Y-56653800D03*
D24*
X32078000Y-54317000D03*
X33602000Y-54317000D03*
X36039000Y-51283000D03*
X34515000Y-51283000D03*
X32766000Y-49779000D03*
X34290000Y-49779000D03*
X36824000Y-48265000D03*
X35300000Y-48265000D03*
D23*
X26705900Y-52018300D03*
X26705900Y-53542300D03*
X26645000Y-32075000D03*
X26645000Y-30551000D03*
X66000000Y-34762000D03*
X66000000Y-33238000D03*
D24*
X68762000Y-31800000D03*
X67238000Y-31800000D03*
X67362000Y-55900000D03*
X65838000Y-55900000D03*
D23*
X66520400Y-17868000D03*
X66520400Y-19392000D03*
D24*
X92974500Y-27888300D03*
X91450500Y-27888300D03*
X87259000Y-33498000D03*
X88783000Y-33498000D03*
D23*
X88500000Y-54538000D03*
X88500000Y-56062000D03*
X118040000Y-44248000D03*
X118040000Y-45772000D03*
X36405000Y-32080000D03*
X36405000Y-30556000D03*
X51763000Y-64252000D03*
X51763000Y-62728000D03*
X29144300Y-51713500D03*
X29144300Y-53237500D03*
X46225800Y-62013200D03*
X46225800Y-60489200D03*
X49985000Y-61987800D03*
X49985000Y-60463800D03*
X41958600Y-62267200D03*
X41958600Y-60743200D03*
X36827800Y-56628400D03*
X36827800Y-58152400D03*
D25*
X60676200Y-24406600D03*
X26076200Y-24406600D03*
D24*
X111648000Y-64350000D03*
X113172000Y-64350000D03*
X109797000Y-64359000D03*
X108273000Y-64359000D03*
D19*
X86050000Y-33900000D03*
X85550000Y-33900000D03*
X85050000Y-33900000D03*
X84550000Y-33900000D03*
X84050000Y-33900000D03*
X83550000Y-33900000D03*
X83050000Y-33900000D03*
X82550000Y-33900000D03*
X82050000Y-33900000D03*
X81550000Y-33900000D03*
X81050000Y-33900000D03*
X80550000Y-33900000D03*
X80050000Y-33900000D03*
X79550000Y-33900000D03*
X79050000Y-33900000D03*
X78550000Y-33900000D03*
X78050000Y-33900000D03*
X77550000Y-33900000D03*
X77050000Y-33900000D03*
X76550000Y-33900000D03*
X76050000Y-33900000D03*
X75550000Y-33900000D03*
X75050000Y-33900000D03*
X74550000Y-33900000D03*
X74050000Y-33900000D03*
X73550000Y-33900000D03*
X73050000Y-33900000D03*
X72550000Y-33900000D03*
X72050000Y-33900000D03*
X71550000Y-33900000D03*
X71050000Y-33900000D03*
X70550000Y-33900000D03*
X70050000Y-33900000D03*
X69550000Y-33900000D03*
X69050000Y-33900000D03*
X68550000Y-33900000D03*
D20*
X66500000Y-35950000D03*
X66500000Y-36450000D03*
X66500000Y-36950000D03*
X66500000Y-37450000D03*
X66500000Y-37950000D03*
X66500000Y-38450000D03*
X66500000Y-38950000D03*
X66500000Y-39450000D03*
X66500000Y-39950000D03*
X66500000Y-40450000D03*
X66500000Y-40950000D03*
X66500000Y-41450000D03*
X66500000Y-41950000D03*
X66500000Y-42450000D03*
X66500000Y-42950000D03*
X66500000Y-43450000D03*
X66500000Y-43950000D03*
X66500000Y-44450000D03*
X66500000Y-44950000D03*
X66500000Y-45450000D03*
X66500000Y-45950000D03*
X66500000Y-46450000D03*
X66500000Y-46950000D03*
X66500000Y-47450000D03*
X66500000Y-47950000D03*
X66500000Y-48450000D03*
X66500000Y-48950000D03*
X66500000Y-49450000D03*
X66500000Y-49950000D03*
X66500000Y-50450000D03*
X66500000Y-50950000D03*
X66500000Y-51450000D03*
X66500000Y-51950000D03*
X66500000Y-52450000D03*
X66500000Y-52950000D03*
X66500000Y-53450000D03*
D19*
X68550000Y-55500000D03*
X69050000Y-55500000D03*
X69550000Y-55500000D03*
X70050000Y-55500000D03*
X70550000Y-55500000D03*
X71050000Y-55500000D03*
X71550000Y-55500000D03*
X72050000Y-55500000D03*
X72550000Y-55500000D03*
X73050000Y-55500000D03*
X73550000Y-55500000D03*
X74050000Y-55500000D03*
X74550000Y-55500000D03*
X75050000Y-55500000D03*
X75550000Y-55500000D03*
X76050000Y-55500000D03*
X76550000Y-55500000D03*
X77050000Y-55500000D03*
X77550000Y-55500000D03*
X78050000Y-55500000D03*
X78550000Y-55500000D03*
X79050000Y-55500000D03*
X79550000Y-55500000D03*
X80050000Y-55500000D03*
X80550000Y-55500000D03*
X81050000Y-55500000D03*
X81550000Y-55500000D03*
X82050000Y-55500000D03*
X82550000Y-55500000D03*
X83050000Y-55500000D03*
X83550000Y-55500000D03*
X84050000Y-55500000D03*
X84550000Y-55500000D03*
X85050000Y-55500000D03*
X85550000Y-55500000D03*
X86050000Y-55500000D03*
D20*
X88100000Y-53450000D03*
X88100000Y-52950000D03*
X88100000Y-52450000D03*
X88100000Y-51950000D03*
X88100000Y-51450000D03*
X88100000Y-50950000D03*
X88100000Y-50450000D03*
X88100000Y-49950000D03*
X88100000Y-49450000D03*
X88100000Y-48950000D03*
X88100000Y-48450000D03*
X88100000Y-47950000D03*
X88100000Y-47450000D03*
X88100000Y-46950000D03*
X88100000Y-46450000D03*
X88100000Y-45950000D03*
X88100000Y-45450000D03*
X88100000Y-44950000D03*
X88100000Y-44450000D03*
X88100000Y-43950000D03*
X88100000Y-43450000D03*
X88100000Y-42950000D03*
X88100000Y-42450000D03*
X88100000Y-41950000D03*
X88100000Y-41450000D03*
X88100000Y-40950000D03*
X88100000Y-40450000D03*
X88100000Y-39950000D03*
X88100000Y-39450000D03*
X88100000Y-38950000D03*
X88100000Y-38450000D03*
X88100000Y-37950000D03*
X88100000Y-37450000D03*
X88100000Y-36950000D03*
X88100000Y-36450000D03*
X88100000Y-35950000D03*
D26*
X77300000Y-44700000D03*
D19*
X40736000Y-58092000D03*
X41236000Y-58092000D03*
X41736000Y-58092000D03*
X42236000Y-58092000D03*
X42736000Y-58092000D03*
X43236000Y-58092000D03*
X43736000Y-58092000D03*
X44236000Y-58092000D03*
X44736000Y-58092000D03*
X45236000Y-58092000D03*
X45736000Y-58092000D03*
X46236000Y-58092000D03*
X46736000Y-58092000D03*
X47236000Y-58092000D03*
X47736000Y-58092000D03*
X48236000Y-58092000D03*
X48736000Y-58092000D03*
X49236000Y-58092000D03*
X49736000Y-58092000D03*
X50236000Y-58092000D03*
X50736000Y-58092000D03*
X51236000Y-58092000D03*
X51736000Y-58092000D03*
X52236000Y-58092000D03*
X52736000Y-58092000D03*
D20*
X54536000Y-56292000D03*
X54536000Y-55792000D03*
X54536000Y-55292000D03*
X54536000Y-54792000D03*
X54536000Y-54292000D03*
X54536000Y-53792000D03*
X54536000Y-53292000D03*
X54536000Y-52792000D03*
X54536000Y-52292000D03*
X54536000Y-51792000D03*
X54536000Y-51292000D03*
X54536000Y-50792000D03*
X54536000Y-50292000D03*
X54536000Y-49792000D03*
X54536000Y-49292000D03*
X54536000Y-48792000D03*
X54536000Y-48292000D03*
X54536000Y-47792000D03*
X54536000Y-47292000D03*
X54536000Y-46792000D03*
X54536000Y-46292000D03*
X54536000Y-45792000D03*
X54536000Y-45292000D03*
X54536000Y-44792000D03*
X54536000Y-44292000D03*
D19*
X52736000Y-42492000D03*
X52236000Y-42492000D03*
X51736000Y-42492000D03*
X51236000Y-42492000D03*
X50736000Y-42492000D03*
X50236000Y-42492000D03*
X49736000Y-42492000D03*
X49236000Y-42492000D03*
X48736000Y-42492000D03*
X48236000Y-42492000D03*
X47736000Y-42492000D03*
X47236000Y-42492000D03*
X46736000Y-42492000D03*
X46236000Y-42492000D03*
X45736000Y-42492000D03*
X45236000Y-42492000D03*
X44736000Y-42492000D03*
X44236000Y-42492000D03*
X43736000Y-42492000D03*
X43236000Y-42492000D03*
X42736000Y-42492000D03*
X42236000Y-42492000D03*
X41736000Y-42492000D03*
X41236000Y-42492000D03*
X40736000Y-42492000D03*
D20*
X38936000Y-44292000D03*
X38936000Y-44792000D03*
X38936000Y-45292000D03*
X38936000Y-45792000D03*
X38936000Y-46292000D03*
X38936000Y-46792000D03*
X38936000Y-47292000D03*
X38936000Y-47792000D03*
X38936000Y-48292000D03*
X38936000Y-48792000D03*
X38936000Y-49292000D03*
X38936000Y-49792000D03*
X38936000Y-50292000D03*
X38936000Y-50792000D03*
X38936000Y-51292000D03*
X38936000Y-51792000D03*
X38936000Y-52292000D03*
X38936000Y-52792000D03*
X38936000Y-53292000D03*
X38936000Y-53792000D03*
X38936000Y-54292000D03*
X38936000Y-54792000D03*
X38936000Y-55292000D03*
X38936000Y-55792000D03*
X38936000Y-56292000D03*
D27*
X46736000Y-50292000D03*
D28*
X123300000Y-49050000D03*
X123300000Y-49550000D03*
X123300000Y-50050000D03*
X123300000Y-50550000D03*
X123300000Y-51050000D03*
X123300000Y-51550000D03*
X123300000Y-52050000D03*
X123300000Y-52550000D03*
X123300000Y-53050000D03*
X123300000Y-53550000D03*
X123300000Y-54050000D03*
X123300000Y-54550000D03*
X123300000Y-55050000D03*
X123300000Y-55550000D03*
X123300000Y-56050000D03*
X123300000Y-56550000D03*
X123300000Y-57050000D03*
X123300000Y-57550000D03*
X123300000Y-58050000D03*
D29*
X120120000Y-53310000D03*
D30*
X120569700Y-54310000D03*
X120569700Y-53810000D03*
X120569700Y-52810000D03*
X120569700Y-52310000D03*
X119670300Y-54310000D03*
X119670300Y-53810000D03*
X119670300Y-52310000D03*
X119670300Y-52810000D03*
D29*
X120120000Y-53310000D03*
X120120000Y-50310000D03*
D30*
X120569700Y-51310000D03*
X120569700Y-50810000D03*
X120569700Y-49810000D03*
X120569700Y-49310000D03*
X119670300Y-51310000D03*
X119670300Y-50810000D03*
X119670300Y-49310000D03*
X119670300Y-49810000D03*
D29*
X120120000Y-50310000D03*
M02*
