G04 #@! TF.GenerationSoftware,KiCad,Pcbnew,5.1.9+dfsg1-1*
G04 #@! TF.CreationDate,2021-07-22T10:59:42+03:00*
G04 #@! TF.ProjectId,ossc_board,6f737363-5f62-46f6-9172-642e6b696361,rev?*
G04 #@! TF.SameCoordinates,Original*
G04 #@! TF.FileFunction,Legend,Top*
G04 #@! TF.FilePolarity,Positive*
%FSLAX46Y46*%
G04 Gerber Fmt 4.6, Leading zero omitted, Abs format (unit mm)*
G04 Created by KiCad (PCBNEW 5.1.9+dfsg1-1) date 2021-07-22 10:59:42*
%MOMM*%
%LPD*%
G01*
G04 APERTURE LIST*
%ADD10C,0.300000*%
%ADD11C,0.150000*%
%ADD12C,0.120000*%
%ADD13C,0.381000*%
%ADD14C,0.099060*%
%ADD15C,0.119380*%
%ADD16C,0.203200*%
%ADD17C,0.127000*%
%ADD18C,0.114300*%
G04 APERTURE END LIST*
D10*
X76223000Y-70704571D02*
X76508714Y-70704571D01*
X76651571Y-70776000D01*
X76794428Y-70918857D01*
X76865857Y-71204571D01*
X76865857Y-71704571D01*
X76794428Y-71990285D01*
X76651571Y-72133142D01*
X76508714Y-72204571D01*
X76223000Y-72204571D01*
X76080142Y-72133142D01*
X75937285Y-71990285D01*
X75865857Y-71704571D01*
X75865857Y-71204571D01*
X75937285Y-70918857D01*
X76080142Y-70776000D01*
X76223000Y-70704571D01*
X77437285Y-72133142D02*
X77651571Y-72204571D01*
X78008714Y-72204571D01*
X78151571Y-72133142D01*
X78223000Y-72061714D01*
X78294428Y-71918857D01*
X78294428Y-71776000D01*
X78223000Y-71633142D01*
X78151571Y-71561714D01*
X78008714Y-71490285D01*
X77723000Y-71418857D01*
X77580142Y-71347428D01*
X77508714Y-71276000D01*
X77437285Y-71133142D01*
X77437285Y-70990285D01*
X77508714Y-70847428D01*
X77580142Y-70776000D01*
X77723000Y-70704571D01*
X78080142Y-70704571D01*
X78294428Y-70776000D01*
X78865857Y-72133142D02*
X79080142Y-72204571D01*
X79437285Y-72204571D01*
X79580142Y-72133142D01*
X79651571Y-72061714D01*
X79723000Y-71918857D01*
X79723000Y-71776000D01*
X79651571Y-71633142D01*
X79580142Y-71561714D01*
X79437285Y-71490285D01*
X79151571Y-71418857D01*
X79008714Y-71347428D01*
X78937285Y-71276000D01*
X78865857Y-71133142D01*
X78865857Y-70990285D01*
X78937285Y-70847428D01*
X79008714Y-70776000D01*
X79151571Y-70704571D01*
X79508714Y-70704571D01*
X79723000Y-70776000D01*
X81223000Y-72061714D02*
X81151571Y-72133142D01*
X80937285Y-72204571D01*
X80794428Y-72204571D01*
X80580142Y-72133142D01*
X80437285Y-71990285D01*
X80365857Y-71847428D01*
X80294428Y-71561714D01*
X80294428Y-71347428D01*
X80365857Y-71061714D01*
X80437285Y-70918857D01*
X80580142Y-70776000D01*
X80794428Y-70704571D01*
X80937285Y-70704571D01*
X81151571Y-70776000D01*
X81223000Y-70847428D01*
X82865857Y-71204571D02*
X83223000Y-72204571D01*
X83580142Y-71204571D01*
X84937285Y-72204571D02*
X84080142Y-72204571D01*
X84508714Y-72204571D02*
X84508714Y-70704571D01*
X84365857Y-70918857D01*
X84223000Y-71061714D01*
X84080142Y-71133142D01*
X85580142Y-72061714D02*
X85651571Y-72133142D01*
X85580142Y-72204571D01*
X85508714Y-72133142D01*
X85580142Y-72061714D01*
X85580142Y-72204571D01*
X86151571Y-70704571D02*
X87151571Y-70704571D01*
X86508714Y-72204571D01*
D11*
X35074500Y-46303300D02*
X24914500Y-46303300D01*
X36598500Y-44779300D02*
X36598500Y-34619300D01*
X23390500Y-33095300D02*
X23390500Y-44779300D01*
X35074500Y-33095300D02*
X23390500Y-33095300D01*
X35074500Y-46303300D02*
G75*
G03*
X36598500Y-44779300I0J1524000D01*
G01*
X23390500Y-44779300D02*
G75*
G03*
X24914500Y-46303300I1524000J0D01*
G01*
X36598500Y-34619300D02*
G75*
G03*
X35074500Y-33095300I-1524000J0D01*
G01*
X122640000Y-68770000D02*
X129600000Y-68770000D01*
X129600000Y-64270000D02*
X129600000Y-68770000D01*
X122640000Y-64270000D02*
X129600000Y-64270000D01*
X122640000Y-68770000D02*
X122640000Y-64270000D01*
X129600000Y-67790000D02*
X131900000Y-67790000D01*
X131900000Y-67790000D02*
X131900000Y-65250000D01*
X131900000Y-65250000D02*
X129600000Y-65250000D01*
D12*
X54953000Y-26909000D02*
X53493000Y-26909000D01*
X54953000Y-23749000D02*
X51793000Y-23749000D01*
X54953000Y-23749000D02*
X54953000Y-24679000D01*
X54953000Y-26909000D02*
X54953000Y-25979000D01*
D11*
X16552800Y-20645000D02*
X16552800Y-18745000D01*
X17805200Y-20645000D02*
X17805200Y-18745000D01*
X17171380Y-21640500D02*
X17171380Y-20908980D01*
X17171380Y-18186100D02*
X17171380Y-17454580D01*
X17542220Y-17822880D02*
X16810700Y-17822880D01*
X14922800Y-20645000D02*
X14922800Y-18745000D01*
X16175200Y-20645000D02*
X16175200Y-18745000D01*
X15541380Y-21640500D02*
X15541380Y-20908980D01*
X15541380Y-18186100D02*
X15541380Y-17454580D01*
X15912220Y-17822880D02*
X15180700Y-17822880D01*
X106597000Y-66905000D02*
X106597000Y-71555000D01*
X114697000Y-65830000D02*
X114697000Y-71555000D01*
X106597000Y-66905000D02*
X106622000Y-66905000D01*
X106597000Y-71555000D02*
X106622000Y-71555000D01*
X114647000Y-71555000D02*
X114622000Y-71555000D01*
X114222000Y-67480000D02*
G75*
G03*
X114222000Y-67480000I-250000J0D01*
G01*
X70614100Y-18960500D02*
X75914100Y-18960500D01*
X70614100Y-21360500D02*
X70614100Y-18960500D01*
X75914100Y-21360500D02*
X70614100Y-21360500D01*
X75914100Y-18960500D02*
X75914100Y-21360500D01*
X70967940Y-18952580D02*
G75*
G02*
X72354780Y-17580980I1379220J-7620D01*
G01*
X73787340Y-18952580D02*
G75*
G03*
X72400500Y-17580980I-1379220J-7620D01*
G01*
X94498540Y-19621500D02*
X95898080Y-19621500D01*
X95199580Y-18552160D02*
X94498540Y-19621500D01*
X95898080Y-19621500D02*
X95199580Y-18552160D01*
X78240000Y-26035000D02*
X78240000Y-17145000D01*
X98560000Y-26035000D02*
X98560000Y-17145000D01*
X78240000Y-26035000D02*
X98560000Y-26035000D01*
X98560000Y-17145000D02*
X78240000Y-17145000D01*
X90305000Y-17780000D02*
X90305000Y-17145000D01*
X97925000Y-17780000D02*
X90305000Y-17780000D01*
X97925000Y-25400000D02*
X97925000Y-17780000D01*
X78875000Y-25400000D02*
X97925000Y-25400000D01*
X78875000Y-17780000D02*
X78875000Y-25400000D01*
X86495000Y-17780000D02*
X78875000Y-17780000D01*
X86495000Y-17145000D02*
X86495000Y-17780000D01*
X78875000Y-25400000D02*
X78240000Y-26035000D01*
X78875000Y-17780000D02*
X78240000Y-17145000D01*
X97925000Y-17780000D02*
X98560000Y-17145000D01*
X97925000Y-25400000D02*
X98560000Y-26035000D01*
X13416000Y-20600000D02*
G75*
G03*
X13416000Y-20600000I-2286000J0D01*
G01*
X13416000Y-82200000D02*
G75*
G03*
X13416000Y-82200000I-2286000J0D01*
G01*
X130586000Y-82200000D02*
G75*
G03*
X130586000Y-82200000I-2286000J0D01*
G01*
X130586000Y-20600000D02*
G75*
G03*
X130586000Y-20600000I-2286000J0D01*
G01*
X27243300Y-47837800D02*
X27243300Y-50737800D01*
X27243300Y-50737800D02*
X27743300Y-50737800D01*
X27743300Y-50737800D02*
X27743300Y-47837800D01*
X27743300Y-47837800D02*
X27243300Y-47837800D01*
X27293300Y-47587800D02*
G75*
G03*
X27293300Y-47587800I-100000J0D01*
G01*
X7445500Y-42895400D02*
X22025500Y-42895400D01*
X7445500Y-73695400D02*
X7445500Y-42895400D01*
X22025500Y-73695400D02*
X7445500Y-73695400D01*
X22025500Y-73695400D02*
X22025500Y-42895400D01*
X34892920Y-25834820D02*
X34892920Y-26535860D01*
X34692260Y-25834820D02*
X34892920Y-25834820D01*
X28256000Y-25824660D02*
X28504920Y-25824660D01*
X28256000Y-26525700D02*
X28256000Y-25824660D01*
X34692260Y-25834820D02*
X34644000Y-25834820D01*
X43513000Y-71074000D02*
X43513000Y-65099000D01*
X50263000Y-69549000D02*
X50263000Y-65099000D01*
X44555758Y-68962300D02*
G75*
G03*
X44555758Y-68962300I-339838J0D01*
G01*
X100925000Y-55075000D02*
X100925000Y-56350000D01*
X100125000Y-40725000D02*
X100125000Y-41525000D01*
X114475000Y-40725000D02*
X114475000Y-41525000D01*
X114475000Y-55075000D02*
X114475000Y-54275000D01*
X100125000Y-55075000D02*
X100125000Y-54275000D01*
X114475000Y-55075000D02*
X113675000Y-55075000D01*
X114475000Y-40725000D02*
X113675000Y-40725000D01*
X100125000Y-40725000D02*
X100925000Y-40725000D01*
X100125000Y-55075000D02*
X100925000Y-55075000D01*
X101563308Y-54084900D02*
G75*
G03*
X101563308Y-54084900I-450748J0D01*
G01*
X120514600Y-82271200D02*
X120514600Y-85771200D01*
X117359600Y-82271200D02*
X123514600Y-82271200D01*
X117359600Y-74821200D02*
X117359600Y-82271200D01*
X73859600Y-74821200D02*
X117359600Y-74821200D01*
X73859600Y-82271200D02*
X73859600Y-74821200D01*
X73859600Y-82271200D02*
X68244600Y-82271200D01*
X71244600Y-85771200D02*
X71244600Y-82271200D01*
X123514600Y-85771200D02*
X68244600Y-85771200D01*
X123514600Y-82271200D02*
X123514600Y-85771200D01*
X68244600Y-85771200D02*
X68244600Y-82271200D01*
X120514300Y-82273320D02*
X123501340Y-85765820D01*
X120521920Y-85778520D02*
X123511500Y-82275860D01*
X68255320Y-82280940D02*
X71227120Y-85760740D01*
X68262940Y-85763280D02*
X71229660Y-82296180D01*
X110710050Y-24700000D02*
G75*
G03*
X110710050Y-24700000I-4579050J0D01*
G01*
X100131000Y-30700000D02*
X100131000Y-18700000D01*
X100131000Y-18700000D02*
X112131000Y-18700000D01*
X112131000Y-18700000D02*
X112131000Y-30700000D01*
X112131000Y-30700000D02*
X100131000Y-30700000D01*
X123497050Y-24700000D02*
G75*
G03*
X123497050Y-24700000I-4579050J0D01*
G01*
X112918000Y-30700000D02*
X112918000Y-18700000D01*
X112918000Y-18700000D02*
X124918000Y-18700000D01*
X124918000Y-18700000D02*
X124918000Y-30700000D01*
X124918000Y-30700000D02*
X112918000Y-30700000D01*
X53997860Y-85758920D02*
X55410100Y-83998700D01*
X54020720Y-83975840D02*
X55410100Y-85713200D01*
X32941260Y-85746220D02*
X34361120Y-83978380D01*
X32946340Y-83952980D02*
X34368740Y-85723360D01*
X34368740Y-85723360D02*
X34373820Y-85736060D01*
X55446000Y-83947900D02*
X55446000Y-85753840D01*
X53996000Y-83947900D02*
X55446000Y-83947900D01*
X53996000Y-85769080D02*
X53996000Y-83947900D01*
X32946000Y-85769080D02*
X32946000Y-83947900D01*
X32946000Y-83947900D02*
X34396000Y-83947900D01*
X34396000Y-83947900D02*
X34396000Y-85753840D01*
X24196000Y-85776200D02*
X24196000Y-75776200D01*
X24196000Y-75776200D02*
X64196000Y-75776200D01*
X64196000Y-75776200D02*
X64196000Y-85776200D01*
X24196000Y-85776200D02*
X64196000Y-85776200D01*
D13*
X22002240Y-24148120D02*
X7501380Y-24148120D01*
X22002240Y-33149880D02*
X22002240Y-24148120D01*
X7501380Y-33149880D02*
X22002240Y-33149880D01*
X7501380Y-24148120D02*
X7501380Y-33149880D01*
X11001500Y-24148120D02*
X11001500Y-33149880D01*
D14*
X68594840Y-22948500D02*
X68594840Y-21869000D01*
X70383000Y-22958660D02*
X68605000Y-22958660D01*
X70393160Y-21869000D02*
X70393160Y-22948500D01*
X70393160Y-19773500D02*
X70393160Y-20853000D01*
X68605000Y-19763340D02*
X70383000Y-19763340D01*
X68594840Y-20853000D02*
X68594840Y-19773500D01*
X68597380Y-19796360D02*
G75*
G03*
X68597380Y-19796360I-127000J0D01*
G01*
X54437160Y-61567500D02*
X54437160Y-62647000D01*
X52649000Y-61557340D02*
X54427000Y-61557340D01*
X52638840Y-62647000D02*
X52638840Y-61567500D01*
X52638840Y-64742500D02*
X52638840Y-63663000D01*
X54427000Y-64752660D02*
X52649000Y-64752660D01*
X54437160Y-63663000D02*
X54437160Y-64742500D01*
X54688620Y-64719640D02*
G75*
G03*
X54688620Y-64719640I-127000J0D01*
G01*
D15*
X39024900Y-69005820D02*
X37500900Y-69005820D01*
X37500900Y-66425180D02*
X39024900Y-66425180D01*
X37478040Y-68998200D02*
X37478040Y-68215880D01*
X37478040Y-67215120D02*
X37478040Y-66432800D01*
X39047760Y-68215880D02*
X39047760Y-68998200D01*
X39047760Y-67215120D02*
X39047760Y-66432800D01*
X51882380Y-74840200D02*
X51882380Y-73316200D01*
X54463020Y-73316200D02*
X54463020Y-74840200D01*
X51890000Y-73293340D02*
X52672320Y-73293340D01*
X53673080Y-73293340D02*
X54455400Y-73293340D01*
X52672320Y-74863060D02*
X51890000Y-74863060D01*
X53673080Y-74863060D02*
X54455400Y-74863060D01*
X54518900Y-71479780D02*
X56042900Y-71479780D01*
X56042900Y-74060420D02*
X54518900Y-74060420D01*
X56065760Y-71487400D02*
X56065760Y-72269720D01*
X56065760Y-73270480D02*
X56065760Y-74052800D01*
X54496040Y-72269720D02*
X54496040Y-71487400D01*
X54496040Y-73270480D02*
X54496040Y-74052800D01*
X55763500Y-70656820D02*
X54239500Y-70656820D01*
X54239500Y-68076180D02*
X55763500Y-68076180D01*
X54216640Y-70649200D02*
X54216640Y-69866880D01*
X54216640Y-68866120D02*
X54216640Y-68083800D01*
X55786360Y-69866880D02*
X55786360Y-70649200D01*
X55786360Y-68866120D02*
X55786360Y-68083800D01*
X55759000Y-68075320D02*
X54235000Y-68075320D01*
X54235000Y-65494680D02*
X55759000Y-65494680D01*
X54212140Y-68067700D02*
X54212140Y-67285380D01*
X54212140Y-66284620D02*
X54212140Y-65502300D01*
X55781860Y-67285380D02*
X55781860Y-68067700D01*
X55781860Y-66284620D02*
X55781860Y-65502300D01*
X40866000Y-74305320D02*
X39342000Y-74305320D01*
X39342000Y-71724680D02*
X40866000Y-71724680D01*
X39319140Y-74297700D02*
X39319140Y-73515380D01*
X39319140Y-72514620D02*
X39319140Y-71732300D01*
X40888860Y-73515380D02*
X40888860Y-74297700D01*
X40888860Y-72514620D02*
X40888860Y-71732300D01*
X34772680Y-50541000D02*
X34772680Y-49017000D01*
X37353320Y-49017000D02*
X37353320Y-50541000D01*
X34780300Y-48994140D02*
X35562620Y-48994140D01*
X36563380Y-48994140D02*
X37345700Y-48994140D01*
X35562620Y-50563860D02*
X34780300Y-50563860D01*
X36563380Y-50563860D02*
X37345700Y-50563860D01*
X25926120Y-51002300D02*
X25926120Y-52526300D01*
X23345480Y-52526300D02*
X23345480Y-51002300D01*
X25918500Y-52549160D02*
X25136180Y-52549160D01*
X24135420Y-52549160D02*
X23353100Y-52549160D01*
X25136180Y-50979440D02*
X25918500Y-50979440D01*
X24135420Y-50979440D02*
X23353100Y-50979440D01*
X38608000Y-40365680D02*
X40132000Y-40365680D01*
X40132000Y-42946320D02*
X38608000Y-42946320D01*
X40154860Y-40373300D02*
X40154860Y-41155620D01*
X40154860Y-42156380D02*
X40154860Y-42938700D01*
X38585140Y-41155620D02*
X38585140Y-40373300D01*
X38585140Y-42156380D02*
X38585140Y-42938700D01*
X45693000Y-37896320D02*
X44169000Y-37896320D01*
X44169000Y-35315680D02*
X45693000Y-35315680D01*
X44146140Y-37888700D02*
X44146140Y-37106380D01*
X44146140Y-36105620D02*
X44146140Y-35323300D01*
X45715860Y-37106380D02*
X45715860Y-37888700D01*
X45715860Y-36105620D02*
X45715860Y-35323300D01*
X44854200Y-38485180D02*
X46378200Y-38485180D01*
X46378200Y-41065820D02*
X44854200Y-41065820D01*
X46401060Y-38492800D02*
X46401060Y-39275120D01*
X46401060Y-40275880D02*
X46401060Y-41058200D01*
X44831340Y-39275120D02*
X44831340Y-38492800D01*
X44831340Y-40275880D02*
X44831340Y-41058200D01*
X90934880Y-30428300D02*
X90934880Y-28904300D01*
X93515520Y-28904300D02*
X93515520Y-30428300D01*
X90942500Y-28881440D02*
X91724820Y-28881440D01*
X92725580Y-28881440D02*
X93507900Y-28881440D01*
X91724820Y-30451160D02*
X90942500Y-30451160D01*
X92725580Y-30451160D02*
X93507900Y-30451160D01*
X115931000Y-54670680D02*
X117455000Y-54670680D01*
X117455000Y-57251320D02*
X115931000Y-57251320D01*
X117477860Y-54678300D02*
X117477860Y-55460620D01*
X117477860Y-56461380D02*
X117477860Y-57243700D01*
X115908140Y-55460620D02*
X115908140Y-54678300D01*
X115908140Y-56461380D02*
X115908140Y-57243700D01*
X67371300Y-25927420D02*
X65847300Y-25927420D01*
X65847300Y-23346780D02*
X67371300Y-23346780D01*
X65824440Y-25919800D02*
X65824440Y-25137480D01*
X65824440Y-24136720D02*
X65824440Y-23354400D01*
X67394160Y-25137480D02*
X67394160Y-25919800D01*
X67394160Y-24136720D02*
X67394160Y-23354400D01*
X68984200Y-25940120D02*
X67460200Y-25940120D01*
X67460200Y-23359480D02*
X68984200Y-23359480D01*
X67437340Y-25932500D02*
X67437340Y-25150180D01*
X67437340Y-24149420D02*
X67437340Y-23367100D01*
X69007060Y-25150180D02*
X69007060Y-25932500D01*
X69007060Y-24149420D02*
X69007060Y-23367100D01*
X70597100Y-25940120D02*
X69073100Y-25940120D01*
X69073100Y-23359480D02*
X70597100Y-23359480D01*
X69050240Y-25932500D02*
X69050240Y-25150180D01*
X69050240Y-24149420D02*
X69050240Y-23367100D01*
X70619960Y-25150180D02*
X70619960Y-25932500D01*
X70619960Y-24149420D02*
X70619960Y-23367100D01*
X72210000Y-26816420D02*
X70686000Y-26816420D01*
X70686000Y-24235780D02*
X72210000Y-24235780D01*
X70663140Y-26808800D02*
X70663140Y-26026480D01*
X70663140Y-25025720D02*
X70663140Y-24243400D01*
X72232860Y-26026480D02*
X72232860Y-26808800D01*
X72232860Y-25025720D02*
X72232860Y-24243400D01*
X73848300Y-28048320D02*
X72324300Y-28048320D01*
X72324300Y-25467680D02*
X73848300Y-25467680D01*
X72301440Y-28040700D02*
X72301440Y-27258380D01*
X72301440Y-26257620D02*
X72301440Y-25475300D01*
X73871160Y-27258380D02*
X73871160Y-28040700D01*
X73871160Y-26257620D02*
X73871160Y-25475300D01*
X72938980Y-25310200D02*
X72938980Y-23786200D01*
X75519620Y-23786200D02*
X75519620Y-25310200D01*
X72946600Y-23763340D02*
X73728920Y-23763340D01*
X74729680Y-23763340D02*
X75512000Y-23763340D01*
X73728920Y-25333060D02*
X72946600Y-25333060D01*
X74729680Y-25333060D02*
X75512000Y-25333060D01*
X68394920Y-20789000D02*
X68394920Y-22313000D01*
X65814280Y-22313000D02*
X65814280Y-20789000D01*
X68387300Y-22335860D02*
X67604980Y-22335860D01*
X66604220Y-22335860D02*
X65821900Y-22335860D01*
X67604980Y-20766140D02*
X68387300Y-20766140D01*
X66604220Y-20766140D02*
X65821900Y-20766140D01*
X18397000Y-18400680D02*
X19921000Y-18400680D01*
X19921000Y-20981320D02*
X18397000Y-20981320D01*
X19943860Y-18408300D02*
X19943860Y-19190620D01*
X19943860Y-20191380D02*
X19943860Y-20973700D01*
X18374140Y-19190620D02*
X18374140Y-18408300D01*
X18374140Y-20191380D02*
X18374140Y-20973700D01*
X19947000Y-18396680D02*
X21471000Y-18396680D01*
X21471000Y-20977320D02*
X19947000Y-20977320D01*
X21493860Y-18404300D02*
X21493860Y-19186620D01*
X21493860Y-20187380D02*
X21493860Y-20969700D01*
X19924140Y-19186620D02*
X19924140Y-18404300D01*
X19924140Y-20187380D02*
X19924140Y-20969700D01*
X57150000Y-23225680D02*
X58674000Y-23225680D01*
X58674000Y-25806320D02*
X57150000Y-25806320D01*
X58696860Y-23233300D02*
X58696860Y-24015620D01*
X58696860Y-25016380D02*
X58696860Y-25798700D01*
X57127140Y-24015620D02*
X57127140Y-23233300D01*
X57127140Y-25016380D02*
X57127140Y-25798700D01*
X34610380Y-60298700D02*
X34610380Y-58774700D01*
X37191020Y-58774700D02*
X37191020Y-60298700D01*
X34618000Y-58751840D02*
X35400320Y-58751840D01*
X36401080Y-58751840D02*
X37183400Y-58751840D01*
X35400320Y-60321560D02*
X34618000Y-60321560D01*
X36401080Y-60321560D02*
X37183400Y-60321560D01*
X117452000Y-61430320D02*
X115928000Y-61430320D01*
X115928000Y-58849680D02*
X117452000Y-58849680D01*
X115905140Y-61422700D02*
X115905140Y-60640380D01*
X115905140Y-59639620D02*
X115905140Y-58857300D01*
X117474860Y-60640380D02*
X117474860Y-61422700D01*
X117474860Y-59639620D02*
X117474860Y-58857300D01*
X121452000Y-58790320D02*
X119928000Y-58790320D01*
X119928000Y-56209680D02*
X121452000Y-56209680D01*
X119905140Y-58782700D02*
X119905140Y-58000380D01*
X119905140Y-56999620D02*
X119905140Y-56217300D01*
X121474860Y-58000380D02*
X121474860Y-58782700D01*
X121474860Y-56999620D02*
X121474860Y-56217300D01*
X119692000Y-58790320D02*
X118168000Y-58790320D01*
X118168000Y-56209680D02*
X119692000Y-56209680D01*
X118145140Y-58782700D02*
X118145140Y-58000380D01*
X118145140Y-56999620D02*
X118145140Y-56217300D01*
X119714860Y-58000380D02*
X119714860Y-58782700D01*
X119714860Y-56999620D02*
X119714860Y-56217300D01*
X39106180Y-68934700D02*
X39106180Y-67410700D01*
X41686820Y-67410700D02*
X41686820Y-68934700D01*
X39113800Y-67387840D02*
X39896120Y-67387840D01*
X40896880Y-67387840D02*
X41679200Y-67387840D01*
X39896120Y-68957560D02*
X39113800Y-68957560D01*
X40896880Y-68957560D02*
X41679200Y-68957560D01*
X51808720Y-73304000D02*
X51808720Y-74828000D01*
X49228080Y-74828000D02*
X49228080Y-73304000D01*
X51801100Y-74850860D02*
X51018780Y-74850860D01*
X50018020Y-74850860D02*
X49235700Y-74850860D01*
X51018780Y-73281140D02*
X51801100Y-73281140D01*
X50018020Y-73281140D02*
X49235700Y-73281140D01*
X54132820Y-71462000D02*
X54132820Y-72986000D01*
X51552180Y-72986000D02*
X51552180Y-71462000D01*
X54125200Y-73008860D02*
X53342880Y-73008860D01*
X52342120Y-73008860D02*
X51559800Y-73008860D01*
X53342880Y-71439140D02*
X54125200Y-71439140D01*
X52342120Y-71439140D02*
X51559800Y-71439140D01*
X54107420Y-69595100D02*
X54107420Y-71119100D01*
X51526780Y-71119100D02*
X51526780Y-69595100D01*
X54099800Y-71141960D02*
X53317480Y-71141960D01*
X52316720Y-71141960D02*
X51534400Y-71141960D01*
X53317480Y-69572240D02*
X54099800Y-69572240D01*
X52316720Y-69572240D02*
X51534400Y-69572240D01*
X54107420Y-67296400D02*
X54107420Y-68820400D01*
X51526780Y-68820400D02*
X51526780Y-67296400D01*
X54099800Y-68843260D02*
X53317480Y-68843260D01*
X52316720Y-68843260D02*
X51534400Y-68843260D01*
X53317480Y-67273540D02*
X54099800Y-67273540D01*
X52316720Y-67273540D02*
X51534400Y-67273540D01*
X41120400Y-62795520D02*
X39596400Y-62795520D01*
X39596400Y-60214880D02*
X41120400Y-60214880D01*
X39573540Y-62787900D02*
X39573540Y-62005580D01*
X39573540Y-61004820D02*
X39573540Y-60222500D01*
X41143260Y-62005580D02*
X41143260Y-62787900D01*
X41143260Y-61004820D02*
X41143260Y-60222500D01*
X41010680Y-74828000D02*
X41010680Y-73304000D01*
X43591320Y-73304000D02*
X43591320Y-74828000D01*
X41018300Y-73281140D02*
X41800620Y-73281140D01*
X42801380Y-73281140D02*
X43583700Y-73281140D01*
X41800620Y-74850860D02*
X41018300Y-74850860D01*
X42801380Y-74850860D02*
X43583700Y-74850860D01*
X35634000Y-58706120D02*
X34110000Y-58706120D01*
X34110000Y-56125480D02*
X35634000Y-56125480D01*
X34087140Y-58698500D02*
X34087140Y-57916180D01*
X34087140Y-56915420D02*
X34087140Y-56133100D01*
X35656860Y-57916180D02*
X35656860Y-58698500D01*
X35656860Y-56915420D02*
X35656860Y-56133100D01*
X31549680Y-55079000D02*
X31549680Y-53555000D01*
X34130320Y-53555000D02*
X34130320Y-55079000D01*
X31557300Y-53532140D02*
X32339620Y-53532140D01*
X33340380Y-53532140D02*
X34122700Y-53532140D01*
X32339620Y-55101860D02*
X31557300Y-55101860D01*
X33340380Y-55101860D02*
X34122700Y-55101860D01*
X36567320Y-50521000D02*
X36567320Y-52045000D01*
X33986680Y-52045000D02*
X33986680Y-50521000D01*
X36559700Y-52067860D02*
X35777380Y-52067860D01*
X34776620Y-52067860D02*
X33994300Y-52067860D01*
X35777380Y-50498140D02*
X36559700Y-50498140D01*
X34776620Y-50498140D02*
X33994300Y-50498140D01*
X32237680Y-50541000D02*
X32237680Y-49017000D01*
X34818320Y-49017000D02*
X34818320Y-50541000D01*
X32245300Y-48994140D02*
X33027620Y-48994140D01*
X34028380Y-48994140D02*
X34810700Y-48994140D01*
X33027620Y-50563860D02*
X32245300Y-50563860D01*
X34028380Y-50563860D02*
X34810700Y-50563860D01*
X37352320Y-47503000D02*
X37352320Y-49027000D01*
X34771680Y-49027000D02*
X34771680Y-47503000D01*
X37344700Y-49049860D02*
X36562380Y-49049860D01*
X35561620Y-49049860D02*
X34779300Y-49049860D01*
X36562380Y-47480140D02*
X37344700Y-47480140D01*
X35561620Y-47480140D02*
X34779300Y-47480140D01*
X25943900Y-51489980D02*
X27467900Y-51489980D01*
X27467900Y-54070620D02*
X25943900Y-54070620D01*
X27490760Y-51497600D02*
X27490760Y-52279920D01*
X27490760Y-53280680D02*
X27490760Y-54063000D01*
X25921040Y-52279920D02*
X25921040Y-51497600D01*
X25921040Y-53280680D02*
X25921040Y-54063000D01*
X27407000Y-32603320D02*
X25883000Y-32603320D01*
X25883000Y-30022680D02*
X27407000Y-30022680D01*
X25860140Y-32595700D02*
X25860140Y-31813380D01*
X25860140Y-30812620D02*
X25860140Y-30030300D01*
X27429860Y-31813380D02*
X27429860Y-32595700D01*
X27429860Y-30812620D02*
X27429860Y-30030300D01*
X66762000Y-35290320D02*
X65238000Y-35290320D01*
X65238000Y-32709680D02*
X66762000Y-32709680D01*
X65215140Y-35282700D02*
X65215140Y-34500380D01*
X65215140Y-33499620D02*
X65215140Y-32717300D01*
X66784860Y-34500380D02*
X66784860Y-35282700D01*
X66784860Y-33499620D02*
X66784860Y-32717300D01*
X69290320Y-31038000D02*
X69290320Y-32562000D01*
X66709680Y-32562000D02*
X66709680Y-31038000D01*
X69282700Y-32584860D02*
X68500380Y-32584860D01*
X67499620Y-32584860D02*
X66717300Y-32584860D01*
X68500380Y-31015140D02*
X69282700Y-31015140D01*
X67499620Y-31015140D02*
X66717300Y-31015140D01*
X67890320Y-55138000D02*
X67890320Y-56662000D01*
X65309680Y-56662000D02*
X65309680Y-55138000D01*
X67882700Y-56684860D02*
X67100380Y-56684860D01*
X66099620Y-56684860D02*
X65317300Y-56684860D01*
X67100380Y-55115140D02*
X67882700Y-55115140D01*
X66099620Y-55115140D02*
X65317300Y-55115140D01*
X65758400Y-17339680D02*
X67282400Y-17339680D01*
X67282400Y-19920320D02*
X65758400Y-19920320D01*
X67305260Y-17347300D02*
X67305260Y-18129620D01*
X67305260Y-19130380D02*
X67305260Y-19912700D01*
X65735540Y-18129620D02*
X65735540Y-17347300D01*
X65735540Y-19130380D02*
X65735540Y-19912700D01*
X93502820Y-27126300D02*
X93502820Y-28650300D01*
X90922180Y-28650300D02*
X90922180Y-27126300D01*
X93495200Y-28673160D02*
X92712880Y-28673160D01*
X91712120Y-28673160D02*
X90929800Y-28673160D01*
X92712880Y-27103440D02*
X93495200Y-27103440D01*
X91712120Y-27103440D02*
X90929800Y-27103440D01*
X86730680Y-34260000D02*
X86730680Y-32736000D01*
X89311320Y-32736000D02*
X89311320Y-34260000D01*
X86738300Y-32713140D02*
X87520620Y-32713140D01*
X88521380Y-32713140D02*
X89303700Y-32713140D01*
X87520620Y-34282860D02*
X86738300Y-34282860D01*
X88521380Y-34282860D02*
X89303700Y-34282860D01*
X87738000Y-54009680D02*
X89262000Y-54009680D01*
X89262000Y-56590320D02*
X87738000Y-56590320D01*
X89284860Y-54017300D02*
X89284860Y-54799620D01*
X89284860Y-55800380D02*
X89284860Y-56582700D01*
X87715140Y-54799620D02*
X87715140Y-54017300D01*
X87715140Y-55800380D02*
X87715140Y-56582700D01*
X117278000Y-43719680D02*
X118802000Y-43719680D01*
X118802000Y-46300320D02*
X117278000Y-46300320D01*
X118824860Y-43727300D02*
X118824860Y-44509620D01*
X118824860Y-45510380D02*
X118824860Y-46292700D01*
X117255140Y-44509620D02*
X117255140Y-43727300D01*
X117255140Y-45510380D02*
X117255140Y-46292700D01*
X37167000Y-32608320D02*
X35643000Y-32608320D01*
X35643000Y-30027680D02*
X37167000Y-30027680D01*
X35620140Y-32600700D02*
X35620140Y-31818380D01*
X35620140Y-30817620D02*
X35620140Y-30035300D01*
X37189860Y-31818380D02*
X37189860Y-32600700D01*
X37189860Y-30817620D02*
X37189860Y-30035300D01*
X52525000Y-64780320D02*
X51001000Y-64780320D01*
X51001000Y-62199680D02*
X52525000Y-62199680D01*
X50978140Y-64772700D02*
X50978140Y-63990380D01*
X50978140Y-62989620D02*
X50978140Y-62207300D01*
X52547860Y-63990380D02*
X52547860Y-64772700D01*
X52547860Y-62989620D02*
X52547860Y-62207300D01*
X28382300Y-51185180D02*
X29906300Y-51185180D01*
X29906300Y-53765820D02*
X28382300Y-53765820D01*
X29929160Y-51192800D02*
X29929160Y-51975120D01*
X29929160Y-52975880D02*
X29929160Y-53758200D01*
X28359440Y-51975120D02*
X28359440Y-51192800D01*
X28359440Y-52975880D02*
X28359440Y-53758200D01*
X46987800Y-62541520D02*
X45463800Y-62541520D01*
X45463800Y-59960880D02*
X46987800Y-59960880D01*
X45440940Y-62533900D02*
X45440940Y-61751580D01*
X45440940Y-60750820D02*
X45440940Y-59968500D01*
X47010660Y-61751580D02*
X47010660Y-62533900D01*
X47010660Y-60750820D02*
X47010660Y-59968500D01*
X50747000Y-62516120D02*
X49223000Y-62516120D01*
X49223000Y-59935480D02*
X50747000Y-59935480D01*
X49200140Y-62508500D02*
X49200140Y-61726180D01*
X49200140Y-60725420D02*
X49200140Y-59943100D01*
X50769860Y-61726180D02*
X50769860Y-62508500D01*
X50769860Y-60725420D02*
X50769860Y-59943100D01*
X42720600Y-62795520D02*
X41196600Y-62795520D01*
X41196600Y-60214880D02*
X42720600Y-60214880D01*
X41173740Y-62787900D02*
X41173740Y-62005580D01*
X41173740Y-61004820D02*
X41173740Y-60222500D01*
X42743460Y-62005580D02*
X42743460Y-62787900D01*
X42743460Y-61004820D02*
X42743460Y-60222500D01*
X36065800Y-56100080D02*
X37589800Y-56100080D01*
X37589800Y-58680720D02*
X36065800Y-58680720D01*
X37612660Y-56107700D02*
X37612660Y-56890020D01*
X37612660Y-57890780D02*
X37612660Y-58673100D01*
X36042940Y-56890020D02*
X36042940Y-56107700D01*
X36042940Y-57890780D02*
X36042940Y-58673100D01*
D11*
X117906000Y-79030000D02*
X131906000Y-79030000D01*
X117906000Y-70830000D02*
X117906000Y-79030000D01*
X131906000Y-70830000D02*
X117906000Y-70830000D01*
X131906000Y-79030000D02*
X131906000Y-70830000D01*
X129547760Y-78173480D02*
X131902340Y-78173480D01*
X129550300Y-72707400D02*
X129547760Y-78173480D01*
X131874400Y-72707400D02*
X129550300Y-72707400D01*
X21316000Y-34868000D02*
X21316000Y-41728000D01*
X21316000Y-41728000D02*
X8616000Y-41728000D01*
X8616000Y-41728000D02*
X8616000Y-34868000D01*
X8616000Y-34868000D02*
X21316000Y-34868000D01*
X17180880Y-41728000D02*
X17180880Y-34868000D01*
X63476200Y-21950600D02*
X23276200Y-21950600D01*
X62883400Y-21048080D02*
X62883400Y-21939620D01*
X63376160Y-21939620D02*
X63376160Y-21048080D01*
X23866460Y-21939620D02*
X23866460Y-21048080D01*
X23373700Y-21048080D02*
X23373700Y-21939620D01*
X64076200Y-17006600D02*
X22676200Y-17006600D01*
X64076200Y-21050280D02*
X22676200Y-21050280D01*
X64082280Y-21050620D02*
X64082280Y-17006940D01*
X22675200Y-21050620D02*
X22675200Y-17006940D01*
D15*
X111119680Y-65112000D02*
X111119680Y-63588000D01*
X113700320Y-63588000D02*
X113700320Y-65112000D01*
X111127300Y-63565140D02*
X111909620Y-63565140D01*
X112910380Y-63565140D02*
X113692700Y-63565140D01*
X111909620Y-65134860D02*
X111127300Y-65134860D01*
X112910380Y-65134860D02*
X113692700Y-65134860D01*
X110325320Y-63597000D02*
X110325320Y-65121000D01*
X107744680Y-65121000D02*
X107744680Y-63597000D01*
X110317700Y-65143860D02*
X109535380Y-65143860D01*
X108534620Y-65143860D02*
X107752300Y-65143860D01*
X109535380Y-63574140D02*
X110317700Y-63574140D01*
X108534620Y-63574140D02*
X107752300Y-63574140D01*
D11*
X117898000Y-39876000D02*
X131898000Y-39876000D01*
X117898000Y-31676000D02*
X117898000Y-39876000D01*
X131898000Y-31676000D02*
X117898000Y-31676000D01*
X131898000Y-39876000D02*
X131898000Y-31676000D01*
X129539760Y-39019480D02*
X131894340Y-39019480D01*
X129542300Y-33553400D02*
X129539760Y-39019480D01*
X131866400Y-33553400D02*
X129542300Y-33553400D01*
X86400000Y-34525000D02*
X86400000Y-33425000D01*
X87475000Y-54875000D02*
X87475000Y-53800000D01*
X67125000Y-54875000D02*
X67125000Y-53800000D01*
X67125000Y-34525000D02*
X67125000Y-35600000D01*
X87475000Y-34525000D02*
X87475000Y-35600000D01*
X67125000Y-34525000D02*
X68200000Y-34525000D01*
X67125000Y-54875000D02*
X68200000Y-54875000D01*
X87475000Y-54875000D02*
X86400000Y-54875000D01*
X87475000Y-34525000D02*
X86400000Y-34525000D01*
X86820932Y-35782060D02*
G75*
G03*
X86820932Y-35782060I-590292J0D01*
G01*
X40361000Y-57467000D02*
X40361000Y-58742000D01*
X39561000Y-43117000D02*
X39561000Y-43917000D01*
X53911000Y-43117000D02*
X53911000Y-43917000D01*
X53911000Y-57467000D02*
X53911000Y-56667000D01*
X39561000Y-57467000D02*
X39561000Y-56667000D01*
X53911000Y-57467000D02*
X53111000Y-57467000D01*
X53911000Y-43117000D02*
X53111000Y-43117000D01*
X39561000Y-43117000D02*
X40361000Y-43117000D01*
X39561000Y-57467000D02*
X40361000Y-57467000D01*
X41094202Y-56456580D02*
G75*
G03*
X41094202Y-56456580I-527862J0D01*
G01*
X124400000Y-45950000D02*
X131900000Y-45950000D01*
X124400000Y-61650000D02*
X124400000Y-45950000D01*
X131900000Y-61650000D02*
X124400000Y-61650000D01*
X131900000Y-45950000D02*
X131900000Y-61650000D01*
X119620000Y-52060000D02*
X120620000Y-52060000D01*
X119620000Y-54560000D02*
X119620000Y-52060000D01*
X120620000Y-54560000D02*
X119620000Y-54560000D01*
X120620000Y-52060000D02*
X120620000Y-54560000D01*
X120120000Y-52560000D02*
X119662800Y-52560000D01*
X120120000Y-52118740D02*
X120120000Y-52560000D01*
X119620000Y-49060000D02*
X120620000Y-49060000D01*
X119620000Y-51560000D02*
X119620000Y-49060000D01*
X120620000Y-51560000D02*
X119620000Y-51560000D01*
X120620000Y-49060000D02*
X120620000Y-51560000D01*
X120120000Y-49560000D02*
X119662800Y-49560000D01*
X120120000Y-49118740D02*
X120120000Y-49560000D01*
X102611320Y-70546160D02*
X102961840Y-70896680D01*
X102410660Y-70198180D02*
X102611320Y-70546160D01*
X102311600Y-69697800D02*
X102410660Y-70198180D01*
X102359860Y-69248220D02*
X102311600Y-69697800D01*
X102560520Y-68796100D02*
X102359860Y-69248220D01*
X102811980Y-68496380D02*
X102560520Y-68796100D01*
X103010100Y-68346520D02*
X102811980Y-68496380D01*
X105209740Y-70396300D02*
X104861760Y-70797620D01*
X105410400Y-69895920D02*
X105209740Y-70396300D01*
X105410400Y-69497140D02*
X105410400Y-69895920D01*
X105260540Y-68945960D02*
X105410400Y-69497140D01*
X105011620Y-68597980D02*
X105260540Y-68945960D01*
X104760160Y-68346520D02*
X105011620Y-68597980D01*
X37265252Y-35889252D02*
X37646204Y-35889252D01*
X36846204Y-36155919D02*
X37265252Y-35889252D01*
X36846204Y-35622585D01*
X37646204Y-34936871D02*
X37646204Y-35394014D01*
X37646204Y-35165442D02*
X36846204Y-35165442D01*
X36960490Y-35241633D01*
X37036680Y-35317823D01*
X37074776Y-35394014D01*
X124706666Y-63834761D02*
X124849523Y-63882380D01*
X125087619Y-63882380D01*
X125182857Y-63834761D01*
X125230476Y-63787142D01*
X125278095Y-63691904D01*
X125278095Y-63596666D01*
X125230476Y-63501428D01*
X125182857Y-63453809D01*
X125087619Y-63406190D01*
X124897142Y-63358571D01*
X124801904Y-63310952D01*
X124754285Y-63263333D01*
X124706666Y-63168095D01*
X124706666Y-63072857D01*
X124754285Y-62977619D01*
X124801904Y-62930000D01*
X124897142Y-62882380D01*
X125135238Y-62882380D01*
X125278095Y-62930000D01*
X125611428Y-62882380D02*
X125849523Y-63882380D01*
X126040000Y-63168095D01*
X126230476Y-63882380D01*
X126468571Y-62882380D01*
X127278095Y-63215714D02*
X127278095Y-63882380D01*
X127040000Y-62834761D02*
X126801904Y-63549047D01*
X127420952Y-63549047D01*
X54097761Y-23376619D02*
X54002523Y-23329000D01*
X53907285Y-23233761D01*
X53764428Y-23090904D01*
X53669190Y-23043285D01*
X53573952Y-23043285D01*
X53621571Y-23281380D02*
X53526333Y-23233761D01*
X53431095Y-23138523D01*
X53383476Y-22948047D01*
X53383476Y-22614714D01*
X53431095Y-22424238D01*
X53526333Y-22329000D01*
X53621571Y-22281380D01*
X53812047Y-22281380D01*
X53907285Y-22329000D01*
X54002523Y-22424238D01*
X54050142Y-22614714D01*
X54050142Y-22948047D01*
X54002523Y-23138523D01*
X53907285Y-23233761D01*
X53812047Y-23281380D01*
X53621571Y-23281380D01*
X54431095Y-22376619D02*
X54478714Y-22329000D01*
X54573952Y-22281380D01*
X54812047Y-22281380D01*
X54907285Y-22329000D01*
X54954904Y-22376619D01*
X55002523Y-22471857D01*
X55002523Y-22567095D01*
X54954904Y-22709952D01*
X54383476Y-23281380D01*
X55002523Y-23281380D01*
X17555380Y-23423095D02*
X16555380Y-23423095D01*
X16555380Y-23185000D01*
X16603000Y-23042142D01*
X16698238Y-22946904D01*
X16793476Y-22899285D01*
X16983952Y-22851666D01*
X17126809Y-22851666D01*
X17317285Y-22899285D01*
X17412523Y-22946904D01*
X17507761Y-23042142D01*
X17555380Y-23185000D01*
X17555380Y-23423095D01*
X17555380Y-21899285D02*
X17555380Y-22470714D01*
X17555380Y-22185000D02*
X16555380Y-22185000D01*
X16698238Y-22280238D01*
X16793476Y-22375476D01*
X16841095Y-22470714D01*
X16031380Y-23461095D02*
X15031380Y-23461095D01*
X15031380Y-23223000D01*
X15079000Y-23080142D01*
X15174238Y-22984904D01*
X15269476Y-22937285D01*
X15459952Y-22889666D01*
X15602809Y-22889666D01*
X15793285Y-22937285D01*
X15888523Y-22984904D01*
X15983761Y-23080142D01*
X16031380Y-23223000D01*
X16031380Y-23461095D01*
X15126619Y-22508714D02*
X15079000Y-22461095D01*
X15031380Y-22365857D01*
X15031380Y-22127761D01*
X15079000Y-22032523D01*
X15126619Y-21984904D01*
X15221857Y-21937285D01*
X15317095Y-21937285D01*
X15459952Y-21984904D01*
X16031380Y-22556333D01*
X16031380Y-21937285D01*
X115024380Y-69991904D02*
X115833904Y-69991904D01*
X115929142Y-69944285D01*
X115976761Y-69896666D01*
X116024380Y-69801428D01*
X116024380Y-69610952D01*
X115976761Y-69515714D01*
X115929142Y-69468095D01*
X115833904Y-69420476D01*
X115024380Y-69420476D01*
X115452952Y-68801428D02*
X115405333Y-68896666D01*
X115357714Y-68944285D01*
X115262476Y-68991904D01*
X115214857Y-68991904D01*
X115119619Y-68944285D01*
X115072000Y-68896666D01*
X115024380Y-68801428D01*
X115024380Y-68610952D01*
X115072000Y-68515714D01*
X115119619Y-68468095D01*
X115214857Y-68420476D01*
X115262476Y-68420476D01*
X115357714Y-68468095D01*
X115405333Y-68515714D01*
X115452952Y-68610952D01*
X115452952Y-68801428D01*
X115500571Y-68896666D01*
X115548190Y-68944285D01*
X115643428Y-68991904D01*
X115833904Y-68991904D01*
X115929142Y-68944285D01*
X115976761Y-68896666D01*
X116024380Y-68801428D01*
X116024380Y-68610952D01*
X115976761Y-68515714D01*
X115929142Y-68468095D01*
X115833904Y-68420476D01*
X115643428Y-68420476D01*
X115548190Y-68468095D01*
X115500571Y-68515714D01*
X115452952Y-68610952D01*
X76462980Y-21402255D02*
X77272504Y-21402255D01*
X77367742Y-21354636D01*
X77415361Y-21307017D01*
X77462980Y-21211779D01*
X77462980Y-21021302D01*
X77415361Y-20926064D01*
X77367742Y-20878445D01*
X77272504Y-20830826D01*
X76462980Y-20830826D01*
X77462980Y-19830826D02*
X77462980Y-20402255D01*
X77462980Y-20116540D02*
X76462980Y-20116540D01*
X76605838Y-20211779D01*
X76701076Y-20307017D01*
X76748695Y-20402255D01*
X77462980Y-18878445D02*
X77462980Y-19449874D01*
X77462980Y-19164160D02*
X76462980Y-19164160D01*
X76605838Y-19259398D01*
X76701076Y-19354636D01*
X76748695Y-19449874D01*
X77856380Y-26989095D02*
X76856380Y-26989095D01*
X76856380Y-26608142D01*
X76904000Y-26512904D01*
X76951619Y-26465285D01*
X77046857Y-26417666D01*
X77189714Y-26417666D01*
X77284952Y-26465285D01*
X77332571Y-26512904D01*
X77380190Y-26608142D01*
X77380190Y-26989095D01*
X77856380Y-25465285D02*
X77856380Y-26036714D01*
X77856380Y-25751000D02*
X76856380Y-25751000D01*
X76999238Y-25846238D01*
X77094476Y-25941476D01*
X77142095Y-26036714D01*
X23577380Y-49864904D02*
X24386904Y-49864904D01*
X24482142Y-49817285D01*
X24529761Y-49769666D01*
X24577380Y-49674428D01*
X24577380Y-49483952D01*
X24529761Y-49388714D01*
X24482142Y-49341095D01*
X24386904Y-49293476D01*
X23577380Y-49293476D01*
X23910714Y-48388714D02*
X24577380Y-48388714D01*
X23529761Y-48626809D02*
X24244047Y-48864904D01*
X24244047Y-48245857D01*
X16827246Y-74450060D02*
X16827246Y-75164346D01*
X16779627Y-75307203D01*
X16684389Y-75402441D01*
X16541532Y-75450060D01*
X16446294Y-75450060D01*
X17827246Y-75450060D02*
X17255818Y-75450060D01*
X17541532Y-75450060D02*
X17541532Y-74450060D01*
X17446294Y-74592918D01*
X17351056Y-74688156D01*
X17255818Y-74735775D01*
X33802095Y-24232380D02*
X33802095Y-25041904D01*
X33849714Y-25137142D01*
X33897333Y-25184761D01*
X33992571Y-25232380D01*
X34183047Y-25232380D01*
X34278285Y-25184761D01*
X34325904Y-25137142D01*
X34373523Y-25041904D01*
X34373523Y-24232380D01*
X35325904Y-24232380D02*
X34849714Y-24232380D01*
X34802095Y-24708571D01*
X34849714Y-24660952D01*
X34944952Y-24613333D01*
X35183047Y-24613333D01*
X35278285Y-24660952D01*
X35325904Y-24708571D01*
X35373523Y-24803809D01*
X35373523Y-25041904D01*
X35325904Y-25137142D01*
X35278285Y-25184761D01*
X35183047Y-25232380D01*
X34944952Y-25232380D01*
X34849714Y-25184761D01*
X34802095Y-25137142D01*
X41956380Y-72013095D02*
X42765904Y-72013095D01*
X42861142Y-71965476D01*
X42908761Y-71917857D01*
X42956380Y-71822619D01*
X42956380Y-71632142D01*
X42908761Y-71536904D01*
X42861142Y-71489285D01*
X42765904Y-71441666D01*
X41956380Y-71441666D01*
X42956380Y-70441666D02*
X42956380Y-71013095D01*
X42956380Y-70727380D02*
X41956380Y-70727380D01*
X42099238Y-70822619D01*
X42194476Y-70917857D01*
X42242095Y-71013095D01*
X41956380Y-70108333D02*
X41956380Y-69441666D01*
X42956380Y-69870238D01*
X97302380Y-48661904D02*
X98111904Y-48661904D01*
X98207142Y-48614285D01*
X98254761Y-48566666D01*
X98302380Y-48471428D01*
X98302380Y-48280952D01*
X98254761Y-48185714D01*
X98207142Y-48138095D01*
X98111904Y-48090476D01*
X97302380Y-48090476D01*
X97302380Y-47709523D02*
X97302380Y-47090476D01*
X97683333Y-47423809D01*
X97683333Y-47280952D01*
X97730952Y-47185714D01*
X97778571Y-47138095D01*
X97873809Y-47090476D01*
X98111904Y-47090476D01*
X98207142Y-47138095D01*
X98254761Y-47185714D01*
X98302380Y-47280952D01*
X98302380Y-47566666D01*
X98254761Y-47661904D01*
X98207142Y-47709523D01*
X72318380Y-75062333D02*
X73032666Y-75062333D01*
X73175523Y-75109952D01*
X73270761Y-75205190D01*
X73318380Y-75348047D01*
X73318380Y-75443285D01*
X72318380Y-74681380D02*
X72318380Y-74062333D01*
X72699333Y-74395666D01*
X72699333Y-74252809D01*
X72746952Y-74157571D01*
X72794571Y-74109952D01*
X72889809Y-74062333D01*
X73127904Y-74062333D01*
X73223142Y-74109952D01*
X73270761Y-74157571D01*
X73318380Y-74252809D01*
X73318380Y-74538523D01*
X73270761Y-74633761D01*
X73223142Y-74681380D01*
X99402666Y-32210761D02*
X99545523Y-32258380D01*
X99783619Y-32258380D01*
X99878857Y-32210761D01*
X99926476Y-32163142D01*
X99974095Y-32067904D01*
X99974095Y-31972666D01*
X99926476Y-31877428D01*
X99878857Y-31829809D01*
X99783619Y-31782190D01*
X99593142Y-31734571D01*
X99497904Y-31686952D01*
X99450285Y-31639333D01*
X99402666Y-31544095D01*
X99402666Y-31448857D01*
X99450285Y-31353619D01*
X99497904Y-31306000D01*
X99593142Y-31258380D01*
X99831238Y-31258380D01*
X99974095Y-31306000D01*
X100307428Y-31258380D02*
X100545523Y-32258380D01*
X100736000Y-31544095D01*
X100926476Y-32258380D01*
X101164571Y-31258380D01*
X101450285Y-31258380D02*
X102069333Y-31258380D01*
X101736000Y-31639333D01*
X101878857Y-31639333D01*
X101974095Y-31686952D01*
X102021714Y-31734571D01*
X102069333Y-31829809D01*
X102069333Y-32067904D01*
X102021714Y-32163142D01*
X101974095Y-32210761D01*
X101878857Y-32258380D01*
X101593142Y-32258380D01*
X101497904Y-32210761D01*
X101450285Y-32163142D01*
X125625666Y-27701761D02*
X125768523Y-27749380D01*
X126006619Y-27749380D01*
X126101857Y-27701761D01*
X126149476Y-27654142D01*
X126197095Y-27558904D01*
X126197095Y-27463666D01*
X126149476Y-27368428D01*
X126101857Y-27320809D01*
X126006619Y-27273190D01*
X125816142Y-27225571D01*
X125720904Y-27177952D01*
X125673285Y-27130333D01*
X125625666Y-27035095D01*
X125625666Y-26939857D01*
X125673285Y-26844619D01*
X125720904Y-26797000D01*
X125816142Y-26749380D01*
X126054238Y-26749380D01*
X126197095Y-26797000D01*
X126530428Y-26749380D02*
X126768523Y-27749380D01*
X126959000Y-27035095D01*
X127149476Y-27749380D01*
X127387571Y-26749380D01*
X127720904Y-26844619D02*
X127768523Y-26797000D01*
X127863761Y-26749380D01*
X128101857Y-26749380D01*
X128197095Y-26797000D01*
X128244714Y-26844619D01*
X128292333Y-26939857D01*
X128292333Y-27035095D01*
X128244714Y-27177952D01*
X127673285Y-27749380D01*
X128292333Y-27749380D01*
X65761380Y-79185333D02*
X66475666Y-79185333D01*
X66618523Y-79232952D01*
X66713761Y-79328190D01*
X66761380Y-79471047D01*
X66761380Y-79566285D01*
X65856619Y-78756761D02*
X65809000Y-78709142D01*
X65761380Y-78613904D01*
X65761380Y-78375809D01*
X65809000Y-78280571D01*
X65856619Y-78232952D01*
X65951857Y-78185333D01*
X66047095Y-78185333D01*
X66189952Y-78232952D01*
X66761380Y-78804380D01*
X66761380Y-78185333D01*
D16*
X22474619Y-25655666D02*
X23200333Y-25655666D01*
X23345476Y-25704047D01*
X23442238Y-25800809D01*
X23490619Y-25945952D01*
X23490619Y-26042714D01*
X22474619Y-24688047D02*
X22474619Y-25171857D01*
X22958428Y-25220238D01*
X22910047Y-25171857D01*
X22861666Y-25075095D01*
X22861666Y-24833190D01*
X22910047Y-24736428D01*
X22958428Y-24688047D01*
X23055190Y-24639666D01*
X23297095Y-24639666D01*
X23393857Y-24688047D01*
X23442238Y-24736428D01*
X23490619Y-24833190D01*
X23490619Y-25075095D01*
X23442238Y-25171857D01*
X23393857Y-25220238D01*
D17*
X68123523Y-19400642D02*
X68099333Y-19428461D01*
X68026761Y-19456280D01*
X67978380Y-19456280D01*
X67905809Y-19428461D01*
X67857428Y-19372823D01*
X67833238Y-19317185D01*
X67809047Y-19205909D01*
X67809047Y-19122452D01*
X67833238Y-19011176D01*
X67857428Y-18955538D01*
X67905809Y-18899900D01*
X67978380Y-18872080D01*
X68026761Y-18872080D01*
X68099333Y-18899900D01*
X68123523Y-18927719D01*
X68607333Y-19456280D02*
X68317047Y-19456280D01*
X68462190Y-19456280D02*
X68462190Y-18872080D01*
X68413809Y-18955538D01*
X68365428Y-19011176D01*
X68317047Y-19038995D01*
X68921809Y-18872080D02*
X68970190Y-18872080D01*
X69018571Y-18899900D01*
X69042761Y-18927719D01*
X69066952Y-18983357D01*
X69091142Y-19094633D01*
X69091142Y-19233728D01*
X69066952Y-19345004D01*
X69042761Y-19400642D01*
X69018571Y-19428461D01*
X68970190Y-19456280D01*
X68921809Y-19456280D01*
X68873428Y-19428461D01*
X68849238Y-19400642D01*
X68825047Y-19345004D01*
X68800857Y-19233728D01*
X68800857Y-19094633D01*
X68825047Y-18983357D01*
X68849238Y-18927719D01*
X68873428Y-18899900D01*
X68921809Y-18872080D01*
X69284666Y-18927719D02*
X69308857Y-18899900D01*
X69357238Y-18872080D01*
X69478190Y-18872080D01*
X69526571Y-18899900D01*
X69550761Y-18927719D01*
X69574952Y-18983357D01*
X69574952Y-19038995D01*
X69550761Y-19122452D01*
X69260476Y-19456280D01*
X69574952Y-19456280D01*
X69119047Y-21235814D02*
X69119047Y-21625280D01*
X68998095Y-21013261D02*
X68877142Y-21430547D01*
X69191619Y-21430547D01*
X69336761Y-21041080D02*
X69675428Y-21041080D01*
X69457714Y-21625280D01*
X70086666Y-21235814D02*
X70086666Y-21625280D01*
X69868952Y-21235814D02*
X69868952Y-21541823D01*
X69893142Y-21597461D01*
X69941523Y-21625280D01*
X70014095Y-21625280D01*
X70062476Y-21597461D01*
X70086666Y-21569642D01*
X53093428Y-65504642D02*
X53069238Y-65532461D01*
X52996666Y-65560280D01*
X52948285Y-65560280D01*
X52875714Y-65532461D01*
X52827333Y-65476823D01*
X52803142Y-65421185D01*
X52778952Y-65309909D01*
X52778952Y-65226452D01*
X52803142Y-65115176D01*
X52827333Y-65059538D01*
X52875714Y-65003900D01*
X52948285Y-64976080D01*
X52996666Y-64976080D01*
X53069238Y-65003900D01*
X53093428Y-65031719D01*
X53262761Y-64976080D02*
X53601428Y-64976080D01*
X53383714Y-65560280D01*
X54061047Y-65560280D02*
X53770761Y-65560280D01*
X53915904Y-65560280D02*
X53915904Y-64976080D01*
X53867523Y-65059538D01*
X53819142Y-65115176D01*
X53770761Y-65142995D01*
X53163047Y-63029814D02*
X53163047Y-63419280D01*
X53042095Y-62807261D02*
X52921142Y-63224547D01*
X53235619Y-63224547D01*
X53380761Y-62835080D02*
X53719428Y-62835080D01*
X53501714Y-63419280D01*
X54130666Y-63029814D02*
X54130666Y-63419280D01*
X53912952Y-63029814D02*
X53912952Y-63335823D01*
X53937142Y-63391461D01*
X53985523Y-63419280D01*
X54058095Y-63419280D01*
X54106476Y-63391461D01*
X54130666Y-63363642D01*
X38178233Y-69808580D02*
X38008900Y-69530390D01*
X37887947Y-69808580D02*
X37887947Y-69224380D01*
X38081471Y-69224380D01*
X38129852Y-69252200D01*
X38154042Y-69280019D01*
X38178233Y-69335657D01*
X38178233Y-69419114D01*
X38154042Y-69474752D01*
X38129852Y-69502571D01*
X38081471Y-69530390D01*
X37887947Y-69530390D01*
X38613661Y-69419114D02*
X38613661Y-69808580D01*
X38492709Y-69196561D02*
X38371757Y-69613847D01*
X38686233Y-69613847D01*
D18*
X37892785Y-67437309D02*
X38197585Y-67437309D01*
X38001642Y-67945309D01*
X38589471Y-67437309D02*
X38371757Y-67437309D01*
X38349985Y-67679214D01*
X38371757Y-67655023D01*
X38415300Y-67630833D01*
X38524157Y-67630833D01*
X38567700Y-67655023D01*
X38589471Y-67679214D01*
X38611242Y-67727595D01*
X38611242Y-67848547D01*
X38589471Y-67896928D01*
X38567700Y-67921119D01*
X38524157Y-67945309D01*
X38415300Y-67945309D01*
X38371757Y-67921119D01*
X38349985Y-67896928D01*
D17*
X55250280Y-74726666D02*
X54972090Y-74896000D01*
X55250280Y-75016952D02*
X54666080Y-75016952D01*
X54666080Y-74823428D01*
X54693900Y-74775047D01*
X54721719Y-74750857D01*
X54777357Y-74726666D01*
X54860814Y-74726666D01*
X54916452Y-74750857D01*
X54944271Y-74775047D01*
X54972090Y-74823428D01*
X54972090Y-75016952D01*
X54666080Y-74267047D02*
X54666080Y-74508952D01*
X54944271Y-74533142D01*
X54916452Y-74508952D01*
X54888633Y-74460571D01*
X54888633Y-74339619D01*
X54916452Y-74291238D01*
X54944271Y-74267047D01*
X54999909Y-74242857D01*
X55139004Y-74242857D01*
X55194642Y-74267047D01*
X55222461Y-74291238D01*
X55250280Y-74339619D01*
X55250280Y-74460571D01*
X55222461Y-74508952D01*
X55194642Y-74533142D01*
D18*
X52894509Y-74448314D02*
X52894509Y-74143514D01*
X53402509Y-74339457D01*
X52894509Y-73751628D02*
X52894509Y-73969342D01*
X53136414Y-73991114D01*
X53112223Y-73969342D01*
X53088033Y-73925800D01*
X53088033Y-73816942D01*
X53112223Y-73773400D01*
X53136414Y-73751628D01*
X53184795Y-73729857D01*
X53305747Y-73729857D01*
X53354128Y-73751628D01*
X53378319Y-73773400D01*
X53402509Y-73816942D01*
X53402509Y-73925800D01*
X53378319Y-73969342D01*
X53354128Y-73991114D01*
D17*
X56735333Y-72156280D02*
X56566000Y-71878090D01*
X56445047Y-72156280D02*
X56445047Y-71572080D01*
X56638571Y-71572080D01*
X56686952Y-71599900D01*
X56711142Y-71627719D01*
X56735333Y-71683357D01*
X56735333Y-71766814D01*
X56711142Y-71822452D01*
X56686952Y-71850271D01*
X56638571Y-71878090D01*
X56445047Y-71878090D01*
X57170761Y-71572080D02*
X57074000Y-71572080D01*
X57025619Y-71599900D01*
X57001428Y-71627719D01*
X56953047Y-71711176D01*
X56928857Y-71822452D01*
X56928857Y-72045004D01*
X56953047Y-72100642D01*
X56977238Y-72128461D01*
X57025619Y-72156280D01*
X57122380Y-72156280D01*
X57170761Y-72128461D01*
X57194952Y-72100642D01*
X57219142Y-72045004D01*
X57219142Y-71905909D01*
X57194952Y-71850271D01*
X57170761Y-71822452D01*
X57122380Y-71794633D01*
X57025619Y-71794633D01*
X56977238Y-71822452D01*
X56953047Y-71850271D01*
X56928857Y-71905909D01*
D18*
X54910785Y-72491909D02*
X55215585Y-72491909D01*
X55019642Y-72999909D01*
X55607471Y-72491909D02*
X55389757Y-72491909D01*
X55367985Y-72733814D01*
X55389757Y-72709623D01*
X55433300Y-72685433D01*
X55542157Y-72685433D01*
X55585700Y-72709623D01*
X55607471Y-72733814D01*
X55629242Y-72782195D01*
X55629242Y-72903147D01*
X55607471Y-72951528D01*
X55585700Y-72975719D01*
X55542157Y-72999909D01*
X55433300Y-72999909D01*
X55389757Y-72975719D01*
X55367985Y-72951528D01*
D17*
X56394333Y-70551280D02*
X56225000Y-70273090D01*
X56104047Y-70551280D02*
X56104047Y-69967080D01*
X56297571Y-69967080D01*
X56345952Y-69994900D01*
X56370142Y-70022719D01*
X56394333Y-70078357D01*
X56394333Y-70161814D01*
X56370142Y-70217452D01*
X56345952Y-70245271D01*
X56297571Y-70273090D01*
X56104047Y-70273090D01*
X56563666Y-69967080D02*
X56902333Y-69967080D01*
X56684619Y-70551280D01*
D18*
X54631385Y-69088309D02*
X54936185Y-69088309D01*
X54740242Y-69596309D01*
X55328071Y-69088309D02*
X55110357Y-69088309D01*
X55088585Y-69330214D01*
X55110357Y-69306023D01*
X55153900Y-69281833D01*
X55262757Y-69281833D01*
X55306300Y-69306023D01*
X55328071Y-69330214D01*
X55349842Y-69378595D01*
X55349842Y-69499547D01*
X55328071Y-69547928D01*
X55306300Y-69572119D01*
X55262757Y-69596309D01*
X55153900Y-69596309D01*
X55110357Y-69572119D01*
X55088585Y-69547928D01*
D17*
X56359333Y-67894280D02*
X56190000Y-67616090D01*
X56069047Y-67894280D02*
X56069047Y-67310080D01*
X56262571Y-67310080D01*
X56310952Y-67337900D01*
X56335142Y-67365719D01*
X56359333Y-67421357D01*
X56359333Y-67504814D01*
X56335142Y-67560452D01*
X56310952Y-67588271D01*
X56262571Y-67616090D01*
X56069047Y-67616090D01*
X56649619Y-67560452D02*
X56601238Y-67532633D01*
X56577047Y-67504814D01*
X56552857Y-67449176D01*
X56552857Y-67421357D01*
X56577047Y-67365719D01*
X56601238Y-67337900D01*
X56649619Y-67310080D01*
X56746380Y-67310080D01*
X56794761Y-67337900D01*
X56818952Y-67365719D01*
X56843142Y-67421357D01*
X56843142Y-67449176D01*
X56818952Y-67504814D01*
X56794761Y-67532633D01*
X56746380Y-67560452D01*
X56649619Y-67560452D01*
X56601238Y-67588271D01*
X56577047Y-67616090D01*
X56552857Y-67671728D01*
X56552857Y-67783004D01*
X56577047Y-67838642D01*
X56601238Y-67866461D01*
X56649619Y-67894280D01*
X56746380Y-67894280D01*
X56794761Y-67866461D01*
X56818952Y-67838642D01*
X56843142Y-67783004D01*
X56843142Y-67671728D01*
X56818952Y-67616090D01*
X56794761Y-67588271D01*
X56746380Y-67560452D01*
D18*
X54626885Y-66506809D02*
X54931685Y-66506809D01*
X54735742Y-67014809D01*
X55323571Y-66506809D02*
X55105857Y-66506809D01*
X55084085Y-66748714D01*
X55105857Y-66724523D01*
X55149400Y-66700333D01*
X55258257Y-66700333D01*
X55301800Y-66724523D01*
X55323571Y-66748714D01*
X55345342Y-66797095D01*
X55345342Y-66918047D01*
X55323571Y-66966428D01*
X55301800Y-66990619D01*
X55258257Y-67014809D01*
X55149400Y-67014809D01*
X55105857Y-66990619D01*
X55084085Y-66966428D01*
D17*
X40011333Y-71465280D02*
X39842000Y-71187090D01*
X39721047Y-71465280D02*
X39721047Y-70881080D01*
X39914571Y-70881080D01*
X39962952Y-70908900D01*
X39987142Y-70936719D01*
X40011333Y-70992357D01*
X40011333Y-71075814D01*
X39987142Y-71131452D01*
X39962952Y-71159271D01*
X39914571Y-71187090D01*
X39721047Y-71187090D01*
X40253238Y-71465280D02*
X40350000Y-71465280D01*
X40398380Y-71437461D01*
X40422571Y-71409642D01*
X40470952Y-71326185D01*
X40495142Y-71214909D01*
X40495142Y-70992357D01*
X40470952Y-70936719D01*
X40446761Y-70908900D01*
X40398380Y-70881080D01*
X40301619Y-70881080D01*
X40253238Y-70908900D01*
X40229047Y-70936719D01*
X40204857Y-70992357D01*
X40204857Y-71131452D01*
X40229047Y-71187090D01*
X40253238Y-71214909D01*
X40301619Y-71242728D01*
X40398380Y-71242728D01*
X40446761Y-71214909D01*
X40470952Y-71187090D01*
X40495142Y-71131452D01*
D18*
X39733885Y-72736809D02*
X40038685Y-72736809D01*
X39842742Y-73244809D01*
X40430571Y-72736809D02*
X40212857Y-72736809D01*
X40191085Y-72978714D01*
X40212857Y-72954523D01*
X40256400Y-72930333D01*
X40365257Y-72930333D01*
X40408800Y-72954523D01*
X40430571Y-72978714D01*
X40452342Y-73027095D01*
X40452342Y-73148047D01*
X40430571Y-73196428D01*
X40408800Y-73220619D01*
X40365257Y-73244809D01*
X40256400Y-73244809D01*
X40212857Y-73220619D01*
X40191085Y-73196428D01*
D17*
X37744280Y-51573571D02*
X37466090Y-51742904D01*
X37744280Y-51863857D02*
X37160080Y-51863857D01*
X37160080Y-51670333D01*
X37187900Y-51621952D01*
X37215719Y-51597761D01*
X37271357Y-51573571D01*
X37354814Y-51573571D01*
X37410452Y-51597761D01*
X37438271Y-51621952D01*
X37466090Y-51670333D01*
X37466090Y-51863857D01*
X37744280Y-51089761D02*
X37744280Y-51380047D01*
X37744280Y-51234904D02*
X37160080Y-51234904D01*
X37243538Y-51283285D01*
X37299176Y-51331666D01*
X37326995Y-51380047D01*
X37744280Y-50605952D02*
X37744280Y-50896238D01*
X37744280Y-50751095D02*
X37160080Y-50751095D01*
X37243538Y-50799476D01*
X37299176Y-50847857D01*
X37326995Y-50896238D01*
D18*
X36292809Y-50160000D02*
X36292809Y-50421257D01*
X36292809Y-50290628D02*
X35784809Y-50290628D01*
X35857380Y-50334171D01*
X35905761Y-50377714D01*
X35929952Y-50421257D01*
X36244428Y-49964057D02*
X36268619Y-49942285D01*
X36292809Y-49964057D01*
X36268619Y-49985828D01*
X36244428Y-49964057D01*
X36292809Y-49964057D01*
X35784809Y-49528628D02*
X35784809Y-49746342D01*
X36026714Y-49768114D01*
X36002523Y-49746342D01*
X35978333Y-49702800D01*
X35978333Y-49593942D01*
X36002523Y-49550400D01*
X36026714Y-49528628D01*
X36075095Y-49506857D01*
X36196047Y-49506857D01*
X36244428Y-49528628D01*
X36268619Y-49550400D01*
X36292809Y-49593942D01*
X36292809Y-49702800D01*
X36268619Y-49746342D01*
X36244428Y-49768114D01*
X36292809Y-49310914D02*
X35784809Y-49310914D01*
X36099285Y-49267371D02*
X36292809Y-49136742D01*
X35954142Y-49136742D02*
X36147666Y-49310914D01*
D17*
X23033280Y-52058571D02*
X22755090Y-52227904D01*
X23033280Y-52348857D02*
X22449080Y-52348857D01*
X22449080Y-52155333D01*
X22476900Y-52106952D01*
X22504719Y-52082761D01*
X22560357Y-52058571D01*
X22643814Y-52058571D01*
X22699452Y-52082761D01*
X22727271Y-52106952D01*
X22755090Y-52155333D01*
X22755090Y-52348857D01*
X23033280Y-51574761D02*
X23033280Y-51865047D01*
X23033280Y-51719904D02*
X22449080Y-51719904D01*
X22532538Y-51768285D01*
X22588176Y-51816666D01*
X22615995Y-51865047D01*
X22504719Y-51381238D02*
X22476900Y-51357047D01*
X22449080Y-51308666D01*
X22449080Y-51187714D01*
X22476900Y-51139333D01*
X22504719Y-51115142D01*
X22560357Y-51090952D01*
X22615995Y-51090952D01*
X22699452Y-51115142D01*
X23033280Y-51405428D01*
X23033280Y-51090952D01*
D18*
X24405990Y-52330357D02*
X24381800Y-52308585D01*
X24357609Y-52265042D01*
X24357609Y-52156185D01*
X24381800Y-52112642D01*
X24405990Y-52090871D01*
X24454371Y-52069100D01*
X24502752Y-52069100D01*
X24575323Y-52090871D01*
X24865609Y-52352128D01*
X24865609Y-52069100D01*
X24405990Y-51894928D02*
X24381800Y-51873157D01*
X24357609Y-51829614D01*
X24357609Y-51720757D01*
X24381800Y-51677214D01*
X24405990Y-51655442D01*
X24454371Y-51633671D01*
X24502752Y-51633671D01*
X24575323Y-51655442D01*
X24865609Y-51916700D01*
X24865609Y-51633671D01*
X24357609Y-51350642D02*
X24357609Y-51307100D01*
X24381800Y-51263557D01*
X24405990Y-51241785D01*
X24454371Y-51220014D01*
X24551133Y-51198242D01*
X24672085Y-51198242D01*
X24768847Y-51220014D01*
X24817228Y-51241785D01*
X24841419Y-51263557D01*
X24865609Y-51307100D01*
X24865609Y-51350642D01*
X24841419Y-51394185D01*
X24817228Y-51415957D01*
X24768847Y-51437728D01*
X24672085Y-51459500D01*
X24551133Y-51459500D01*
X24454371Y-51437728D01*
X24405990Y-51415957D01*
X24381800Y-51394185D01*
X24357609Y-51350642D01*
D17*
X39043428Y-40091480D02*
X38874095Y-39813290D01*
X38753142Y-40091480D02*
X38753142Y-39507280D01*
X38946666Y-39507280D01*
X38995047Y-39535100D01*
X39019238Y-39562919D01*
X39043428Y-39618557D01*
X39043428Y-39702014D01*
X39019238Y-39757652D01*
X38995047Y-39785471D01*
X38946666Y-39813290D01*
X38753142Y-39813290D01*
X39527238Y-40091480D02*
X39236952Y-40091480D01*
X39382095Y-40091480D02*
X39382095Y-39507280D01*
X39333714Y-39590738D01*
X39285333Y-39646376D01*
X39236952Y-39674195D01*
X39696571Y-39507280D02*
X40011047Y-39507280D01*
X39841714Y-39729833D01*
X39914285Y-39729833D01*
X39962666Y-39757652D01*
X39986857Y-39785471D01*
X40011047Y-39841109D01*
X40011047Y-39980204D01*
X39986857Y-40035842D01*
X39962666Y-40063661D01*
X39914285Y-40091480D01*
X39769142Y-40091480D01*
X39720761Y-40063661D01*
X39696571Y-40035842D01*
D18*
X38727742Y-41426190D02*
X38749514Y-41402000D01*
X38793057Y-41377809D01*
X38901914Y-41377809D01*
X38945457Y-41402000D01*
X38967228Y-41426190D01*
X38989000Y-41474571D01*
X38989000Y-41522952D01*
X38967228Y-41595523D01*
X38705971Y-41885809D01*
X38989000Y-41885809D01*
X39184942Y-41837428D02*
X39206714Y-41861619D01*
X39184942Y-41885809D01*
X39163171Y-41861619D01*
X39184942Y-41837428D01*
X39184942Y-41885809D01*
X39380885Y-41426190D02*
X39402657Y-41402000D01*
X39446200Y-41377809D01*
X39555057Y-41377809D01*
X39598600Y-41402000D01*
X39620371Y-41426190D01*
X39642142Y-41474571D01*
X39642142Y-41522952D01*
X39620371Y-41595523D01*
X39359114Y-41885809D01*
X39642142Y-41885809D01*
X39838085Y-41885809D02*
X39838085Y-41377809D01*
X39881628Y-41692285D02*
X40012257Y-41885809D01*
X40012257Y-41547142D02*
X39838085Y-41740666D01*
D17*
X44245428Y-35087280D02*
X44076095Y-34809090D01*
X43955142Y-35087280D02*
X43955142Y-34503080D01*
X44148666Y-34503080D01*
X44197047Y-34530900D01*
X44221238Y-34558719D01*
X44245428Y-34614357D01*
X44245428Y-34697814D01*
X44221238Y-34753452D01*
X44197047Y-34781271D01*
X44148666Y-34809090D01*
X43955142Y-34809090D01*
X44729238Y-35087280D02*
X44438952Y-35087280D01*
X44584095Y-35087280D02*
X44584095Y-34503080D01*
X44535714Y-34586538D01*
X44487333Y-34642176D01*
X44438952Y-34669995D01*
X45164666Y-34697814D02*
X45164666Y-35087280D01*
X45043714Y-34475261D02*
X44922761Y-34892547D01*
X45237238Y-34892547D01*
D18*
X44288742Y-36376190D02*
X44310514Y-36352000D01*
X44354057Y-36327809D01*
X44462914Y-36327809D01*
X44506457Y-36352000D01*
X44528228Y-36376190D01*
X44550000Y-36424571D01*
X44550000Y-36472952D01*
X44528228Y-36545523D01*
X44266971Y-36835809D01*
X44550000Y-36835809D01*
X44745942Y-36787428D02*
X44767714Y-36811619D01*
X44745942Y-36835809D01*
X44724171Y-36811619D01*
X44745942Y-36787428D01*
X44745942Y-36835809D01*
X44941885Y-36376190D02*
X44963657Y-36352000D01*
X45007200Y-36327809D01*
X45116057Y-36327809D01*
X45159600Y-36352000D01*
X45181371Y-36376190D01*
X45203142Y-36424571D01*
X45203142Y-36472952D01*
X45181371Y-36545523D01*
X44920114Y-36835809D01*
X45203142Y-36835809D01*
X45399085Y-36835809D02*
X45399085Y-36327809D01*
X45442628Y-36642285D02*
X45573257Y-36835809D01*
X45573257Y-36497142D02*
X45399085Y-36690666D01*
D17*
X46536428Y-38323280D02*
X46367095Y-38045090D01*
X46246142Y-38323280D02*
X46246142Y-37739080D01*
X46439666Y-37739080D01*
X46488047Y-37766900D01*
X46512238Y-37794719D01*
X46536428Y-37850357D01*
X46536428Y-37933814D01*
X46512238Y-37989452D01*
X46488047Y-38017271D01*
X46439666Y-38045090D01*
X46246142Y-38045090D01*
X47020238Y-38323280D02*
X46729952Y-38323280D01*
X46875095Y-38323280D02*
X46875095Y-37739080D01*
X46826714Y-37822538D01*
X46778333Y-37878176D01*
X46729952Y-37905995D01*
X47479857Y-37739080D02*
X47237952Y-37739080D01*
X47213761Y-38017271D01*
X47237952Y-37989452D01*
X47286333Y-37961633D01*
X47407285Y-37961633D01*
X47455666Y-37989452D01*
X47479857Y-38017271D01*
X47504047Y-38072909D01*
X47504047Y-38212004D01*
X47479857Y-38267642D01*
X47455666Y-38295461D01*
X47407285Y-38323280D01*
X47286333Y-38323280D01*
X47237952Y-38295461D01*
X47213761Y-38267642D01*
D18*
X44973942Y-39545690D02*
X44995714Y-39521500D01*
X45039257Y-39497309D01*
X45148114Y-39497309D01*
X45191657Y-39521500D01*
X45213428Y-39545690D01*
X45235200Y-39594071D01*
X45235200Y-39642452D01*
X45213428Y-39715023D01*
X44952171Y-40005309D01*
X45235200Y-40005309D01*
X45431142Y-39956928D02*
X45452914Y-39981119D01*
X45431142Y-40005309D01*
X45409371Y-39981119D01*
X45431142Y-39956928D01*
X45431142Y-40005309D01*
X45627085Y-39545690D02*
X45648857Y-39521500D01*
X45692400Y-39497309D01*
X45801257Y-39497309D01*
X45844800Y-39521500D01*
X45866571Y-39545690D01*
X45888342Y-39594071D01*
X45888342Y-39642452D01*
X45866571Y-39715023D01*
X45605314Y-40005309D01*
X45888342Y-40005309D01*
X46084285Y-40005309D02*
X46084285Y-39497309D01*
X46127828Y-39811785D02*
X46258457Y-40005309D01*
X46258457Y-39666642D02*
X46084285Y-39860166D01*
D17*
X90660680Y-29992871D02*
X90382490Y-30162204D01*
X90660680Y-30283157D02*
X90076480Y-30283157D01*
X90076480Y-30089633D01*
X90104300Y-30041252D01*
X90132119Y-30017061D01*
X90187757Y-29992871D01*
X90271214Y-29992871D01*
X90326852Y-30017061D01*
X90354671Y-30041252D01*
X90382490Y-30089633D01*
X90382490Y-30283157D01*
X90132119Y-29799347D02*
X90104300Y-29775157D01*
X90076480Y-29726776D01*
X90076480Y-29605823D01*
X90104300Y-29557442D01*
X90132119Y-29533252D01*
X90187757Y-29509061D01*
X90243395Y-29509061D01*
X90326852Y-29533252D01*
X90660680Y-29823538D01*
X90660680Y-29509061D01*
X90076480Y-29339728D02*
X90076480Y-29025252D01*
X90299033Y-29194585D01*
X90299033Y-29122014D01*
X90326852Y-29073633D01*
X90354671Y-29049442D01*
X90410309Y-29025252D01*
X90549404Y-29025252D01*
X90605042Y-29049442D01*
X90632861Y-29073633D01*
X90660680Y-29122014D01*
X90660680Y-29267157D01*
X90632861Y-29315538D01*
X90605042Y-29339728D01*
D18*
X91995390Y-30014642D02*
X91971200Y-29992871D01*
X91947009Y-29949328D01*
X91947009Y-29840471D01*
X91971200Y-29796928D01*
X91995390Y-29775157D01*
X92043771Y-29753385D01*
X92092152Y-29753385D01*
X92164723Y-29775157D01*
X92455009Y-30036414D01*
X92455009Y-29753385D01*
X91947009Y-29339728D02*
X91947009Y-29557442D01*
X92188914Y-29579214D01*
X92164723Y-29557442D01*
X92140533Y-29513900D01*
X92140533Y-29405042D01*
X92164723Y-29361500D01*
X92188914Y-29339728D01*
X92237295Y-29317957D01*
X92358247Y-29317957D01*
X92406628Y-29339728D01*
X92430819Y-29361500D01*
X92455009Y-29405042D01*
X92455009Y-29513900D01*
X92430819Y-29557442D01*
X92406628Y-29579214D01*
D17*
X116385428Y-58111280D02*
X116216095Y-57833090D01*
X116095142Y-58111280D02*
X116095142Y-57527080D01*
X116288666Y-57527080D01*
X116337047Y-57554900D01*
X116361238Y-57582719D01*
X116385428Y-57638357D01*
X116385428Y-57721814D01*
X116361238Y-57777452D01*
X116337047Y-57805271D01*
X116288666Y-57833090D01*
X116095142Y-57833090D01*
X116578952Y-57582719D02*
X116603142Y-57554900D01*
X116651523Y-57527080D01*
X116772476Y-57527080D01*
X116820857Y-57554900D01*
X116845047Y-57582719D01*
X116869238Y-57638357D01*
X116869238Y-57693995D01*
X116845047Y-57777452D01*
X116554761Y-58111280D01*
X116869238Y-58111280D01*
X117328857Y-57527080D02*
X117086952Y-57527080D01*
X117062761Y-57805271D01*
X117086952Y-57777452D01*
X117135333Y-57749633D01*
X117256285Y-57749633D01*
X117304666Y-57777452D01*
X117328857Y-57805271D01*
X117353047Y-57860909D01*
X117353047Y-58000004D01*
X117328857Y-58055642D01*
X117304666Y-58083461D01*
X117256285Y-58111280D01*
X117135333Y-58111280D01*
X117086952Y-58083461D01*
X117062761Y-58055642D01*
D18*
X116344657Y-55682809D02*
X116257571Y-55682809D01*
X116214028Y-55707000D01*
X116192257Y-55731190D01*
X116148714Y-55803761D01*
X116126942Y-55900523D01*
X116126942Y-56094047D01*
X116148714Y-56142428D01*
X116170485Y-56166619D01*
X116214028Y-56190809D01*
X116301114Y-56190809D01*
X116344657Y-56166619D01*
X116366428Y-56142428D01*
X116388200Y-56094047D01*
X116388200Y-55973095D01*
X116366428Y-55924714D01*
X116344657Y-55900523D01*
X116301114Y-55876333D01*
X116214028Y-55876333D01*
X116170485Y-55900523D01*
X116148714Y-55924714D01*
X116126942Y-55973095D01*
X116605914Y-56190809D02*
X116693000Y-56190809D01*
X116736542Y-56166619D01*
X116758314Y-56142428D01*
X116801857Y-56069857D01*
X116823628Y-55973095D01*
X116823628Y-55779571D01*
X116801857Y-55731190D01*
X116780085Y-55707000D01*
X116736542Y-55682809D01*
X116649457Y-55682809D01*
X116605914Y-55707000D01*
X116584142Y-55731190D01*
X116562371Y-55779571D01*
X116562371Y-55900523D01*
X116584142Y-55948904D01*
X116605914Y-55973095D01*
X116649457Y-55997285D01*
X116736542Y-55997285D01*
X116780085Y-55973095D01*
X116801857Y-55948904D01*
X116823628Y-55900523D01*
X117084885Y-55900523D02*
X117041342Y-55876333D01*
X117019571Y-55852142D01*
X116997800Y-55803761D01*
X116997800Y-55779571D01*
X117019571Y-55731190D01*
X117041342Y-55707000D01*
X117084885Y-55682809D01*
X117171971Y-55682809D01*
X117215514Y-55707000D01*
X117237285Y-55731190D01*
X117259057Y-55779571D01*
X117259057Y-55803761D01*
X117237285Y-55852142D01*
X117215514Y-55876333D01*
X117171971Y-55900523D01*
X117084885Y-55900523D01*
X117041342Y-55924714D01*
X117019571Y-55948904D01*
X116997800Y-55997285D01*
X116997800Y-56094047D01*
X117019571Y-56142428D01*
X117041342Y-56166619D01*
X117084885Y-56190809D01*
X117171971Y-56190809D01*
X117215514Y-56166619D01*
X117237285Y-56142428D01*
X117259057Y-56094047D01*
X117259057Y-55997285D01*
X117237285Y-55948904D01*
X117215514Y-55924714D01*
X117171971Y-55900523D01*
D17*
X66291428Y-26812280D02*
X66122095Y-26534090D01*
X66001142Y-26812280D02*
X66001142Y-26228080D01*
X66194666Y-26228080D01*
X66243047Y-26255900D01*
X66267238Y-26283719D01*
X66291428Y-26339357D01*
X66291428Y-26422814D01*
X66267238Y-26478452D01*
X66243047Y-26506271D01*
X66194666Y-26534090D01*
X66001142Y-26534090D01*
X66484952Y-26283719D02*
X66509142Y-26255900D01*
X66557523Y-26228080D01*
X66678476Y-26228080D01*
X66726857Y-26255900D01*
X66751047Y-26283719D01*
X66775238Y-26339357D01*
X66775238Y-26394995D01*
X66751047Y-26478452D01*
X66460761Y-26812280D01*
X66775238Y-26812280D01*
X67065523Y-26478452D02*
X67017142Y-26450633D01*
X66992952Y-26422814D01*
X66968761Y-26367176D01*
X66968761Y-26339357D01*
X66992952Y-26283719D01*
X67017142Y-26255900D01*
X67065523Y-26228080D01*
X67162285Y-26228080D01*
X67210666Y-26255900D01*
X67234857Y-26283719D01*
X67259047Y-26339357D01*
X67259047Y-26367176D01*
X67234857Y-26422814D01*
X67210666Y-26450633D01*
X67162285Y-26478452D01*
X67065523Y-26478452D01*
X67017142Y-26506271D01*
X66992952Y-26534090D01*
X66968761Y-26589728D01*
X66968761Y-26701004D01*
X66992952Y-26756642D01*
X67017142Y-26784461D01*
X67065523Y-26812280D01*
X67162285Y-26812280D01*
X67210666Y-26784461D01*
X67234857Y-26756642D01*
X67259047Y-26701004D01*
X67259047Y-26589728D01*
X67234857Y-26534090D01*
X67210666Y-26506271D01*
X67162285Y-26478452D01*
D18*
X66337157Y-24866909D02*
X66075900Y-24866909D01*
X66206528Y-24866909D02*
X66206528Y-24358909D01*
X66162985Y-24431480D01*
X66119442Y-24479861D01*
X66075900Y-24504052D01*
X66620185Y-24358909D02*
X66663728Y-24358909D01*
X66707271Y-24383100D01*
X66729042Y-24407290D01*
X66750814Y-24455671D01*
X66772585Y-24552433D01*
X66772585Y-24673385D01*
X66750814Y-24770147D01*
X66729042Y-24818528D01*
X66707271Y-24842719D01*
X66663728Y-24866909D01*
X66620185Y-24866909D01*
X66576642Y-24842719D01*
X66554871Y-24818528D01*
X66533100Y-24770147D01*
X66511328Y-24673385D01*
X66511328Y-24552433D01*
X66533100Y-24455671D01*
X66554871Y-24407290D01*
X66576642Y-24383100D01*
X66620185Y-24358909D01*
X66968528Y-24866909D02*
X66968528Y-24358909D01*
X67012071Y-24673385D02*
X67142700Y-24866909D01*
X67142700Y-24528242D02*
X66968528Y-24721766D01*
D17*
X67899428Y-26801280D02*
X67730095Y-26523090D01*
X67609142Y-26801280D02*
X67609142Y-26217080D01*
X67802666Y-26217080D01*
X67851047Y-26244900D01*
X67875238Y-26272719D01*
X67899428Y-26328357D01*
X67899428Y-26411814D01*
X67875238Y-26467452D01*
X67851047Y-26495271D01*
X67802666Y-26523090D01*
X67609142Y-26523090D01*
X68092952Y-26272719D02*
X68117142Y-26244900D01*
X68165523Y-26217080D01*
X68286476Y-26217080D01*
X68334857Y-26244900D01*
X68359047Y-26272719D01*
X68383238Y-26328357D01*
X68383238Y-26383995D01*
X68359047Y-26467452D01*
X68068761Y-26801280D01*
X68383238Y-26801280D01*
X68625142Y-26801280D02*
X68721904Y-26801280D01*
X68770285Y-26773461D01*
X68794476Y-26745642D01*
X68842857Y-26662185D01*
X68867047Y-26550909D01*
X68867047Y-26328357D01*
X68842857Y-26272719D01*
X68818666Y-26244900D01*
X68770285Y-26217080D01*
X68673523Y-26217080D01*
X68625142Y-26244900D01*
X68600952Y-26272719D01*
X68576761Y-26328357D01*
X68576761Y-26467452D01*
X68600952Y-26523090D01*
X68625142Y-26550909D01*
X68673523Y-26578728D01*
X68770285Y-26578728D01*
X68818666Y-26550909D01*
X68842857Y-26523090D01*
X68867047Y-26467452D01*
D18*
X67950057Y-24879609D02*
X67688800Y-24879609D01*
X67819428Y-24879609D02*
X67819428Y-24371609D01*
X67775885Y-24444180D01*
X67732342Y-24492561D01*
X67688800Y-24516752D01*
X68233085Y-24371609D02*
X68276628Y-24371609D01*
X68320171Y-24395800D01*
X68341942Y-24419990D01*
X68363714Y-24468371D01*
X68385485Y-24565133D01*
X68385485Y-24686085D01*
X68363714Y-24782847D01*
X68341942Y-24831228D01*
X68320171Y-24855419D01*
X68276628Y-24879609D01*
X68233085Y-24879609D01*
X68189542Y-24855419D01*
X68167771Y-24831228D01*
X68146000Y-24782847D01*
X68124228Y-24686085D01*
X68124228Y-24565133D01*
X68146000Y-24468371D01*
X68167771Y-24419990D01*
X68189542Y-24395800D01*
X68233085Y-24371609D01*
X68581428Y-24879609D02*
X68581428Y-24371609D01*
X68624971Y-24686085D02*
X68755600Y-24879609D01*
X68755600Y-24540942D02*
X68581428Y-24734466D01*
D17*
X69522428Y-26839280D02*
X69353095Y-26561090D01*
X69232142Y-26839280D02*
X69232142Y-26255080D01*
X69425666Y-26255080D01*
X69474047Y-26282900D01*
X69498238Y-26310719D01*
X69522428Y-26366357D01*
X69522428Y-26449814D01*
X69498238Y-26505452D01*
X69474047Y-26533271D01*
X69425666Y-26561090D01*
X69232142Y-26561090D01*
X69691761Y-26255080D02*
X70006238Y-26255080D01*
X69836904Y-26477633D01*
X69909476Y-26477633D01*
X69957857Y-26505452D01*
X69982047Y-26533271D01*
X70006238Y-26588909D01*
X70006238Y-26728004D01*
X69982047Y-26783642D01*
X69957857Y-26811461D01*
X69909476Y-26839280D01*
X69764333Y-26839280D01*
X69715952Y-26811461D01*
X69691761Y-26783642D01*
X70320714Y-26255080D02*
X70369095Y-26255080D01*
X70417476Y-26282900D01*
X70441666Y-26310719D01*
X70465857Y-26366357D01*
X70490047Y-26477633D01*
X70490047Y-26616728D01*
X70465857Y-26728004D01*
X70441666Y-26783642D01*
X70417476Y-26811461D01*
X70369095Y-26839280D01*
X70320714Y-26839280D01*
X70272333Y-26811461D01*
X70248142Y-26783642D01*
X70223952Y-26728004D01*
X70199761Y-26616728D01*
X70199761Y-26477633D01*
X70223952Y-26366357D01*
X70248142Y-26310719D01*
X70272333Y-26282900D01*
X70320714Y-26255080D01*
D18*
X69562957Y-24879609D02*
X69301700Y-24879609D01*
X69432328Y-24879609D02*
X69432328Y-24371609D01*
X69388785Y-24444180D01*
X69345242Y-24492561D01*
X69301700Y-24516752D01*
X69845985Y-24371609D02*
X69889528Y-24371609D01*
X69933071Y-24395800D01*
X69954842Y-24419990D01*
X69976614Y-24468371D01*
X69998385Y-24565133D01*
X69998385Y-24686085D01*
X69976614Y-24782847D01*
X69954842Y-24831228D01*
X69933071Y-24855419D01*
X69889528Y-24879609D01*
X69845985Y-24879609D01*
X69802442Y-24855419D01*
X69780671Y-24831228D01*
X69758900Y-24782847D01*
X69737128Y-24686085D01*
X69737128Y-24565133D01*
X69758900Y-24468371D01*
X69780671Y-24419990D01*
X69802442Y-24395800D01*
X69845985Y-24371609D01*
X70194328Y-24879609D02*
X70194328Y-24371609D01*
X70237871Y-24686085D02*
X70368500Y-24879609D01*
X70368500Y-24540942D02*
X70194328Y-24734466D01*
D17*
X71121428Y-27619180D02*
X70952095Y-27340990D01*
X70831142Y-27619180D02*
X70831142Y-27034980D01*
X71024666Y-27034980D01*
X71073047Y-27062800D01*
X71097238Y-27090619D01*
X71121428Y-27146257D01*
X71121428Y-27229714D01*
X71097238Y-27285352D01*
X71073047Y-27313171D01*
X71024666Y-27340990D01*
X70831142Y-27340990D01*
X71290761Y-27034980D02*
X71605238Y-27034980D01*
X71435904Y-27257533D01*
X71508476Y-27257533D01*
X71556857Y-27285352D01*
X71581047Y-27313171D01*
X71605238Y-27368809D01*
X71605238Y-27507904D01*
X71581047Y-27563542D01*
X71556857Y-27591361D01*
X71508476Y-27619180D01*
X71363333Y-27619180D01*
X71314952Y-27591361D01*
X71290761Y-27563542D01*
X72089047Y-27619180D02*
X71798761Y-27619180D01*
X71943904Y-27619180D02*
X71943904Y-27034980D01*
X71895523Y-27118438D01*
X71847142Y-27174076D01*
X71798761Y-27201895D01*
D18*
X71175857Y-25755909D02*
X70914600Y-25755909D01*
X71045228Y-25755909D02*
X71045228Y-25247909D01*
X71001685Y-25320480D01*
X70958142Y-25368861D01*
X70914600Y-25393052D01*
X71458885Y-25247909D02*
X71502428Y-25247909D01*
X71545971Y-25272100D01*
X71567742Y-25296290D01*
X71589514Y-25344671D01*
X71611285Y-25441433D01*
X71611285Y-25562385D01*
X71589514Y-25659147D01*
X71567742Y-25707528D01*
X71545971Y-25731719D01*
X71502428Y-25755909D01*
X71458885Y-25755909D01*
X71415342Y-25731719D01*
X71393571Y-25707528D01*
X71371800Y-25659147D01*
X71350028Y-25562385D01*
X71350028Y-25441433D01*
X71371800Y-25344671D01*
X71393571Y-25296290D01*
X71415342Y-25272100D01*
X71458885Y-25247909D01*
X71807228Y-25755909D02*
X71807228Y-25247909D01*
X71850771Y-25562385D02*
X71981400Y-25755909D01*
X71981400Y-25417242D02*
X71807228Y-25610766D01*
D17*
X72759728Y-28851080D02*
X72590395Y-28572890D01*
X72469442Y-28851080D02*
X72469442Y-28266880D01*
X72662966Y-28266880D01*
X72711347Y-28294700D01*
X72735538Y-28322519D01*
X72759728Y-28378157D01*
X72759728Y-28461614D01*
X72735538Y-28517252D01*
X72711347Y-28545071D01*
X72662966Y-28572890D01*
X72469442Y-28572890D01*
X72929061Y-28266880D02*
X73243538Y-28266880D01*
X73074204Y-28489433D01*
X73146776Y-28489433D01*
X73195157Y-28517252D01*
X73219347Y-28545071D01*
X73243538Y-28600709D01*
X73243538Y-28739804D01*
X73219347Y-28795442D01*
X73195157Y-28823261D01*
X73146776Y-28851080D01*
X73001633Y-28851080D01*
X72953252Y-28823261D01*
X72929061Y-28795442D01*
X73437061Y-28322519D02*
X73461252Y-28294700D01*
X73509633Y-28266880D01*
X73630585Y-28266880D01*
X73678966Y-28294700D01*
X73703157Y-28322519D01*
X73727347Y-28378157D01*
X73727347Y-28433795D01*
X73703157Y-28517252D01*
X73412871Y-28851080D01*
X73727347Y-28851080D01*
D18*
X72814157Y-26987809D02*
X72552900Y-26987809D01*
X72683528Y-26987809D02*
X72683528Y-26479809D01*
X72639985Y-26552380D01*
X72596442Y-26600761D01*
X72552900Y-26624952D01*
X73097185Y-26479809D02*
X73140728Y-26479809D01*
X73184271Y-26504000D01*
X73206042Y-26528190D01*
X73227814Y-26576571D01*
X73249585Y-26673333D01*
X73249585Y-26794285D01*
X73227814Y-26891047D01*
X73206042Y-26939428D01*
X73184271Y-26963619D01*
X73140728Y-26987809D01*
X73097185Y-26987809D01*
X73053642Y-26963619D01*
X73031871Y-26939428D01*
X73010100Y-26891047D01*
X72988328Y-26794285D01*
X72988328Y-26673333D01*
X73010100Y-26576571D01*
X73031871Y-26528190D01*
X73053642Y-26504000D01*
X73097185Y-26479809D01*
X73445528Y-26987809D02*
X73445528Y-26479809D01*
X73489071Y-26794285D02*
X73619700Y-26987809D01*
X73619700Y-26649142D02*
X73445528Y-26842666D01*
D17*
X76395280Y-24862571D02*
X76117090Y-25031904D01*
X76395280Y-25152857D02*
X75811080Y-25152857D01*
X75811080Y-24959333D01*
X75838900Y-24910952D01*
X75866719Y-24886761D01*
X75922357Y-24862571D01*
X76005814Y-24862571D01*
X76061452Y-24886761D01*
X76089271Y-24910952D01*
X76117090Y-24959333D01*
X76117090Y-25152857D01*
X75811080Y-24693238D02*
X75811080Y-24378761D01*
X76033633Y-24548095D01*
X76033633Y-24475523D01*
X76061452Y-24427142D01*
X76089271Y-24402952D01*
X76144909Y-24378761D01*
X76284004Y-24378761D01*
X76339642Y-24402952D01*
X76367461Y-24427142D01*
X76395280Y-24475523D01*
X76395280Y-24620666D01*
X76367461Y-24669047D01*
X76339642Y-24693238D01*
X75811080Y-24209428D02*
X75811080Y-23894952D01*
X76033633Y-24064285D01*
X76033633Y-23991714D01*
X76061452Y-23943333D01*
X76089271Y-23919142D01*
X76144909Y-23894952D01*
X76284004Y-23894952D01*
X76339642Y-23919142D01*
X76367461Y-23943333D01*
X76395280Y-23991714D01*
X76395280Y-24136857D01*
X76367461Y-24185238D01*
X76339642Y-24209428D01*
D18*
X74459109Y-24820342D02*
X74459109Y-25081600D01*
X74459109Y-24950971D02*
X73951109Y-24950971D01*
X74023680Y-24994514D01*
X74072061Y-25038057D01*
X74096252Y-25081600D01*
X73951109Y-24537314D02*
X73951109Y-24493771D01*
X73975300Y-24450228D01*
X73999490Y-24428457D01*
X74047871Y-24406685D01*
X74144633Y-24384914D01*
X74265585Y-24384914D01*
X74362347Y-24406685D01*
X74410728Y-24428457D01*
X74434919Y-24450228D01*
X74459109Y-24493771D01*
X74459109Y-24537314D01*
X74434919Y-24580857D01*
X74410728Y-24602628D01*
X74362347Y-24624400D01*
X74265585Y-24646171D01*
X74144633Y-24646171D01*
X74047871Y-24624400D01*
X73999490Y-24602628D01*
X73975300Y-24580857D01*
X73951109Y-24537314D01*
X74459109Y-24188971D02*
X73951109Y-24188971D01*
X74265585Y-24145428D02*
X74459109Y-24014800D01*
X74120442Y-24014800D02*
X74313966Y-24188971D01*
D17*
X65545280Y-21792571D02*
X65267090Y-21961904D01*
X65545280Y-22082857D02*
X64961080Y-22082857D01*
X64961080Y-21889333D01*
X64988900Y-21840952D01*
X65016719Y-21816761D01*
X65072357Y-21792571D01*
X65155814Y-21792571D01*
X65211452Y-21816761D01*
X65239271Y-21840952D01*
X65267090Y-21889333D01*
X65267090Y-22082857D01*
X64961080Y-21623238D02*
X64961080Y-21308761D01*
X65183633Y-21478095D01*
X65183633Y-21405523D01*
X65211452Y-21357142D01*
X65239271Y-21332952D01*
X65294909Y-21308761D01*
X65434004Y-21308761D01*
X65489642Y-21332952D01*
X65517461Y-21357142D01*
X65545280Y-21405523D01*
X65545280Y-21550666D01*
X65517461Y-21599047D01*
X65489642Y-21623238D01*
X65155814Y-20873333D02*
X65545280Y-20873333D01*
X64933261Y-20994285D02*
X65350547Y-21115238D01*
X65350547Y-20800761D01*
D18*
X66995742Y-21681628D02*
X67334409Y-21681628D01*
X66802219Y-21790485D02*
X67165076Y-21899342D01*
X67165076Y-21616314D01*
X66826409Y-21485685D02*
X66826409Y-21180885D01*
X67334409Y-21376828D01*
D17*
X18788428Y-21869280D02*
X18619095Y-21591090D01*
X18498142Y-21869280D02*
X18498142Y-21285080D01*
X18691666Y-21285080D01*
X18740047Y-21312900D01*
X18764238Y-21340719D01*
X18788428Y-21396357D01*
X18788428Y-21479814D01*
X18764238Y-21535452D01*
X18740047Y-21563271D01*
X18691666Y-21591090D01*
X18498142Y-21591090D01*
X18957761Y-21285080D02*
X19272238Y-21285080D01*
X19102904Y-21507633D01*
X19175476Y-21507633D01*
X19223857Y-21535452D01*
X19248047Y-21563271D01*
X19272238Y-21618909D01*
X19272238Y-21758004D01*
X19248047Y-21813642D01*
X19223857Y-21841461D01*
X19175476Y-21869280D01*
X19030333Y-21869280D01*
X18981952Y-21841461D01*
X18957761Y-21813642D01*
X19731857Y-21285080D02*
X19489952Y-21285080D01*
X19465761Y-21563271D01*
X19489952Y-21535452D01*
X19538333Y-21507633D01*
X19659285Y-21507633D01*
X19707666Y-21535452D01*
X19731857Y-21563271D01*
X19756047Y-21618909D01*
X19756047Y-21758004D01*
X19731857Y-21813642D01*
X19707666Y-21841461D01*
X19659285Y-21869280D01*
X19538333Y-21869280D01*
X19489952Y-21841461D01*
X19465761Y-21813642D01*
D18*
X18571171Y-19412809D02*
X18854200Y-19412809D01*
X18701800Y-19606333D01*
X18767114Y-19606333D01*
X18810657Y-19630523D01*
X18832428Y-19654714D01*
X18854200Y-19703095D01*
X18854200Y-19824047D01*
X18832428Y-19872428D01*
X18810657Y-19896619D01*
X18767114Y-19920809D01*
X18636485Y-19920809D01*
X18592942Y-19896619D01*
X18571171Y-19872428D01*
X19006600Y-19412809D02*
X19289628Y-19412809D01*
X19137228Y-19606333D01*
X19202542Y-19606333D01*
X19246085Y-19630523D01*
X19267857Y-19654714D01*
X19289628Y-19703095D01*
X19289628Y-19824047D01*
X19267857Y-19872428D01*
X19246085Y-19896619D01*
X19202542Y-19920809D01*
X19071914Y-19920809D01*
X19028371Y-19896619D01*
X19006600Y-19872428D01*
X19572657Y-19412809D02*
X19616200Y-19412809D01*
X19659742Y-19437000D01*
X19681514Y-19461190D01*
X19703285Y-19509571D01*
X19725057Y-19606333D01*
X19725057Y-19727285D01*
X19703285Y-19824047D01*
X19681514Y-19872428D01*
X19659742Y-19896619D01*
X19616200Y-19920809D01*
X19572657Y-19920809D01*
X19529114Y-19896619D01*
X19507342Y-19872428D01*
X19485571Y-19824047D01*
X19463800Y-19727285D01*
X19463800Y-19606333D01*
X19485571Y-19509571D01*
X19507342Y-19461190D01*
X19529114Y-19437000D01*
X19572657Y-19412809D01*
D17*
X20479428Y-21869280D02*
X20310095Y-21591090D01*
X20189142Y-21869280D02*
X20189142Y-21285080D01*
X20382666Y-21285080D01*
X20431047Y-21312900D01*
X20455238Y-21340719D01*
X20479428Y-21396357D01*
X20479428Y-21479814D01*
X20455238Y-21535452D01*
X20431047Y-21563271D01*
X20382666Y-21591090D01*
X20189142Y-21591090D01*
X20648761Y-21285080D02*
X20963238Y-21285080D01*
X20793904Y-21507633D01*
X20866476Y-21507633D01*
X20914857Y-21535452D01*
X20939047Y-21563271D01*
X20963238Y-21618909D01*
X20963238Y-21758004D01*
X20939047Y-21813642D01*
X20914857Y-21841461D01*
X20866476Y-21869280D01*
X20721333Y-21869280D01*
X20672952Y-21841461D01*
X20648761Y-21813642D01*
X21398666Y-21285080D02*
X21301904Y-21285080D01*
X21253523Y-21312900D01*
X21229333Y-21340719D01*
X21180952Y-21424176D01*
X21156761Y-21535452D01*
X21156761Y-21758004D01*
X21180952Y-21813642D01*
X21205142Y-21841461D01*
X21253523Y-21869280D01*
X21350285Y-21869280D01*
X21398666Y-21841461D01*
X21422857Y-21813642D01*
X21447047Y-21758004D01*
X21447047Y-21618909D01*
X21422857Y-21563271D01*
X21398666Y-21535452D01*
X21350285Y-21507633D01*
X21253523Y-21507633D01*
X21205142Y-21535452D01*
X21180952Y-21563271D01*
X21156761Y-21618909D01*
D18*
X20121171Y-19408809D02*
X20404200Y-19408809D01*
X20251800Y-19602333D01*
X20317114Y-19602333D01*
X20360657Y-19626523D01*
X20382428Y-19650714D01*
X20404200Y-19699095D01*
X20404200Y-19820047D01*
X20382428Y-19868428D01*
X20360657Y-19892619D01*
X20317114Y-19916809D01*
X20186485Y-19916809D01*
X20142942Y-19892619D01*
X20121171Y-19868428D01*
X20556600Y-19408809D02*
X20839628Y-19408809D01*
X20687228Y-19602333D01*
X20752542Y-19602333D01*
X20796085Y-19626523D01*
X20817857Y-19650714D01*
X20839628Y-19699095D01*
X20839628Y-19820047D01*
X20817857Y-19868428D01*
X20796085Y-19892619D01*
X20752542Y-19916809D01*
X20621914Y-19916809D01*
X20578371Y-19892619D01*
X20556600Y-19868428D01*
X21122657Y-19408809D02*
X21166200Y-19408809D01*
X21209742Y-19433000D01*
X21231514Y-19457190D01*
X21253285Y-19505571D01*
X21275057Y-19602333D01*
X21275057Y-19723285D01*
X21253285Y-19820047D01*
X21231514Y-19868428D01*
X21209742Y-19892619D01*
X21166200Y-19916809D01*
X21122657Y-19916809D01*
X21079114Y-19892619D01*
X21057342Y-19868428D01*
X21035571Y-19820047D01*
X21013800Y-19723285D01*
X21013800Y-19602333D01*
X21035571Y-19505571D01*
X21057342Y-19457190D01*
X21079114Y-19433000D01*
X21122657Y-19408809D01*
D17*
X57585428Y-22951480D02*
X57416095Y-22673290D01*
X57295142Y-22951480D02*
X57295142Y-22367280D01*
X57488666Y-22367280D01*
X57537047Y-22395100D01*
X57561238Y-22422919D01*
X57585428Y-22478557D01*
X57585428Y-22562014D01*
X57561238Y-22617652D01*
X57537047Y-22645471D01*
X57488666Y-22673290D01*
X57295142Y-22673290D01*
X57778952Y-22422919D02*
X57803142Y-22395100D01*
X57851523Y-22367280D01*
X57972476Y-22367280D01*
X58020857Y-22395100D01*
X58045047Y-22422919D01*
X58069238Y-22478557D01*
X58069238Y-22534195D01*
X58045047Y-22617652D01*
X57754761Y-22951480D01*
X58069238Y-22951480D01*
X58238571Y-22367280D02*
X58577238Y-22367280D01*
X58359523Y-22951480D01*
D18*
X57781371Y-24407142D02*
X57781371Y-24745809D01*
X57672514Y-24213619D02*
X57563657Y-24576476D01*
X57846685Y-24576476D01*
X57977314Y-24237809D02*
X58282114Y-24237809D01*
X58086171Y-24745809D01*
D17*
X34336180Y-59621366D02*
X34057990Y-59790700D01*
X34336180Y-59911652D02*
X33751980Y-59911652D01*
X33751980Y-59718128D01*
X33779800Y-59669747D01*
X33807619Y-59645557D01*
X33863257Y-59621366D01*
X33946714Y-59621366D01*
X34002352Y-59645557D01*
X34030171Y-59669747D01*
X34057990Y-59718128D01*
X34057990Y-59911652D01*
X33751980Y-59452033D02*
X33751980Y-59137557D01*
X33974533Y-59306890D01*
X33974533Y-59234319D01*
X34002352Y-59185938D01*
X34030171Y-59161747D01*
X34085809Y-59137557D01*
X34224904Y-59137557D01*
X34280542Y-59161747D01*
X34308361Y-59185938D01*
X34336180Y-59234319D01*
X34336180Y-59379461D01*
X34308361Y-59427842D01*
X34280542Y-59452033D01*
D18*
X35622509Y-59906814D02*
X35622509Y-59602014D01*
X36130509Y-59797957D01*
X35622509Y-59210128D02*
X35622509Y-59427842D01*
X35864414Y-59449614D01*
X35840223Y-59427842D01*
X35816033Y-59384300D01*
X35816033Y-59275442D01*
X35840223Y-59231900D01*
X35864414Y-59210128D01*
X35912795Y-59188357D01*
X36033747Y-59188357D01*
X36082128Y-59210128D01*
X36106319Y-59231900D01*
X36130509Y-59275442D01*
X36130509Y-59384300D01*
X36106319Y-59427842D01*
X36082128Y-59449614D01*
D17*
X116520666Y-61927071D02*
X116351333Y-61927071D01*
X116351333Y-62233080D02*
X116351333Y-61648880D01*
X116593238Y-61648880D01*
X116762571Y-61704519D02*
X116786761Y-61676700D01*
X116835142Y-61648880D01*
X116956095Y-61648880D01*
X117004476Y-61676700D01*
X117028666Y-61704519D01*
X117052857Y-61760157D01*
X117052857Y-61815795D01*
X117028666Y-61899252D01*
X116738380Y-62233080D01*
X117052857Y-62233080D01*
X120343428Y-59664280D02*
X120174095Y-59386090D01*
X120053142Y-59664280D02*
X120053142Y-59080080D01*
X120246666Y-59080080D01*
X120295047Y-59107900D01*
X120319238Y-59135719D01*
X120343428Y-59191357D01*
X120343428Y-59274814D01*
X120319238Y-59330452D01*
X120295047Y-59358271D01*
X120246666Y-59386090D01*
X120053142Y-59386090D01*
X120778857Y-59274814D02*
X120778857Y-59664280D01*
X120657904Y-59052261D02*
X120536952Y-59469547D01*
X120851428Y-59469547D01*
X121286857Y-59080080D02*
X121044952Y-59080080D01*
X121020761Y-59358271D01*
X121044952Y-59330452D01*
X121093333Y-59302633D01*
X121214285Y-59302633D01*
X121262666Y-59330452D01*
X121286857Y-59358271D01*
X121311047Y-59413909D01*
X121311047Y-59553004D01*
X121286857Y-59608642D01*
X121262666Y-59636461D01*
X121214285Y-59664280D01*
X121093333Y-59664280D01*
X121044952Y-59636461D01*
X121020761Y-59608642D01*
D18*
X120265457Y-57391142D02*
X120265457Y-57729809D01*
X120156600Y-57197619D02*
X120047742Y-57560476D01*
X120330771Y-57560476D01*
X120504942Y-57681428D02*
X120526714Y-57705619D01*
X120504942Y-57729809D01*
X120483171Y-57705619D01*
X120504942Y-57681428D01*
X120504942Y-57729809D01*
X120679114Y-57221809D02*
X120983914Y-57221809D01*
X120787971Y-57729809D01*
X121158085Y-57729809D02*
X121158085Y-57221809D01*
X121201628Y-57536285D02*
X121332257Y-57729809D01*
X121332257Y-57391142D02*
X121158085Y-57584666D01*
D17*
X118613428Y-59674280D02*
X118444095Y-59396090D01*
X118323142Y-59674280D02*
X118323142Y-59090080D01*
X118516666Y-59090080D01*
X118565047Y-59117900D01*
X118589238Y-59145719D01*
X118613428Y-59201357D01*
X118613428Y-59284814D01*
X118589238Y-59340452D01*
X118565047Y-59368271D01*
X118516666Y-59396090D01*
X118323142Y-59396090D01*
X119048857Y-59284814D02*
X119048857Y-59674280D01*
X118927904Y-59062261D02*
X118806952Y-59479547D01*
X119121428Y-59479547D01*
X119532666Y-59090080D02*
X119435904Y-59090080D01*
X119387523Y-59117900D01*
X119363333Y-59145719D01*
X119314952Y-59229176D01*
X119290761Y-59340452D01*
X119290761Y-59563004D01*
X119314952Y-59618642D01*
X119339142Y-59646461D01*
X119387523Y-59674280D01*
X119484285Y-59674280D01*
X119532666Y-59646461D01*
X119556857Y-59618642D01*
X119581047Y-59563004D01*
X119581047Y-59423909D01*
X119556857Y-59368271D01*
X119532666Y-59340452D01*
X119484285Y-59312633D01*
X119387523Y-59312633D01*
X119339142Y-59340452D01*
X119314952Y-59368271D01*
X119290761Y-59423909D01*
D18*
X118505457Y-57391142D02*
X118505457Y-57729809D01*
X118396600Y-57197619D02*
X118287742Y-57560476D01*
X118570771Y-57560476D01*
X118744942Y-57681428D02*
X118766714Y-57705619D01*
X118744942Y-57729809D01*
X118723171Y-57705619D01*
X118744942Y-57681428D01*
X118744942Y-57729809D01*
X118919114Y-57221809D02*
X119223914Y-57221809D01*
X119027971Y-57729809D01*
X119398085Y-57729809D02*
X119398085Y-57221809D01*
X119441628Y-57536285D02*
X119572257Y-57729809D01*
X119572257Y-57391142D02*
X119398085Y-57584666D01*
D17*
X42499642Y-68273666D02*
X42527461Y-68297857D01*
X42555280Y-68370428D01*
X42555280Y-68418809D01*
X42527461Y-68491380D01*
X42471823Y-68539761D01*
X42416185Y-68563952D01*
X42304909Y-68588142D01*
X42221452Y-68588142D01*
X42110176Y-68563952D01*
X42054538Y-68539761D01*
X41998900Y-68491380D01*
X41971080Y-68418809D01*
X41971080Y-68370428D01*
X41998900Y-68297857D01*
X42026719Y-68273666D01*
X41971080Y-68104333D02*
X41971080Y-67789857D01*
X42193633Y-67959190D01*
X42193633Y-67886619D01*
X42221452Y-67838238D01*
X42249271Y-67814047D01*
X42304909Y-67789857D01*
X42444004Y-67789857D01*
X42499642Y-67814047D01*
X42527461Y-67838238D01*
X42555280Y-67886619D01*
X42555280Y-68031761D01*
X42527461Y-68080142D01*
X42499642Y-68104333D01*
D18*
X40626309Y-68248900D02*
X40626309Y-68510157D01*
X40626309Y-68379528D02*
X40118309Y-68379528D01*
X40190880Y-68423071D01*
X40239261Y-68466614D01*
X40263452Y-68510157D01*
X40287642Y-67857014D02*
X40626309Y-67857014D01*
X40287642Y-68052957D02*
X40553738Y-68052957D01*
X40602119Y-68031185D01*
X40626309Y-67987642D01*
X40626309Y-67922328D01*
X40602119Y-67878785D01*
X40577928Y-67857014D01*
D17*
X48869642Y-74158666D02*
X48897461Y-74182857D01*
X48925280Y-74255428D01*
X48925280Y-74303809D01*
X48897461Y-74376380D01*
X48841823Y-74424761D01*
X48786185Y-74448952D01*
X48674909Y-74473142D01*
X48591452Y-74473142D01*
X48480176Y-74448952D01*
X48424538Y-74424761D01*
X48368900Y-74376380D01*
X48341080Y-74303809D01*
X48341080Y-74255428D01*
X48368900Y-74182857D01*
X48396719Y-74158666D01*
X48535814Y-73723238D02*
X48925280Y-73723238D01*
X48313261Y-73844190D02*
X48730547Y-73965142D01*
X48730547Y-73650666D01*
D18*
X50748209Y-74142200D02*
X50748209Y-74403457D01*
X50748209Y-74272828D02*
X50240209Y-74272828D01*
X50312780Y-74316371D01*
X50361161Y-74359914D01*
X50385352Y-74403457D01*
X50409542Y-73750314D02*
X50748209Y-73750314D01*
X50409542Y-73946257D02*
X50675638Y-73946257D01*
X50724019Y-73924485D01*
X50748209Y-73880942D01*
X50748209Y-73815628D01*
X50724019Y-73772085D01*
X50699828Y-73750314D01*
D17*
X51206642Y-72347666D02*
X51234461Y-72371857D01*
X51262280Y-72444428D01*
X51262280Y-72492809D01*
X51234461Y-72565380D01*
X51178823Y-72613761D01*
X51123185Y-72637952D01*
X51011909Y-72662142D01*
X50928452Y-72662142D01*
X50817176Y-72637952D01*
X50761538Y-72613761D01*
X50705900Y-72565380D01*
X50678080Y-72492809D01*
X50678080Y-72444428D01*
X50705900Y-72371857D01*
X50733719Y-72347666D01*
X50678080Y-71888047D02*
X50678080Y-72129952D01*
X50956271Y-72154142D01*
X50928452Y-72129952D01*
X50900633Y-72081571D01*
X50900633Y-71960619D01*
X50928452Y-71912238D01*
X50956271Y-71888047D01*
X51011909Y-71863857D01*
X51151004Y-71863857D01*
X51206642Y-71888047D01*
X51234461Y-71912238D01*
X51262280Y-71960619D01*
X51262280Y-72081571D01*
X51234461Y-72129952D01*
X51206642Y-72154142D01*
D18*
X53072309Y-72300200D02*
X53072309Y-72561457D01*
X53072309Y-72430828D02*
X52564309Y-72430828D01*
X52636880Y-72474371D01*
X52685261Y-72517914D01*
X52709452Y-72561457D01*
X52733642Y-71908314D02*
X53072309Y-71908314D01*
X52733642Y-72104257D02*
X52999738Y-72104257D01*
X53048119Y-72082485D01*
X53072309Y-72038942D01*
X53072309Y-71973628D01*
X53048119Y-71930085D01*
X53023928Y-71908314D01*
D17*
X51193642Y-70478666D02*
X51221461Y-70502857D01*
X51249280Y-70575428D01*
X51249280Y-70623809D01*
X51221461Y-70696380D01*
X51165823Y-70744761D01*
X51110185Y-70768952D01*
X50998909Y-70793142D01*
X50915452Y-70793142D01*
X50804176Y-70768952D01*
X50748538Y-70744761D01*
X50692900Y-70696380D01*
X50665080Y-70623809D01*
X50665080Y-70575428D01*
X50692900Y-70502857D01*
X50720719Y-70478666D01*
X50665080Y-70043238D02*
X50665080Y-70140000D01*
X50692900Y-70188380D01*
X50720719Y-70212571D01*
X50804176Y-70260952D01*
X50915452Y-70285142D01*
X51138004Y-70285142D01*
X51193642Y-70260952D01*
X51221461Y-70236761D01*
X51249280Y-70188380D01*
X51249280Y-70091619D01*
X51221461Y-70043238D01*
X51193642Y-70019047D01*
X51138004Y-69994857D01*
X50998909Y-69994857D01*
X50943271Y-70019047D01*
X50915452Y-70043238D01*
X50887633Y-70091619D01*
X50887633Y-70188380D01*
X50915452Y-70236761D01*
X50943271Y-70260952D01*
X50998909Y-70285142D01*
D18*
X53046909Y-70433300D02*
X53046909Y-70694557D01*
X53046909Y-70563928D02*
X52538909Y-70563928D01*
X52611480Y-70607471D01*
X52659861Y-70651014D01*
X52684052Y-70694557D01*
X52708242Y-70041414D02*
X53046909Y-70041414D01*
X52708242Y-70237357D02*
X52974338Y-70237357D01*
X53022719Y-70215585D01*
X53046909Y-70172042D01*
X53046909Y-70106728D01*
X53022719Y-70063185D01*
X52998528Y-70041414D01*
D17*
X51155642Y-68054666D02*
X51183461Y-68078857D01*
X51211280Y-68151428D01*
X51211280Y-68199809D01*
X51183461Y-68272380D01*
X51127823Y-68320761D01*
X51072185Y-68344952D01*
X50960909Y-68369142D01*
X50877452Y-68369142D01*
X50766176Y-68344952D01*
X50710538Y-68320761D01*
X50654900Y-68272380D01*
X50627080Y-68199809D01*
X50627080Y-68151428D01*
X50654900Y-68078857D01*
X50682719Y-68054666D01*
X50627080Y-67885333D02*
X50627080Y-67546666D01*
X51211280Y-67764380D01*
D18*
X53046909Y-68134600D02*
X53046909Y-68395857D01*
X53046909Y-68265228D02*
X52538909Y-68265228D01*
X52611480Y-68308771D01*
X52659861Y-68352314D01*
X52684052Y-68395857D01*
X52708242Y-67742714D02*
X53046909Y-67742714D01*
X52708242Y-67938657D02*
X52974338Y-67938657D01*
X53022719Y-67916885D01*
X53046909Y-67873342D01*
X53046909Y-67808028D01*
X53022719Y-67764485D01*
X52998528Y-67742714D01*
D17*
X39510428Y-63540642D02*
X39486238Y-63568461D01*
X39413666Y-63596280D01*
X39365285Y-63596280D01*
X39292714Y-63568461D01*
X39244333Y-63512823D01*
X39220142Y-63457185D01*
X39195952Y-63345909D01*
X39195952Y-63262452D01*
X39220142Y-63151176D01*
X39244333Y-63095538D01*
X39292714Y-63039900D01*
X39365285Y-63012080D01*
X39413666Y-63012080D01*
X39486238Y-63039900D01*
X39510428Y-63067719D01*
X39994238Y-63596280D02*
X39703952Y-63596280D01*
X39849095Y-63596280D02*
X39849095Y-63012080D01*
X39800714Y-63095538D01*
X39752333Y-63151176D01*
X39703952Y-63178995D01*
X40478047Y-63596280D02*
X40187761Y-63596280D01*
X40332904Y-63596280D02*
X40332904Y-63012080D01*
X40284523Y-63095538D01*
X40236142Y-63151176D01*
X40187761Y-63178995D01*
D18*
X40282200Y-61735009D02*
X40020942Y-61735009D01*
X40151571Y-61735009D02*
X40151571Y-61227009D01*
X40108028Y-61299580D01*
X40064485Y-61347961D01*
X40020942Y-61372152D01*
X40478142Y-61396342D02*
X40478142Y-61735009D01*
X40478142Y-61444723D02*
X40499914Y-61420533D01*
X40543457Y-61396342D01*
X40608771Y-61396342D01*
X40652314Y-61420533D01*
X40674085Y-61468914D01*
X40674085Y-61735009D01*
D17*
X44379642Y-74387571D02*
X44407461Y-74411761D01*
X44435280Y-74484333D01*
X44435280Y-74532714D01*
X44407461Y-74605285D01*
X44351823Y-74653666D01*
X44296185Y-74677857D01*
X44184909Y-74702047D01*
X44101452Y-74702047D01*
X43990176Y-74677857D01*
X43934538Y-74653666D01*
X43878900Y-74605285D01*
X43851080Y-74532714D01*
X43851080Y-74484333D01*
X43878900Y-74411761D01*
X43906719Y-74387571D01*
X44435280Y-73903761D02*
X44435280Y-74194047D01*
X44435280Y-74048904D02*
X43851080Y-74048904D01*
X43934538Y-74097285D01*
X43990176Y-74145666D01*
X44017995Y-74194047D01*
X43906719Y-73710238D02*
X43878900Y-73686047D01*
X43851080Y-73637666D01*
X43851080Y-73516714D01*
X43878900Y-73468333D01*
X43906719Y-73444142D01*
X43962357Y-73419952D01*
X44017995Y-73419952D01*
X44101452Y-73444142D01*
X44435280Y-73734428D01*
X44435280Y-73419952D01*
D18*
X42530809Y-74142200D02*
X42530809Y-74403457D01*
X42530809Y-74272828D02*
X42022809Y-74272828D01*
X42095380Y-74316371D01*
X42143761Y-74359914D01*
X42167952Y-74403457D01*
X42192142Y-73750314D02*
X42530809Y-73750314D01*
X42192142Y-73946257D02*
X42458238Y-73946257D01*
X42506619Y-73924485D01*
X42530809Y-73880942D01*
X42530809Y-73815628D01*
X42506619Y-73772085D01*
X42482428Y-73750314D01*
D17*
X34519428Y-55819642D02*
X34495238Y-55847461D01*
X34422666Y-55875280D01*
X34374285Y-55875280D01*
X34301714Y-55847461D01*
X34253333Y-55791823D01*
X34229142Y-55736185D01*
X34204952Y-55624909D01*
X34204952Y-55541452D01*
X34229142Y-55430176D01*
X34253333Y-55374538D01*
X34301714Y-55318900D01*
X34374285Y-55291080D01*
X34422666Y-55291080D01*
X34495238Y-55318900D01*
X34519428Y-55346719D01*
X35003238Y-55875280D02*
X34712952Y-55875280D01*
X34858095Y-55875280D02*
X34858095Y-55291080D01*
X34809714Y-55374538D01*
X34761333Y-55430176D01*
X34712952Y-55457995D01*
X35172571Y-55291080D02*
X35487047Y-55291080D01*
X35317714Y-55513633D01*
X35390285Y-55513633D01*
X35438666Y-55541452D01*
X35462857Y-55569271D01*
X35487047Y-55624909D01*
X35487047Y-55764004D01*
X35462857Y-55819642D01*
X35438666Y-55847461D01*
X35390285Y-55875280D01*
X35245142Y-55875280D01*
X35196761Y-55847461D01*
X35172571Y-55819642D01*
D18*
X34795800Y-57645609D02*
X34534542Y-57645609D01*
X34665171Y-57645609D02*
X34665171Y-57137609D01*
X34621628Y-57210180D01*
X34578085Y-57258561D01*
X34534542Y-57282752D01*
X34991742Y-57306942D02*
X34991742Y-57645609D01*
X34991742Y-57355323D02*
X35013514Y-57331133D01*
X35057057Y-57306942D01*
X35122371Y-57306942D01*
X35165914Y-57331133D01*
X35187685Y-57379514D01*
X35187685Y-57645609D01*
D17*
X31219842Y-54643571D02*
X31247661Y-54667761D01*
X31275480Y-54740333D01*
X31275480Y-54788714D01*
X31247661Y-54861285D01*
X31192023Y-54909666D01*
X31136385Y-54933857D01*
X31025109Y-54958047D01*
X30941652Y-54958047D01*
X30830376Y-54933857D01*
X30774738Y-54909666D01*
X30719100Y-54861285D01*
X30691280Y-54788714D01*
X30691280Y-54740333D01*
X30719100Y-54667761D01*
X30746919Y-54643571D01*
X31275480Y-54159761D02*
X31275480Y-54450047D01*
X31275480Y-54304904D02*
X30691280Y-54304904D01*
X30774738Y-54353285D01*
X30830376Y-54401666D01*
X30858195Y-54450047D01*
X30691280Y-53990428D02*
X30691280Y-53651761D01*
X31275480Y-53869476D01*
D18*
X33069809Y-54610914D02*
X33069809Y-54872171D01*
X33069809Y-54741542D02*
X32561809Y-54741542D01*
X32634380Y-54785085D01*
X32682761Y-54828628D01*
X32706952Y-54872171D01*
X32561809Y-54327885D02*
X32561809Y-54284342D01*
X32586000Y-54240800D01*
X32610190Y-54219028D01*
X32658571Y-54197257D01*
X32755333Y-54175485D01*
X32876285Y-54175485D01*
X32973047Y-54197257D01*
X33021428Y-54219028D01*
X33045619Y-54240800D01*
X33069809Y-54284342D01*
X33069809Y-54327885D01*
X33045619Y-54371428D01*
X33021428Y-54393200D01*
X32973047Y-54414971D01*
X32876285Y-54436742D01*
X32755333Y-54436742D01*
X32658571Y-54414971D01*
X32610190Y-54393200D01*
X32586000Y-54371428D01*
X32561809Y-54327885D01*
X32731142Y-53979542D02*
X33069809Y-53979542D01*
X32779523Y-53979542D02*
X32755333Y-53957771D01*
X32731142Y-53914228D01*
X32731142Y-53848914D01*
X32755333Y-53805371D01*
X32803714Y-53783600D01*
X33069809Y-53783600D01*
D17*
X36113642Y-53277571D02*
X36141461Y-53301761D01*
X36169280Y-53374333D01*
X36169280Y-53422714D01*
X36141461Y-53495285D01*
X36085823Y-53543666D01*
X36030185Y-53567857D01*
X35918909Y-53592047D01*
X35835452Y-53592047D01*
X35724176Y-53567857D01*
X35668538Y-53543666D01*
X35612900Y-53495285D01*
X35585080Y-53422714D01*
X35585080Y-53374333D01*
X35612900Y-53301761D01*
X35640719Y-53277571D01*
X36169280Y-52793761D02*
X36169280Y-53084047D01*
X36169280Y-52938904D02*
X35585080Y-52938904D01*
X35668538Y-52987285D01*
X35724176Y-53035666D01*
X35751995Y-53084047D01*
X36169280Y-52551857D02*
X36169280Y-52455095D01*
X36141461Y-52406714D01*
X36113642Y-52382523D01*
X36030185Y-52334142D01*
X35918909Y-52309952D01*
X35696357Y-52309952D01*
X35640719Y-52334142D01*
X35612900Y-52358333D01*
X35585080Y-52406714D01*
X35585080Y-52503476D01*
X35612900Y-52551857D01*
X35640719Y-52576047D01*
X35696357Y-52600238D01*
X35835452Y-52600238D01*
X35891090Y-52576047D01*
X35918909Y-52551857D01*
X35946728Y-52503476D01*
X35946728Y-52406714D01*
X35918909Y-52358333D01*
X35891090Y-52334142D01*
X35835452Y-52309952D01*
D18*
X35168142Y-51729314D02*
X35506809Y-51729314D01*
X34974619Y-51838171D02*
X35337476Y-51947028D01*
X35337476Y-51664000D01*
X35458428Y-51489828D02*
X35482619Y-51468057D01*
X35506809Y-51489828D01*
X35482619Y-51511600D01*
X35458428Y-51489828D01*
X35506809Y-51489828D01*
X34998809Y-51315657D02*
X34998809Y-51010857D01*
X35506809Y-51206800D01*
X35168142Y-50836685D02*
X35506809Y-50836685D01*
X35216523Y-50836685D02*
X35192333Y-50814914D01*
X35168142Y-50771371D01*
X35168142Y-50706057D01*
X35192333Y-50662514D01*
X35240714Y-50640742D01*
X35506809Y-50640742D01*
D17*
X31907842Y-50105571D02*
X31935661Y-50129761D01*
X31963480Y-50202333D01*
X31963480Y-50250714D01*
X31935661Y-50323285D01*
X31880023Y-50371666D01*
X31824385Y-50395857D01*
X31713109Y-50420047D01*
X31629652Y-50420047D01*
X31518376Y-50395857D01*
X31462738Y-50371666D01*
X31407100Y-50323285D01*
X31379280Y-50250714D01*
X31379280Y-50202333D01*
X31407100Y-50129761D01*
X31434919Y-50105571D01*
X31434919Y-49912047D02*
X31407100Y-49887857D01*
X31379280Y-49839476D01*
X31379280Y-49718523D01*
X31407100Y-49670142D01*
X31434919Y-49645952D01*
X31490557Y-49621761D01*
X31546195Y-49621761D01*
X31629652Y-49645952D01*
X31963480Y-49936238D01*
X31963480Y-49621761D01*
X31379280Y-49307285D02*
X31379280Y-49258904D01*
X31407100Y-49210523D01*
X31434919Y-49186333D01*
X31490557Y-49162142D01*
X31601833Y-49137952D01*
X31740928Y-49137952D01*
X31852204Y-49162142D01*
X31907842Y-49186333D01*
X31935661Y-49210523D01*
X31963480Y-49258904D01*
X31963480Y-49307285D01*
X31935661Y-49355666D01*
X31907842Y-49379857D01*
X31852204Y-49404047D01*
X31740928Y-49428238D01*
X31601833Y-49428238D01*
X31490557Y-49404047D01*
X31434919Y-49379857D01*
X31407100Y-49355666D01*
X31379280Y-49307285D01*
D18*
X33249809Y-50334171D02*
X33249809Y-50290628D01*
X33274000Y-50247085D01*
X33298190Y-50225314D01*
X33346571Y-50203542D01*
X33443333Y-50181771D01*
X33564285Y-50181771D01*
X33661047Y-50203542D01*
X33709428Y-50225314D01*
X33733619Y-50247085D01*
X33757809Y-50290628D01*
X33757809Y-50334171D01*
X33733619Y-50377714D01*
X33709428Y-50399485D01*
X33661047Y-50421257D01*
X33564285Y-50443028D01*
X33443333Y-50443028D01*
X33346571Y-50421257D01*
X33298190Y-50399485D01*
X33274000Y-50377714D01*
X33249809Y-50334171D01*
X33709428Y-49985828D02*
X33733619Y-49964057D01*
X33757809Y-49985828D01*
X33733619Y-50007600D01*
X33709428Y-49985828D01*
X33757809Y-49985828D01*
X33757809Y-49528628D02*
X33757809Y-49789885D01*
X33757809Y-49659257D02*
X33249809Y-49659257D01*
X33322380Y-49702800D01*
X33370761Y-49746342D01*
X33394952Y-49789885D01*
X33419142Y-49136742D02*
X33757809Y-49136742D01*
X33419142Y-49332685D02*
X33685238Y-49332685D01*
X33733619Y-49310914D01*
X33757809Y-49267371D01*
X33757809Y-49202057D01*
X33733619Y-49158514D01*
X33709428Y-49136742D01*
D17*
X34429642Y-48317571D02*
X34457461Y-48341761D01*
X34485280Y-48414333D01*
X34485280Y-48462714D01*
X34457461Y-48535285D01*
X34401823Y-48583666D01*
X34346185Y-48607857D01*
X34234909Y-48632047D01*
X34151452Y-48632047D01*
X34040176Y-48607857D01*
X33984538Y-48583666D01*
X33928900Y-48535285D01*
X33901080Y-48462714D01*
X33901080Y-48414333D01*
X33928900Y-48341761D01*
X33956719Y-48317571D01*
X33956719Y-48124047D02*
X33928900Y-48099857D01*
X33901080Y-48051476D01*
X33901080Y-47930523D01*
X33928900Y-47882142D01*
X33956719Y-47857952D01*
X34012357Y-47833761D01*
X34067995Y-47833761D01*
X34151452Y-47857952D01*
X34485280Y-48148238D01*
X34485280Y-47833761D01*
X33901080Y-47664428D02*
X33901080Y-47349952D01*
X34123633Y-47519285D01*
X34123633Y-47446714D01*
X34151452Y-47398333D01*
X34179271Y-47374142D01*
X34234909Y-47349952D01*
X34374004Y-47349952D01*
X34429642Y-47374142D01*
X34457461Y-47398333D01*
X34485280Y-47446714D01*
X34485280Y-47591857D01*
X34457461Y-47640238D01*
X34429642Y-47664428D01*
D18*
X35783809Y-48820171D02*
X35783809Y-48776628D01*
X35808000Y-48733085D01*
X35832190Y-48711314D01*
X35880571Y-48689542D01*
X35977333Y-48667771D01*
X36098285Y-48667771D01*
X36195047Y-48689542D01*
X36243428Y-48711314D01*
X36267619Y-48733085D01*
X36291809Y-48776628D01*
X36291809Y-48820171D01*
X36267619Y-48863714D01*
X36243428Y-48885485D01*
X36195047Y-48907257D01*
X36098285Y-48929028D01*
X35977333Y-48929028D01*
X35880571Y-48907257D01*
X35832190Y-48885485D01*
X35808000Y-48863714D01*
X35783809Y-48820171D01*
X36243428Y-48471828D02*
X36267619Y-48450057D01*
X36291809Y-48471828D01*
X36267619Y-48493600D01*
X36243428Y-48471828D01*
X36291809Y-48471828D01*
X36291809Y-48014628D02*
X36291809Y-48275885D01*
X36291809Y-48145257D02*
X35783809Y-48145257D01*
X35856380Y-48188800D01*
X35904761Y-48232342D01*
X35928952Y-48275885D01*
X35953142Y-47622742D02*
X36291809Y-47622742D01*
X35953142Y-47818685D02*
X36219238Y-47818685D01*
X36267619Y-47796914D01*
X36291809Y-47753371D01*
X36291809Y-47688057D01*
X36267619Y-47644514D01*
X36243428Y-47622742D01*
D17*
X26351428Y-54866642D02*
X26327238Y-54894461D01*
X26254666Y-54922280D01*
X26206285Y-54922280D01*
X26133714Y-54894461D01*
X26085333Y-54838823D01*
X26061142Y-54783185D01*
X26036952Y-54671909D01*
X26036952Y-54588452D01*
X26061142Y-54477176D01*
X26085333Y-54421538D01*
X26133714Y-54365900D01*
X26206285Y-54338080D01*
X26254666Y-54338080D01*
X26327238Y-54365900D01*
X26351428Y-54393719D01*
X26544952Y-54393719D02*
X26569142Y-54365900D01*
X26617523Y-54338080D01*
X26738476Y-54338080D01*
X26786857Y-54365900D01*
X26811047Y-54393719D01*
X26835238Y-54449357D01*
X26835238Y-54504995D01*
X26811047Y-54588452D01*
X26520761Y-54922280D01*
X26835238Y-54922280D01*
X27270666Y-54532814D02*
X27270666Y-54922280D01*
X27149714Y-54310261D02*
X27028761Y-54727547D01*
X27343238Y-54727547D01*
D18*
X26629700Y-53010109D02*
X26368442Y-53010109D01*
X26499071Y-53010109D02*
X26499071Y-52502109D01*
X26455528Y-52574680D01*
X26411985Y-52623061D01*
X26368442Y-52647252D01*
X26825642Y-52671442D02*
X26825642Y-53010109D01*
X26825642Y-52719823D02*
X26847414Y-52695633D01*
X26890957Y-52671442D01*
X26956271Y-52671442D01*
X26999814Y-52695633D01*
X27021585Y-52744014D01*
X27021585Y-53010109D01*
D17*
X24598428Y-32387642D02*
X24574238Y-32415461D01*
X24501666Y-32443280D01*
X24453285Y-32443280D01*
X24380714Y-32415461D01*
X24332333Y-32359823D01*
X24308142Y-32304185D01*
X24283952Y-32192909D01*
X24283952Y-32109452D01*
X24308142Y-31998176D01*
X24332333Y-31942538D01*
X24380714Y-31886900D01*
X24453285Y-31859080D01*
X24501666Y-31859080D01*
X24574238Y-31886900D01*
X24598428Y-31914719D01*
X24767761Y-31859080D02*
X25082238Y-31859080D01*
X24912904Y-32081633D01*
X24985476Y-32081633D01*
X25033857Y-32109452D01*
X25058047Y-32137271D01*
X25082238Y-32192909D01*
X25082238Y-32332004D01*
X25058047Y-32387642D01*
X25033857Y-32415461D01*
X24985476Y-32443280D01*
X24840333Y-32443280D01*
X24791952Y-32415461D01*
X24767761Y-32387642D01*
X25566047Y-32443280D02*
X25275761Y-32443280D01*
X25420904Y-32443280D02*
X25420904Y-31859080D01*
X25372523Y-31942538D01*
X25324142Y-31998176D01*
X25275761Y-32025995D01*
D18*
X26351085Y-31542809D02*
X26089828Y-31542809D01*
X26220457Y-31542809D02*
X26220457Y-31034809D01*
X26176914Y-31107380D01*
X26133371Y-31155761D01*
X26089828Y-31179952D01*
X26634114Y-31034809D02*
X26677657Y-31034809D01*
X26721200Y-31059000D01*
X26742971Y-31083190D01*
X26764742Y-31131571D01*
X26786514Y-31228333D01*
X26786514Y-31349285D01*
X26764742Y-31446047D01*
X26742971Y-31494428D01*
X26721200Y-31518619D01*
X26677657Y-31542809D01*
X26634114Y-31542809D01*
X26590571Y-31518619D01*
X26568800Y-31494428D01*
X26547028Y-31446047D01*
X26525257Y-31349285D01*
X26525257Y-31228333D01*
X26547028Y-31131571D01*
X26568800Y-31083190D01*
X26590571Y-31059000D01*
X26634114Y-31034809D01*
X27178400Y-31204142D02*
X27178400Y-31542809D01*
X26982457Y-31204142D02*
X26982457Y-31470238D01*
X27004228Y-31518619D01*
X27047771Y-31542809D01*
X27113085Y-31542809D01*
X27156628Y-31518619D01*
X27178400Y-31494428D01*
D17*
X65220428Y-32420642D02*
X65196238Y-32448461D01*
X65123666Y-32476280D01*
X65075285Y-32476280D01*
X65002714Y-32448461D01*
X64954333Y-32392823D01*
X64930142Y-32337185D01*
X64905952Y-32225909D01*
X64905952Y-32142452D01*
X64930142Y-32031176D01*
X64954333Y-31975538D01*
X65002714Y-31919900D01*
X65075285Y-31892080D01*
X65123666Y-31892080D01*
X65196238Y-31919900D01*
X65220428Y-31947719D01*
X65655857Y-32086814D02*
X65655857Y-32476280D01*
X65534904Y-31864261D02*
X65413952Y-32281547D01*
X65728428Y-32281547D01*
X65873571Y-31892080D02*
X66188047Y-31892080D01*
X66018714Y-32114633D01*
X66091285Y-32114633D01*
X66139666Y-32142452D01*
X66163857Y-32170271D01*
X66188047Y-32225909D01*
X66188047Y-32365004D01*
X66163857Y-32420642D01*
X66139666Y-32448461D01*
X66091285Y-32476280D01*
X65946142Y-32476280D01*
X65897761Y-32448461D01*
X65873571Y-32420642D01*
D18*
X65444828Y-33721809D02*
X65488371Y-33721809D01*
X65531914Y-33746000D01*
X65553685Y-33770190D01*
X65575457Y-33818571D01*
X65597228Y-33915333D01*
X65597228Y-34036285D01*
X65575457Y-34133047D01*
X65553685Y-34181428D01*
X65531914Y-34205619D01*
X65488371Y-34229809D01*
X65444828Y-34229809D01*
X65401285Y-34205619D01*
X65379514Y-34181428D01*
X65357742Y-34133047D01*
X65335971Y-34036285D01*
X65335971Y-33915333D01*
X65357742Y-33818571D01*
X65379514Y-33770190D01*
X65401285Y-33746000D01*
X65444828Y-33721809D01*
X65793171Y-34181428D02*
X65814942Y-34205619D01*
X65793171Y-34229809D01*
X65771400Y-34205619D01*
X65793171Y-34181428D01*
X65793171Y-34229809D01*
X66250371Y-34229809D02*
X65989114Y-34229809D01*
X66119742Y-34229809D02*
X66119742Y-33721809D01*
X66076200Y-33794380D01*
X66032657Y-33842761D01*
X65989114Y-33866952D01*
X66642257Y-33891142D02*
X66642257Y-34229809D01*
X66446314Y-33891142D02*
X66446314Y-34157238D01*
X66468085Y-34205619D01*
X66511628Y-34229809D01*
X66576942Y-34229809D01*
X66620485Y-34205619D01*
X66642257Y-34181428D01*
D17*
X70037442Y-32126571D02*
X70065261Y-32150761D01*
X70093080Y-32223333D01*
X70093080Y-32271714D01*
X70065261Y-32344285D01*
X70009623Y-32392666D01*
X69953985Y-32416857D01*
X69842709Y-32441047D01*
X69759252Y-32441047D01*
X69647976Y-32416857D01*
X69592338Y-32392666D01*
X69536700Y-32344285D01*
X69508880Y-32271714D01*
X69508880Y-32223333D01*
X69536700Y-32150761D01*
X69564519Y-32126571D01*
X69703614Y-31691142D02*
X70093080Y-31691142D01*
X69481061Y-31812095D02*
X69898347Y-31933047D01*
X69898347Y-31618571D01*
X69508880Y-31207333D02*
X69508880Y-31304095D01*
X69536700Y-31352476D01*
X69564519Y-31376666D01*
X69647976Y-31425047D01*
X69759252Y-31449238D01*
X69981804Y-31449238D01*
X70037442Y-31425047D01*
X70065261Y-31400857D01*
X70093080Y-31352476D01*
X70093080Y-31255714D01*
X70065261Y-31207333D01*
X70037442Y-31183142D01*
X69981804Y-31158952D01*
X69842709Y-31158952D01*
X69787071Y-31183142D01*
X69759252Y-31207333D01*
X69731433Y-31255714D01*
X69731433Y-31352476D01*
X69759252Y-31400857D01*
X69787071Y-31425047D01*
X69842709Y-31449238D01*
D18*
X67721809Y-32355171D02*
X67721809Y-32311628D01*
X67746000Y-32268085D01*
X67770190Y-32246314D01*
X67818571Y-32224542D01*
X67915333Y-32202771D01*
X68036285Y-32202771D01*
X68133047Y-32224542D01*
X68181428Y-32246314D01*
X68205619Y-32268085D01*
X68229809Y-32311628D01*
X68229809Y-32355171D01*
X68205619Y-32398714D01*
X68181428Y-32420485D01*
X68133047Y-32442257D01*
X68036285Y-32464028D01*
X67915333Y-32464028D01*
X67818571Y-32442257D01*
X67770190Y-32420485D01*
X67746000Y-32398714D01*
X67721809Y-32355171D01*
X68181428Y-32006828D02*
X68205619Y-31985057D01*
X68229809Y-32006828D01*
X68205619Y-32028600D01*
X68181428Y-32006828D01*
X68229809Y-32006828D01*
X68229809Y-31549628D02*
X68229809Y-31810885D01*
X68229809Y-31680257D02*
X67721809Y-31680257D01*
X67794380Y-31723800D01*
X67842761Y-31767342D01*
X67866952Y-31810885D01*
X67891142Y-31157742D02*
X68229809Y-31157742D01*
X67891142Y-31353685D02*
X68157238Y-31353685D01*
X68205619Y-31331914D01*
X68229809Y-31288371D01*
X68229809Y-31223057D01*
X68205619Y-31179514D01*
X68181428Y-31157742D01*
D17*
X64902642Y-56165571D02*
X64930461Y-56189761D01*
X64958280Y-56262333D01*
X64958280Y-56310714D01*
X64930461Y-56383285D01*
X64874823Y-56431666D01*
X64819185Y-56455857D01*
X64707909Y-56480047D01*
X64624452Y-56480047D01*
X64513176Y-56455857D01*
X64457538Y-56431666D01*
X64401900Y-56383285D01*
X64374080Y-56310714D01*
X64374080Y-56262333D01*
X64401900Y-56189761D01*
X64429719Y-56165571D01*
X64568814Y-55730142D02*
X64958280Y-55730142D01*
X64346261Y-55851095D02*
X64763547Y-55972047D01*
X64763547Y-55657571D01*
X64374080Y-55512428D02*
X64374080Y-55173761D01*
X64958280Y-55391476D01*
D18*
X66321809Y-56455171D02*
X66321809Y-56411628D01*
X66346000Y-56368085D01*
X66370190Y-56346314D01*
X66418571Y-56324542D01*
X66515333Y-56302771D01*
X66636285Y-56302771D01*
X66733047Y-56324542D01*
X66781428Y-56346314D01*
X66805619Y-56368085D01*
X66829809Y-56411628D01*
X66829809Y-56455171D01*
X66805619Y-56498714D01*
X66781428Y-56520485D01*
X66733047Y-56542257D01*
X66636285Y-56564028D01*
X66515333Y-56564028D01*
X66418571Y-56542257D01*
X66370190Y-56520485D01*
X66346000Y-56498714D01*
X66321809Y-56455171D01*
X66781428Y-56106828D02*
X66805619Y-56085057D01*
X66829809Y-56106828D01*
X66805619Y-56128600D01*
X66781428Y-56106828D01*
X66829809Y-56106828D01*
X66829809Y-55649628D02*
X66829809Y-55910885D01*
X66829809Y-55780257D02*
X66321809Y-55780257D01*
X66394380Y-55823800D01*
X66442761Y-55867342D01*
X66466952Y-55910885D01*
X66491142Y-55257742D02*
X66829809Y-55257742D01*
X66491142Y-55453685D02*
X66757238Y-55453685D01*
X66805619Y-55431914D01*
X66829809Y-55388371D01*
X66829809Y-55323057D01*
X66805619Y-55279514D01*
X66781428Y-55257742D01*
D17*
X67892428Y-18008642D02*
X67868238Y-18036461D01*
X67795666Y-18064280D01*
X67747285Y-18064280D01*
X67674714Y-18036461D01*
X67626333Y-17980823D01*
X67602142Y-17925185D01*
X67577952Y-17813909D01*
X67577952Y-17730452D01*
X67602142Y-17619176D01*
X67626333Y-17563538D01*
X67674714Y-17507900D01*
X67747285Y-17480080D01*
X67795666Y-17480080D01*
X67868238Y-17507900D01*
X67892428Y-17535719D01*
X68352047Y-17480080D02*
X68110142Y-17480080D01*
X68085952Y-17758271D01*
X68110142Y-17730452D01*
X68158523Y-17702633D01*
X68279476Y-17702633D01*
X68327857Y-17730452D01*
X68352047Y-17758271D01*
X68376238Y-17813909D01*
X68376238Y-17953004D01*
X68352047Y-18008642D01*
X68327857Y-18036461D01*
X68279476Y-18064280D01*
X68158523Y-18064280D01*
X68110142Y-18036461D01*
X68085952Y-18008642D01*
X68569761Y-17535719D02*
X68593952Y-17507900D01*
X68642333Y-17480080D01*
X68763285Y-17480080D01*
X68811666Y-17507900D01*
X68835857Y-17535719D01*
X68860047Y-17591357D01*
X68860047Y-17646995D01*
X68835857Y-17730452D01*
X68545571Y-18064280D01*
X68860047Y-18064280D01*
D18*
X66444200Y-18859809D02*
X66182942Y-18859809D01*
X66313571Y-18859809D02*
X66313571Y-18351809D01*
X66270028Y-18424380D01*
X66226485Y-18472761D01*
X66182942Y-18496952D01*
X66836085Y-18521142D02*
X66836085Y-18859809D01*
X66640142Y-18521142D02*
X66640142Y-18787238D01*
X66661914Y-18835619D01*
X66705457Y-18859809D01*
X66770771Y-18859809D01*
X66814314Y-18835619D01*
X66836085Y-18811428D01*
D17*
X94249942Y-28214871D02*
X94277761Y-28239061D01*
X94305580Y-28311633D01*
X94305580Y-28360014D01*
X94277761Y-28432585D01*
X94222123Y-28480966D01*
X94166485Y-28505157D01*
X94055209Y-28529347D01*
X93971752Y-28529347D01*
X93860476Y-28505157D01*
X93804838Y-28480966D01*
X93749200Y-28432585D01*
X93721380Y-28360014D01*
X93721380Y-28311633D01*
X93749200Y-28239061D01*
X93777019Y-28214871D01*
X93721380Y-27755252D02*
X93721380Y-27997157D01*
X93999571Y-28021347D01*
X93971752Y-27997157D01*
X93943933Y-27948776D01*
X93943933Y-27827823D01*
X93971752Y-27779442D01*
X93999571Y-27755252D01*
X94055209Y-27731061D01*
X94194304Y-27731061D01*
X94249942Y-27755252D01*
X94277761Y-27779442D01*
X94305580Y-27827823D01*
X94305580Y-27948776D01*
X94277761Y-27997157D01*
X94249942Y-28021347D01*
X93721380Y-27271442D02*
X93721380Y-27513347D01*
X93999571Y-27537538D01*
X93971752Y-27513347D01*
X93943933Y-27464966D01*
X93943933Y-27344014D01*
X93971752Y-27295633D01*
X93999571Y-27271442D01*
X94055209Y-27247252D01*
X94194304Y-27247252D01*
X94249942Y-27271442D01*
X94277761Y-27295633D01*
X94305580Y-27344014D01*
X94305580Y-27464966D01*
X94277761Y-27513347D01*
X94249942Y-27537538D01*
D18*
X91934309Y-28443471D02*
X91934309Y-28399928D01*
X91958500Y-28356385D01*
X91982690Y-28334614D01*
X92031071Y-28312842D01*
X92127833Y-28291071D01*
X92248785Y-28291071D01*
X92345547Y-28312842D01*
X92393928Y-28334614D01*
X92418119Y-28356385D01*
X92442309Y-28399928D01*
X92442309Y-28443471D01*
X92418119Y-28487014D01*
X92393928Y-28508785D01*
X92345547Y-28530557D01*
X92248785Y-28552328D01*
X92127833Y-28552328D01*
X92031071Y-28530557D01*
X91982690Y-28508785D01*
X91958500Y-28487014D01*
X91934309Y-28443471D01*
X92393928Y-28095128D02*
X92418119Y-28073357D01*
X92442309Y-28095128D01*
X92418119Y-28116900D01*
X92393928Y-28095128D01*
X92442309Y-28095128D01*
X92442309Y-27637928D02*
X92442309Y-27899185D01*
X92442309Y-27768557D02*
X91934309Y-27768557D01*
X92006880Y-27812100D01*
X92055261Y-27855642D01*
X92079452Y-27899185D01*
X92103642Y-27246042D02*
X92442309Y-27246042D01*
X92103642Y-27441985D02*
X92369738Y-27441985D01*
X92418119Y-27420214D01*
X92442309Y-27376671D01*
X92442309Y-27311357D01*
X92418119Y-27267814D01*
X92393928Y-27246042D01*
D17*
X90177642Y-33862571D02*
X90205461Y-33886761D01*
X90233280Y-33959333D01*
X90233280Y-34007714D01*
X90205461Y-34080285D01*
X90149823Y-34128666D01*
X90094185Y-34152857D01*
X89982909Y-34177047D01*
X89899452Y-34177047D01*
X89788176Y-34152857D01*
X89732538Y-34128666D01*
X89676900Y-34080285D01*
X89649080Y-34007714D01*
X89649080Y-33959333D01*
X89676900Y-33886761D01*
X89704719Y-33862571D01*
X89649080Y-33427142D02*
X89649080Y-33523904D01*
X89676900Y-33572285D01*
X89704719Y-33596476D01*
X89788176Y-33644857D01*
X89899452Y-33669047D01*
X90122004Y-33669047D01*
X90177642Y-33644857D01*
X90205461Y-33620666D01*
X90233280Y-33572285D01*
X90233280Y-33475523D01*
X90205461Y-33427142D01*
X90177642Y-33402952D01*
X90122004Y-33378761D01*
X89982909Y-33378761D01*
X89927271Y-33402952D01*
X89899452Y-33427142D01*
X89871633Y-33475523D01*
X89871633Y-33572285D01*
X89899452Y-33620666D01*
X89927271Y-33644857D01*
X89982909Y-33669047D01*
X89649080Y-33064285D02*
X89649080Y-33015904D01*
X89676900Y-32967523D01*
X89704719Y-32943333D01*
X89760357Y-32919142D01*
X89871633Y-32894952D01*
X90010728Y-32894952D01*
X90122004Y-32919142D01*
X90177642Y-32943333D01*
X90205461Y-32967523D01*
X90233280Y-33015904D01*
X90233280Y-33064285D01*
X90205461Y-33112666D01*
X90177642Y-33136857D01*
X90122004Y-33161047D01*
X90010728Y-33185238D01*
X89871633Y-33185238D01*
X89760357Y-33161047D01*
X89704719Y-33136857D01*
X89676900Y-33112666D01*
X89649080Y-33064285D01*
D18*
X87742809Y-34053171D02*
X87742809Y-34009628D01*
X87767000Y-33966085D01*
X87791190Y-33944314D01*
X87839571Y-33922542D01*
X87936333Y-33900771D01*
X88057285Y-33900771D01*
X88154047Y-33922542D01*
X88202428Y-33944314D01*
X88226619Y-33966085D01*
X88250809Y-34009628D01*
X88250809Y-34053171D01*
X88226619Y-34096714D01*
X88202428Y-34118485D01*
X88154047Y-34140257D01*
X88057285Y-34162028D01*
X87936333Y-34162028D01*
X87839571Y-34140257D01*
X87791190Y-34118485D01*
X87767000Y-34096714D01*
X87742809Y-34053171D01*
X88202428Y-33704828D02*
X88226619Y-33683057D01*
X88250809Y-33704828D01*
X88226619Y-33726600D01*
X88202428Y-33704828D01*
X88250809Y-33704828D01*
X88250809Y-33247628D02*
X88250809Y-33508885D01*
X88250809Y-33378257D02*
X87742809Y-33378257D01*
X87815380Y-33421800D01*
X87863761Y-33465342D01*
X87887952Y-33508885D01*
X87912142Y-32855742D02*
X88250809Y-32855742D01*
X87912142Y-33051685D02*
X88178238Y-33051685D01*
X88226619Y-33029914D01*
X88250809Y-32986371D01*
X88250809Y-32921057D01*
X88226619Y-32877514D01*
X88202428Y-32855742D01*
D17*
X88134428Y-57358642D02*
X88110238Y-57386461D01*
X88037666Y-57414280D01*
X87989285Y-57414280D01*
X87916714Y-57386461D01*
X87868333Y-57330823D01*
X87844142Y-57275185D01*
X87819952Y-57163909D01*
X87819952Y-57080452D01*
X87844142Y-56969176D01*
X87868333Y-56913538D01*
X87916714Y-56857900D01*
X87989285Y-56830080D01*
X88037666Y-56830080D01*
X88110238Y-56857900D01*
X88134428Y-56885719D01*
X88569857Y-56830080D02*
X88473095Y-56830080D01*
X88424714Y-56857900D01*
X88400523Y-56885719D01*
X88352142Y-56969176D01*
X88327952Y-57080452D01*
X88327952Y-57303004D01*
X88352142Y-57358642D01*
X88376333Y-57386461D01*
X88424714Y-57414280D01*
X88521476Y-57414280D01*
X88569857Y-57386461D01*
X88594047Y-57358642D01*
X88618238Y-57303004D01*
X88618238Y-57163909D01*
X88594047Y-57108271D01*
X88569857Y-57080452D01*
X88521476Y-57052633D01*
X88424714Y-57052633D01*
X88376333Y-57080452D01*
X88352142Y-57108271D01*
X88327952Y-57163909D01*
X89077857Y-56830080D02*
X88835952Y-56830080D01*
X88811761Y-57108271D01*
X88835952Y-57080452D01*
X88884333Y-57052633D01*
X89005285Y-57052633D01*
X89053666Y-57080452D01*
X89077857Y-57108271D01*
X89102047Y-57163909D01*
X89102047Y-57303004D01*
X89077857Y-57358642D01*
X89053666Y-57386461D01*
X89005285Y-57414280D01*
X88884333Y-57414280D01*
X88835952Y-57386461D01*
X88811761Y-57358642D01*
D18*
X87944828Y-55021809D02*
X87988371Y-55021809D01*
X88031914Y-55046000D01*
X88053685Y-55070190D01*
X88075457Y-55118571D01*
X88097228Y-55215333D01*
X88097228Y-55336285D01*
X88075457Y-55433047D01*
X88053685Y-55481428D01*
X88031914Y-55505619D01*
X87988371Y-55529809D01*
X87944828Y-55529809D01*
X87901285Y-55505619D01*
X87879514Y-55481428D01*
X87857742Y-55433047D01*
X87835971Y-55336285D01*
X87835971Y-55215333D01*
X87857742Y-55118571D01*
X87879514Y-55070190D01*
X87901285Y-55046000D01*
X87944828Y-55021809D01*
X88293171Y-55481428D02*
X88314942Y-55505619D01*
X88293171Y-55529809D01*
X88271400Y-55505619D01*
X88293171Y-55481428D01*
X88293171Y-55529809D01*
X88750371Y-55529809D02*
X88489114Y-55529809D01*
X88619742Y-55529809D02*
X88619742Y-55021809D01*
X88576200Y-55094380D01*
X88532657Y-55142761D01*
X88489114Y-55166952D01*
X89142257Y-55191142D02*
X89142257Y-55529809D01*
X88946314Y-55191142D02*
X88946314Y-55457238D01*
X88968085Y-55505619D01*
X89011628Y-55529809D01*
X89076942Y-55529809D01*
X89120485Y-55505619D01*
X89142257Y-55481428D01*
D17*
X117713428Y-43389842D02*
X117689238Y-43417661D01*
X117616666Y-43445480D01*
X117568285Y-43445480D01*
X117495714Y-43417661D01*
X117447333Y-43362023D01*
X117423142Y-43306385D01*
X117398952Y-43195109D01*
X117398952Y-43111652D01*
X117423142Y-43000376D01*
X117447333Y-42944738D01*
X117495714Y-42889100D01*
X117568285Y-42861280D01*
X117616666Y-42861280D01*
X117689238Y-42889100D01*
X117713428Y-42916919D01*
X118003714Y-43111652D02*
X117955333Y-43083833D01*
X117931142Y-43056014D01*
X117906952Y-43000376D01*
X117906952Y-42972557D01*
X117931142Y-42916919D01*
X117955333Y-42889100D01*
X118003714Y-42861280D01*
X118100476Y-42861280D01*
X118148857Y-42889100D01*
X118173047Y-42916919D01*
X118197238Y-42972557D01*
X118197238Y-43000376D01*
X118173047Y-43056014D01*
X118148857Y-43083833D01*
X118100476Y-43111652D01*
X118003714Y-43111652D01*
X117955333Y-43139471D01*
X117931142Y-43167290D01*
X117906952Y-43222928D01*
X117906952Y-43334204D01*
X117931142Y-43389842D01*
X117955333Y-43417661D01*
X118003714Y-43445480D01*
X118100476Y-43445480D01*
X118148857Y-43417661D01*
X118173047Y-43389842D01*
X118197238Y-43334204D01*
X118197238Y-43222928D01*
X118173047Y-43167290D01*
X118148857Y-43139471D01*
X118100476Y-43111652D01*
X118681047Y-43445480D02*
X118390761Y-43445480D01*
X118535904Y-43445480D02*
X118535904Y-42861280D01*
X118487523Y-42944738D01*
X118439142Y-43000376D01*
X118390761Y-43028195D01*
D18*
X117484828Y-44731809D02*
X117528371Y-44731809D01*
X117571914Y-44756000D01*
X117593685Y-44780190D01*
X117615457Y-44828571D01*
X117637228Y-44925333D01*
X117637228Y-45046285D01*
X117615457Y-45143047D01*
X117593685Y-45191428D01*
X117571914Y-45215619D01*
X117528371Y-45239809D01*
X117484828Y-45239809D01*
X117441285Y-45215619D01*
X117419514Y-45191428D01*
X117397742Y-45143047D01*
X117375971Y-45046285D01*
X117375971Y-44925333D01*
X117397742Y-44828571D01*
X117419514Y-44780190D01*
X117441285Y-44756000D01*
X117484828Y-44731809D01*
X117833171Y-45191428D02*
X117854942Y-45215619D01*
X117833171Y-45239809D01*
X117811400Y-45215619D01*
X117833171Y-45191428D01*
X117833171Y-45239809D01*
X118290371Y-45239809D02*
X118029114Y-45239809D01*
X118159742Y-45239809D02*
X118159742Y-44731809D01*
X118116200Y-44804380D01*
X118072657Y-44852761D01*
X118029114Y-44876952D01*
X118682257Y-44901142D02*
X118682257Y-45239809D01*
X118486314Y-44901142D02*
X118486314Y-45167238D01*
X118508085Y-45215619D01*
X118551628Y-45239809D01*
X118616942Y-45239809D01*
X118660485Y-45215619D01*
X118682257Y-45191428D01*
D17*
X36127428Y-29705642D02*
X36103238Y-29733461D01*
X36030666Y-29761280D01*
X35982285Y-29761280D01*
X35909714Y-29733461D01*
X35861333Y-29677823D01*
X35837142Y-29622185D01*
X35812952Y-29510909D01*
X35812952Y-29427452D01*
X35837142Y-29316176D01*
X35861333Y-29260538D01*
X35909714Y-29204900D01*
X35982285Y-29177080D01*
X36030666Y-29177080D01*
X36103238Y-29204900D01*
X36127428Y-29232719D01*
X36369333Y-29761280D02*
X36466095Y-29761280D01*
X36514476Y-29733461D01*
X36538666Y-29705642D01*
X36587047Y-29622185D01*
X36611238Y-29510909D01*
X36611238Y-29288357D01*
X36587047Y-29232719D01*
X36562857Y-29204900D01*
X36514476Y-29177080D01*
X36417714Y-29177080D01*
X36369333Y-29204900D01*
X36345142Y-29232719D01*
X36320952Y-29288357D01*
X36320952Y-29427452D01*
X36345142Y-29483090D01*
X36369333Y-29510909D01*
X36417714Y-29538728D01*
X36514476Y-29538728D01*
X36562857Y-29510909D01*
X36587047Y-29483090D01*
X36611238Y-29427452D01*
X36780571Y-29177080D02*
X37095047Y-29177080D01*
X36925714Y-29399633D01*
X36998285Y-29399633D01*
X37046666Y-29427452D01*
X37070857Y-29455271D01*
X37095047Y-29510909D01*
X37095047Y-29650004D01*
X37070857Y-29705642D01*
X37046666Y-29733461D01*
X36998285Y-29761280D01*
X36853142Y-29761280D01*
X36804761Y-29733461D01*
X36780571Y-29705642D01*
D18*
X36111085Y-31547809D02*
X35849828Y-31547809D01*
X35980457Y-31547809D02*
X35980457Y-31039809D01*
X35936914Y-31112380D01*
X35893371Y-31160761D01*
X35849828Y-31184952D01*
X36394114Y-31039809D02*
X36437657Y-31039809D01*
X36481200Y-31064000D01*
X36502971Y-31088190D01*
X36524742Y-31136571D01*
X36546514Y-31233333D01*
X36546514Y-31354285D01*
X36524742Y-31451047D01*
X36502971Y-31499428D01*
X36481200Y-31523619D01*
X36437657Y-31547809D01*
X36394114Y-31547809D01*
X36350571Y-31523619D01*
X36328800Y-31499428D01*
X36307028Y-31451047D01*
X36285257Y-31354285D01*
X36285257Y-31233333D01*
X36307028Y-31136571D01*
X36328800Y-31088190D01*
X36350571Y-31064000D01*
X36394114Y-31039809D01*
X36938400Y-31209142D02*
X36938400Y-31547809D01*
X36742457Y-31209142D02*
X36742457Y-31475238D01*
X36764228Y-31523619D01*
X36807771Y-31547809D01*
X36873085Y-31547809D01*
X36916628Y-31523619D01*
X36938400Y-31499428D01*
D17*
X51283428Y-65542642D02*
X51259238Y-65570461D01*
X51186666Y-65598280D01*
X51138285Y-65598280D01*
X51065714Y-65570461D01*
X51017333Y-65514823D01*
X50993142Y-65459185D01*
X50968952Y-65347909D01*
X50968952Y-65264452D01*
X50993142Y-65153176D01*
X51017333Y-65097538D01*
X51065714Y-65041900D01*
X51138285Y-65014080D01*
X51186666Y-65014080D01*
X51259238Y-65041900D01*
X51283428Y-65069719D01*
X51452761Y-65014080D02*
X51791428Y-65014080D01*
X51573714Y-65598280D01*
X52081714Y-65014080D02*
X52130095Y-65014080D01*
X52178476Y-65041900D01*
X52202666Y-65069719D01*
X52226857Y-65125357D01*
X52251047Y-65236633D01*
X52251047Y-65375728D01*
X52226857Y-65487004D01*
X52202666Y-65542642D01*
X52178476Y-65570461D01*
X52130095Y-65598280D01*
X52081714Y-65598280D01*
X52033333Y-65570461D01*
X52009142Y-65542642D01*
X51984952Y-65487004D01*
X51960761Y-65375728D01*
X51960761Y-65236633D01*
X51984952Y-65125357D01*
X52009142Y-65069719D01*
X52033333Y-65041900D01*
X52081714Y-65014080D01*
D18*
X51469085Y-63719809D02*
X51207828Y-63719809D01*
X51338457Y-63719809D02*
X51338457Y-63211809D01*
X51294914Y-63284380D01*
X51251371Y-63332761D01*
X51207828Y-63356952D01*
X51752114Y-63211809D02*
X51795657Y-63211809D01*
X51839200Y-63236000D01*
X51860971Y-63260190D01*
X51882742Y-63308571D01*
X51904514Y-63405333D01*
X51904514Y-63526285D01*
X51882742Y-63623047D01*
X51860971Y-63671428D01*
X51839200Y-63695619D01*
X51795657Y-63719809D01*
X51752114Y-63719809D01*
X51708571Y-63695619D01*
X51686800Y-63671428D01*
X51665028Y-63623047D01*
X51643257Y-63526285D01*
X51643257Y-63405333D01*
X51665028Y-63308571D01*
X51686800Y-63260190D01*
X51708571Y-63236000D01*
X51752114Y-63211809D01*
X52100457Y-63381142D02*
X52100457Y-63719809D01*
X52100457Y-63429523D02*
X52122228Y-63405333D01*
X52165771Y-63381142D01*
X52231085Y-63381142D01*
X52274628Y-63405333D01*
X52296400Y-63453714D01*
X52296400Y-63719809D01*
D17*
X28728428Y-54630642D02*
X28704238Y-54658461D01*
X28631666Y-54686280D01*
X28583285Y-54686280D01*
X28510714Y-54658461D01*
X28462333Y-54602823D01*
X28438142Y-54547185D01*
X28413952Y-54435909D01*
X28413952Y-54352452D01*
X28438142Y-54241176D01*
X28462333Y-54185538D01*
X28510714Y-54129900D01*
X28583285Y-54102080D01*
X28631666Y-54102080D01*
X28704238Y-54129900D01*
X28728428Y-54157719D01*
X28897761Y-54102080D02*
X29236428Y-54102080D01*
X29018714Y-54686280D01*
X29405761Y-54157719D02*
X29429952Y-54129900D01*
X29478333Y-54102080D01*
X29599285Y-54102080D01*
X29647666Y-54129900D01*
X29671857Y-54157719D01*
X29696047Y-54213357D01*
X29696047Y-54268995D01*
X29671857Y-54352452D01*
X29381571Y-54686280D01*
X29696047Y-54686280D01*
D18*
X28589128Y-52197309D02*
X28632671Y-52197309D01*
X28676214Y-52221500D01*
X28697985Y-52245690D01*
X28719757Y-52294071D01*
X28741528Y-52390833D01*
X28741528Y-52511785D01*
X28719757Y-52608547D01*
X28697985Y-52656928D01*
X28676214Y-52681119D01*
X28632671Y-52705309D01*
X28589128Y-52705309D01*
X28545585Y-52681119D01*
X28523814Y-52656928D01*
X28502042Y-52608547D01*
X28480271Y-52511785D01*
X28480271Y-52390833D01*
X28502042Y-52294071D01*
X28523814Y-52245690D01*
X28545585Y-52221500D01*
X28589128Y-52197309D01*
X28937471Y-52656928D02*
X28959242Y-52681119D01*
X28937471Y-52705309D01*
X28915700Y-52681119D01*
X28937471Y-52656928D01*
X28937471Y-52705309D01*
X29394671Y-52705309D02*
X29133414Y-52705309D01*
X29264042Y-52705309D02*
X29264042Y-52197309D01*
X29220500Y-52269880D01*
X29176957Y-52318261D01*
X29133414Y-52342452D01*
X29786557Y-52366642D02*
X29786557Y-52705309D01*
X29590614Y-52366642D02*
X29590614Y-52632738D01*
X29612385Y-52681119D01*
X29655928Y-52705309D01*
X29721242Y-52705309D01*
X29764785Y-52681119D01*
X29786557Y-52656928D01*
D17*
X44128428Y-62341642D02*
X44104238Y-62369461D01*
X44031666Y-62397280D01*
X43983285Y-62397280D01*
X43910714Y-62369461D01*
X43862333Y-62313823D01*
X43838142Y-62258185D01*
X43813952Y-62146909D01*
X43813952Y-62063452D01*
X43838142Y-61952176D01*
X43862333Y-61896538D01*
X43910714Y-61840900D01*
X43983285Y-61813080D01*
X44031666Y-61813080D01*
X44104238Y-61840900D01*
X44128428Y-61868719D01*
X44297761Y-61813080D02*
X44636428Y-61813080D01*
X44418714Y-62397280D01*
X45047666Y-61813080D02*
X44950904Y-61813080D01*
X44902523Y-61840900D01*
X44878333Y-61868719D01*
X44829952Y-61952176D01*
X44805761Y-62063452D01*
X44805761Y-62286004D01*
X44829952Y-62341642D01*
X44854142Y-62369461D01*
X44902523Y-62397280D01*
X44999285Y-62397280D01*
X45047666Y-62369461D01*
X45071857Y-62341642D01*
X45096047Y-62286004D01*
X45096047Y-62146909D01*
X45071857Y-62091271D01*
X45047666Y-62063452D01*
X44999285Y-62035633D01*
X44902523Y-62035633D01*
X44854142Y-62063452D01*
X44829952Y-62091271D01*
X44805761Y-62146909D01*
D18*
X45670628Y-60973009D02*
X45714171Y-60973009D01*
X45757714Y-60997200D01*
X45779485Y-61021390D01*
X45801257Y-61069771D01*
X45823028Y-61166533D01*
X45823028Y-61287485D01*
X45801257Y-61384247D01*
X45779485Y-61432628D01*
X45757714Y-61456819D01*
X45714171Y-61481009D01*
X45670628Y-61481009D01*
X45627085Y-61456819D01*
X45605314Y-61432628D01*
X45583542Y-61384247D01*
X45561771Y-61287485D01*
X45561771Y-61166533D01*
X45583542Y-61069771D01*
X45605314Y-61021390D01*
X45627085Y-60997200D01*
X45670628Y-60973009D01*
X46018971Y-61432628D02*
X46040742Y-61456819D01*
X46018971Y-61481009D01*
X45997200Y-61456819D01*
X46018971Y-61432628D01*
X46018971Y-61481009D01*
X46476171Y-61481009D02*
X46214914Y-61481009D01*
X46345542Y-61481009D02*
X46345542Y-60973009D01*
X46302000Y-61045580D01*
X46258457Y-61093961D01*
X46214914Y-61118152D01*
X46868057Y-61142342D02*
X46868057Y-61481009D01*
X46672114Y-61142342D02*
X46672114Y-61408438D01*
X46693885Y-61456819D01*
X46737428Y-61481009D01*
X46802742Y-61481009D01*
X46846285Y-61456819D01*
X46868057Y-61432628D01*
D17*
X51392523Y-60536642D02*
X51368333Y-60564461D01*
X51295761Y-60592280D01*
X51247380Y-60592280D01*
X51174809Y-60564461D01*
X51126428Y-60508823D01*
X51102238Y-60453185D01*
X51078047Y-60341909D01*
X51078047Y-60258452D01*
X51102238Y-60147176D01*
X51126428Y-60091538D01*
X51174809Y-60035900D01*
X51247380Y-60008080D01*
X51295761Y-60008080D01*
X51368333Y-60035900D01*
X51392523Y-60063719D01*
X51876333Y-60592280D02*
X51586047Y-60592280D01*
X51731190Y-60592280D02*
X51731190Y-60008080D01*
X51682809Y-60091538D01*
X51634428Y-60147176D01*
X51586047Y-60174995D01*
X52190809Y-60008080D02*
X52239190Y-60008080D01*
X52287571Y-60035900D01*
X52311761Y-60063719D01*
X52335952Y-60119357D01*
X52360142Y-60230633D01*
X52360142Y-60369728D01*
X52335952Y-60481004D01*
X52311761Y-60536642D01*
X52287571Y-60564461D01*
X52239190Y-60592280D01*
X52190809Y-60592280D01*
X52142428Y-60564461D01*
X52118238Y-60536642D01*
X52094047Y-60481004D01*
X52069857Y-60369728D01*
X52069857Y-60230633D01*
X52094047Y-60119357D01*
X52118238Y-60063719D01*
X52142428Y-60035900D01*
X52190809Y-60008080D01*
X52674619Y-60008080D02*
X52723000Y-60008080D01*
X52771380Y-60035900D01*
X52795571Y-60063719D01*
X52819761Y-60119357D01*
X52843952Y-60230633D01*
X52843952Y-60369728D01*
X52819761Y-60481004D01*
X52795571Y-60536642D01*
X52771380Y-60564461D01*
X52723000Y-60592280D01*
X52674619Y-60592280D01*
X52626238Y-60564461D01*
X52602047Y-60536642D01*
X52577857Y-60481004D01*
X52553666Y-60369728D01*
X52553666Y-60230633D01*
X52577857Y-60119357D01*
X52602047Y-60063719D01*
X52626238Y-60035900D01*
X52674619Y-60008080D01*
D18*
X49429828Y-60947609D02*
X49473371Y-60947609D01*
X49516914Y-60971800D01*
X49538685Y-60995990D01*
X49560457Y-61044371D01*
X49582228Y-61141133D01*
X49582228Y-61262085D01*
X49560457Y-61358847D01*
X49538685Y-61407228D01*
X49516914Y-61431419D01*
X49473371Y-61455609D01*
X49429828Y-61455609D01*
X49386285Y-61431419D01*
X49364514Y-61407228D01*
X49342742Y-61358847D01*
X49320971Y-61262085D01*
X49320971Y-61141133D01*
X49342742Y-61044371D01*
X49364514Y-60995990D01*
X49386285Y-60971800D01*
X49429828Y-60947609D01*
X49778171Y-61407228D02*
X49799942Y-61431419D01*
X49778171Y-61455609D01*
X49756400Y-61431419D01*
X49778171Y-61407228D01*
X49778171Y-61455609D01*
X50235371Y-61455609D02*
X49974114Y-61455609D01*
X50104742Y-61455609D02*
X50104742Y-60947609D01*
X50061200Y-61020180D01*
X50017657Y-61068561D01*
X49974114Y-61092752D01*
X50627257Y-61116942D02*
X50627257Y-61455609D01*
X50431314Y-61116942D02*
X50431314Y-61383038D01*
X50453085Y-61431419D01*
X50496628Y-61455609D01*
X50561942Y-61455609D01*
X50605485Y-61431419D01*
X50627257Y-61407228D01*
D17*
X41390123Y-63542642D02*
X41365933Y-63570461D01*
X41293361Y-63598280D01*
X41244980Y-63598280D01*
X41172409Y-63570461D01*
X41124028Y-63514823D01*
X41099838Y-63459185D01*
X41075647Y-63347909D01*
X41075647Y-63264452D01*
X41099838Y-63153176D01*
X41124028Y-63097538D01*
X41172409Y-63041900D01*
X41244980Y-63014080D01*
X41293361Y-63014080D01*
X41365933Y-63041900D01*
X41390123Y-63069719D01*
X41873933Y-63598280D02*
X41583647Y-63598280D01*
X41728790Y-63598280D02*
X41728790Y-63014080D01*
X41680409Y-63097538D01*
X41632028Y-63153176D01*
X41583647Y-63180995D01*
X42188409Y-63014080D02*
X42236790Y-63014080D01*
X42285171Y-63041900D01*
X42309361Y-63069719D01*
X42333552Y-63125357D01*
X42357742Y-63236633D01*
X42357742Y-63375728D01*
X42333552Y-63487004D01*
X42309361Y-63542642D01*
X42285171Y-63570461D01*
X42236790Y-63598280D01*
X42188409Y-63598280D01*
X42140028Y-63570461D01*
X42115838Y-63542642D01*
X42091647Y-63487004D01*
X42067457Y-63375728D01*
X42067457Y-63236633D01*
X42091647Y-63125357D01*
X42115838Y-63069719D01*
X42140028Y-63041900D01*
X42188409Y-63014080D01*
X42527076Y-63014080D02*
X42841552Y-63014080D01*
X42672219Y-63236633D01*
X42744790Y-63236633D01*
X42793171Y-63264452D01*
X42817361Y-63292271D01*
X42841552Y-63347909D01*
X42841552Y-63487004D01*
X42817361Y-63542642D01*
X42793171Y-63570461D01*
X42744790Y-63598280D01*
X42599647Y-63598280D01*
X42551266Y-63570461D01*
X42527076Y-63542642D01*
D18*
X41403428Y-61227009D02*
X41446971Y-61227009D01*
X41490514Y-61251200D01*
X41512285Y-61275390D01*
X41534057Y-61323771D01*
X41555828Y-61420533D01*
X41555828Y-61541485D01*
X41534057Y-61638247D01*
X41512285Y-61686628D01*
X41490514Y-61710819D01*
X41446971Y-61735009D01*
X41403428Y-61735009D01*
X41359885Y-61710819D01*
X41338114Y-61686628D01*
X41316342Y-61638247D01*
X41294571Y-61541485D01*
X41294571Y-61420533D01*
X41316342Y-61323771D01*
X41338114Y-61275390D01*
X41359885Y-61251200D01*
X41403428Y-61227009D01*
X41751771Y-61686628D02*
X41773542Y-61710819D01*
X41751771Y-61735009D01*
X41730000Y-61710819D01*
X41751771Y-61686628D01*
X41751771Y-61735009D01*
X42208971Y-61735009D02*
X41947714Y-61735009D01*
X42078342Y-61735009D02*
X42078342Y-61227009D01*
X42034800Y-61299580D01*
X41991257Y-61347961D01*
X41947714Y-61372152D01*
X42600857Y-61396342D02*
X42600857Y-61735009D01*
X42404914Y-61396342D02*
X42404914Y-61662438D01*
X42426685Y-61710819D01*
X42470228Y-61735009D01*
X42535542Y-61735009D01*
X42579085Y-61710819D01*
X42600857Y-61686628D01*
D17*
X36259323Y-55770242D02*
X36235133Y-55798061D01*
X36162561Y-55825880D01*
X36114180Y-55825880D01*
X36041609Y-55798061D01*
X35993228Y-55742423D01*
X35969038Y-55686785D01*
X35944847Y-55575509D01*
X35944847Y-55492052D01*
X35969038Y-55380776D01*
X35993228Y-55325138D01*
X36041609Y-55269500D01*
X36114180Y-55241680D01*
X36162561Y-55241680D01*
X36235133Y-55269500D01*
X36259323Y-55297319D01*
X36743133Y-55825880D02*
X36452847Y-55825880D01*
X36597990Y-55825880D02*
X36597990Y-55241680D01*
X36549609Y-55325138D01*
X36501228Y-55380776D01*
X36452847Y-55408595D01*
X37057609Y-55241680D02*
X37105990Y-55241680D01*
X37154371Y-55269500D01*
X37178561Y-55297319D01*
X37202752Y-55352957D01*
X37226942Y-55464233D01*
X37226942Y-55603328D01*
X37202752Y-55714604D01*
X37178561Y-55770242D01*
X37154371Y-55798061D01*
X37105990Y-55825880D01*
X37057609Y-55825880D01*
X37009228Y-55798061D01*
X36985038Y-55770242D01*
X36960847Y-55714604D01*
X36936657Y-55603328D01*
X36936657Y-55464233D01*
X36960847Y-55352957D01*
X36985038Y-55297319D01*
X37009228Y-55269500D01*
X37057609Y-55241680D01*
X37662371Y-55241680D02*
X37565609Y-55241680D01*
X37517228Y-55269500D01*
X37493038Y-55297319D01*
X37444657Y-55380776D01*
X37420466Y-55492052D01*
X37420466Y-55714604D01*
X37444657Y-55770242D01*
X37468847Y-55798061D01*
X37517228Y-55825880D01*
X37613990Y-55825880D01*
X37662371Y-55798061D01*
X37686561Y-55770242D01*
X37710752Y-55714604D01*
X37710752Y-55575509D01*
X37686561Y-55519871D01*
X37662371Y-55492052D01*
X37613990Y-55464233D01*
X37517228Y-55464233D01*
X37468847Y-55492052D01*
X37444657Y-55519871D01*
X37420466Y-55575509D01*
D18*
X36533885Y-57620209D02*
X36272628Y-57620209D01*
X36403257Y-57620209D02*
X36403257Y-57112209D01*
X36359714Y-57184780D01*
X36316171Y-57233161D01*
X36272628Y-57257352D01*
X36816914Y-57112209D02*
X36860457Y-57112209D01*
X36904000Y-57136400D01*
X36925771Y-57160590D01*
X36947542Y-57208971D01*
X36969314Y-57305733D01*
X36969314Y-57426685D01*
X36947542Y-57523447D01*
X36925771Y-57571828D01*
X36904000Y-57596019D01*
X36860457Y-57620209D01*
X36816914Y-57620209D01*
X36773371Y-57596019D01*
X36751600Y-57571828D01*
X36729828Y-57523447D01*
X36708057Y-57426685D01*
X36708057Y-57305733D01*
X36729828Y-57208971D01*
X36751600Y-57160590D01*
X36773371Y-57136400D01*
X36816914Y-57112209D01*
X37165257Y-57281542D02*
X37165257Y-57620209D01*
X37165257Y-57329923D02*
X37187028Y-57305733D01*
X37230571Y-57281542D01*
X37295885Y-57281542D01*
X37339428Y-57305733D01*
X37361200Y-57354114D01*
X37361200Y-57620209D01*
D11*
X124405666Y-79348380D02*
X124405666Y-80062666D01*
X124358047Y-80205523D01*
X124262809Y-80300761D01*
X124119952Y-80348380D01*
X124024714Y-80348380D01*
X125310428Y-79348380D02*
X125119952Y-79348380D01*
X125024714Y-79396000D01*
X124977095Y-79443619D01*
X124881857Y-79586476D01*
X124834238Y-79776952D01*
X124834238Y-80157904D01*
X124881857Y-80253142D01*
X124929476Y-80300761D01*
X125024714Y-80348380D01*
X125215190Y-80348380D01*
X125310428Y-80300761D01*
X125358047Y-80253142D01*
X125405666Y-80157904D01*
X125405666Y-79919809D01*
X125358047Y-79824571D01*
X125310428Y-79776952D01*
X125215190Y-79729333D01*
X125024714Y-79729333D01*
X124929476Y-79776952D01*
X124881857Y-79824571D01*
X124834238Y-79919809D01*
X22647761Y-39575333D02*
X22695380Y-39432476D01*
X22695380Y-39194380D01*
X22647761Y-39099142D01*
X22600142Y-39051523D01*
X22504904Y-39003904D01*
X22409666Y-39003904D01*
X22314428Y-39051523D01*
X22266809Y-39099142D01*
X22219190Y-39194380D01*
X22171571Y-39384857D01*
X22123952Y-39480095D01*
X22076333Y-39527714D01*
X21981095Y-39575333D01*
X21885857Y-39575333D01*
X21790619Y-39527714D01*
X21743000Y-39480095D01*
X21695380Y-39384857D01*
X21695380Y-39146761D01*
X21743000Y-39003904D01*
X21695380Y-38670571D02*
X22695380Y-38432476D01*
X21981095Y-38242000D01*
X22695380Y-38051523D01*
X21695380Y-37813428D01*
X22695380Y-36908666D02*
X22695380Y-37480095D01*
X22695380Y-37194380D02*
X21695380Y-37194380D01*
X21838238Y-37289619D01*
X21933476Y-37384857D01*
X21981095Y-37480095D01*
X42371714Y-23558380D02*
X42371714Y-22558380D01*
X42609809Y-22558380D01*
X42752666Y-22606000D01*
X42847904Y-22701238D01*
X42895523Y-22796476D01*
X42943142Y-22986952D01*
X42943142Y-23129809D01*
X42895523Y-23320285D01*
X42847904Y-23415523D01*
X42752666Y-23510761D01*
X42609809Y-23558380D01*
X42371714Y-23558380D01*
X43324095Y-23510761D02*
X43466952Y-23558380D01*
X43705047Y-23558380D01*
X43800285Y-23510761D01*
X43847904Y-23463142D01*
X43895523Y-23367904D01*
X43895523Y-23272666D01*
X43847904Y-23177428D01*
X43800285Y-23129809D01*
X43705047Y-23082190D01*
X43514571Y-23034571D01*
X43419333Y-22986952D01*
X43371714Y-22939333D01*
X43324095Y-22844095D01*
X43324095Y-22748857D01*
X43371714Y-22653619D01*
X43419333Y-22606000D01*
X43514571Y-22558380D01*
X43752666Y-22558380D01*
X43895523Y-22606000D01*
X44847904Y-23558380D02*
X44276476Y-23558380D01*
X44562190Y-23558380D02*
X44562190Y-22558380D01*
X44466952Y-22701238D01*
X44371714Y-22796476D01*
X44276476Y-22844095D01*
X23810095Y-23301380D02*
X23810095Y-22301380D01*
X24381523Y-23301380D02*
X23952952Y-22729952D01*
X24381523Y-22301380D02*
X23810095Y-22872809D01*
X62432904Y-22992666D02*
X62909095Y-22992666D01*
X62337666Y-23278380D02*
X62671000Y-22278380D01*
X63004333Y-23278380D01*
D17*
X114438642Y-63468476D02*
X114466461Y-63492666D01*
X114494280Y-63565238D01*
X114494280Y-63613619D01*
X114466461Y-63686190D01*
X114410823Y-63734571D01*
X114355185Y-63758761D01*
X114243909Y-63782952D01*
X114160452Y-63782952D01*
X114049176Y-63758761D01*
X113993538Y-63734571D01*
X113937900Y-63686190D01*
X113910080Y-63613619D01*
X113910080Y-63565238D01*
X113937900Y-63492666D01*
X113965719Y-63468476D01*
X114494280Y-62984666D02*
X114494280Y-63274952D01*
X114494280Y-63129809D02*
X113910080Y-63129809D01*
X113993538Y-63178190D01*
X114049176Y-63226571D01*
X114076995Y-63274952D01*
X114494280Y-62500857D02*
X114494280Y-62791142D01*
X114494280Y-62646000D02*
X113910080Y-62646000D01*
X113993538Y-62694380D01*
X114049176Y-62742761D01*
X114076995Y-62791142D01*
X114494280Y-62258952D02*
X114494280Y-62162190D01*
X114466461Y-62113809D01*
X114438642Y-62089619D01*
X114355185Y-62041238D01*
X114243909Y-62017047D01*
X114021357Y-62017047D01*
X113965719Y-62041238D01*
X113937900Y-62065428D01*
X113910080Y-62113809D01*
X113910080Y-62210571D01*
X113937900Y-62258952D01*
X113965719Y-62283142D01*
X114021357Y-62307333D01*
X114160452Y-62307333D01*
X114216090Y-62283142D01*
X114243909Y-62258952D01*
X114271728Y-62210571D01*
X114271728Y-62113809D01*
X114243909Y-62065428D01*
X114216090Y-62041238D01*
X114160452Y-62017047D01*
D18*
X112180190Y-65014028D02*
X112156000Y-64992257D01*
X112131809Y-64948714D01*
X112131809Y-64839857D01*
X112156000Y-64796314D01*
X112180190Y-64774542D01*
X112228571Y-64752771D01*
X112276952Y-64752771D01*
X112349523Y-64774542D01*
X112639809Y-65035800D01*
X112639809Y-64752771D01*
X112591428Y-64556828D02*
X112615619Y-64535057D01*
X112639809Y-64556828D01*
X112615619Y-64578600D01*
X112591428Y-64556828D01*
X112639809Y-64556828D01*
X112180190Y-64360885D02*
X112156000Y-64339114D01*
X112131809Y-64295571D01*
X112131809Y-64186714D01*
X112156000Y-64143171D01*
X112180190Y-64121400D01*
X112228571Y-64099628D01*
X112276952Y-64099628D01*
X112349523Y-64121400D01*
X112639809Y-64382657D01*
X112639809Y-64099628D01*
X112301142Y-63707742D02*
X112639809Y-63707742D01*
X112301142Y-63903685D02*
X112567238Y-63903685D01*
X112615619Y-63881914D01*
X112639809Y-63838371D01*
X112639809Y-63773057D01*
X112615619Y-63729514D01*
X112591428Y-63707742D01*
D17*
X108298642Y-63058476D02*
X108326461Y-63082666D01*
X108354280Y-63155238D01*
X108354280Y-63203619D01*
X108326461Y-63276190D01*
X108270823Y-63324571D01*
X108215185Y-63348761D01*
X108103909Y-63372952D01*
X108020452Y-63372952D01*
X107909176Y-63348761D01*
X107853538Y-63324571D01*
X107797900Y-63276190D01*
X107770080Y-63203619D01*
X107770080Y-63155238D01*
X107797900Y-63082666D01*
X107825719Y-63058476D01*
X108354280Y-62574666D02*
X108354280Y-62864952D01*
X108354280Y-62719809D02*
X107770080Y-62719809D01*
X107853538Y-62768190D01*
X107909176Y-62816571D01*
X107936995Y-62864952D01*
X107825719Y-62381142D02*
X107797900Y-62356952D01*
X107770080Y-62308571D01*
X107770080Y-62187619D01*
X107797900Y-62139238D01*
X107825719Y-62115047D01*
X107881357Y-62090857D01*
X107936995Y-62090857D01*
X108020452Y-62115047D01*
X108354280Y-62405333D01*
X108354280Y-62090857D01*
X107770080Y-61776380D02*
X107770080Y-61728000D01*
X107797900Y-61679619D01*
X107825719Y-61655428D01*
X107881357Y-61631238D01*
X107992633Y-61607047D01*
X108131728Y-61607047D01*
X108243004Y-61631238D01*
X108298642Y-61655428D01*
X108326461Y-61679619D01*
X108354280Y-61728000D01*
X108354280Y-61776380D01*
X108326461Y-61824761D01*
X108298642Y-61848952D01*
X108243004Y-61873142D01*
X108131728Y-61897333D01*
X107992633Y-61897333D01*
X107881357Y-61873142D01*
X107825719Y-61848952D01*
X107797900Y-61824761D01*
X107770080Y-61776380D01*
D18*
X108805190Y-65023028D02*
X108781000Y-65001257D01*
X108756809Y-64957714D01*
X108756809Y-64848857D01*
X108781000Y-64805314D01*
X108805190Y-64783542D01*
X108853571Y-64761771D01*
X108901952Y-64761771D01*
X108974523Y-64783542D01*
X109264809Y-65044800D01*
X109264809Y-64761771D01*
X109216428Y-64565828D02*
X109240619Y-64544057D01*
X109264809Y-64565828D01*
X109240619Y-64587600D01*
X109216428Y-64565828D01*
X109264809Y-64565828D01*
X108805190Y-64369885D02*
X108781000Y-64348114D01*
X108756809Y-64304571D01*
X108756809Y-64195714D01*
X108781000Y-64152171D01*
X108805190Y-64130400D01*
X108853571Y-64108628D01*
X108901952Y-64108628D01*
X108974523Y-64130400D01*
X109264809Y-64391657D01*
X109264809Y-64108628D01*
X108926142Y-63716742D02*
X109264809Y-63716742D01*
X108926142Y-63912685D02*
X109192238Y-63912685D01*
X109240619Y-63890914D01*
X109264809Y-63847371D01*
X109264809Y-63782057D01*
X109240619Y-63738514D01*
X109216428Y-63716742D01*
D11*
X128761926Y-29942540D02*
X128761926Y-30656826D01*
X128714307Y-30799683D01*
X128619069Y-30894921D01*
X128476212Y-30942540D01*
X128380974Y-30942540D01*
X129142879Y-29942540D02*
X129809545Y-29942540D01*
X129380974Y-30942540D01*
X89227380Y-45461904D02*
X90036904Y-45461904D01*
X90132142Y-45414285D01*
X90179761Y-45366666D01*
X90227380Y-45271428D01*
X90227380Y-45080952D01*
X90179761Y-44985714D01*
X90132142Y-44938095D01*
X90036904Y-44890476D01*
X89227380Y-44890476D01*
X89322619Y-44461904D02*
X89275000Y-44414285D01*
X89227380Y-44319047D01*
X89227380Y-44080952D01*
X89275000Y-43985714D01*
X89322619Y-43938095D01*
X89417857Y-43890476D01*
X89513095Y-43890476D01*
X89655952Y-43938095D01*
X90227380Y-44509523D01*
X90227380Y-43890476D01*
X36622380Y-53796904D02*
X37431904Y-53796904D01*
X37527142Y-53749285D01*
X37574761Y-53701666D01*
X37622380Y-53606428D01*
X37622380Y-53415952D01*
X37574761Y-53320714D01*
X37527142Y-53273095D01*
X37431904Y-53225476D01*
X36622380Y-53225476D01*
X37622380Y-52225476D02*
X37622380Y-52796904D01*
X37622380Y-52511190D02*
X36622380Y-52511190D01*
X36765238Y-52606428D01*
X36860476Y-52701666D01*
X36908095Y-52796904D01*
X126306666Y-44312380D02*
X126306666Y-45026666D01*
X126259047Y-45169523D01*
X126163809Y-45264761D01*
X126020952Y-45312380D01*
X125925714Y-45312380D01*
X127211428Y-44645714D02*
X127211428Y-45312380D01*
X126973333Y-44264761D02*
X126735238Y-44979047D01*
X127354285Y-44979047D01*
X119371904Y-55802380D02*
X119371904Y-54802380D01*
X119610000Y-54802380D01*
X119752857Y-54850000D01*
X119848095Y-54945238D01*
X119895714Y-55040476D01*
X119943333Y-55230952D01*
X119943333Y-55373809D01*
X119895714Y-55564285D01*
X119848095Y-55659523D01*
X119752857Y-55754761D01*
X119610000Y-55802380D01*
X119371904Y-55802380D01*
X120276666Y-54802380D02*
X120943333Y-54802380D01*
X120514761Y-55802380D01*
X119391904Y-48812380D02*
X119391904Y-47812380D01*
X119630000Y-47812380D01*
X119772857Y-47860000D01*
X119868095Y-47955238D01*
X119915714Y-48050476D01*
X119963333Y-48240952D01*
X119963333Y-48383809D01*
X119915714Y-48574285D01*
X119868095Y-48669523D01*
X119772857Y-48764761D01*
X119630000Y-48812380D01*
X119391904Y-48812380D01*
X120820476Y-47812380D02*
X120630000Y-47812380D01*
X120534761Y-47860000D01*
X120487142Y-47907619D01*
X120391904Y-48050476D01*
X120344285Y-48240952D01*
X120344285Y-48621904D01*
X120391904Y-48717142D01*
X120439523Y-48764761D01*
X120534761Y-48812380D01*
X120725238Y-48812380D01*
X120820476Y-48764761D01*
X120868095Y-48717142D01*
X120915714Y-48621904D01*
X120915714Y-48383809D01*
X120868095Y-48288571D01*
X120820476Y-48240952D01*
X120725238Y-48193333D01*
X120534761Y-48193333D01*
X120439523Y-48240952D01*
X120391904Y-48288571D01*
X120344285Y-48383809D01*
X101238770Y-69757430D02*
X101714960Y-69757430D01*
X100714960Y-70090763D02*
X101238770Y-69757430D01*
X100714960Y-69424097D01*
X100810199Y-69138382D02*
X100762580Y-69090763D01*
X100714960Y-68995525D01*
X100714960Y-68757430D01*
X100762580Y-68662192D01*
X100810199Y-68614573D01*
X100905437Y-68566954D01*
X101000675Y-68566954D01*
X101143532Y-68614573D01*
X101714960Y-69186001D01*
X101714960Y-68566954D01*
M02*
