M48
; DRILL file {KiCad 5.1.7+dfsg1-1} date Mon Jan 11 18:10:19 2021
; FORMAT={-:-/ absolute / inch / decimal}
; #@! TF.CreationDate,2021-01-11T18:10:19+02:00
; #@! TF.GenerationSoftware,Kicad,Pcbnew,5.1.7+dfsg1-1
FMAT,2
INCH
T1C0.0130
T2C0.0138
T3C0.0197
T4C0.0236
T5C0.0393
T6C0.0394
T7C0.0433
T8C0.0472
T9C0.0512
T10C0.0531
T11C0.0669
T12C0.0787
T13C0.0827
T14C0.0906
T15C0.0984
T16C0.1200
T17C0.1260
%
G90
G05
T1
X0.3544Y-0.7169
X0.3544Y-0.9168
X0.3544Y-1.0833
X0.3544Y-1.4164
X0.3544Y-1.6162
X0.3544Y-1.7828
X0.3544Y-1.9826
X0.3544Y-2.1492
X0.3544Y-2.3157
X0.3544Y-2.4822
X0.3544Y-2.6488
X0.3544Y-2.8153
X0.3544Y-2.9818
X0.3544Y-3.1484
X0.4544Y-1.6829
X0.4544Y-2.0492
X0.4544Y-2.2158
X0.4544Y-2.3823
X0.4544Y-2.5488
X0.4544Y-2.7154
X0.4544Y-3.0484
X0.4877Y-0.9501
X0.4877Y-1.1166
X0.4877Y-2.8486
X0.521Y-0.7169
X0.521Y-1.2499
X0.521Y-1.4164
X0.521Y-1.8494
X0.521Y-3.1484
X0.5543Y-0.8502
X0.5543Y-1.6162
X0.5543Y-2.6155
X0.5543Y-2.9485
X0.5543Y-3.2816
X0.5876Y-1.0167
X0.6209Y-1.9826
X0.6542Y-3.0151
X0.6542Y-3.1817
X0.6875Y-2.6488
X0.6875Y-3.3149
X0.6957Y-2.0319
X0.7208Y-1.05
X0.748Y-1.9689
X0.7541Y-2.5488
X0.7541Y-2.9152
X0.7541Y-3.0818
X0.7874Y-1.7162
X0.8207Y-0.9834
X0.8207Y-1.2499
X0.8207Y-1.8494
X0.8207Y-2.6821
X0.8541Y-2.1158
X0.8541Y-2.8153
X0.8874Y-2.2491
X0.8874Y-2.5155
X0.8874Y-3.0484
X0.9207Y-1.4497
X0.9207Y-1.6495
X0.9449Y-0.9469
X0.954Y-0.8835
X0.954Y-1.2832
X0.954Y-2.6155
X0.9572Y-1.2083
X0.9873Y-2.1825
X0.9873Y-2.7487
X1.0206Y-2.9152
X1.0539Y-1.483
X1.0539Y-2.5488
X1.0872Y-2.6821
X1.1205Y-1.6829
X1.1205Y-2.1492
X1.1205Y-2.9818
X1.1538Y-1.05
X1.1538Y-1.4164
X1.1538Y-2.8486
X1.1871Y-1.5496
X1.1871Y-2.5821
X1.2537Y-1.9493
X1.2537Y-2.3157
X1.2537Y-2.782
X1.287Y-1.0167
X1.287Y-2.4489
X1.287Y-2.9152
X1.287Y-3.1817
X1.3203Y-2.6821
X1.39Y-1.78
X1.4203Y-1.3831
X1.4203Y-1.6495
X1.4203Y-2.5821
X1.4203Y-2.7487
X1.4203Y-2.9818
X1.422Y-2.165
X1.4536Y-2.4489
X1.46Y-2.15
X1.4756Y-1.9191
X1.48Y-1.78
X1.5202Y-2.2824
X1.5202Y-3.1484
X1.5274Y-1.1305
X1.5535Y-2.5488
X1.5535Y-2.782
X1.6067Y-1.165
X1.6534Y-2.6155
X1.6534Y-2.8486
X1.6624Y-2.215
X1.6929Y-2.3505
X1.6946Y-1.296
X1.7172Y-1.3245
X1.72Y-2.7154
X1.7537Y-2.353
X1.7952Y-1.3937
X1.82Y-2.6155
X1.835Y-1.4217
X1.8481Y-1.3534
X1.8769Y-2.3485
X1.9159Y-2.3615
X1.9176Y-2.6093
X1.9199Y-3.2816
X1.9532Y-3.1484
X1.9668Y-2.5948
X1.9865Y-2.6488
X2.0198Y-2.9818
X2.06Y-1.99
X2.0794Y-1.3933
X2.1076Y-1.3531
X2.1197Y-3.1817
X2.1249Y-0.9063
X2.153Y-1.05
X2.1863Y-0.8835
X2.1863Y-1.6495
X2.1863Y-2.4489
X2.1909Y-1.2065
X2.2196Y-2.8819
X2.2587Y-1.4304
X2.2863Y-2.6155
X2.3529Y-2.7154
X2.3529Y-3.0151
X2.3862Y-2.8486
X2.4528Y-3.2816
X2.4861Y-0.8835
X2.4861Y-2.6155
X2.5194Y-2.7487
X2.53Y-1.0788
X2.5346Y-1.2503
X2.5347Y-1.6763
X2.586Y-2.8486
X2.586Y-3.1151
X2.6184Y-1.021
X2.6193Y-2.9818
X2.6526Y-2.6155
X2.6854Y-1.0215
X2.6859Y-2.7487
X2.7192Y-3.0484
X2.7204Y-1.0815
X2.7499Y-1.0235
X2.7526Y-2.8486
X2.7859Y-1.6495
X2.7859Y-1.8161
X2.7914Y-1.0505
X2.8192Y-2.6155
X2.8192Y-3.1151
X2.8525Y-2.7487
X2.8972Y-1.2065
X2.9074Y-1.0855
X2.9524Y-3.1817
X2.9857Y-1.2166
X2.9857Y-2.6155
X2.9857Y-2.782
X3.019Y-0.8835
X3.043Y-2.132
X3.0528Y-1.2246
X3.0856Y-2.8486
X3.0856Y-3.0818
X3.1189Y-0.9501
X3.1364Y-1.1908
X3.14Y-1.402
X3.1413Y-0.8618
X3.1855Y-2.349
X3.1855Y-2.782
X3.1878Y-2.5668
X3.198Y-0.7587
X3.2189Y-2.9485
X3.22Y-1.3999
X3.2232Y-0.8591
X3.2487Y-1.281
X3.2522Y-2.5821
X3.2522Y-3.0818
X3.2855Y-2.8486
X3.3188Y-3.2816
X3.3198Y-1.2712
X3.3303Y-0.9322
X3.3359Y-1.1735
X3.3854Y-2.782
X3.4187Y-2.5821
X3.452Y-2.8819
X3.4853Y-3.2816
X3.5186Y-2.7154
X3.525Y-2.14
X3.5519Y-2.9485
X3.5852Y-2.5821
X3.6185Y-1.2166
X3.6185Y-1.3831
X3.6185Y-2.782
X3.6518Y-1.5163
X3.6525Y-1.6902
X3.66Y-1.7528
X3.6852Y-2.6488
X3.6994Y-1.165
X3.7185Y-2.2158
X3.7185Y-2.9485
X3.7185Y-3.1484
X3.7518Y-0.7836
X3.7518Y-0.9501
X3.7518Y-2.7487
X3.7518Y-3.2816
X3.8184Y-2.2824
X3.8517Y-0.7169
X3.8517Y-0.8835
X3.8517Y-1.2499
X3.8517Y-2.6488
X3.8517Y-2.8153
X3.8517Y-3.0818
X3.885Y-2.1825
X3.9183Y-3.1817
X3.9516Y-1.0833
X3.9516Y-2.5821
X3.9849Y-1.2832
X3.9849Y-2.8486
X4.0182Y-0.7836
X4.0182Y-3.1151
X4.0515Y-2.6488
X4.0515Y-3.2816
X4.0848Y-2.9152
X4.1181Y-0.9501
X4.1181Y-1.7162
X4.1181Y-2.0159
X4.1515Y-0.7169
X4.1515Y-1.8827
X4.1517Y-2.3898
X4.1518Y-2.4263
X4.1646Y-1.2256
X4.1848Y-1.1166
X4.1848Y-3.1151
X4.2181Y-3.2816
X4.2492Y-2.6591
X4.2514Y-0.9168
X4.2756Y-2.9472
X4.2847Y-1.3165
X4.2848Y-2.4288
X4.2854Y-2.39
X4.3062Y-2.6802
X4.3065Y-2.7261
X4.318Y-0.8169
X4.3344Y-1.147
X4.3528Y-1.0881
X4.3846Y-0.7169
X4.3846Y-1.3831
X4.4177Y-2.6811
X4.4179Y-1.0167
X4.4512Y-3.0818
X4.4561Y-1.7809
X4.459Y-2.079
X4.4606Y-1.6417
X4.4742Y-1.8869
X4.478Y-1.991
X4.4819Y-2.9315
X4.4845Y-0.8502
X4.4845Y-1.1166
X4.4845Y-2.3157
X4.4953Y-1.5024
X4.5178Y-1.2832
X4.5178Y-3.1817
X4.5291Y-2.7252
X4.5323Y-2.485
X4.5331Y-2.7945
X4.5374Y-2.902
X4.5844Y-2.9818
X4.5844Y-3.2816
X4.5949Y-1.6106
X4.6178Y-0.8835
X4.6178Y-1.05
X4.6178Y-1.3498
X4.6344Y-1.4786
X4.6511Y-1.1832
X4.6511Y-3.0818
X4.6512Y-3.1669
X4.6539Y-2.3394
X4.6844Y-0.7169
X4.6844Y-1.4497
X4.6844Y-1.8494
X4.6882Y-2.2154
X4.7177Y-0.9501
X4.7177Y-1.2832
X4.7386Y-2.8925
X4.7421Y-2.8382
X4.7421Y-3.0335
X4.751Y-1.0833
X4.776Y-2.2453
X4.7843Y-0.8502
X4.7843Y-2.1825
X4.7843Y-3.1484
X4.8098Y-2.4224
X4.8509Y-1.1499
X4.8842Y-0.7169
X4.9175Y-0.8835
X4.9175Y-1.05
X4.9175Y-1.5829
X4.9175Y-2.6155
X4.9175Y-3.0484
X4.9175Y-3.215
X4.9268Y-2.272
X4.9732Y-2.2866
X4.9827Y-2.5035
X4.9841Y-1.1832
X4.9841Y-1.4164
X4.9841Y-2.7487
X4.9841Y-2.9485
X5.0169Y-2.3169
X5.0174Y-0.9501
X5.0174Y-1.6829
X5.0507Y-1.0833
X5.0507Y-1.916
X5.0507Y-2.0825
X5.0507Y-2.2491
X5.0507Y-2.8486
X5.0841Y-1.5829
X5.0841Y-2.5488
X5.1174Y-1.2166
X5.1174Y-2.6821
X5.1174Y-3.0818
X5.1507Y-0.7169
X5.1507Y-0.8835
X5.1507Y-3.3149
X1.7455Y-1.8855
X1.7455Y-1.917
X1.7455Y-1.9485
X1.7455Y-1.98
X1.7455Y-2.0115
X1.7455Y-2.043
X1.7455Y-2.0745
X1.777Y-1.8855
X1.777Y-1.917
X1.777Y-1.9485
X1.777Y-1.98
X1.777Y-2.0115
X1.777Y-2.043
X1.777Y-2.0745
X1.8085Y-1.8855
X1.8085Y-1.917
X1.8085Y-2.043
X1.8085Y-2.0745
X1.84Y-1.8855
X1.84Y-1.917
X1.84Y-2.043
X1.84Y-2.0745
X1.8715Y-1.8855
X1.8715Y-1.917
X1.8715Y-2.043
X1.8715Y-2.0745
X1.903Y-1.8855
X1.903Y-1.917
X1.903Y-1.9485
X1.903Y-1.98
X1.903Y-2.0115
X1.903Y-2.043
X1.903Y-2.0745
X1.9345Y-1.8855
X1.9345Y-1.917
X1.9345Y-1.9485
X1.9345Y-1.98
X1.9345Y-2.0115
X1.9345Y-2.043
X1.9345Y-2.0745
X2.9429Y-1.6594
X2.9429Y-1.6929
X2.9429Y-1.7264
X2.9429Y-1.7598
X2.9429Y-1.7933
X2.9429Y-1.8268
X2.9429Y-1.8602
X2.9764Y-1.6594
X2.9764Y-1.6929
X2.9764Y-1.7264
X2.9764Y-1.7598
X2.9764Y-1.7933
X2.9764Y-1.8268
X2.9764Y-1.8602
X3.0098Y-1.6594
X3.0098Y-1.6929
X3.0098Y-1.8268
X3.0098Y-1.8602
X3.0433Y-1.6594
X3.0433Y-1.6929
X3.0433Y-1.8268
X3.0433Y-1.8602
X3.0768Y-1.6594
X3.0768Y-1.6929
X3.0768Y-1.8268
X3.0768Y-1.8602
X3.1102Y-1.6594
X3.1102Y-1.6929
X3.1102Y-1.7264
X3.1102Y-1.7598
X3.1102Y-1.7933
X3.1102Y-1.8268
X3.1102Y-1.8602
X3.1437Y-1.6594
X3.1437Y-1.6929
X3.1437Y-1.7264
X3.1437Y-1.7598
X3.1437Y-1.7933
X3.1437Y-1.8268
X3.1437Y-1.8602
T2
X0.3502Y-1.9192
X0.5102Y-1.928
X0.8982Y-1.9803
X0.9414Y-1.9806
X0.9896Y-2.4232
X1.0083Y-1.0728
X1.0086Y-1.1172
X1.0092Y-1.1595
X1.0545Y-1.1628
X1.0557Y-1.0716
X1.0563Y-1.1148
X1.0928Y-2.2944
X1.0998Y-1.1628
X1.1007Y-1.071
X1.1013Y-1.1163
X1.1183Y-0.9045
X1.1183Y-0.9454
X1.1183Y-0.9864
X1.1256Y-1.3413
X1.128Y-2.6016
X1.1646Y-1.3695
X1.1655Y-1.3221
X1.1804Y-2.2945
X1.1832Y-2.3768
X1.2114Y-1.3722
X1.2117Y-1.3221
X1.2574Y-2.3915
X1.2669Y-1.7425
X1.287Y-1.8124
X1.344Y-2.7852
X1.347Y-1.0035
X1.3473Y-0.9555
X1.3491Y-0.9102
X1.3681Y-1.5252
X1.3909Y-1.1437
X1.3941Y-0.9558
X1.3947Y-0.9099
X1.3947Y-1.0989
X1.3956Y-1.0056
X1.3956Y-1.0533
X1.4083Y-1.4843
X1.4291Y-1.7181
X1.4886Y-2.9244
X1.5674Y-1.3109
X1.5768Y-1.4465
X1.5794Y-2.0905
X1.5814Y-2.035
X1.5954Y-1.5318
X1.6114Y-1.7418
X1.6316Y-1.789
X1.6322Y-1.3689
X1.6389Y-1.2438
X1.6432Y-1.8314
X1.65Y-1.61
X1.6549Y-2.3465
X1.6679Y-1.762
X1.677Y-1.9986
X1.6773Y-2.0436
X1.6785Y-1.9491
X1.6794Y-1.9056
X1.6799Y-1.859
X1.6814Y-1.8075
X1.71Y-2.22
X1.7118Y-1.4002
X1.7204Y-1.7976
X1.7299Y-1.6005
X1.7315Y-1.7517
X1.7448Y-1.5176
X1.782Y-2.9424
X1.79Y-2.22
X1.7924Y-1.6135
X1.8036Y-1.4904
X1.8039Y-1.74
X1.8139Y-1.0675
X1.84Y-2.22
X1.8604Y-1.5306
X1.8752Y-1.7652
X1.88Y-2.22
X1.9176Y-1.476
X1.9242Y-1.7648
X1.929Y-1.3251
X1.95Y-2.22
X1.9738Y-1.7642
X1.9904Y-1.7335
X2.01Y-2.1192
X2.01Y-2.22
X2.0104Y-2.02
X2.0106Y-2.07
X2.021Y-1.765
X2.0259Y-1.2396
X2.0464Y-2.0428
X2.0464Y-2.0932
X2.0466Y-2.136
X2.0519Y-1.7355
X2.0562Y-1.7976
X2.06Y-1.94
X2.06Y-2.17
X2.06Y-2.21
X2.0664Y-1.8995
X2.0919Y-1.839
X2.143Y-2.2624
X2.2228Y-2.5239
X2.232Y-2.6091
X2.253Y-1.9692
X2.257Y-1.7088
X2.2594Y-2.7108
X2.2614Y-2.3118
X2.3042Y-2.4954
X2.305Y-2.3254
X2.3226Y-2.8269
X2.3243Y-2.9596
X2.3333Y-1.2596
X2.3358Y-2.5302
X2.3697Y-1.2906
X2.3813Y-2.3281
X2.4066Y-1.3257
X2.4124Y-1.2564
X2.42Y-1.5626
X2.4627Y-2.4094
X2.4924Y-1.0942
X2.5137Y-2.1433
X2.557Y-1.797
X2.557Y-1.917
X2.5591Y-1.3386
X2.5609Y-2.1465
X2.5682Y-0.9904
X2.5694Y-0.9534
X2.6064Y-0.7906
X2.6136Y-1.2444
X2.6457Y-1.378
X2.6496Y-1.3425
X2.671Y-1.46
X2.671Y-1.512
X2.671Y-1.789
X2.671Y-2.055
X2.6721Y-1.8555
X2.6732Y-1.6614
X2.6732Y-1.6929
X2.6732Y-1.7283
X2.6732Y-2.2402
X2.6766Y-1.9392
X2.677Y-1.411
X2.677Y-1.61
X2.678Y-1.556
X2.689Y-2.133
X2.692Y-1.9014
X2.705Y-1.583
X2.7239Y-1.2507
X2.735Y-2.0542
X2.738Y-2.0104
X2.74Y-2.132
X2.752Y-1.39
X2.7538Y-0.7526
X2.7789Y-0.8805
X2.779Y-2.133
X2.7835Y-2.0591
X2.7874Y-1.5157
X2.7957Y-2.9398
X2.802Y-2.238
X2.8187Y-1.3928
X2.8386Y-1.6102
X2.8386Y-1.6811
X2.8386Y-1.7638
X2.8386Y-1.8386
X2.8386Y-1.9134
X2.8386Y-2.0
X2.839Y-2.133
X2.8504Y-0.7008
X2.8572Y-1.3909
X2.8898Y-1.5669
X2.8917Y-2.0
X2.895Y-2.133
X2.895Y-3.3258
X2.8979Y-1.3876
X2.9161Y-2.8634
X2.9291Y-1.9252
X2.933Y-2.132
X2.9449Y-2.0669
X2.9508Y-2.0
X2.9685Y-1.5669
X2.976Y-2.131
X2.9803Y-1.4764
X2.9803Y-2.0669
X2.9817Y-1.3952
X2.9961Y-2.6917
X3.0079Y-1.9252
X3.0118Y-2.0
X3.0276Y-0.7323
X3.033Y-0.8346
X3.0384Y-2.4681
X3.0472Y-1.5669
X3.0533Y-1.3939
X3.0728Y-2.0
X3.0837Y-2.2434
X3.0866Y-1.9252
X3.094Y-2.133
X3.103Y-1.567
X3.1061Y-1.3873
X3.128Y-2.0
X3.152Y-2.254
X3.1572Y-2.6688
X3.1614Y-1.9252
X3.1768Y-1.3914
X3.1791Y-2.0
X3.189Y-1.5669
X3.1909Y-2.0669
X3.2079Y-2.6685
X3.212Y-2.13
X3.2264Y-2.002
X3.2283Y-2.0669
X3.2441Y-1.622
X3.2441Y-1.689
X3.2441Y-1.7638
X3.2441Y-1.8425
X3.2441Y-1.9134
X3.2524Y-2.3854
X3.2559Y-2.6682
X3.26Y-2.13
X3.2638Y-2.0669
X3.2668Y-1.006
X3.2904Y-1.109
X3.2909Y-2.462
X3.3031Y-2.0669
X3.3105Y-1.3867
X3.315Y-2.0197
X3.3336Y-1.6226
X3.3345Y-1.7645
X3.3578Y-1.0028
X3.3633Y-1.3908
X3.366Y-2.133
X3.3661Y-1.4488
X3.3688Y-1.2848
X3.3795Y-1.854
X3.3994Y-1.8235
X3.4017Y-1.5512
X3.4019Y-1.9493
X3.4047Y-1.9039
X3.4055Y-2.0276
X3.4062Y-1.99
X3.4077Y-1.787
X3.4078Y-1.713
X3.4081Y-1.652
X3.4091Y-1.4726
X3.4104Y-1.5148
X3.4126Y-1.7505
X3.4213Y-2.2323
X3.427Y-1.3684
X3.4819Y-1.2902
X3.54Y-2.242
X3.5709Y-2.4724
X3.5744Y-1.1065
X3.634Y-2.049
X3.635Y-1.933
X3.635Y-2.001
X3.757Y-2.4646
X3.8209Y-2.5665
X3.848Y-2.4642
X3.8567Y-1.7677
X3.8574Y-2.1248
X3.8908Y-1.145
X3.9Y-2.5669
X3.9002Y-0.84
X3.902Y-2.7492
X3.9024Y-2.6689
X3.953Y-2.173
X3.9644Y-2.4628
X3.9751Y-2.0939
X3.9762Y-1.9452
X3.9764Y-1.6496
X3.9764Y-1.8504
X3.9764Y-1.9016
X3.9766Y-1.997
X4.0077Y-2.4588
X4.0118Y-1.2252
X4.0772Y-1.2894
X4.0787Y-1.6457
X4.0787Y-1.811
X4.0787Y-1.9449
X4.0953Y-1.4835
X4.1035Y-2.648
X4.122Y-1.6457
X4.1299Y-1.5118
X4.1339Y-2.1063
X4.1339Y-2.3575
X4.1524Y-2.4696
X4.1654Y-1.6378
X4.1654Y-2.1378
X4.1693Y-1.7244
X4.189Y-2.1063
X4.2205Y-1.6378
X4.2512Y-2.6945
X4.2624Y-1.6365
X4.264Y-2.3055
X4.3189Y-1.7323
X4.3267Y-2.4676
X4.3583Y-1.6417
X4.3736Y-2.6799
X4.3746Y-2.1361
X4.3976Y-2.474
X4.4134Y-1.4685
X4.4134Y-1.7323
X4.4173Y-1.6811
X4.4213Y-1.6417
X4.454Y-1.847
X4.4592Y-2.7914
X4.4713Y-2.5551
X4.4835Y-1.9449
X4.5264Y-2.2173
X4.5269Y-1.6175
X4.5274Y-2.178
X4.6657Y-2.0882
X4.6673Y-2.1831
X4.6772Y-1.9764
X4.7016Y-1.7727
X4.7466Y-1.7178
X4.7638Y-2.3547
X4.7913Y-1.898
T3
X4.089Y-2.7204
X4.089Y-2.7637
T4
X4.6Y-2.5689
X4.6Y-2.6689
X4.7Y-2.5689
X4.7Y-2.6689
X4.8Y-2.5689
X4.8Y-2.6689
X5.0Y-2.5689
X5.0Y-2.6689
X1.0309Y-1.413
X1.0309Y-1.713
X1.3309Y-1.413
X1.3309Y-1.713
T5
X3.2803Y-0.8
X3.2803Y-0.9
X3.3803Y-0.8
X3.3803Y-0.9
X3.4803Y-0.8
X3.4803Y-0.9
X3.5803Y-0.8
X3.5803Y-0.9
X3.6803Y-0.8
X3.6803Y-0.9
T6
X1.84Y-1.98
X0.5754Y-2.1093
X0.5754Y-2.1994
X0.5754Y-2.2896
X0.5754Y-2.3797
X0.5754Y-2.4699
X0.6754Y-2.1541
X0.6754Y-2.2443
X0.6754Y-2.3345
X0.6754Y-2.4246
X0.6754Y-2.5148
X0.7754Y-2.1093
X0.7754Y-2.1994
X0.7754Y-2.2896
X0.7754Y-2.3797
X0.7754Y-2.4699
X3.0433Y-1.7598
T7
X1.4632Y-1.2952
X1.51Y-1.346
T8
X4.5834Y-0.7264
X4.5834Y-1.2185
X4.7802Y-0.7264
X4.7802Y-1.2185
X4.08Y-0.7264
X4.08Y-1.2185
X4.2768Y-0.7264
X4.2768Y-1.2185
T9
X3.0142Y-3.0213
X3.0892Y-3.2213
X3.1642Y-3.0213
X3.2392Y-3.2213
X3.3142Y-3.0213
X3.3892Y-3.2213
X3.4642Y-3.0213
X3.5392Y-3.2213
X3.6142Y-3.0213
X3.6892Y-3.2213
X3.7642Y-3.0213
X3.8392Y-3.2213
X3.9142Y-3.0213
X3.9892Y-3.2213
X4.0642Y-3.0213
X4.1392Y-3.2213
X4.2142Y-3.0213
X4.2892Y-3.2213
X4.3642Y-3.0213
X4.4392Y-3.2213
X4.5142Y-3.0213
T10
X4.8976Y-1.8327
X4.8976Y-2.4035
X5.0925Y-1.8091
X5.0925Y-2.4272
T11
X4.5046Y-0.9724
X4.859Y-0.9724
X4.0012Y-0.9724
X4.3556Y-0.9724
T12
X1.4447Y-3.0542
X2.0353Y-3.0542
T13
X0.4042Y-1.5078
X0.5892Y-1.5078
X0.7743Y-1.5078
T14
X1.3253Y-3.3433
X2.1547Y-3.3433
T15
X0.9605Y-3.2195
X2.5195Y-3.2195
T16
X0.4382Y-3.2362
X0.4382Y-0.811
X5.0512Y-3.2362
X5.0512Y-0.811
T17
X0.6754Y-1.8077
X0.6754Y-2.7919
T6
G00X4.8346Y-1.5128
M15
G01X4.8346Y-1.4538
M16
G05
G00X5.0511Y-1.5128
M15
G01X5.0511Y-1.4538
M16
G05
G00X5.1456Y-1.4341
M15
G01X5.1456Y-1.375
M16
G05
G00X0.5985Y-1.0885
M15
G01X0.5985Y-1.1673
M16
G05
G00X0.6773Y-1.3129
M15
G01X0.756Y-1.3129
M16
G05
G00X0.8347Y-1.0885
M15
G01X0.8347Y-1.1673
M16
G05
G00X4.8349Y-3.0543
M15
G01X4.8349Y-2.9953
M16
G05
G00X5.0514Y-3.0543
M15
G01X5.0514Y-2.9953
M16
G05
G00X5.1459Y-2.9756
M15
G01X5.1459Y-2.9165
M16
G05
T8
G00X1.0018Y-3.0069
M15
G01X1.0018Y-3.0778
M16
G05
G00X1.1176Y-3.2195
M15
G01X1.1813Y-3.2195
M16
G05
G00X1.2971Y-3.0069
M15
G01X1.2971Y-3.0778
M16
G05
G00X1.5924Y-3.0069
M15
G01X1.5924Y-3.0778
M16
G05
G00X1.7081Y-3.2195
M15
G01X1.7719Y-3.2195
M16
G05
G00X1.8876Y-3.0069
M15
G01X1.8876Y-3.0778
M16
G05
G00X2.1829Y-3.0069
M15
G01X2.1829Y-3.0778
M16
G05
G00X2.2987Y-3.2195
M15
G01X2.3624Y-3.2195
M16
G05
G00X2.4782Y-3.0069
M15
G01X2.4782Y-3.0778
M16
G05
T0
M30
