<?xml version="1.0" encoding="UTF-8" standalone="no"?>
<!-- Created with Inkscape (http://www.inkscape.org/) -->
<svg xmlns:dc="http://purl.org/dc/elements/1.1/" xmlns:cc="http://creativecommons.org/ns#" xmlns:rdf="http://www.w3.org/1999/02/22-rdf-syntax-ns#" xmlns:svg="http://www.w3.org/2000/svg" xmlns="http://www.w3.org/2000/svg" xmlns:sodipodi="http://sodipodi.sourceforge.net/DTD/sodipodi-0.dtd" xmlns:inkscape="http://www.inkscape.org/namespaces/inkscape" width="153.88249" height="153.99048" id="svg2383" sodipodi:version="0.32" inkscape:version="0.46" sodipodi:docname="RoHS_ori.svg" inkscape:output_extension="org.inkscape.output.svg.inkscape" version="1.0">
  <defs id="defs2385">
    <inkscape:perspective sodipodi:type="inkscape:persp3d" inkscape:vp_x="0 : 526.18109 : 1" inkscape:vp_y="0 : 1000 : 0" inkscape:vp_z="744.09448 : 526.18109 : 1" inkscape:persp3d-origin="372.04724 : 350.78739 : 1" id="perspective2391"/>
    <inkscape:perspective id="perspective2706" inkscape:persp3d-origin="372.04724 : 350.78739 : 1" inkscape:vp_z="744.09448 : 526.18109 : 1" inkscape:vp_y="0 : 1000 : 0" inkscape:vp_x="0 : 526.18109 : 1" sodipodi:type="inkscape:persp3d"/>
  </defs>
  <sodipodi:namedview id="base" pagecolor="#ffffff" bordercolor="#666666" borderopacity="1.0" inkscape:pageopacity="0.0" inkscape:pageshadow="2" inkscape:zoom="3.6203867" inkscape:cx="128.3092" inkscape:cy="77.79455" inkscape:document-units="px" inkscape:current-layer="layer1" showgrid="false" inkscape:window-width="1920" inkscape:window-height="991" inkscape:window-x="0" inkscape:window-y="0"/>
  <metadata id="metadata2388">
    <rdf:RDF>
      <cc:Work rdf:about="">
        <dc:format>image/svg+xml</dc:format>
        <dc:type rdf:resource="http://purl.org/dc/dcmitype/StillImage"/>
      </cc:Work>
    </rdf:RDF>
  </metadata>
  <g inkscape:label="Calque 1" inkscape:groupmode="layer" id="layer1" transform="translate(-202.49238,-397.68383)">
    <g id="g2387">
      <path sodipodi:nodetypes="csssscccsssssssssssscc" id="path2756" d="M 270.1686,496.19119 C 265.46348,488.93243 264.16716,487.22534 260.33763,483.24512 C 258.886,481.73637 255.36919,478.4342 252.52251,475.90698 C 246.48085,470.54334 244.90532,469.06645 244.90532,468.76669 C 244.90532,468.24359 248.61296,464.97877 254.57317,460.2535 C 259.20668,456.58004 260.16319,455.96109 261.20655,455.96109 L 262.04752,455.96109 L 263.0721,458.35367 C 265.39127,463.76932 268.72407,471.1602 269.25264,472.0598 C 269.91868,473.19332 270.6404,473.54706 271.34507,473.08534 C 271.92684,472.70414 274.23434,468.18066 276.64313,462.69937 C 278.74675,457.91247 283.20716,448.96966 285.94636,444.04703 C 289.35788,437.91615 293.98186,430.69363 296.44075,427.65507 C 299.79649,423.50822 307.0894,416.86575 307.59473,417.36204 C 307.66859,417.43458 305.89481,418.49665 306.26871,418.15085 C 311.24203,413.55131 306.45907,427.44837 308.37495,442.7775 C 308.98188,447.63357 308.30667,447.89869 306.40966,449.51343 C 300.01796,454.9541 297.33427,457.7949 292.67733,464.04969 C 284.38095,475.19266 279.2961,483.37962 274.54923,493.23719 C 273.5886,495.23203 272.62817,497.10923 272.41491,497.40873 C 271.77276,498.31055 271.41757,498.11802 270.1686,496.19119 L 270.1686,496.19119 z" style="fill:#00aa00;fill-opacity:1"/>
      <path id="path2762" d="M 274.06814,551.57646 C 266.32368,550.84564 261.65433,549.93504 255.59132,547.97321 C 239.33056,542.71166 225.29225,532.15326 215.62555,517.91442 C 208.79591,507.85452 204.71411,497.12847 202.93521,484.56711 C 202.55563,481.88681 202.4984,480.64237 202.49268,474.94567 C 202.48598,468.27613 202.58451,466.85159 203.38908,461.98555 C 207.65614,436.17835 225.04612,414.12844 249.28304,403.79356 C 263.49424,397.73375 279.20792,396.13976 294.57595,399.19906 C 323.35265,404.9276 346.59841,426.94318 353.93249,455.41442 C 357.98085,471.13029 356.97572,487.80435 351.07146,502.87536 C 341.58458,527.09128 320.08349,545.11223 294.57595,550.22656 C 289.21704,551.30105 284.79591,551.71247 279.04861,551.67155 C 276.68533,551.65474 274.44411,551.61194 274.06814,551.57646 z M 286.66579,546.22333 C 307.87652,544.11187 327.12736,532.45269 339.05103,514.49646 C 351.31988,496.0204 354.15787,472.28435 346.61113,451.26625 C 341.23376,436.28992 331.21402,423.79288 317.58454,415.06301 C 314.4057,413.02691 308.09212,409.88281 304.53689,408.56539 C 278.21146,398.81029 248.9239,405.17541 229.14995,424.94936 C 212.55735,441.54196 205.25108,464.9958 209.4379,488.22692 C 211.34734,498.82168 215.9158,509.23228 222.50845,518.01208 C 224.85251,521.1338 225.82004,522.25467 228.72513,525.21401 C 240.97628,537.69395 256.74521,545.00591 274.45876,546.42046 C 277.10597,546.63185 283.61839,546.52669 286.66579,546.22333 L 286.66579,546.22333 z" style="fill:#00aa00;fill-opacity:1"/>
      <g transform="translate(-5.18103,-83.625709)" id="g2768">
        <path style="fill:#00aa00;fill-opacity:1" d="M 240.382,595.17221 L 240.382,580.60117 L 245.80192,580.69457 C 251.4831,580.79249 252.25463,580.8953 254.13325,581.80472 C 256.3394,582.8727 257.78337,584.96758 258.15466,587.63888 C 258.7261,591.75021 256.86777,594.77285 253.20193,595.69466 L 252.25233,595.93345 L 253.24261,596.40412 C 255.15629,597.31364 255.68829,598.11104 259.5034,605.78818 L 261.46885,609.74325 L 259.46664,609.74325 L 257.46441,609.74325 L 255.34314,605.2481 C 254.17644,602.77577 252.90302,600.29656 252.51332,599.73876 C 251.13063,597.7596 249.81345,597.25595 245.99723,597.24718 L 244.28825,597.24325 L 244.28825,603.49325 L 244.28825,609.74325 L 242.33512,609.74325 L 240.382,609.74325 L 240.382,595.17221 z M 250.25824,594.10319 C 251.85987,593.81244 252.95213,593.13129 253.60923,592.01345 C 254.10442,591.17103 254.15153,590.92129 254.15153,589.13779 C 254.15153,587.4166 254.09354,587.08137 253.66325,586.31488 C 253.02358,585.17542 251.77987,584.24653 250.53703,583.97999 C 249.99001,583.86267 248.36026,583.76669 246.91535,583.76669 L 244.28825,583.76669 L 244.28825,589.04013 L 244.28825,594.31357 L 246.69378,594.31357 C 248.01683,594.31357 249.62083,594.21889 250.25823,594.10319 L 250.25824,594.10319 z" id="path2758"/>
        <path style="fill:#00aa00;fill-opacity:1" d="M 270.42816,609.7689 C 268.96587,609.2883 268.1625,608.77236 267.08831,607.62395 C 265.35278,605.76854 264.61264,603.57741 264.4575,599.83566 C 264.24207,594.64002 265.42328,591.12732 268.06285,589.11405 C 270.58456,587.19069 275.5658,586.91822 278.377,588.54989 C 279.44633,589.17055 280.86383,590.72371 281.49162,591.96261 C 282.64108,594.23096 283.14375,597.77639 282.77797,601.03523 C 282.275,605.516 280.47469,608.34387 277.3453,609.56864 C 275.75948,610.18929 272.03532,610.2971 270.42816,609.7689 L 270.42816,609.7689 z M 276.12239,606.75346 C 277.28381,606.15824 278.17057,604.95306 278.71039,603.23613 C 279.30489,601.34525 279.35377,596.44595 278.79647,594.60654 C 277.9317,591.75235 276.24883,590.37285 273.63172,590.37285 C 271.51573,590.37285 270.21653,591.0968 269.18067,592.85308 C 267.73079,595.31131 267.63943,601.79333 269.01612,604.52638 C 269.6656,605.81574 270.95307,606.87003 272.31559,607.22829 C 273.27088,607.47947 275.16729,607.24293 276.12239,606.75346 L 276.12239,606.75346 z" id="path2760"/>
        <path style="fill:#00aa00;fill-opacity:1" d="M 288.42887,595.19247 L 288.42887,580.64169 L 290.28434,580.64169 L 292.13981,580.64169 L 292.13981,586.59872 L 292.13981,592.55575 L 297.70621,592.55575 L 303.27262,592.55575 L 303.27262,586.59872 L 303.27262,580.64169 L 305.12809,580.64169 L 306.98356,580.64169 L 306.98356,595.19247 L 306.98356,609.74325 L 305.13055,609.74325 L 303.27756,609.74325 L 303.22625,602.76083 L 303.17496,595.77841 L 297.70621,595.77841 L 292.23746,595.77841 L 292.18618,602.76083 L 292.13487,609.74325 L 290.28188,609.74325 L 288.42887,609.74325 L 288.42887,595.19247 z" id="path2764"/>
        <path style="fill:#00aa00;fill-opacity:1" d="M 317.33512,609.84247 C 316.63688,609.70238 315.34049,609.34743 314.45426,609.0537 L 312.84293,608.51963 L 312.84293,606.53945 L 312.84293,604.55926 L 314.94254,605.58007 C 320.127,608.10069 325.30758,607.60185 326.92778,604.426 C 327.78918,602.73753 327.56957,600.13455 326.45901,598.86969 C 325.58592,597.87534 324.36139,597.34364 321.11911,596.55112 C 317.86731,595.75628 315.81887,594.90256 314.66743,593.86229 C 311.68907,591.17152 311.83955,585.71471 314.97455,582.72441 C 316.90948,580.87881 318.72129,580.23767 322.02262,580.23034 C 324.14348,580.22564 326.09526,580.54581 328.22379,581.24762 L 329.4445,581.65011 L 329.4445,583.50592 C 329.4445,584.52663 329.37858,585.33245 329.29801,585.29664 C 329.21745,585.26084 328.56231,584.94333 327.84213,584.59107 C 322.81137,582.13038 317.34692,583.06865 316.36911,586.56104 C 316.02364,587.79494 316.19774,589.61272 316.74643,590.50052 C 317.32112,591.43036 319.33858,592.37061 322.15123,593.01946 C 327.04043,594.14734 329.10479,595.43026 330.36202,598.12216 C 330.87338,599.2171 330.90934,599.46073 330.90934,601.8331 C 330.90934,604.29857 330.89104,604.40956 330.27795,605.66253 C 329.21407,607.8368 327.24002,609.29031 324.58729,609.85258 C 322.98452,610.1923 319.05149,610.18682 317.33512,609.84247 L 317.33512,609.84247 z" id="path2766"/>
      </g>
    </g>
  </g>
</svg>