<?xml version="1.0" encoding="UTF-8"?>
<!-- Generator: Adobe Illustrator 13.0.0, SVG Export Plug-In . SVG Version: 6.00 Build 14948)  -->
<!DOCTYPE svg PUBLIC "-//W3C//DTD SVG 1.1//EN" "http://www.w3.org/Graphics/SVG/1.1/DTD/svg11.dtd">
<svg version="1.1" id="Foreground" xmlns="http://www.w3.org/2000/svg" xmlns:xlink="http://www.w3.org/1999/xlink" x="0px" y="0px" width="420.487px" height="597.04px" viewBox="0 0 420.487 597.04" enable-background="new 0 0 420.487 597.04" xml:space="preserve">
<path d="M236.379,48.548h-34.999v5.502h34.999V48.548z M136.377,65.629c-5.415,2.942-9.624,6.535-11.948,10.919h11.948V65.629z   M318.088,117.987l-13.185,13.43l-0.637,6.83h15.825v-20.26H318.088z M199.088,225.298l-68.126-71.864L142.13,283.26  L199.088,225.298z M212.563,225.475l65.129,68.592l13.516-145.03h-1.333v-2.314L212.563,225.475z M129.647,138.151l76.208,80.26  l45.077-45.87h-63.552v-24h73.501v13.875l28.994-29.504v-25.715h5.232l1.691-18.151H125.423L129.647,138.151z M313.64,346.135  c0.314,1.874,0.478,3.799,0.478,5.763c0,19.089-15.474,34.562-34.562,34.562c-13.255,0-24.768-7.461-30.566-18.413h-84.52v18.055  h-22.237v-18.101c-2.604-0.366-5.102-2.842-5.325-5.439l-4.748-55.187L14.359,427.368l-7.042-6.92L131.055,294.53l-13.339-155.069  L0,15.286V1.611l116.403,122.592l-3.067-35.654H98.88v-12h12.719c0.219-0.674,0.509-1.462,0.89-2.342  c4.229-9.775,12.964-16.763,23.889-21.734v-7.931h20.505v1.227c10.683-2.455,21.978-3.79,32.499-4.468v-4.752h58.999V66.05h-58.999  V53.588c-10.451,0.781-21.987,2.208-32.499,4.709v18.252h139.444c-5.472-12.912-26.749-18.958-47.947-21.699V42.631  c21.275,2.637,43.143,8.586,54.121,21.438c2.929-3.729,7.48-6.125,12.59-6.125c8.837,0,16,7.163,16,16c0,8.836-7.163,16-16,16  c-2.2,0-4.297-0.444-6.205-1.248l-1.725,18.5h7.986L420.487,0v13.682l-91.805,93.513h1.911v41.842h-27.331l-14.594,156.588  L396.623,419.32l-7.162,6.797L313.64,346.135z M244.992,351.898c0-17.718,13.331-32.322,30.51-34.328l0.99-10.621l-70.699-74.578  l-62.56,63.724l5.157,59.953h96.848C245.076,354.687,244.992,353.302,244.992,351.898z M261.58,351.898  c0,9.927,8.047,17.975,17.975,17.975c9.927,0,17.975-8.048,17.975-17.975c0-9.928-8.048-17.975-17.975-17.975  C269.627,333.923,261.58,341.97,261.58,351.898z M267.881,351.898c0-6.447,5.227-11.674,11.674-11.674s11.674,5.227,11.674,11.674  s-5.227,11.673-11.674,11.673S267.881,358.345,267.881,351.898z M33.878,512.379h347.673v84.661H33.878V512.379z"/>
</svg>